<svg width="260" height="60" viewBox="0 0 260 60" fill="none" xmlns="http://www.w3.org/2000/svg">
<path d="M6.29098 26.8142V27.8841C6.29098 28.1871 6.09688 28.3764 5.79862 28.3764H4.8944C4.59142 28.3764 4.39258 28.1871 4.39258 27.8841V26.8142C4.39258 26.5112 4.58668 26.3076 4.8944 26.3076H5.79862C6.09688 26.3076 6.29098 26.5112 6.29098 26.8142Z" fill="#002F87"/>
<path d="M8.73351 26.8142V27.8841C8.73351 28.1871 8.5394 28.3764 8.23168 28.3764H7.33219C7.02921 28.3764 6.83984 28.1871 6.83984 27.8841V26.8142C6.83984 26.5112 7.02921 26.3076 7.33219 26.3076H8.23168C8.53467 26.3076 8.73351 26.5112 8.73351 26.8142Z" fill="#002F87"/>
<path d="M32.102 14.1651V20.3384C32.102 21.1148 31.8606 21.7539 31.3872 22.2274C30.8995 22.696 30.2652 22.9233 29.4982 22.9233H28.5845C27.7371 22.9233 27.0554 22.7292 26.5536 22.3221C26.0944 22.7197 25.4979 22.9233 24.7735 22.9233H23.874C23.0172 22.9233 22.3307 22.7197 21.8384 22.3221C21.3791 22.7292 20.7826 22.9233 20.0678 22.9233H18.6333V22.9375H15.3999C15.1585 22.9375 14.9312 22.8475 14.7513 22.6676C14.5667 22.4783 14.472 22.2558 14.472 22.0049V16.6221C14.472 16.2244 14.3347 15.8836 14.0459 15.5948C13.7619 15.3108 13.4258 15.1735 13.0234 15.1735C12.621 15.1735 12.2848 15.3108 12.0008 15.5995C11.7167 15.8836 11.5747 16.2197 11.5747 16.6221V24.1494C11.5747 24.4003 11.4848 24.6229 11.3049 24.798C11.1202 24.9826 10.9072 25.0773 10.6468 25.0773H4.22255C3.10056 25.0773 2.11112 24.6655 1.28737 23.8465C0.46363 23.0274 0.0517578 22.0191 0.0517578 20.8639C0.0517578 20.0591 0.269531 19.3017 0.686137 18.6105C1.11221 17.9145 1.68504 17.3749 2.39517 17.0151L2.7739 16.821C2.91592 16.7547 3.04375 16.7547 3.17157 16.802C3.28046 16.8352 3.38934 16.9156 3.45088 17.0435L3.83435 17.8009C3.87696 17.8814 3.8959 17.9714 3.8959 18.0518C3.8959 18.1513 3.86275 18.3501 3.61184 18.4732L3.23311 18.6673C2.82598 18.8708 2.50405 19.1738 2.25788 19.5715C2.01644 19.9692 1.89335 20.4047 1.89335 20.8639C1.89335 21.522 2.12532 22.0664 2.58927 22.5351C3.05795 23.0038 3.60238 23.2263 4.26043 23.2263H9.72365V16.6269C9.72365 15.7226 10.0503 14.9368 10.6894 14.2929C11.3238 13.6491 12.1097 13.3271 13.0139 13.3271C13.9181 13.3271 14.6992 13.6538 15.3478 14.2929C15.9822 14.9368 16.3136 15.7179 16.3136 16.6269V21.0817H20.1435C20.366 21.077 20.527 21.0154 20.6311 20.9207C20.7306 20.8119 20.7921 20.6178 20.7921 20.3526V14.1698C20.7921 13.8716 20.9862 13.6775 21.2845 13.6775H22.1366C22.4396 13.6775 22.6384 13.8716 22.6384 14.1698V20.5893C22.6384 20.7266 22.6668 20.8213 22.7189 20.8687C22.7994 20.9586 23.0077 21.077 23.6326 21.0864H24.7972C25.0529 21.0864 25.228 21.0344 25.3322 20.9302C25.4553 20.8071 25.5168 20.6178 25.5168 20.3479V14.6669C25.5168 14.3639 25.7062 14.1746 26.0091 14.1746H26.866C27.1643 14.1746 27.3584 14.3639 27.3584 14.6669V20.5893C27.3584 20.7172 27.3868 20.8213 27.4483 20.8876C27.5146 20.9491 27.7324 21.077 28.3431 21.0817H29.4935C29.7633 21.0817 29.9527 21.0296 30.0616 20.9207C30.1752 20.8071 30.232 20.6178 30.232 20.3479V14.1746C30.232 13.8763 30.4261 13.6822 30.7244 13.6822H31.5813C31.8937 13.6822 32.0878 13.8763 32.0878 14.1746L32.102 14.1651Z" fill="#002F87"/>
<path d="M28.6269 10.4386V11.5228C28.6269 11.821 28.4233 12.0151 28.1204 12.0151H27.2209C26.9179 12.0151 26.7285 11.821 26.7285 11.5228V10.4386C26.7285 10.1404 26.9179 9.94629 27.2209 9.94629H28.1204C28.4233 9.94629 28.6269 10.1404 28.6269 10.4386Z" fill="#002F87"/>
<path d="M25.6826 9.94629H24.7736C24.5017 9.94629 24.2812 10.1667 24.2812 10.4386V11.5228C24.2812 11.7947 24.5017 12.0151 24.7736 12.0151H25.6826C25.9545 12.0151 26.1749 11.7947 26.1749 11.5228V10.4386C26.1749 10.1667 25.9545 9.94629 25.6826 9.94629Z" fill="#002F87"/>
<path d="M26.9082 7.66504H25.9992C25.7273 7.66504 25.5068 7.88548 25.5068 8.1574V9.23678C25.5068 9.5087 25.7273 9.72913 25.9992 9.72913H26.9082C27.1801 9.72913 27.4005 9.5087 27.4005 9.23678V8.1574C27.4005 7.88548 27.1801 7.66504 26.9082 7.66504Z" fill="#002F87"/>
<path d="M73.7721 10.4386V11.5228C73.7721 11.821 73.578 12.0151 73.2798 12.0151H72.3661C72.0631 12.0151 71.8643 11.821 71.8643 11.5228V10.4386C71.8643 10.1404 72.0584 9.94629 72.3661 9.94629H73.2798C73.578 9.94629 73.7721 10.1404 73.7721 10.4386Z" fill="#002F87"/>
<path d="M76.2005 10.4386V11.5228C76.2005 11.821 76.0064 12.0151 75.6986 12.0151H74.8039C74.5009 12.0151 74.3115 11.821 74.3115 11.5228V10.4386C74.3115 10.1404 74.5009 9.94629 74.8039 9.94629H75.6986C76.0016 9.94629 76.2005 10.1404 76.2005 10.4386Z" fill="#002F87"/>
<path d="M81.7158 10.4386V11.5228C81.7158 11.821 81.5122 12.0151 81.2092 12.0151H80.3097C80.0068 12.0151 79.8174 11.821 79.8174 11.5228V10.4386C79.8174 10.1404 80.0068 9.94629 80.3097 9.94629H81.2092C81.5122 9.94629 81.7158 10.1404 81.7158 10.4386Z" fill="#002F87"/>
<path d="M104.563 9.69646V22.4313C104.563 22.7343 104.374 22.9237 104.075 22.9237H103.209C102.911 22.9237 102.717 22.7343 102.717 22.4313V9.69646C102.717 9.39821 102.911 9.2041 103.209 9.2041H104.075C104.374 9.2041 104.563 9.39821 104.563 9.69646Z" fill="#002F87"/>
<path d="M99.7818 9.19922H98.9249C98.6267 9.19922 98.4326 9.39332 98.4326 9.70577V20.3434C98.4326 20.6085 98.371 20.8026 98.2621 20.9163C98.1722 21.0109 98.0207 21.063 97.8077 21.0772H96.2738L95.166 21.0725C94.5979 21.0725 94.3612 20.9589 94.2618 20.8547C94.2097 20.8074 94.1813 20.7127 94.1813 20.5754V17.7965C94.1813 16.5656 93.7363 15.4957 92.8605 14.6293C91.9941 13.7582 90.9242 13.3085 89.6933 13.3085C87.8612 13.3085 86.4315 13.9997 85.461 15.3442L85.1959 15.7182C85.1485 15.7986 85.1201 15.8886 85.1201 15.9833V16.0732C85.1485 16.201 85.2148 16.3099 85.3284 16.3999L86.0101 16.878C86.1096 16.9585 86.2137 16.9916 86.3226 16.9916C86.4315 16.9916 86.5877 16.9585 86.7155 16.7739L86.9664 16.4235C87.5677 15.5714 88.4624 15.1643 89.6933 15.1643C90.4318 15.1643 91.0378 15.4152 91.5586 15.9359C92.0746 16.4519 92.3208 17.0579 92.3208 17.7965V19.5528C92.3208 20.0925 92.2071 20.4855 91.9752 20.7174C91.7385 20.9541 91.3455 21.0678 90.8058 21.0678H82.6773C82.0666 21.0678 81.8441 20.9399 81.7636 20.8594C81.702 20.7979 81.6878 20.6701 81.6878 20.5754V14.1795C81.6878 13.8671 81.4843 13.673 81.1813 13.673H80.3339C80.0309 13.673 79.8321 13.8671 79.8321 14.1795V20.3292C79.8321 20.6085 79.78 20.8026 79.6616 20.9115C79.5622 21.0204 79.3776 21.0725 79.1361 21.0725H75.9453C75.3346 21.0725 75.1216 20.9447 75.0411 20.8547C74.989 20.8074 74.9606 20.7127 74.9606 20.5754V14.1795C74.9606 13.8671 74.7665 13.673 74.4682 13.673H73.6114C73.3131 13.673 73.1237 13.8671 73.1237 14.1795V20.3292C73.1237 20.5991 73.0622 20.7979 72.9391 20.9115C72.8397 21.0204 72.6551 21.0725 72.4136 21.0725H42.5127V17.4319C42.5127 16.2957 42.1055 15.3205 41.3007 14.5251C40.5007 13.7203 39.5207 13.3132 38.3987 13.3132C37.2767 13.3132 36.2873 13.7203 35.4825 14.5251C34.6776 15.3252 34.2705 16.2957 34.2705 17.4319V18.8048C34.2705 19.9363 34.6776 20.9163 35.4825 21.7211C36.2873 22.5211 37.2625 22.9188 38.3987 22.9188H40.6664C40.6522 23.4443 40.4628 23.8988 40.0699 24.2917C39.6722 24.6989 39.2035 24.8882 38.6543 24.8882H36.7559C36.4577 24.8882 36.2683 25.0823 36.2683 25.39V26.2422C36.2683 26.5452 36.4577 26.744 36.7559 26.744H38.6543C39.6959 26.744 40.6095 26.3605 41.367 25.5936C42.1197 24.8409 42.5032 23.9414 42.5079 22.9235H72.3805C73.0953 22.9235 73.6871 22.7294 74.1369 22.327C74.6103 22.7105 75.2683 22.9093 76.0968 22.9235H79.0935C79.8036 22.9235 80.3907 22.7342 80.8594 22.3223C81.3328 22.7058 81.9908 22.9093 82.8193 22.9235H90.8011C91.7811 22.9235 92.5669 22.6584 93.1492 22.1377L93.1918 22.1803C93.6795 22.6584 94.3943 22.9093 95.3175 22.9235H97.6893C98.4515 22.9235 99.0811 22.6916 99.564 22.2276C100.037 21.7542 100.274 21.1246 100.274 20.3387V9.70577C100.274 9.39332 100.08 9.19922 99.7818 9.19922ZM40.6664 21.0772H38.3987C37.7643 21.0772 37.2341 20.8595 36.7891 20.4144C36.3441 19.96 36.1216 19.4392 36.1216 18.8096V17.4367C36.1216 16.8023 36.3441 16.2815 36.7891 15.8318C37.2341 15.3868 37.7643 15.169 38.3987 15.169C39.0331 15.169 39.5491 15.3868 39.9941 15.8318C40.4486 16.2768 40.6616 16.7975 40.6616 17.4367V21.0772H40.6664Z" fill="#002F87"/>
<path d="M115.845 12.1154V13.1048C115.845 13.4031 115.651 13.5972 115.352 13.5972H114.439C114.136 13.5972 113.946 13.4031 113.946 13.1048V12.1154C113.946 11.8172 114.136 11.623 114.439 11.623H115.352C115.651 11.623 115.845 11.8172 115.845 12.1154Z" fill="#002F87"/>
<path d="M119.357 14.1843V21.9294C119.357 23.094 118.945 24.0929 118.122 24.9166C117.303 25.7356 116.304 26.1475 115.144 26.1475C113.984 26.1475 112.98 25.7356 112.161 24.9166C111.342 24.0929 110.926 23.0892 110.926 21.9294V17.6166C110.926 17.3183 111.12 17.1242 111.418 17.1242H112.275C112.578 17.1242 112.767 17.3183 112.767 17.6166V21.9294C112.767 22.5922 112.999 23.1413 113.463 23.6147C113.932 24.0834 114.476 24.3059 115.139 24.3059C115.802 24.3059 116.342 24.0834 116.81 23.6147C117.279 23.1413 117.506 22.5922 117.506 21.9294V14.1843C117.506 13.8718 117.7 13.6777 117.999 13.6777H118.851C119.154 13.6777 119.353 13.8718 119.353 14.1843H119.357Z" fill="#002F87"/>
<path d="M158.301 9.94629H157.392C157.12 9.94629 156.899 10.1667 156.899 10.4386V11.5228C156.899 11.7947 157.12 12.0151 157.392 12.0151H158.301C158.573 12.0151 158.793 11.7947 158.793 11.5228V10.4386C158.793 10.1667 158.573 9.94629 158.301 9.94629Z" fill="#002F87"/>
<path d="M163.684 22.918L163.774 22.9227C163.745 22.9227 163.712 22.9227 163.684 22.918Z" fill="#002F87"/>
<path d="M173.715 14.5292C172.915 13.7244 171.935 13.3173 170.799 13.3173C169.663 13.3173 168.688 13.7244 167.892 14.5292C167.092 15.3293 166.69 16.2998 166.69 17.436V21.0765H163.532C163.172 21.0765 162.917 20.9866 162.732 20.8067C162.609 20.6931 162.548 20.5369 162.548 20.3333V17.8052C162.548 16.4607 162.183 15.3719 161.463 14.5671C160.739 13.7433 159.759 13.322 158.547 13.322C157.264 13.322 155.773 14.0747 154.097 15.5423V14.4203C154.097 14.1221 153.903 13.928 153.595 13.928H152.743C152.44 13.928 152.241 14.1221 152.241 14.4203V21.0813H124.343C124.101 21.0813 123.917 21.0292 123.803 20.9203C123.694 20.8114 123.642 20.6173 123.642 20.3475V9.71457C123.642 9.40211 123.448 9.20801 123.14 9.20801H122.288C121.99 9.20801 121.796 9.40211 121.796 9.71457V20.3475C121.796 21.1381 122.033 21.7725 122.506 22.2364C122.975 22.7051 123.6 22.9323 124.371 22.9323H159.182C160.204 22.9323 161.023 22.6483 161.61 22.0755C161.624 22.0944 161.643 22.1181 161.662 22.1417C162.178 22.6483 162.86 22.9134 163.679 22.9276C163.707 22.9323 163.741 22.9323 163.769 22.9323H170.794C171.931 22.9323 172.911 22.5252 173.711 21.7299C174.515 20.9251 174.923 19.9498 174.923 18.8231V17.4502C174.923 16.314 174.515 15.3387 173.711 14.5434L173.715 14.5292ZM160.706 19.5616C160.706 20.1013 160.592 20.4942 160.356 20.7262C160.119 20.9629 159.726 21.0765 159.186 21.0765H154.102V18.0183C154.641 17.3602 155.366 16.7117 156.246 16.1057C157.141 15.4855 157.908 15.1731 158.552 15.1731C159.409 15.1731 160.005 15.5092 160.365 16.2193C160.597 16.6643 160.711 17.1945 160.711 17.8005V19.5569L160.706 19.5616ZM173.076 18.8089C173.076 19.4385 172.859 19.9593 172.409 20.4138C171.964 20.8588 171.434 21.0765 170.799 21.0765H168.532V17.436C168.532 16.8016 168.754 16.2808 169.199 15.8311C169.644 15.3861 170.165 15.1683 170.794 15.1683C171.424 15.1683 171.959 15.3861 172.404 15.8311C172.859 16.2761 173.072 16.7969 173.072 17.436V18.8089H173.076Z" fill="#002F87"/>
<path d="M180.092 14.1836V23.3679C180.092 24.4094 179.789 25.2426 179.193 25.8344C178.591 26.4356 177.758 26.7386 176.717 26.7386H175.803C175.505 26.7386 175.311 26.535 175.311 26.232V25.3846C175.311 25.0722 175.505 24.8781 175.803 24.8781H176.717C177.256 24.8781 177.659 24.7645 177.886 24.5325C178.123 24.2958 178.246 23.9028 178.246 23.3631V14.1789C178.246 13.8759 178.435 13.6865 178.724 13.6865H179.595C179.893 13.6865 180.087 13.8759 180.087 14.1789L180.092 14.1836Z" fill="#002F87"/>
<path d="M5.23125 38.0343C5.23125 37.3763 5.00874 36.7892 4.56373 36.2969C4.18026 35.8661 3.70685 35.5915 3.15768 35.4779V35.4258H1.04152C0.757468 35.4258 0.516023 35.5252 0.302986 35.7288C0.108885 35.9229 0 36.1738 0 36.4673V43.7863C0 44.023 0.160962 44.184 0.407138 44.184H0.942097C1.18354 44.184 1.34923 44.023 1.34923 43.7863V40.8464H3.07247C3.30444 40.8464 3.48434 40.9221 3.6453 41.0831C3.80627 41.2441 3.88201 41.4334 3.88201 41.6559V43.7863C3.88201 44.023 4.04297 44.184 4.28915 44.184H4.82411C5.07502 44.184 5.23598 44.023 5.23598 43.7863V41.6559C5.23598 41.0831 5.03241 40.5813 4.63948 40.1741C5.03241 39.767 5.23598 39.2747 5.23598 38.6924V38.0343H5.23125ZM3.87728 38.0343V38.6924C3.87728 38.9149 3.80153 39.0995 3.64057 39.2605C3.47961 39.4167 3.29498 39.4972 3.06774 39.4972H1.3445V36.7655H2.61799C2.96832 36.7655 3.26184 36.8886 3.51275 37.1443C3.76366 37.3952 3.88674 37.684 3.88674 38.039L3.87728 38.0343Z" fill="#002F87"/>
<path d="M13.7057 36.188C13.1991 35.6814 12.5742 35.4258 11.8594 35.4258C11.1445 35.4258 10.5196 35.6814 10.0083 36.188C9.50174 36.6945 9.24609 37.3194 9.24609 38.0343V43.7816C9.24609 44.0183 9.40706 44.1792 9.65323 44.1792H10.1882C10.4296 44.1792 10.5953 44.0183 10.5953 43.7816V40.9221H13.1328V43.7816C13.1328 44.0183 13.2938 44.1792 13.5447 44.1792H14.0702C14.3116 44.1792 14.4821 44.0183 14.4821 43.7816V38.0343C14.4821 37.3194 14.217 36.6945 13.7104 36.188H13.7057ZM12.7541 37.1395C13.005 37.3905 13.1281 37.6792 13.1281 38.0343V39.5776H10.5906V38.0343C10.5906 37.684 10.7137 37.3905 10.9646 37.1395C11.4664 36.633 12.2476 36.6235 12.7588 37.1395H12.7541Z" fill="#002F87"/>
<path d="M26.9474 37.8691V43.7726C26.9474 44.0141 26.7864 44.1798 26.5403 44.1798H26.0148C25.7733 44.1798 25.6076 44.0188 25.6076 43.7726V37.8691C25.6076 37.5567 25.4987 37.3058 25.2762 37.0927C25.0585 36.8702 24.8076 36.7661 24.4998 36.7661C24.23 36.7661 23.998 36.8087 23.8039 36.9034C23.5246 37.0312 23.392 37.249 23.392 37.5709V43.7726C23.392 44.0141 23.2311 44.1798 22.9849 44.1798H22.4499C22.2132 44.1798 22.0523 44.0188 22.0523 43.7726V37.5709C22.0523 37.2442 21.915 37.0312 21.6309 36.8939C21.4368 36.804 21.2049 36.7661 20.935 36.7661C20.632 36.7661 20.3717 36.8655 20.1586 37.0833C19.9361 37.3058 19.8272 37.5567 19.8272 37.8691V43.7726C19.8272 44.0141 19.6663 44.1798 19.4296 44.1798H18.8899C18.6532 44.1798 18.4922 44.0188 18.4922 43.7726V37.8691C18.4922 37.1922 18.7289 36.6099 19.207 36.1364C19.6805 35.6583 20.2628 35.4121 20.9398 35.4121C21.683 35.4121 22.2795 35.6157 22.7198 36.0228C23.1743 35.6157 23.766 35.4121 24.5046 35.4121C25.1721 35.4121 25.7639 35.6536 26.2373 36.1364C26.7154 36.6146 26.9521 37.1969 26.9521 37.8691H26.9474Z" fill="#002F87"/>
<path d="M35.43 36.188C34.9234 35.6814 34.2985 35.4258 33.5789 35.4258C32.8593 35.4258 32.2392 35.6814 31.7326 36.188C31.2261 36.6945 30.9609 37.3194 30.9609 38.0343V43.7816C30.9609 44.0183 31.1219 44.1792 31.3681 44.1792H31.903C32.1445 44.1792 32.3102 44.0183 32.3102 43.7816V40.9221H34.8477V43.7816C34.8477 44.0183 35.0181 44.1792 35.2596 44.1792H35.785C36.036 44.1792 36.1969 44.0183 36.1969 43.7816V38.0343C36.1969 37.3194 35.9413 36.6945 35.4347 36.188H35.43ZM34.469 37.1395C34.7199 37.3905 34.8429 37.6792 34.8429 38.0343V39.5776H32.3054V38.0343C32.3054 37.684 32.4285 37.3905 32.6842 37.1395C33.1765 36.633 33.9671 36.6235 34.469 37.1395Z" fill="#002F87"/>
<path d="M44.7762 36.2975C44.3832 35.8667 43.9098 35.5922 43.3607 35.4785V35.417H41.2492C40.9652 35.417 40.7143 35.5259 40.5107 35.72C40.3071 35.9235 40.1982 36.1745 40.1982 36.4632V43.1431C40.1982 43.4272 40.2977 43.6686 40.5107 43.8817C40.7143 44.0852 40.9652 44.1799 41.2492 44.1799H42.8162C43.5311 44.1799 44.156 43.9243 44.6626 43.4177C45.1691 42.9112 45.4342 42.2863 45.4342 41.5714V38.035C45.4342 37.3722 45.2117 36.7899 44.7714 36.2975H44.7762ZM42.821 42.8402H41.557V36.7662H42.821C43.1713 36.7662 43.4695 36.8893 43.7205 37.1308C43.9714 37.3817 44.0945 37.6799 44.0945 38.0303V41.5667C44.0945 41.917 43.9714 42.2152 43.7205 42.4614C43.4695 42.7171 43.1713 42.8402 42.821 42.8402Z" fill="#002F87"/>
<path d="M54.9874 35.8289V43.7775C54.9874 44.019 54.8169 44.1847 54.5755 44.1847H54.05C53.7991 44.1847 53.6381 44.0237 53.6381 43.7775V40.3879H50.7976V43.7775C50.7976 44.019 50.6272 44.1847 50.3858 44.1847H49.8603C49.6188 44.1847 49.4531 44.0237 49.4531 43.7775V35.8289C49.4531 35.5874 49.6141 35.417 49.8603 35.417H50.3858C50.6272 35.417 50.7976 35.5874 50.7976 35.8289V39.0434H53.6381V35.8289C53.6381 35.5874 53.7991 35.417 54.05 35.417H54.5755C54.8169 35.417 54.9874 35.5874 54.9874 35.8289Z" fill="#002F87"/>
<path d="M63.4615 36.188C62.955 35.6814 62.3301 35.4258 61.6105 35.4258C60.8909 35.4258 60.2707 35.6814 59.7642 36.188C59.2576 36.6945 59.002 37.3194 59.002 38.0343V43.7816C59.002 44.0183 59.1629 44.1792 59.3996 44.1792H59.9393C60.1808 44.1792 60.3465 44.0183 60.3465 43.7816V40.9221H62.884V43.7816C62.884 44.0183 63.0449 44.1792 63.2911 44.1792H63.8261C64.0675 44.1792 64.2332 44.0183 64.2332 43.7816V38.0343C64.2332 37.3194 63.9776 36.6945 63.471 36.188H63.4615ZM62.51 37.1395C62.7609 37.3905 62.884 37.6792 62.884 38.0343V39.5776H60.3465V38.0343C60.3465 37.684 60.4695 37.3905 60.7205 37.1395C61.2128 36.633 62.0034 36.6235 62.5147 37.1395H62.51Z" fill="#002F87"/>
<path d="M74.5159 35.828V43.5116C74.5159 43.8288 74.3408 44.0655 74.0283 44.1554C73.9668 44.1744 73.9052 44.1838 73.8342 44.1838C73.6022 44.1838 73.4081 44.0844 73.2803 43.895L69.5877 38.3277V43.7862C69.5877 44.0229 69.4267 44.1838 69.1805 44.1838H68.655C68.4136 44.1838 68.2432 44.0229 68.2432 43.7862V36.0979C68.2432 35.7807 68.4183 35.544 68.7213 35.454C68.8018 35.4351 68.8681 35.4209 68.9391 35.4209C69.0953 35.4209 69.3131 35.473 69.4788 35.7239L73.1667 41.2818V35.8328C73.1667 35.5913 73.3276 35.4209 73.5738 35.4209H74.1088C74.3502 35.4209 74.5207 35.5913 74.5207 35.8328L74.5159 35.828Z" fill="#002F87"/>
<path d="M88.8929 36.188C88.3769 35.6814 87.7567 35.4258 87.0418 35.4258C86.327 35.4258 85.7021 35.6814 85.1955 36.188C84.6889 36.6945 84.4238 37.3194 84.4238 38.0343V43.7816C84.4238 44.0183 84.5848 44.1792 84.831 44.1792H85.3659C85.6074 44.1792 85.7731 44.0183 85.7731 43.7816V40.9221H88.3106V43.7816C88.3106 44.0183 88.481 44.1792 88.7224 44.1792H89.2479C89.4988 44.1792 89.6598 44.0183 89.6598 43.7816V38.0343C89.6598 37.3194 89.4042 36.6945 88.8976 36.188H88.8929ZM87.9318 37.1395C88.1828 37.3905 88.3058 37.6792 88.3058 38.0343V39.5776H85.7683V38.0343C85.7683 37.684 85.8914 37.3905 86.1423 37.1395C86.6442 36.633 87.4253 36.6235 87.9366 37.1395H87.9318Z" fill="#002F87"/>
<path d="M98.5034 43.2426V43.7823C98.5034 44.019 98.3424 44.1799 98.0962 44.1799H94.7066C94.4225 44.1799 94.1716 44.0852 93.968 43.8817C93.7645 43.6734 93.665 43.4225 93.665 43.1431V35.8241C93.665 35.5827 93.826 35.417 94.0722 35.417H94.6071C94.8486 35.417 95.019 35.578 95.019 35.8241V42.8402H98.0962C98.3377 42.8402 98.5034 43.0011 98.5034 43.2378V43.2426Z" fill="#002F87"/>
<path d="M107.716 35.8289V43.7775C107.716 44.019 107.555 44.1847 107.309 44.1847H106.774C106.532 44.1847 106.366 44.0237 106.366 43.7775V40.3879H103.521V43.7775C103.521 44.019 103.36 44.1847 103.114 44.1847H102.589C102.347 44.1847 102.177 44.0237 102.177 43.7775V35.8289C102.177 35.5874 102.347 35.417 102.589 35.417H103.114C103.356 35.417 103.521 35.5874 103.521 35.8289V39.0434H106.366V35.8289C106.366 35.5874 106.527 35.417 106.774 35.417H107.309C107.55 35.417 107.716 35.5874 107.716 35.8289Z" fill="#002F87"/>
<path d="M116.2 36.188C115.683 35.6814 115.068 35.4258 114.348 35.4258C113.629 35.4258 113.009 35.6814 112.502 36.188C111.996 36.6945 111.73 37.3194 111.73 38.0343V43.7816C111.73 44.0183 111.891 44.1792 112.138 44.1792H112.677C112.914 44.1792 113.075 44.0183 113.075 43.7816V40.9221H115.612V43.7816C115.612 44.0183 115.783 44.1792 116.024 44.1792H116.55C116.801 44.1792 116.962 44.0183 116.962 43.7816V38.0343C116.962 37.3194 116.706 36.6945 116.2 36.188ZM115.238 37.1395C115.489 37.3905 115.612 37.6792 115.612 38.0343V39.5776H113.075V38.0343C113.075 37.684 113.198 37.3905 113.454 37.1395C113.946 36.633 114.732 36.6235 115.238 37.1395Z" fill="#002F87"/>
<path d="M127.245 35.828V43.5116C127.245 43.8288 127.07 44.0655 126.767 44.1554C126.705 44.1744 126.639 44.1838 126.572 44.1838C126.336 44.1838 126.146 44.0844 126.019 43.895L122.326 38.3277V43.7862C122.326 44.0229 122.165 44.1838 121.919 44.1838H121.393C121.142 44.1838 120.981 44.0229 120.981 43.7862V36.0979C120.981 35.7807 121.157 35.544 121.46 35.454C121.54 35.4351 121.606 35.4209 121.677 35.4209C121.824 35.4209 122.051 35.473 122.217 35.7239L125.905 41.2818V35.8328C125.905 35.5913 126.066 35.4209 126.312 35.4209H126.847C127.089 35.4209 127.254 35.5913 127.254 35.8328L127.245 35.828Z" fill="#002F87"/>
<path d="M137.381 35.8289V36.3544C137.381 36.5958 137.22 36.7662 136.973 36.7662H134.99V43.7728C134.99 44.0142 134.829 44.1799 134.583 44.1799H134.048C133.806 44.1799 133.641 44.019 133.641 43.7728V36.7662H131.652C131.411 36.7662 131.245 36.5958 131.245 36.3544V35.8289C131.245 35.5874 131.406 35.417 131.652 35.417H136.969C137.21 35.417 137.376 35.5874 137.376 35.8289H137.381Z" fill="#002F87"/>
<path d="M145.518 36.1887C145.012 35.6726 144.396 35.417 143.672 35.417C142.948 35.417 142.332 35.6726 141.826 36.1792C141.319 36.6952 141.063 37.3154 141.063 38.0303V41.5667C141.063 42.2815 141.319 42.9064 141.826 43.413C142.332 43.9195 142.957 44.1752 143.672 44.1752C144.387 44.1752 145.012 43.9195 145.518 43.413C146.025 42.9064 146.281 42.2815 146.281 41.5667V38.0303C146.281 37.3154 146.025 36.6905 145.518 36.1839V36.1887ZM142.777 42.4709C142.526 42.22 142.403 41.9217 142.403 41.5714V38.035C142.403 37.6847 142.526 37.3864 142.768 37.1355C143.274 36.6431 144.065 36.6431 144.562 37.1355C144.813 37.3864 144.936 37.6847 144.936 38.035V41.5714C144.936 41.9217 144.813 42.22 144.562 42.4709C144.07 42.9727 143.27 42.9632 142.777 42.4709Z" fill="#002F87"/>
<path d="M155.522 35.8289V41.5714C155.522 42.2863 155.267 42.9112 154.76 43.4177C154.254 43.9243 153.629 44.1799 152.914 44.1799C152.199 44.1799 151.569 43.9243 151.068 43.4177C150.552 42.9112 150.296 42.2863 150.296 41.5714V35.8289C150.296 35.5874 150.457 35.417 150.703 35.417H151.238C151.479 35.417 151.645 35.5874 151.645 35.8289V41.5714C151.645 41.9217 151.768 42.22 152.019 42.4662C152.521 42.968 153.312 42.9727 153.813 42.4709C154.064 42.22 154.178 41.9217 154.178 41.5714V35.8289C154.178 35.5874 154.348 35.417 154.59 35.417H155.115C155.366 35.417 155.527 35.5874 155.527 35.8289H155.522Z" fill="#002F87"/>
<path d="M164.123 39.7627C164.545 40.184 164.758 40.6953 164.758 41.2823V41.5664C164.758 42.2812 164.502 42.9061 163.986 43.4127C163.48 43.9192 162.864 44.1749 162.145 44.1749C161.425 44.1749 160.805 43.9192 160.293 43.4127C159.792 42.9061 159.536 42.2907 159.531 41.5711C159.536 41.3202 159.702 41.164 159.938 41.164H160.473C160.71 41.164 160.871 41.3202 160.88 41.5616C160.88 41.912 161.004 42.2102 161.254 42.4564C161.756 42.9582 162.537 42.9629 163.049 42.4564C163.3 42.2149 163.423 41.9167 163.423 41.5616V41.2776C163.423 41.0551 163.342 40.8657 163.186 40.7095C163.03 40.5533 162.836 40.468 162.613 40.468H161.699C161.112 40.468 160.596 40.2597 160.18 39.8384C159.758 39.4171 159.545 38.9058 159.545 38.3093V38.0299C159.545 37.3056 159.801 36.6854 160.308 36.1694C160.824 35.6629 161.444 35.4072 162.159 35.4072C162.874 35.4072 163.489 35.6629 164.005 36.1789C164.521 36.6949 164.767 37.3151 164.767 38.0299C164.767 38.2714 164.606 38.4371 164.36 38.4371H163.825C163.584 38.4371 163.418 38.2761 163.418 38.0394C163.418 37.6749 163.295 37.3814 163.044 37.1257C162.542 36.6334 161.752 36.6334 161.25 37.1257C160.999 37.3766 160.876 37.6749 160.876 38.0299V38.3093C160.876 38.5318 160.956 38.7211 161.112 38.8821C161.273 39.0431 161.463 39.1188 161.685 39.1188H162.599C163.195 39.1188 163.707 39.3366 164.119 39.7532L164.123 39.7627Z" fill="#002F87"/>
<path d="M174.307 35.8289V43.7775C174.307 44.019 174.146 44.1847 173.895 44.1847H173.369C173.128 44.1847 172.957 44.0237 172.957 43.7775V40.3879H170.117V43.7775C170.117 44.019 169.947 44.1847 169.705 44.1847H169.184C168.933 44.1847 168.772 44.0237 168.772 43.7775V35.8289C168.772 35.5874 168.933 35.417 169.184 35.417H169.705C169.947 35.417 170.117 35.5874 170.117 35.8289V39.0434H172.957V35.8289C172.957 35.5874 173.128 35.417 173.369 35.417H173.895C174.146 35.417 174.307 35.5874 174.307 35.8289Z" fill="#002F87"/>
<path d="M179.888 35.828V43.7814C179.888 44.0181 179.727 44.1791 179.491 44.1791H178.951C178.71 44.1791 178.544 44.0181 178.544 43.7814V35.828C178.544 35.5866 178.705 35.4209 178.951 35.4209H179.491C179.727 35.4209 179.888 35.5819 179.888 35.828Z" fill="#002F87"/>
<path d="M235.496 4.7247V33.8398C235.496 33.8682 235.496 33.8871 235.491 33.9155C235.491 33.9913 235.491 34.0528 235.486 34.1001C235.481 34.1475 235.472 34.1948 235.467 34.2232C235.462 34.2753 235.453 34.3321 235.448 34.3605C235.444 34.4079 235.429 34.4599 235.42 34.5073L235.406 34.5499L235.387 34.6256C235.373 34.6777 235.354 34.7345 235.339 34.7819L235.292 34.905C235.273 34.957 235.245 35.0044 235.231 35.047C235.212 35.0801 235.197 35.1133 235.178 35.1464C235.159 35.1795 235.136 35.2221 235.103 35.2742V35.2884L235.088 35.3026C235.074 35.3216 235.06 35.3452 235.046 35.3689C235.013 35.421 234.98 35.4683 234.923 35.5299L234.894 35.5725L234.88 35.5914C234.819 35.6672 234.757 35.7382 234.691 35.7997L227.414 43.1803C226.908 43.701 226.202 43.9993 225.478 43.9993C224.754 43.9993 224.044 43.701 223.537 43.1803L216.261 35.7997L216.228 35.7666L216.213 35.7524C216.166 35.7003 216.123 35.653 216.086 35.5961C216.052 35.563 216.024 35.5299 215.996 35.4873C215.977 35.4541 215.948 35.4257 215.92 35.3784C215.891 35.3452 215.873 35.3121 215.844 35.2648L215.83 35.2364V35.2221C215.801 35.1937 215.787 35.1701 215.778 35.1417C215.759 35.1085 215.745 35.0801 215.716 35.0186V35.0044L215.697 34.9712L215.683 34.9428L215.669 34.9097L215.655 34.8813C215.641 34.8481 215.626 34.8055 215.607 34.7582V34.7156C215.588 34.6872 215.579 34.6635 215.574 34.6351C215.56 34.6067 215.555 34.5736 215.546 34.5357L215.532 34.4931V34.4647C215.517 34.4363 215.513 34.4031 215.499 34.3511C215.494 34.3084 215.484 34.2611 215.484 34.228C215.48 34.1854 215.47 34.138 215.465 34.0859C215.461 34.0055 215.451 33.9155 215.451 33.8303V4.71996C215.451 2.11617 217.548 0 220.119 0H220.929V5.53423L220.924 32.6941L225.473 37.3052L230.013 32.6941V0H230.823C233.394 0 235.491 2.11617 235.491 4.71996L235.496 4.7247Z" fill="#002F87"/>
<path d="M260 27.8459V33.8394C260 34.5779 259.716 35.2644 259.2 35.7851L251.923 43.1704C251.403 43.6959 250.711 43.9894 249.982 43.9894C249.253 43.9894 248.562 43.7006 248.041 43.1704L240.765 35.7851C240.249 35.2644 239.965 34.5732 239.965 33.8394V27.8459C239.965 25.2421 242.053 23.126 244.623 23.126H245.433V32.6984L249.978 37.3095L254.522 32.6984V23.126H255.332C257.903 23.126 259.99 25.2421 259.99 27.8459H260Z" fill="#8C8C8A"/>
<path d="M210.987 27.8459V33.8394C210.987 34.5779 210.703 35.2644 210.187 35.7851L202.911 43.1704C202.39 43.6959 201.699 43.9894 200.97 43.9894C200.241 43.9894 199.549 43.7006 199.029 43.1704L191.752 35.7851C191.236 35.2644 190.952 34.5732 190.952 33.8394V27.8459C190.952 25.2421 193.04 23.126 195.611 23.126H196.42V32.6984L200.965 37.3095L205.51 32.6984V23.126H206.319C208.89 23.126 210.978 25.2421 210.978 27.8459H210.987Z" fill="#8C8C8A"/>
<path d="M0.156102 50.8398C0.156102 50.7735 0.18924 50.7451 0.250784 50.7451H0.918302C0.984581 50.7451 1.01298 50.7783 1.01298 50.8398V56.4072C1.01298 56.445 1.03192 56.464 1.0698 56.464H4.1754C4.23695 56.464 4.27009 56.4971 4.27009 56.5587V57.1646C4.27009 57.2309 4.23695 57.2593 4.1754 57.2593H0.246053C0.179774 57.2593 0.151367 57.2262 0.151367 57.1646V50.8398H0.156102Z" fill="#8C8C8A"/>
<path d="M8.07162 57.2641C8.01008 57.2641 7.97693 57.231 7.97693 57.1694V56.767H7.96747C7.85858 56.9375 7.69289 57.0842 7.47038 57.1978C7.24787 57.3115 6.95909 57.373 6.60876 57.373C6.39099 57.373 6.18742 57.3446 5.99806 57.2878C5.80869 57.231 5.64773 57.141 5.51044 57.0274C5.37315 56.9138 5.26426 56.767 5.18378 56.5966C5.1033 56.4214 5.06543 56.2226 5.06543 55.9906C5.06543 55.503 5.22166 55.1432 5.53885 54.916C5.85603 54.684 6.29631 54.5704 6.85494 54.5704H7.90119C7.93906 54.5704 7.958 54.5514 7.958 54.5136V54.1822C7.958 53.865 7.88225 53.6378 7.72602 53.4957C7.5698 53.3537 7.28102 53.2874 6.85494 53.2874C6.59456 53.2874 6.37679 53.3158 6.20162 53.3774C6.0312 53.4389 5.87497 53.5147 5.74241 53.6141C5.6856 53.6567 5.63826 53.6567 5.60986 53.6046L5.34948 53.1643C5.32581 53.1123 5.33054 53.0697 5.36842 53.0318C5.53885 52.8992 5.75662 52.7903 6.02173 52.7051C6.28211 52.6246 6.58509 52.582 6.93069 52.582C7.584 52.582 8.04321 52.7004 8.31306 52.9418C8.58291 53.1833 8.7202 53.5809 8.7202 54.1443V57.1836C8.7202 57.2499 8.68706 57.2783 8.62552 57.2783H8.06688L8.07162 57.2641ZM6.79339 56.6771C7.15793 56.6771 7.44198 56.6013 7.65028 56.4404C7.85385 56.2842 7.958 56.0616 7.958 55.7729V55.2663C7.958 55.2284 7.93906 55.2095 7.90119 55.2095H6.97803C6.57562 55.2095 6.28211 55.271 6.10221 55.3847C5.92231 55.503 5.83236 55.6924 5.83236 55.9575C5.83236 56.1942 5.91758 56.3741 6.08327 56.4925C6.24897 56.6155 6.48568 56.6771 6.79813 56.6771H6.79339Z" fill="#8C8C8A"/>
<path d="M14.1977 57.2642C14.1409 57.2642 14.1031 57.231 14.0841 57.1695L13.0473 53.884H13.0284L11.9822 57.1695C11.9632 57.2357 11.9254 57.2642 11.8685 57.2642H11.3146C11.2578 57.2642 11.22 57.231 11.201 57.1695L9.76184 52.7714C9.74291 52.7099 9.76184 52.6768 9.82812 52.6768H10.4814C10.5382 52.6768 10.5809 52.7099 10.6045 52.7714L11.6224 56.0854H11.6413L12.6781 52.7714C12.697 52.7099 12.7349 52.6768 12.7917 52.6768H13.2888C13.3551 52.6768 13.3929 52.7099 13.4119 52.7714L14.4581 56.0854H14.4771L15.4665 52.7714C15.4807 52.7099 15.5186 52.6768 15.5896 52.6768H16.2429C16.3044 52.6768 16.3281 52.7099 16.3092 52.7714L14.8605 57.1695C14.8416 57.2357 14.8037 57.2642 14.7469 57.2642H14.2025H14.1977Z" fill="#8C8C8A"/>
<path d="M17.4263 58.9875C17.36 58.9875 17.3316 58.9544 17.3316 58.8929V58.339C17.3316 58.2727 17.3648 58.2443 17.4263 58.2443H17.5967C17.7814 58.2443 17.9329 58.1969 18.0465 58.0975C18.1601 57.9981 18.269 57.8182 18.3731 57.5578L18.5246 57.1365L16.8393 52.7763C16.8203 52.7148 16.844 52.6816 16.915 52.6816H17.5873C17.6441 52.6816 17.6819 52.7148 17.7009 52.7763L18.9081 56.0902H18.927L20.0869 52.7763C20.1058 52.7148 20.1437 52.6816 20.2005 52.6816H20.8538C20.9248 52.6816 20.9485 52.7148 20.9296 52.7763L19.1164 57.6241C19.0122 57.894 18.9128 58.1164 18.8134 58.2963C18.714 58.4762 18.6098 58.6183 18.4962 58.7177C18.3826 58.8218 18.2595 58.8928 18.127 58.9307C17.9944 58.9686 17.8382 58.9923 17.6677 58.9923H17.4168L17.4263 58.9875Z" fill="#8C8C8A"/>
<path d="M23.6044 57.3688C23.1357 57.3688 22.7475 57.2599 22.4303 57.0469C22.1131 56.8338 21.8906 56.5261 21.7628 56.1237C21.7107 55.977 21.6729 55.816 21.6492 55.6361C21.6255 55.4562 21.6113 55.2337 21.6113 54.9638C21.6113 54.694 21.6208 54.4715 21.6445 54.2869C21.6681 54.1022 21.7013 53.9413 21.7534 53.804C21.8812 53.4016 22.1037 53.0939 22.4209 52.8856C22.7381 52.6773 23.1168 52.5684 23.5571 52.5684C23.9973 52.5684 24.3761 52.6773 24.6933 52.8903C25.0105 53.1033 25.233 53.411 25.3608 53.804C25.3845 53.8797 25.4081 53.9602 25.4223 54.0407C25.4365 54.1212 25.4507 54.2111 25.4649 54.3153C25.4791 54.4194 25.4886 54.533 25.4933 54.6656C25.4981 54.7982 25.5028 54.9496 25.5028 55.1201C25.5028 55.1864 25.4697 55.2148 25.3987 55.2148H22.4966C22.4587 55.2148 22.4398 55.2337 22.4398 55.2716C22.4398 55.3994 22.4445 55.5035 22.4587 55.5888C22.4729 55.674 22.4919 55.7497 22.5156 55.8302C22.6055 56.1 22.7475 56.2989 22.9464 56.4267C23.1452 56.5593 23.3866 56.6255 23.6754 56.6255C23.9642 56.6255 24.182 56.5782 24.3761 56.4835C24.5702 56.3888 24.7264 56.2657 24.8542 56.119C24.9063 56.0669 24.9536 56.0622 24.9962 56.1001L25.3892 56.4551C25.4318 56.493 25.4365 56.5403 25.3987 56.5877C25.214 56.8196 24.9678 57.0043 24.6649 57.151C24.3619 57.2978 24.0068 57.3735 23.6044 57.3735V57.3688ZM24.6223 54.5615C24.6601 54.5615 24.6791 54.5425 24.6791 54.5046C24.6791 54.2963 24.6554 54.1259 24.6128 53.9886C24.537 53.7614 24.4045 53.5862 24.2246 53.4631C24.0447 53.34 23.8222 53.2785 23.5571 53.2785C23.292 53.2785 23.0742 53.34 22.8895 53.4631C22.7049 53.5862 22.5771 53.7614 22.5013 53.9886C22.4587 54.1212 22.4351 54.2916 22.4351 54.5046C22.4351 54.5425 22.454 54.5615 22.4919 54.5615H24.6175H24.6223Z" fill="#8C8C8A"/>
<path d="M26.8945 57.2648C26.8282 57.2648 26.7998 57.2317 26.7998 57.1701V52.7721C26.7998 52.7105 26.8329 52.6774 26.8945 52.6774H27.5099C27.5715 52.6774 27.6046 52.7105 27.6046 52.7721V53.2408H27.6141C27.7182 53.0419 27.8697 52.881 28.0686 52.7579C28.2721 52.6348 28.523 52.5732 28.8308 52.5732C29.0154 52.5732 29.1906 52.6064 29.3515 52.6632C29.5125 52.7247 29.6545 52.81 29.7681 52.9188C29.8107 52.9614 29.8202 53.0088 29.7871 53.0514L29.432 53.5201C29.3941 53.5721 29.3468 53.5769 29.2994 53.539C29.1906 53.468 29.0769 53.4159 28.9633 53.3781C28.8497 53.3402 28.7219 53.3212 28.5893 53.3212C28.239 53.3212 27.9833 53.4443 27.8318 53.6905C27.6804 53.9367 27.5999 54.2586 27.5999 54.661V57.1701C27.5999 57.2364 27.5667 57.2648 27.5052 57.2648H26.8897H26.8945Z" fill="#8C8C8A"/>
<path d="M32.2302 57.3688C32.0077 57.3688 31.7994 57.3499 31.6053 57.3073C31.4159 57.2646 31.2407 57.2126 31.0845 57.1463C30.9283 57.08 30.7862 57.0043 30.6631 56.9238C30.5401 56.8433 30.4264 56.7628 30.3318 56.6776C30.2892 56.635 30.2892 56.5877 30.3318 56.5451L30.7247 56.1237C30.7673 56.0811 30.8146 56.0811 30.8573 56.1237C31.0277 56.2705 31.2407 56.3936 31.4869 56.4977C31.7331 56.6019 31.9982 56.6492 32.2775 56.6492C32.6184 56.6492 32.8693 56.5829 33.035 56.4551C33.2007 56.3273 33.2859 56.1569 33.2859 55.9533C33.2859 55.7734 33.2243 55.6314 33.1107 55.5272C32.9924 55.4231 32.7557 55.3473 32.3959 55.3094L31.9082 55.2621C31.4538 55.21 31.1129 55.0775 30.8809 54.8597C30.649 54.6419 30.5353 54.3437 30.5353 53.9697C30.5353 53.5294 30.6821 53.1838 30.9803 52.9376C31.2786 52.6914 31.6952 52.5684 32.2396 52.5684C32.5805 52.5684 32.8882 52.6157 33.1628 52.7104C33.4421 52.8051 33.6741 52.9282 33.8682 53.0749C33.9203 53.1081 33.925 53.1507 33.8871 53.2075L33.5605 53.6193C33.5226 53.662 33.4752 53.6714 33.4279 53.6383C33.2811 53.5436 33.0965 53.4537 32.8787 53.3779C32.6562 53.3022 32.429 53.2643 32.1923 53.2643C31.9035 53.2643 31.6857 53.3211 31.539 53.4394C31.3922 53.5578 31.3165 53.7093 31.3165 53.8939C31.3165 54.0786 31.3827 54.2206 31.5106 54.32C31.6384 54.4194 31.8751 54.4857 32.2207 54.5141L32.7036 54.5615C33.1723 54.6041 33.5179 54.7413 33.7451 54.9638C33.9723 55.1863 34.086 55.4846 34.086 55.8539C34.086 56.3083 33.925 56.6729 33.6078 56.9475C33.2906 57.222 32.8267 57.3593 32.2302 57.3593V57.3688Z" fill="#8C8C8A"/>
<path d="M40.4251 57.2641C40.3636 57.2641 40.3305 57.231 40.3305 57.1694V56.767H40.321C40.2121 56.9375 40.0464 57.0842 39.8239 57.1978C39.6014 57.3115 39.3126 57.373 38.9623 57.373C38.7445 57.373 38.5409 57.3446 38.3516 57.2878C38.1622 57.231 38.0012 57.141 37.864 57.0274C37.7267 56.9138 37.6178 56.767 37.5373 56.5966C37.4568 56.4214 37.4189 56.2226 37.4189 55.9906C37.4189 55.503 37.5752 55.1432 37.8924 54.916C38.2095 54.684 38.6498 54.5704 39.2085 54.5704H40.2547C40.2926 54.5704 40.3115 54.5514 40.3115 54.5136V54.1822C40.3115 53.865 40.2358 53.6378 40.0795 53.4957C39.9233 53.3537 39.6345 53.2874 39.2085 53.2874C38.9481 53.2874 38.7303 53.3158 38.5551 53.3774C38.3847 53.4389 38.2285 53.5147 38.0959 53.6141C38.0391 53.6567 37.9918 53.6567 37.9634 53.6046L37.703 53.1643C37.6793 53.1123 37.6841 53.0697 37.7219 53.0318C37.8924 52.8992 38.1101 52.7903 38.3752 52.7051C38.6356 52.6246 38.9386 52.582 39.2842 52.582C39.9375 52.582 40.3967 52.7004 40.6666 52.9418C40.9364 53.1833 41.0737 53.5809 41.0737 54.1443V57.1836C41.0737 57.2499 41.0406 57.2783 40.979 57.2783H40.4204L40.4251 57.2641ZM39.1469 56.6771C39.5114 56.6771 39.7955 56.6013 40.0038 56.4404C40.2074 56.2842 40.3115 56.0616 40.3115 55.7729V55.2663C40.3115 55.2284 40.2926 55.2095 40.2547 55.2095H39.3315C38.9291 55.2095 38.6356 55.271 38.4557 55.3847C38.2758 55.503 38.1859 55.6924 38.1859 55.9575C38.1859 56.1942 38.2711 56.3741 38.4368 56.4925C38.6025 56.6155 38.8392 56.6771 39.1516 56.6771H39.1469Z" fill="#8C8C8A"/>
<path d="M45.5997 57.2647C45.5382 57.2647 45.505 57.2315 45.505 57.17V54.4857C45.505 54.1164 45.4198 53.8277 45.2494 53.6241C45.0789 53.4205 44.8233 53.3164 44.4777 53.3164C44.1653 53.3164 43.9096 53.4158 43.7155 53.6193C43.5214 53.8229 43.422 54.0928 43.422 54.4384V57.17C43.422 57.2362 43.3889 57.2647 43.3273 57.2647H42.7119C42.6456 57.2647 42.6172 57.2315 42.6172 57.17V52.7719C42.6172 52.7104 42.6503 52.6773 42.7119 52.6773H43.3273C43.3889 52.6773 43.422 52.7104 43.422 52.7719V53.1933H43.4315C43.5403 53.0134 43.7013 52.8666 43.9191 52.7483C44.1369 52.6299 44.402 52.5684 44.7144 52.5684C45.2115 52.5684 45.6044 52.7246 45.8838 53.0371C46.1631 53.3495 46.3051 53.7708 46.3051 54.2916V57.1652C46.3051 57.2315 46.272 57.2599 46.2104 57.2599H45.595L45.5997 57.2647Z" fill="#8C8C8A"/>
<path d="M50.7078 57.2642C50.6415 57.2642 50.6131 57.2311 50.6131 57.1695V56.7292H50.6036C50.4948 56.9139 50.3385 57.0701 50.1302 57.1885C49.9219 57.3115 49.6473 57.3731 49.3017 57.3731C48.8993 57.3731 48.5632 57.2784 48.2934 57.0938C48.0235 56.9091 47.8341 56.6346 47.7205 56.27C47.659 56.0854 47.6116 55.8913 47.5927 55.6925C47.569 55.4936 47.5596 55.2522 47.5596 54.9634C47.5596 54.6746 47.569 54.4332 47.5927 54.2391C47.6164 54.045 47.659 53.8556 47.7205 53.671C47.8341 53.3065 48.0283 53.0319 48.2934 52.8472C48.5632 52.6626 48.8993 52.5679 49.3017 52.5679C49.6473 52.5679 49.9219 52.6295 50.1302 52.7478C50.3385 52.8662 50.4948 53.0177 50.6036 53.2023H50.6131V50.8447C50.6131 50.7784 50.6462 50.75 50.7078 50.75H51.3232C51.3848 50.75 51.4179 50.7831 51.4179 50.8447V57.1695C51.4179 57.2358 51.3848 57.2642 51.3232 57.2642H50.7078ZM49.4911 56.6204C50.0166 56.6204 50.3527 56.3884 50.5089 55.9197C50.5468 55.8108 50.5752 55.683 50.5894 55.5315C50.6036 55.38 50.6131 55.1906 50.6131 54.9634C50.6131 54.7362 50.6036 54.5468 50.5894 54.4C50.5752 54.2533 50.5468 54.1207 50.5089 54.0071C50.3575 53.5479 50.0166 53.3159 49.4911 53.3159C48.9656 53.3159 48.6437 53.5479 48.4827 54.0071C48.4449 54.1349 48.4165 54.277 48.4023 54.4285C48.388 54.5799 48.3786 54.7598 48.3786 54.9634C48.3786 55.167 48.388 55.3563 48.4023 55.5078C48.4165 55.6593 48.4449 55.7966 48.4827 55.9197C48.6437 56.3837 48.9798 56.6204 49.4911 56.6204Z" fill="#8C8C8A"/>
<path d="M55.2476 55.8348C55.2144 55.7401 55.1908 55.6407 55.1671 55.5413C55.1434 55.4419 55.1292 55.3235 55.115 55.1862C55.1008 55.0489 55.0914 54.8833 55.0866 54.6939C55.0819 54.4998 55.0771 54.2725 55.0771 54.0027C55.0771 53.7329 55.0772 53.5056 55.0866 53.3115C55.0961 53.1174 55.1008 52.9564 55.115 52.8192C55.1292 52.6819 55.1434 52.5635 55.1671 52.4641C55.1908 52.3647 55.2144 52.27 55.2476 52.1706C55.4133 51.6546 55.6831 51.2664 56.0524 51.0154C56.4216 50.7645 56.8761 50.6367 57.4111 50.6367C57.8987 50.6367 58.32 50.7503 58.6798 50.9776C59.0396 51.2048 59.3142 51.5267 59.4989 51.9528C59.5178 52.0096 59.5036 52.0522 59.461 52.0759L58.8834 52.3552C58.8219 52.3884 58.7745 52.3694 58.7509 52.3079C58.623 52.0522 58.4526 51.8439 58.2443 51.6782C58.0313 51.5173 57.7567 51.4321 57.4111 51.4321C57.0655 51.4321 56.7672 51.5173 56.5495 51.683C56.3317 51.8487 56.1707 52.0854 56.0619 52.3931C56.0429 52.4641 56.024 52.5399 56.0098 52.6203C55.9956 52.7008 55.9814 52.8002 55.9719 52.9186C55.9624 53.0369 55.953 53.1837 55.9482 53.3589C55.9435 53.534 55.9388 53.7518 55.9388 54.0074C55.9388 54.2631 55.9388 54.4761 55.9482 54.656C55.953 54.8312 55.9624 54.9779 55.9719 55.0963C55.9814 55.2146 55.9956 55.3141 56.0098 55.3993C56.024 55.4845 56.0429 55.5555 56.0619 55.617C56.1707 55.9248 56.3317 56.1615 56.5495 56.3272C56.7672 56.4929 57.056 56.5781 57.4111 56.5781C57.7661 56.5781 58.036 56.4976 58.2443 56.3319C58.4573 56.171 58.623 55.9579 58.7509 55.7023C58.7745 55.636 58.8219 55.6218 58.8834 55.6549L59.461 55.9342C59.5036 55.9579 59.5178 56.0005 59.4989 56.0573C59.3142 56.4787 59.0396 56.8053 58.6798 57.0326C58.32 57.2598 57.894 57.3734 57.4111 57.3734C56.8761 57.3734 56.4216 57.2456 56.0524 56.9947C55.6831 56.7438 55.4133 56.3603 55.2476 55.8396V55.8348Z" fill="#8C8C8A"/>
<path d="M62.4012 57.3688C61.9515 57.3688 61.5727 57.2599 61.2555 57.0421C60.9383 56.8244 60.7158 56.5214 60.588 56.1332C60.5359 55.9722 60.4981 55.8065 60.4744 55.6314C60.4507 55.4562 60.4365 55.2337 60.4365 54.9638C60.4365 54.694 60.4507 54.4762 60.4744 54.3011C60.4981 54.1259 60.5359 53.9602 60.588 53.804C60.7158 53.4063 60.9383 53.1033 61.2555 52.8903C61.5727 52.6773 61.9515 52.5684 62.4012 52.5684C62.8509 52.5684 63.2297 52.6773 63.5469 52.8903C63.8641 53.1033 64.0866 53.411 64.2144 53.804C64.2665 53.9649 64.3043 54.1306 64.328 54.3011C64.3517 54.4715 64.3659 54.694 64.3659 54.9638C64.3659 55.2337 64.3517 55.4562 64.328 55.6314C64.3043 55.8065 64.2665 55.977 64.2144 56.1332C64.0866 56.5214 63.8641 56.8244 63.5469 57.0421C63.2297 57.2599 62.8509 57.3688 62.4012 57.3688ZM62.4012 56.6208C62.6568 56.6208 62.8746 56.5593 63.0545 56.4362C63.2344 56.3131 63.3622 56.1332 63.438 55.906C63.4759 55.7781 63.5043 55.6456 63.5185 55.5083C63.5327 55.371 63.5421 55.1911 63.5421 54.9686C63.5421 54.7461 63.5327 54.5662 63.5185 54.4336C63.5043 54.3011 63.4759 54.1685 63.438 54.0407C63.3622 53.8087 63.2344 53.6336 63.0545 53.5105C62.8746 53.3874 62.6568 53.3258 62.4012 53.3258C62.1456 53.3258 61.9278 53.3874 61.7479 53.5105C61.568 53.6336 61.4402 53.8135 61.3644 54.0407C61.3265 54.1685 61.2981 54.3011 61.2839 54.4336C61.2697 54.5662 61.2603 54.7461 61.2603 54.9686C61.2603 55.1911 61.2697 55.371 61.2839 55.5083C61.2981 55.6456 61.3265 55.7781 61.3644 55.906C61.4402 56.1379 61.568 56.3131 61.7479 56.4362C61.9278 56.5593 62.1456 56.6208 62.4012 56.6208Z" fill="#8C8C8A"/>
<path d="M68.6358 57.2647C68.5743 57.2647 68.5412 57.2315 68.5412 57.17V54.4857C68.5412 54.1164 68.4559 53.8277 68.2855 53.6241C68.1151 53.4205 67.8594 53.3164 67.5138 53.3164C67.2014 53.3164 66.9457 53.4158 66.7516 53.6193C66.5575 53.8229 66.4581 54.0928 66.4581 54.4384V57.17C66.4581 57.2362 66.425 57.2647 66.3634 57.2647H65.748C65.6817 57.2647 65.6533 57.2315 65.6533 57.17V52.7719C65.6533 52.7104 65.6865 52.6773 65.748 52.6773H66.3634C66.425 52.6773 66.4581 52.7104 66.4581 52.7719V53.1933H66.4676C66.5765 53.0134 66.7374 52.8666 66.9552 52.7483C67.173 52.6299 67.4381 52.5684 67.7506 52.5684C68.2476 52.5684 68.6406 52.7246 68.9199 53.0371C69.1992 53.3495 69.3412 53.7708 69.3412 54.2916V57.1652C69.3412 57.2315 69.3081 57.2599 69.2465 57.2599H68.6311L68.6358 57.2647Z" fill="#8C8C8A"/>
<path d="M72.4518 57.3688C72.2293 57.3688 72.021 57.3499 71.8269 57.3073C71.6376 57.2646 71.4624 57.2126 71.3062 57.1463C71.1499 57.08 71.0079 57.0043 70.8848 56.9238C70.7617 56.8433 70.6481 56.7628 70.5534 56.6776C70.5108 56.635 70.5108 56.5877 70.5534 56.5451L70.9464 56.1237C70.989 56.0811 71.0363 56.0811 71.0789 56.1237C71.2494 56.2705 71.4624 56.3936 71.7086 56.4977C71.9547 56.6019 72.2199 56.6492 72.4992 56.6492C72.84 56.6492 73.0909 56.5829 73.2566 56.4551C73.4223 56.3273 73.5076 56.1569 73.5076 55.9533C73.5076 55.7734 73.446 55.6314 73.3324 55.5272C73.214 55.4231 72.9773 55.3473 72.6175 55.3094L72.1299 55.2621C71.6754 55.21 71.3346 55.0775 71.1026 54.8597C70.8706 54.6419 70.757 54.3437 70.757 53.9697C70.757 53.5294 70.9038 53.1838 71.202 52.9376C71.5003 52.6914 71.9169 52.5684 72.4613 52.5684C72.8022 52.5684 73.1099 52.6157 73.3845 52.7104C73.6638 52.8051 73.8958 52.9282 74.0899 53.0749C74.1419 53.1081 74.1467 53.1507 74.1088 53.2075L73.7821 53.6193C73.7443 53.662 73.6969 53.6714 73.6496 53.6383C73.5028 53.5436 73.3182 53.4537 73.1004 53.3779C72.8779 53.3022 72.6507 53.2643 72.414 53.2643C72.1252 53.2643 71.9074 53.3211 71.7606 53.4394C71.6139 53.5578 71.5381 53.7093 71.5381 53.8939C71.5381 54.0786 71.6044 54.2206 71.7322 54.32C71.8601 54.4194 72.0968 54.4857 72.4424 54.5141L72.9253 54.5615C73.3939 54.6041 73.7395 54.7413 73.9668 54.9638C74.194 55.1863 74.3076 55.4846 74.3076 55.8539C74.3076 56.3083 74.1467 56.6729 73.8295 56.9475C73.5123 57.222 73.0483 57.3593 72.4518 57.3593V57.3688Z" fill="#8C8C8A"/>
<path d="M78.4494 57.2643C78.3831 57.2643 78.3547 57.2312 78.3547 57.1696V56.7388H78.3452C78.2221 56.9282 78.0612 57.0844 77.8529 57.198C77.6446 57.3116 77.3937 57.3732 77.0907 57.3732C76.5841 57.3732 76.1959 57.217 75.9166 56.8998C75.6373 56.5826 75.5 56.166 75.5 55.6405V52.7763C75.5 52.7148 75.5331 52.6816 75.5947 52.6816H76.2101C76.2717 52.6816 76.3048 52.7148 76.3048 52.7763V55.4511C76.3048 55.8298 76.39 56.1186 76.5557 56.3222C76.7214 56.5258 76.9771 56.6299 77.3226 56.6299C77.6351 56.6299 77.886 56.5258 78.0754 56.3222C78.2648 56.1186 78.3594 55.8441 78.3594 55.4985V52.7763C78.3594 52.7148 78.3926 52.6816 78.4541 52.6816H79.0696C79.1311 52.6816 79.1642 52.7148 79.1642 52.7763V57.1744C79.1642 57.2406 79.1311 57.269 79.0696 57.269H78.4541L78.4494 57.2643Z" fill="#8C8C8A"/>
<path d="M81.8349 57.3116C81.4325 57.3116 81.1437 57.2121 80.9733 57.018C80.8028 56.8239 80.7129 56.5162 80.7129 56.1043V50.8447C80.7129 50.7784 80.746 50.75 80.8076 50.75H81.423C81.4846 50.75 81.5177 50.7831 81.5177 50.8447V56.057C81.5177 56.2464 81.5556 56.3837 81.6266 56.4547C81.6976 56.5257 81.8159 56.5635 81.9769 56.5635H82.1568C82.2184 56.5635 82.2515 56.5967 82.2515 56.6582V57.2121C82.2515 57.2784 82.2184 57.3068 82.1568 57.3068H81.8302L81.8349 57.3116Z" fill="#8C8C8A"/>
<path d="M84.67 57.3119C84.225 57.3119 83.903 57.2078 83.7184 56.9995C83.529 56.7912 83.4344 56.4598 83.4344 56.0053V53.3778C83.4344 53.34 83.4154 53.321 83.3776 53.321H82.9941C82.9278 53.321 82.8994 53.2879 82.8994 53.2263V52.7671C82.8994 52.7056 82.9326 52.6724 82.9941 52.6724H83.3776C83.4154 52.6724 83.4344 52.6535 83.4344 52.6156V51.3232C83.4344 51.2617 83.4675 51.2285 83.5291 51.2285H84.1445C84.206 51.2285 84.2392 51.2617 84.2392 51.3232V52.6156C84.2392 52.6535 84.2581 52.6724 84.296 52.6724H85.025C85.0866 52.6724 85.1197 52.7056 85.1197 52.7671V53.2263C85.1197 53.2879 85.0866 53.321 85.025 53.321H84.296C84.2581 53.321 84.2392 53.34 84.2392 53.3778V55.9769C84.2392 56.2089 84.2865 56.3603 84.3765 56.4408C84.4712 56.5213 84.6179 56.5592 84.8215 56.5592H85.025C85.0866 56.5592 85.1197 56.5923 85.1197 56.6539V57.2078C85.1197 57.274 85.0866 57.3024 85.025 57.3024H84.67V57.3119Z" fill="#8C8C8A"/>
<path d="M89.1439 57.2641C89.0823 57.2641 89.0492 57.231 89.0492 57.1694V56.767H89.0397C88.9309 56.9375 88.7651 57.0842 88.5426 57.1978C88.3201 57.3115 88.0314 57.373 87.681 57.373C87.4633 57.373 87.2597 57.3446 87.0703 57.2878C86.881 57.231 86.72 57.141 86.5827 57.0274C86.4454 56.9138 86.3365 56.767 86.256 56.5966C86.1756 56.4214 86.1377 56.2226 86.1377 55.9906C86.1377 55.503 86.2939 55.1432 86.6111 54.916C86.9283 54.684 87.3686 54.5704 87.9272 54.5704H88.9735C89.0113 54.5704 89.0303 54.5514 89.0303 54.5136V54.1822C89.0303 53.865 88.9545 53.6378 88.7983 53.4957C88.6421 53.3537 88.3533 53.2874 87.9272 53.2874C87.6668 53.2874 87.4491 53.3158 87.2739 53.3774C87.1035 53.4389 86.9472 53.5147 86.8147 53.6141C86.7579 53.6567 86.7105 53.6567 86.6821 53.6046L86.4217 53.1643C86.3981 53.1123 86.4028 53.0697 86.4407 53.0318C86.6111 52.8992 86.8289 52.7903 87.094 52.7051C87.3544 52.6246 87.6574 52.582 88.003 52.582C88.6563 52.582 89.1155 52.7004 89.3853 52.9418C89.6552 53.1833 89.7925 53.5809 89.7925 54.1443V57.1836C89.7925 57.2499 89.7593 57.2783 89.6978 57.2783H89.1392L89.1439 57.2641ZM87.8657 56.6771C88.2302 56.6771 88.5142 56.6013 88.7225 56.4404C88.9261 56.2842 89.0303 56.0616 89.0303 55.7729V55.2663C89.0303 55.2284 89.0113 55.2095 88.9735 55.2095H88.0503C87.6479 55.2095 87.3544 55.271 87.1745 55.3847C86.9946 55.503 86.9046 55.6924 86.9046 55.9575C86.9046 56.1942 86.9898 56.3741 87.1555 56.4925C87.3212 56.6155 87.5579 56.6771 87.8704 56.6771H87.8657Z" fill="#8C8C8A"/>
<path d="M94.3185 57.2647C94.2569 57.2647 94.2238 57.2315 94.2238 57.17V54.4857C94.2238 54.1164 94.1386 53.8277 93.9681 53.6241C93.7977 53.4205 93.5421 53.3164 93.1965 53.3164C92.884 53.3164 92.6284 53.4158 92.4343 53.6193C92.2402 53.8229 92.1407 54.0928 92.1407 54.4384V57.17C92.1407 57.2362 92.1076 57.2647 92.0461 57.2647H91.4306C91.3643 57.2647 91.3359 57.2315 91.3359 57.17V52.7719C91.3359 52.7104 91.3691 52.6773 91.4306 52.6773H92.0461C92.1076 52.6773 92.1407 52.7104 92.1407 52.7719V53.1933H92.1502C92.2591 53.0134 92.4201 52.8666 92.6378 52.7483C92.8556 52.6299 93.1207 52.5684 93.4332 52.5684C93.9303 52.5684 94.3232 52.7246 94.6025 53.0371C94.8818 53.3495 95.0238 53.7708 95.0238 54.2916V57.1652C95.0238 57.2315 94.9907 57.2599 94.9292 57.2599H94.3137L94.3185 57.2647Z" fill="#8C8C8A"/>
<path d="M97.8829 57.3119C97.4379 57.3119 97.1159 57.2078 96.9313 56.9995C96.7419 56.7912 96.6473 56.4598 96.6473 56.0053V53.3778C96.6473 53.34 96.6283 53.321 96.5904 53.321H96.207C96.1407 53.321 96.1123 53.2879 96.1123 53.2263V52.7671C96.1123 52.7056 96.1454 52.6724 96.207 52.6724H96.5904C96.6283 52.6724 96.6473 52.6535 96.6473 52.6156V51.3232C96.6473 51.2617 96.6804 51.2285 96.7419 51.2285H97.3574C97.4189 51.2285 97.4521 51.2617 97.4521 51.3232V52.6156C97.4521 52.6535 97.471 52.6724 97.5089 52.6724H98.2379C98.2995 52.6724 98.3326 52.7056 98.3326 52.7671V53.2263C98.3326 53.2879 98.2995 53.321 98.2379 53.321H97.5089C97.471 53.321 97.4521 53.34 97.4521 53.3778V55.9769C97.4521 56.2089 97.4994 56.3603 97.5894 56.4408C97.684 56.5213 97.8308 56.5592 98.0344 56.5592H98.2379C98.2995 56.5592 98.3326 56.5923 98.3326 56.6539V57.2078C98.3326 57.274 98.2995 57.3024 98.2379 57.3024H97.8829V57.3119Z" fill="#8C8C8A"/>
<path d="M101.164 57.3688C100.941 57.3688 100.733 57.3499 100.539 57.3073C100.349 57.2646 100.174 57.2126 100.018 57.1463C99.8619 57.08 99.7198 57.0043 99.5967 56.9238C99.4736 56.8433 99.36 56.7628 99.2654 56.6776C99.2227 56.635 99.2227 56.5877 99.2654 56.5451L99.6583 56.1237C99.7009 56.0811 99.7482 56.0811 99.7908 56.1237C99.9613 56.2705 100.174 56.3936 100.42 56.4977C100.667 56.6019 100.932 56.6492 101.211 56.6492C101.552 56.6492 101.803 56.5829 101.969 56.4551C102.134 56.3273 102.219 56.1569 102.219 55.9533C102.219 55.7734 102.158 55.6314 102.044 55.5272C101.926 55.4231 101.689 55.3473 101.329 55.3094L100.842 55.2621C100.387 55.21 100.046 55.0775 99.8145 54.8597C99.5825 54.6419 99.4689 54.3437 99.4689 53.9697C99.4689 53.5294 99.6157 53.1838 99.9139 52.9376C100.212 52.6914 100.629 52.5684 101.173 52.5684C101.514 52.5684 101.822 52.6157 102.096 52.7104C102.376 52.8051 102.608 52.9282 102.802 53.0749C102.854 53.1081 102.859 53.1507 102.821 53.2075L102.494 53.6193C102.456 53.662 102.409 53.6714 102.361 53.6383C102.215 53.5436 102.03 53.4537 101.812 53.3779C101.59 53.3022 101.363 53.2643 101.126 53.2643C100.837 53.2643 100.619 53.3211 100.473 53.4394C100.326 53.5578 100.25 53.7093 100.25 53.8939C100.25 54.0786 100.316 54.2206 100.444 54.32C100.572 54.4194 100.809 54.4857 101.154 54.5141L101.637 54.5615C102.106 54.6041 102.451 54.7413 102.679 54.9638C102.906 55.1863 103.02 55.4846 103.02 55.8539C103.02 56.3083 102.859 56.6729 102.541 56.9475C102.224 57.222 101.76 57.3593 101.164 57.3593V57.3688Z" fill="#8C8C8A"/>
<path d="M106.845 55.1059C106.868 55.0633 106.916 55.0586 106.977 55.0965L107.503 55.3852C107.555 55.4184 107.564 55.461 107.531 55.5083C107.418 55.6882 107.304 55.906 107.2 56.1711C107.096 56.4362 107.044 56.7061 107.044 56.9949C107.044 57.2836 107.091 57.4967 107.181 57.6813C107.271 57.866 107.394 58.008 107.541 58.1121C107.687 58.2163 107.848 58.292 108.019 58.3394C108.189 58.382 108.36 58.4056 108.525 58.4056C108.933 58.4056 109.269 58.3015 109.534 58.0884C109.799 57.8754 109.927 57.5346 109.927 57.0611V54.2633C109.927 54.197 109.96 54.1686 110.021 54.1686H110.637C110.698 54.1686 110.732 54.2017 110.732 54.2633V57.0706C110.732 57.7287 110.537 58.2447 110.154 58.6139C109.766 58.9832 109.212 59.1678 108.483 59.1678C108.137 59.1678 107.825 59.1205 107.55 59.0306C107.271 58.9359 107.034 58.8033 106.84 58.6234C106.646 58.4435 106.494 58.2257 106.386 57.9654C106.277 57.705 106.225 57.4067 106.225 57.0706C106.225 56.6919 106.286 56.3321 106.409 55.9818C106.532 55.6314 106.679 55.3426 106.845 55.1059ZM108.483 53.9271C108.421 53.9271 108.388 53.894 108.388 53.8324V53.1318C108.388 53.0655 108.421 53.0371 108.483 53.0371H109.136C109.202 53.0371 109.231 53.0702 109.231 53.1318V53.8324C109.231 53.8987 109.198 53.9271 109.136 53.9271H108.483Z" fill="#8C8C8A"/>
<path d="M112.701 59.1723C112.635 59.1723 112.606 59.1392 112.606 59.0776V58.5237C112.606 58.4574 112.639 58.429 112.701 58.429H113.851C113.979 58.429 114.098 58.4148 114.206 58.3864C114.315 58.358 114.41 58.3107 114.491 58.2444C114.571 58.1781 114.633 58.0835 114.675 57.9651C114.718 57.8467 114.741 57.7 114.741 57.5201V57.2692H113.714C113.435 57.2692 113.179 57.236 112.952 57.1697C112.725 57.1035 112.531 56.9946 112.374 56.8431C112.213 56.6916 112.095 56.4928 112.01 56.2466C111.925 55.9957 111.887 55.6927 111.887 55.3282C111.887 54.9636 111.934 54.6464 112.029 54.3766C112.123 54.1067 112.256 53.8795 112.426 53.7044C112.597 53.5292 112.791 53.3966 113.013 53.3114C113.236 53.2262 113.477 53.1836 113.733 53.1836C114.301 53.1836 114.746 53.3493 115.063 53.6759C115.381 54.0026 115.541 54.5376 115.541 55.2714V57.5059C115.541 57.8041 115.504 58.0598 115.423 58.2728C115.343 58.4859 115.234 58.6563 115.087 58.7888C114.945 58.9214 114.77 59.0208 114.566 59.0871C114.363 59.1534 114.135 59.1818 113.885 59.1818H112.696L112.701 59.1723ZM113.733 53.9174C113.406 53.9174 113.151 54.0452 112.966 54.3008C112.781 54.5565 112.687 54.8926 112.687 55.3187C112.687 55.7732 112.777 56.0856 112.961 56.2561C113.141 56.4265 113.411 56.5164 113.771 56.5164H114.737V55.2619C114.737 54.8405 114.656 54.5092 114.5 54.2724C114.344 54.0357 114.088 53.9174 113.728 53.9174H113.733Z" fill="#8C8C8A"/>
<path d="M116.266 59.1728C116.204 59.1728 116.171 59.1396 116.171 59.0781V58.5242C116.171 58.4579 116.204 58.4295 116.266 58.4295H116.488C117.004 58.4295 117.264 58.1597 117.264 57.6152V53.4492C117.264 53.3829 117.298 53.3545 117.359 53.3545H117.975C118.041 53.3545 118.069 53.3876 118.069 53.4492V57.5963C118.069 58.1123 117.937 58.5053 117.676 58.7751C117.416 59.045 117.033 59.1775 116.526 59.1775H116.266V59.1728Z" fill="#8C8C8A"/>
<path d="M119.362 50.8398C119.362 50.7735 119.395 50.7451 119.457 50.7451H120.072C120.134 50.7451 120.167 50.7783 120.167 50.8398V56.0048C120.167 56.1941 120.205 56.3314 120.276 56.4024C120.347 56.4782 120.465 56.5113 120.626 56.5113H121.048C121.303 56.5113 121.431 56.6391 121.431 56.8948C121.431 57.0558 121.403 57.1552 121.341 57.1978C121.28 57.2404 121.185 57.2593 121.048 57.2593H120.484C120.082 57.2593 119.793 57.1599 119.623 56.9658C119.452 56.7717 119.362 56.4687 119.362 56.0521V50.8398Z" fill="#8C8C8A"/>
<path d="M124.035 57.2645C123.831 57.2645 123.651 57.2219 123.5 57.1414C123.348 57.0609 123.23 56.9331 123.145 56.7674C122.984 57.0988 122.652 57.2645 122.146 57.2645H121.109C120.981 57.2645 120.887 57.2408 120.82 57.1982C120.754 57.1556 120.726 57.0656 120.726 56.9284C120.726 56.7674 120.754 56.6585 120.816 56.6017C120.877 56.5449 120.972 56.5165 121.109 56.5165H121.999C122.16 56.5165 122.274 56.4786 122.349 56.4076C122.42 56.3366 122.458 56.1993 122.458 56.0099V54.2677C122.458 54.2015 122.491 54.1731 122.553 54.1731H123.168C123.23 54.1731 123.263 54.2062 123.263 54.2677V55.8679C123.263 56.0857 123.339 56.2466 123.495 56.3555C123.647 56.4644 123.855 56.5165 124.111 56.5165H124.352C124.513 56.5165 124.627 56.4786 124.702 56.4076C124.773 56.3366 124.811 56.1993 124.811 56.0099V54.2677C124.811 54.2015 124.844 54.1731 124.906 54.1731H125.521C125.583 54.1731 125.616 54.2062 125.616 54.2677V55.9058C125.616 56.1093 125.696 56.2656 125.857 56.365C126.018 56.4691 126.227 56.5165 126.482 56.5165H126.705C126.866 56.5165 126.979 56.4786 127.055 56.4076C127.126 56.3366 127.164 56.1993 127.164 56.0099V53.444C127.164 53.3777 127.197 53.3493 127.259 53.3493H127.874C127.936 53.3493 127.969 53.3825 127.969 53.444V55.8679C127.969 56.0857 128.049 56.2466 128.206 56.3555C128.362 56.4644 128.57 56.5165 128.835 56.5165H128.939C129.067 56.5165 129.162 56.5449 129.228 56.597C129.29 56.649 129.323 56.7437 129.323 56.8715C129.323 57.0372 129.294 57.1461 129.233 57.1935C129.171 57.2408 129.077 57.2645 128.939 57.2645H128.741C128.537 57.2645 128.357 57.2219 128.206 57.1414C128.054 57.0609 127.936 56.9331 127.85 56.7674C127.69 57.0988 127.358 57.2645 126.852 57.2645H126.392C126.189 57.2645 126.009 57.2219 125.857 57.1414C125.706 57.0609 125.588 56.9331 125.502 56.7674C125.341 57.0988 125.01 57.2645 124.503 57.2645H124.044H124.035ZM124.286 52.393C124.224 52.393 124.191 52.3599 124.191 52.2983V51.5977C124.191 51.5314 124.224 51.503 124.286 51.503H124.939C125.005 51.503 125.034 51.5361 125.034 51.5977V52.2983C125.034 52.3646 125.001 52.393 124.939 52.393H124.286ZM124.877 51.2758C124.816 51.2758 124.783 51.2426 124.783 51.1811V50.4804C124.783 50.4189 124.816 50.3857 124.877 50.3857H125.531C125.592 50.3857 125.625 50.4189 125.625 50.4804V51.1811C125.625 51.2426 125.592 51.2758 125.531 51.2758H124.877ZM125.455 52.393C125.393 52.393 125.36 52.3599 125.36 52.2983V51.5977C125.36 51.5314 125.393 51.503 125.455 51.503H126.108C126.17 51.503 126.203 51.5361 126.203 51.5977V52.2983C126.203 52.3646 126.17 52.393 126.108 52.393H125.455Z" fill="#8C8C8A"/>
<path d="M128.934 57.2644C128.806 57.2644 128.712 57.2407 128.645 57.1981C128.579 57.1555 128.551 57.0656 128.551 56.9283C128.551 56.7673 128.579 56.6584 128.641 56.6016C128.702 56.5448 128.797 56.5164 128.934 56.5164H129.588C129.749 56.5164 129.862 56.4785 129.938 56.4075C130.009 56.3365 130.047 56.1992 130.047 56.0099V53.4439C130.047 53.3777 130.08 53.3493 130.141 53.3493H130.757C130.818 53.3493 130.852 53.3824 130.852 53.4439V55.8678C130.852 56.0856 130.932 56.2466 131.088 56.3554C131.245 56.4643 131.453 56.5164 131.718 56.5164H131.832C131.959 56.5164 132.054 56.5448 132.12 56.5969C132.182 56.649 132.215 56.7436 132.215 56.8715C132.215 57.0372 132.187 57.1461 132.125 57.1934C132.064 57.2407 131.969 57.2644 131.832 57.2644H131.619C131.415 57.2644 131.235 57.2218 131.084 57.1413C130.927 57.0608 130.814 56.933 130.728 56.7673C130.568 57.0987 130.236 57.2644 129.73 57.2644H128.934ZM129.517 52.393C129.455 52.393 129.422 52.3598 129.422 52.2983V51.5976C129.422 51.5313 129.455 51.5029 129.517 51.5029H130.17C130.231 51.5029 130.265 51.5361 130.265 51.5976V52.2983C130.265 52.3646 130.231 52.393 130.17 52.393H129.517ZM130.686 52.393C130.62 52.393 130.591 52.3598 130.591 52.2983V51.5976C130.591 51.5313 130.624 51.5029 130.686 51.5029H131.339C131.405 51.5029 131.434 51.5361 131.434 51.5976V52.2983C131.434 52.3646 131.401 52.393 131.339 52.393H130.686Z" fill="#8C8C8A"/>
<path d="M134.748 57.2648C134.544 57.2648 134.364 57.2221 134.213 57.1417C134.061 57.0612 133.943 56.9334 133.858 56.7677C133.697 57.0991 133.365 57.2648 132.859 57.2648H131.822C131.694 57.2648 131.599 57.2411 131.533 57.1985C131.467 57.1559 131.438 57.0659 131.438 56.9286C131.438 56.7677 131.467 56.6588 131.528 56.602C131.59 56.5452 131.685 56.5167 131.822 56.5167H132.712C132.873 56.5167 132.987 56.4789 133.062 56.4079C133.133 56.3369 133.171 56.1996 133.171 56.0102V54.268C133.171 54.2017 133.204 54.1733 133.266 54.1733H133.877C133.943 54.1733 133.971 54.2065 133.971 54.268V55.8682C133.971 56.0859 134.047 56.2469 134.203 56.3558C134.355 56.4647 134.558 56.5167 134.814 56.5167H135.055C135.216 56.5167 135.33 56.4789 135.406 56.4079C135.481 56.3369 135.515 56.1996 135.515 56.0102V54.268C135.515 54.2017 135.548 54.1733 135.609 54.1733H136.22C136.286 54.1733 136.315 54.2065 136.315 54.268V55.9061C136.315 56.1096 136.395 56.2658 136.556 56.3653C136.717 56.4694 136.925 56.5167 137.181 56.5167H137.404C137.564 56.5167 137.678 56.4789 137.754 56.4079C137.83 56.3369 137.863 56.1996 137.863 56.0102V53.4443C137.863 53.378 137.896 53.3496 137.957 53.3496H138.573C138.639 53.3496 138.668 53.3827 138.668 53.4443V55.8682C138.668 56.0859 138.743 56.2469 138.904 56.3558C139.06 56.4647 139.269 56.5167 139.534 56.5167H139.638C139.766 56.5167 139.861 56.5452 139.927 56.5972C139.988 56.6493 140.022 56.744 140.022 56.8718C140.022 57.0375 139.993 57.1464 139.932 57.1937C139.87 57.2411 139.775 57.2648 139.638 57.2648H139.434C139.231 57.2648 139.051 57.2221 138.9 57.1417C138.748 57.0612 138.63 56.9334 138.544 56.7677C138.383 57.0991 138.052 57.2648 137.55 57.2648H137.091C136.887 57.2648 136.708 57.2221 136.556 57.1417C136.4 57.0612 136.286 56.9334 136.201 56.7677C136.04 57.0991 135.709 57.2648 135.202 57.2648H134.743H134.748Z" fill="#8C8C8A"/>
<path d="M142.541 57.3306C142.242 57.3306 141.977 57.288 141.745 57.2027C141.513 57.1175 141.319 56.9802 141.158 56.7956C141.026 56.9992 140.851 57.1317 140.642 57.1838C140.434 57.2359 140.235 57.2643 140.06 57.2643H139.648C139.392 57.2643 139.265 57.1365 139.265 56.8808C139.265 56.7199 139.293 56.6204 139.355 56.5778C139.416 56.5352 139.511 56.5163 139.648 56.5163H140.126C140.197 56.5163 140.268 56.5021 140.339 56.4737C140.41 56.4453 140.472 56.3979 140.529 56.3317C140.585 56.2654 140.633 56.1754 140.666 56.0618C140.699 55.9482 140.718 55.8109 140.718 55.6452C140.713 55.5789 140.709 55.5174 140.709 55.4606V55.2665C140.709 54.5327 140.87 53.9977 141.196 53.6711C141.523 53.3444 141.968 53.1787 142.536 53.1787C143.104 53.1787 143.554 53.3444 143.876 53.6711C144.198 53.9977 144.363 54.5327 144.363 55.2665C144.363 55.631 144.321 55.9435 144.236 56.2038C144.15 56.4642 144.027 56.682 143.871 56.8477C143.715 57.0134 143.521 57.1365 143.293 57.2169C143.066 57.2974 142.811 57.3353 142.531 57.3353L142.541 57.3306ZM142.541 53.9172C142.181 53.9172 141.921 54.0356 141.76 54.2723C141.599 54.509 141.513 54.8357 141.513 55.2617C141.513 55.721 141.594 56.0571 141.76 56.2654C141.921 56.4784 142.181 56.5826 142.541 56.5826C142.9 56.5826 143.161 56.4784 143.322 56.2654C143.483 56.0523 143.568 55.721 143.568 55.2617C143.568 54.8404 143.488 54.509 143.322 54.2723C143.161 54.0356 142.9 53.9172 142.541 53.9172Z" fill="#8C8C8A"/>
<path d="M146.243 59.1723C146.177 59.1723 146.148 59.1392 146.148 59.0776V58.5237C146.148 58.4574 146.181 58.429 146.243 58.429H147.393C147.521 58.429 147.64 58.4148 147.748 58.3864C147.857 58.358 147.952 58.3107 148.032 58.2444C148.113 58.1781 148.175 58.0835 148.217 57.9651C148.26 57.8467 148.283 57.7 148.283 57.5201V57.2692H147.256C146.977 57.2692 146.721 57.236 146.494 57.1697C146.267 57.1035 146.073 56.9946 145.916 56.8431C145.755 56.6916 145.637 56.4928 145.552 56.2466C145.467 55.9957 145.429 55.6927 145.429 55.3282C145.429 54.9636 145.476 54.6464 145.571 54.3766C145.665 54.1067 145.798 53.8795 145.968 53.7044C146.139 53.5292 146.333 53.3966 146.555 53.3114C146.778 53.2262 147.019 53.1836 147.275 53.1836C147.843 53.1836 148.288 53.3493 148.605 53.6759C148.923 54.0026 149.083 54.5376 149.083 55.2714V57.5059C149.083 57.8041 149.041 58.0598 148.965 58.2728C148.889 58.4859 148.776 58.6563 148.629 58.7888C148.487 58.9214 148.312 59.0208 148.108 59.0871C147.905 59.1534 147.677 59.1818 147.427 59.1818H146.238L146.243 59.1723ZM147.275 53.9174C146.948 53.9174 146.693 54.0452 146.508 54.3008C146.323 54.5565 146.229 54.8926 146.229 55.3187C146.229 55.7732 146.319 56.0856 146.503 56.2561C146.688 56.4265 146.953 56.5164 147.313 56.5164H148.283V55.2619C148.283 54.8405 148.203 54.5092 148.047 54.2724C147.89 54.0357 147.635 53.9174 147.275 53.9174Z" fill="#8C8C8A"/>
<path d="M153.064 55.1059C153.088 55.0633 153.135 55.0586 153.197 55.0965L153.722 55.3852C153.774 55.4184 153.784 55.461 153.751 55.5083C153.637 55.6882 153.524 55.906 153.419 56.1711C153.315 56.4315 153.263 56.7061 153.263 56.9949C153.263 57.2836 153.311 57.4967 153.4 57.6813C153.49 57.866 153.614 58.008 153.76 58.1121C153.907 58.2163 154.068 58.292 154.238 58.3394C154.409 58.382 154.579 58.4056 154.745 58.4056C155.152 58.4056 155.488 58.3015 155.749 58.0884C156.009 57.8754 156.142 57.5346 156.142 57.0611V54.2633C156.142 54.197 156.175 54.1686 156.236 54.1686H156.852C156.913 54.1686 156.946 54.2017 156.946 54.2633V57.0706C156.946 57.7287 156.752 58.2447 156.369 58.6139C155.985 58.9832 155.427 59.1678 154.698 59.1678C154.352 59.1678 154.04 59.1205 153.765 59.0306C153.486 58.9359 153.249 58.8033 153.055 58.6234C152.861 58.4435 152.709 58.2257 152.6 57.9654C152.492 57.705 152.439 57.4067 152.439 57.0706C152.439 56.6919 152.501 56.3321 152.624 55.9818C152.747 55.6314 152.894 55.3426 153.06 55.1059H153.064ZM154.702 53.9271C154.636 53.9271 154.608 53.894 154.608 53.8324V53.1318C154.608 53.0655 154.641 53.0371 154.702 53.0371H155.356C155.417 53.0371 155.45 53.0702 155.45 53.1318V53.8324C155.45 53.8987 155.417 53.9271 155.356 53.9271H154.702Z" fill="#8C8C8A"/>
<path d="M158.921 59.1723C158.854 59.1723 158.826 59.1392 158.826 59.0776V58.5237C158.826 58.4574 158.859 58.429 158.921 58.429H160.071C160.199 58.429 160.317 58.4148 160.426 58.3864C160.535 58.358 160.63 58.3107 160.71 58.2444C160.791 58.1781 160.852 58.0835 160.895 57.9651C160.937 57.8467 160.961 57.7 160.961 57.5201V57.2692H159.934C159.655 57.2692 159.399 57.236 159.172 57.1697C158.944 57.1035 158.75 56.9946 158.594 56.8431C158.433 56.6916 158.315 56.4928 158.23 56.2466C158.144 55.9957 158.106 55.6927 158.106 55.3282C158.106 54.9636 158.154 54.6464 158.253 54.3766C158.353 54.1067 158.485 53.8795 158.656 53.7044C158.826 53.5292 159.02 53.3966 159.247 53.3114C159.47 53.2262 159.707 53.1836 159.958 53.1836C160.526 53.1836 160.971 53.3493 161.288 53.6759C161.605 54.0026 161.766 54.5376 161.766 55.2714V56.5259H162.429C162.557 56.5259 162.651 56.5543 162.718 56.6064C162.784 56.6585 162.812 56.7531 162.812 56.881C162.812 57.0467 162.784 57.1555 162.722 57.2029C162.661 57.2502 162.566 57.2739 162.429 57.2739H161.766V57.5059C161.766 57.8041 161.723 58.0598 161.648 58.2728C161.572 58.4859 161.458 58.6563 161.311 58.7888C161.169 58.9214 160.994 59.0208 160.791 59.0871C160.587 59.1534 160.36 59.1818 160.109 59.1818H158.921V59.1723ZM159.953 53.9174C159.631 53.9174 159.38 54.0452 159.191 54.3008C159.001 54.5565 158.907 54.8926 158.907 55.3187C158.907 55.7732 158.996 56.0856 159.181 56.2561C159.366 56.4265 159.631 56.5164 159.991 56.5164H160.961V55.2619C160.961 54.8405 160.881 54.5092 160.724 54.2724C160.568 54.0357 160.313 53.9174 159.953 53.9174Z" fill="#8C8C8A"/>
<path d="M165.331 57.3306C165.032 57.3306 164.767 57.288 164.535 57.2027C164.303 57.1175 164.109 56.9802 163.948 56.7956C163.816 56.9992 163.641 57.1317 163.432 57.1838C163.224 57.2359 163.025 57.2643 162.85 57.2643H162.438C162.183 57.2643 162.055 57.1365 162.055 56.8808C162.055 56.7199 162.083 56.6204 162.145 56.5778C162.206 56.5352 162.301 56.5163 162.438 56.5163H162.916C162.987 56.5163 163.058 56.5021 163.129 56.4737C163.2 56.4453 163.262 56.3979 163.319 56.3317C163.376 56.2654 163.423 56.1754 163.456 56.0618C163.489 55.9482 163.508 55.8109 163.508 55.6452C163.503 55.5789 163.499 55.5174 163.499 55.4606V55.2665C163.499 54.5327 163.66 53.9977 163.986 53.6711C164.313 53.3444 164.758 53.1787 165.326 53.1787C165.894 53.1787 166.344 53.3444 166.666 53.6711C166.988 53.9977 167.153 54.5327 167.153 55.2665C167.153 55.631 167.111 55.9435 167.026 56.2038C166.94 56.4642 166.817 56.682 166.661 56.8477C166.505 57.0134 166.311 57.1365 166.083 57.2169C165.856 57.2974 165.601 57.3353 165.321 57.3353L165.331 57.3306ZM165.331 53.9172C164.971 53.9172 164.711 54.0356 164.55 54.2723C164.389 54.509 164.303 54.8357 164.303 55.2617C164.303 55.721 164.384 56.0571 164.55 56.2654C164.711 56.4784 164.971 56.5826 165.331 56.5826C165.691 56.5826 165.951 56.4784 166.112 56.2654C166.273 56.0523 166.358 55.721 166.358 55.2617C166.358 54.8404 166.278 54.509 166.112 54.2723C165.951 54.0356 165.691 53.9172 165.331 53.9172Z" fill="#8C8C8A"/>
<path d="M168.356 50.8398C168.356 50.7735 168.389 50.7451 168.451 50.7451H169.062C169.128 50.7451 169.156 50.7783 169.156 50.8398V56.0048C169.156 56.1941 169.194 56.3314 169.265 56.4024C169.336 56.4782 169.455 56.5113 169.616 56.5113H170.037C170.293 56.5113 170.42 56.6391 170.42 56.8948C170.42 57.0558 170.392 57.1552 170.33 57.1978C170.269 57.2404 170.174 57.2593 170.037 57.2593H169.474C169.071 57.2593 168.782 57.1599 168.612 56.9658C168.442 56.7717 168.352 56.4687 168.352 56.0521V50.8398H168.356Z" fill="#8C8C8A"/>
<path d="M172.285 53.9171C172.067 53.9171 171.869 53.9597 171.684 54.0497C171.504 54.1396 171.338 54.2627 171.201 54.4142C171.163 54.4568 171.116 54.4615 171.068 54.4237L170.647 54.0781C170.59 54.0354 170.581 53.9881 170.619 53.9455C170.799 53.723 171.021 53.5384 171.286 53.3916C171.551 53.2449 171.873 53.1738 172.261 53.1738C172.702 53.1738 173.062 53.2448 173.346 53.3821C173.625 53.5194 173.852 53.6993 174.013 53.9218C174.179 54.1443 174.292 54.4047 174.359 54.6982C174.425 54.9917 174.453 55.2947 174.453 55.6072C174.453 55.664 174.453 55.7208 174.453 55.7682C174.453 55.8202 174.453 55.8676 174.453 55.9196C174.468 56.1185 174.553 56.2652 174.709 56.3647C174.865 56.4641 175.069 56.5114 175.32 56.5114H175.424C175.552 56.5114 175.646 56.5398 175.713 56.5919C175.779 56.644 175.807 56.7387 175.807 56.8665C175.807 57.0322 175.779 57.1411 175.717 57.1884C175.656 57.2357 175.561 57.2594 175.424 57.2594H175.22C175.003 57.2594 174.808 57.2121 174.638 57.1221C174.463 57.0274 174.344 56.8902 174.273 56.7055C174.165 56.9091 174.008 57.0559 173.814 57.1363C173.615 57.2215 173.374 57.2594 173.076 57.2594H170.055C169.8 57.2594 169.672 57.1316 169.672 56.8759C169.672 56.715 169.7 56.6156 169.762 56.573C169.823 56.5304 169.918 56.5114 170.055 56.5114H172.777C172.957 56.5114 173.099 56.4972 173.208 56.4688C173.317 56.4404 173.398 56.3931 173.459 56.3221C173.516 56.251 173.554 56.1564 173.573 56.038C173.592 55.9196 173.601 55.7729 173.601 55.6025C173.601 55.3515 173.578 55.1243 173.535 54.916C173.492 54.7077 173.417 54.5278 173.317 54.381C173.218 54.2343 173.085 54.1159 172.92 54.0354C172.754 53.955 172.546 53.9171 172.295 53.9171H172.285Z" fill="#8C8C8A"/>
<path d="M178.298 57.3306C177.999 57.3306 177.734 57.288 177.502 57.2027C177.27 57.1175 177.076 56.9802 176.915 56.7956C176.783 56.9992 176.607 57.1317 176.399 57.1838C176.191 57.2359 175.992 57.2643 175.817 57.2643H175.405C175.149 57.2643 175.021 57.1365 175.021 56.8808C175.021 56.7199 175.05 56.6204 175.111 56.5778C175.173 56.5352 175.268 56.5163 175.405 56.5163H175.883C175.954 56.5163 176.025 56.5021 176.096 56.4737C176.167 56.4453 176.229 56.3979 176.285 56.3317C176.342 56.2654 176.39 56.1754 176.423 56.0618C176.456 55.9482 176.475 55.8109 176.475 55.6452C176.47 55.5789 176.465 55.5174 176.465 55.4606V55.2665C176.465 54.5327 176.626 53.9977 176.953 53.6711C177.28 53.3444 177.725 53.1787 178.293 53.1787C178.861 53.1787 179.311 53.3444 179.633 53.6711C179.954 53.9977 180.12 54.5327 180.12 55.2665C180.12 55.631 180.078 55.9435 179.992 56.2038C179.907 56.4642 179.784 56.682 179.628 56.8477C179.472 57.0134 179.277 57.1365 179.05 57.2169C178.823 57.2974 178.567 57.3353 178.288 57.3353L178.298 57.3306ZM178.298 53.9172C177.938 53.9172 177.677 54.0356 177.516 54.2723C177.355 54.509 177.27 54.8357 177.27 55.2617C177.27 55.721 177.351 56.0571 177.516 56.2654C177.677 56.4784 177.938 56.5826 178.298 56.5826C178.657 56.5826 178.918 56.4784 179.079 56.2654C179.24 56.0523 179.325 55.721 179.325 55.2617C179.325 54.8404 179.244 54.509 179.079 54.2723C178.918 54.0356 178.657 53.9172 178.298 53.9172Z" fill="#8C8C8A"/>
<path d="M190.957 57.2639C196.709 56.8426 202.466 56.6248 208.218 56.4733C211.096 56.3786 213.97 56.3597 216.848 56.3029L225.479 56.2461L234.109 56.2982C236.987 56.355 239.861 56.3739 242.739 56.4686C248.491 56.6154 254.248 56.8379 260 57.2592C254.248 57.6805 248.491 57.903 242.739 58.0498C239.861 58.1445 236.987 58.1634 234.109 58.2202L225.479 58.2723L216.848 58.2155C213.97 58.1587 211.096 58.1398 208.218 58.0451C202.466 57.8936 196.709 57.6758 190.957 57.2545V57.2639Z" fill="#8C8C8A"/>
</svg>
