<svg width="260" height="60" viewBox="0 0 260 60" fill="none" xmlns="http://www.w3.org/2000/svg">
<path d="M6.29147 26.9226V27.9925C6.29147 28.2955 6.09736 28.4848 5.79911 28.4848H4.89489C4.5919 28.4848 4.39307 28.2955 4.39307 27.9925V26.9226C4.39307 26.6196 4.58717 26.416 4.89489 26.416H5.79911C6.09736 26.416 6.29147 26.6196 6.29147 26.9226Z" fill="#002F87"/>
<path d="M8.73448 26.9226V27.9925C8.73448 28.2955 8.54038 28.4848 8.23266 28.4848H7.33317C7.03018 28.4848 6.84082 28.2955 6.84082 27.9925V26.9226C6.84082 26.6196 7.03018 26.416 7.33317 26.416H8.23266C8.53565 26.416 8.73448 26.6196 8.73448 26.9226Z" fill="#002F87"/>
<path d="M32.102 14.2735V20.4468C32.102 21.2232 31.8606 21.8623 31.3872 22.3358C30.8995 22.8044 30.2652 23.0317 29.4982 23.0317H28.5845C27.7371 23.0317 27.0554 22.8376 26.5536 22.4304C26.0944 22.8281 25.4979 23.0317 24.7735 23.0317H23.874C23.0172 23.0317 22.3307 22.8281 21.8384 22.4304C21.3791 22.8376 20.7826 23.0317 20.0678 23.0317H18.6333V23.0459H15.3999C15.1585 23.0459 14.9312 22.9559 14.7513 22.776C14.5667 22.5867 14.472 22.3642 14.472 22.1133V16.7305C14.472 16.3328 14.3347 15.992 14.0459 15.7032C13.7619 15.4192 13.4258 15.2819 13.0234 15.2819C12.621 15.2819 12.2848 15.4192 12.0008 15.7079C11.7167 15.992 11.5747 16.3281 11.5747 16.7305V24.2578C11.5747 24.5087 11.4848 24.7312 11.3049 24.9064C11.1202 25.091 10.9072 25.1857 10.6468 25.1857H4.22255C3.10056 25.1857 2.11112 24.7739 1.28737 23.9548C0.46363 23.1358 0.0517578 22.1275 0.0517578 20.9723C0.0517578 20.1675 0.269531 19.4101 0.686137 18.7189C1.11221 18.0229 1.68504 17.4832 2.39517 17.1235L2.7739 16.9294C2.91592 16.8631 3.04375 16.8631 3.17157 16.9104C3.28046 16.9436 3.38934 17.024 3.45088 17.1519L3.83435 17.9093C3.87696 17.9898 3.8959 18.0798 3.8959 18.1602C3.8959 18.2597 3.86275 18.4585 3.61184 18.5816L3.23311 18.7757C2.82598 18.9792 2.50405 19.2822 2.25788 19.6799C2.01644 20.0776 1.89335 20.5131 1.89335 20.9723C1.89335 21.6304 2.12532 22.1748 2.58927 22.6435C3.05795 23.1122 3.60238 23.3347 4.26043 23.3347H9.72365V16.7353C9.72365 15.831 10.0503 15.0452 10.6894 14.4013C11.3238 13.7575 12.1097 13.4355 13.0139 13.4355C13.9181 13.4355 14.6992 13.7622 15.3478 14.4013C15.9822 15.0452 16.3136 15.8263 16.3136 16.7353V21.1901H20.1435C20.366 21.1854 20.527 21.1238 20.6311 21.0291C20.7306 20.9202 20.7921 20.7262 20.7921 20.461V14.2782C20.7921 13.98 20.9862 13.7859 21.2845 13.7859H22.1366C22.4396 13.7859 22.6384 13.98 22.6384 14.2782V20.6977C22.6384 20.835 22.6668 20.9297 22.7189 20.9771C22.7994 21.067 23.0077 21.1854 23.6326 21.1948H24.7972C25.0529 21.1948 25.228 21.1428 25.3322 21.0386C25.4553 20.9155 25.5168 20.7262 25.5168 20.4563V14.7753C25.5168 14.4723 25.7062 14.283 26.0091 14.283H26.866C27.1643 14.283 27.3584 14.4723 27.3584 14.7753V20.6977C27.3584 20.8256 27.3868 20.9297 27.4483 20.996C27.5146 21.0575 27.7324 21.1854 28.3431 21.1901H29.4935C29.7633 21.1901 29.9527 21.138 30.0616 21.0291C30.1752 20.9155 30.232 20.7262 30.232 20.4563V14.283C30.232 13.9847 30.4261 13.7906 30.7244 13.7906H31.5813C31.8937 13.7906 32.0878 13.9847 32.0878 14.283L32.102 14.2735Z" fill="#002F87"/>
<path d="M28.6274 10.547V11.6312C28.6274 11.9294 28.4238 12.1235 28.1208 12.1235H27.2214C26.9184 12.1235 26.729 11.9294 26.729 11.6312V10.547C26.729 10.2488 26.9184 10.0547 27.2214 10.0547H28.1208C28.4238 10.0547 28.6274 10.2488 28.6274 10.547Z" fill="#002F87"/>
<path d="M25.6826 10.0547H24.7736C24.5017 10.0547 24.2812 10.2751 24.2812 10.547V11.6312C24.2812 11.9031 24.5017 12.1235 24.7736 12.1235H25.6826C25.9545 12.1235 26.1749 11.9031 26.1749 11.6312V10.547C26.1749 10.2751 25.9545 10.0547 25.6826 10.0547Z" fill="#002F87"/>
<path d="M26.9086 7.77344H25.9997C25.7278 7.77344 25.5073 7.99388 25.5073 8.26579V9.34518C25.5073 9.6171 25.7278 9.83753 25.9997 9.83753H26.9086C27.1806 9.83753 27.401 9.6171 27.401 9.34518V8.26579C27.401 7.99388 27.1806 7.77344 26.9086 7.77344Z" fill="#002F87"/>
<path d="M73.7721 10.547V11.6312C73.7721 11.9294 73.578 12.1235 73.2798 12.1235H72.3661C72.0631 12.1235 71.8643 11.9294 71.8643 11.6312V10.547C71.8643 10.2488 72.0584 10.0547 72.3661 10.0547H73.2798C73.578 10.0547 73.7721 10.2488 73.7721 10.547Z" fill="#002F87"/>
<path d="M76.2009 10.547V11.6312C76.2009 11.9294 76.0068 12.1235 75.6991 12.1235H74.8044C74.5014 12.1235 74.312 11.9294 74.312 11.6312V10.547C74.312 10.2488 74.5014 10.0547 74.8044 10.0547H75.6991C76.0021 10.0547 76.2009 10.2488 76.2009 10.547Z" fill="#002F87"/>
<path d="M81.7163 10.547V11.6312C81.7163 11.9294 81.5127 12.1235 81.2097 12.1235H80.3102C80.0072 12.1235 79.8179 11.9294 79.8179 11.6312V10.547C79.8179 10.2488 80.0072 10.0547 80.3102 10.0547H81.2097C81.5127 10.0547 81.7163 10.2488 81.7163 10.547Z" fill="#002F87"/>
<path d="M104.563 9.8029V22.5378C104.563 22.8408 104.373 23.0301 104.075 23.0301H103.209C102.91 23.0301 102.716 22.8408 102.716 22.5378V9.8029C102.716 9.50465 102.91 9.31055 103.209 9.31055H104.075C104.373 9.31055 104.563 9.50465 104.563 9.8029Z" fill="#002F87"/>
<path d="M99.7813 9.30664H98.9244C98.6262 9.30664 98.4321 9.50074 98.4321 9.81319V20.4508C98.4321 20.716 98.3705 20.9101 98.2616 21.0237C98.1717 21.1184 98.0202 21.1704 97.8072 21.1846H96.2733L95.1655 21.1799C94.5974 21.1799 94.3607 21.0663 94.2613 20.9621C94.2092 20.9148 94.1808 20.8201 94.1808 20.6828V17.9039C94.1808 16.673 93.7358 15.6031 92.86 14.7367C91.9936 13.8656 90.9237 13.4159 89.6928 13.4159C87.8607 13.4159 86.431 14.1071 85.4605 15.4516L85.1954 15.8256C85.148 15.9061 85.1196 15.996 85.1196 16.0907V16.1806C85.148 16.3085 85.2143 16.4173 85.3279 16.5073L86.0096 16.9854C86.1091 17.0659 86.2132 17.0991 86.3221 17.0991C86.431 17.0991 86.5872 17.0659 86.715 16.8813L86.9659 16.531C87.5672 15.6788 88.4619 15.2717 89.6928 15.2717C90.4314 15.2717 91.0373 15.5226 91.5581 16.0433C92.0741 16.5594 92.3203 17.1653 92.3203 17.9039V19.6602C92.3203 20.1999 92.2066 20.5929 91.9747 20.8249C91.738 21.0616 91.345 21.1752 90.8053 21.1752H82.6768C82.0661 21.1752 81.8436 21.0473 81.7631 20.9669C81.7016 20.9053 81.6874 20.7775 81.6874 20.6828V14.287C81.6874 13.9745 81.4838 13.7804 81.1808 13.7804H80.3334C80.0304 13.7804 79.8316 13.9745 79.8316 14.287V20.4366C79.8316 20.716 79.7795 20.9101 79.6611 21.0189C79.5617 21.1278 79.3771 21.1799 79.1356 21.1799H75.9448C75.3341 21.1799 75.1211 21.0521 75.0406 20.9621C74.9885 20.9148 74.9601 20.8201 74.9601 20.6828V14.287C74.9601 13.9745 74.766 13.7804 74.4678 13.7804H73.6109C73.3126 13.7804 73.1233 13.9745 73.1233 14.287V20.4366C73.1233 20.7065 73.0617 20.9053 72.9386 21.0189C72.8392 21.1278 72.6546 21.1799 72.4131 21.1799H42.5122V17.5393C42.5122 16.4031 42.105 15.4279 41.3002 14.6326C40.5002 13.8278 39.5202 13.4206 38.3982 13.4206C37.2762 13.4206 36.2868 13.8278 35.482 14.6326C34.6772 15.4326 34.27 16.4031 34.27 17.5393V18.9122C34.27 20.0437 34.6772 21.0237 35.482 21.8285C36.2868 22.6286 37.262 23.0262 38.3982 23.0262H40.6659C40.6517 23.5517 40.4623 24.0062 40.0694 24.3991C39.6717 24.8063 39.203 24.9956 38.6538 24.9956H36.7555C36.4572 24.9956 36.2678 25.1897 36.2678 25.4975V26.3496C36.2678 26.6526 36.4572 26.8514 36.7555 26.8514H38.6538C39.6954 26.8514 40.6091 26.468 41.3665 25.701C42.1193 24.9483 42.5027 24.0488 42.5075 23.031H72.38C73.0949 23.031 73.6866 22.8369 74.1364 22.4345C74.6098 22.8179 75.2678 23.0168 76.0963 23.031H79.093C79.8032 23.031 80.3902 22.8416 80.8589 22.4297C81.3323 22.8132 81.9903 23.0168 82.8188 23.031H90.8006C91.7806 23.031 92.5665 22.7659 93.1488 22.2451L93.1914 22.2877C93.679 22.7659 94.3938 23.0168 95.317 23.031H97.6888C98.451 23.031 99.0807 22.799 99.5635 22.335C100.037 21.8616 100.274 21.232 100.274 20.4461V9.81319C100.274 9.50074 100.08 9.30664 99.7813 9.30664ZM40.6659 21.1846H38.3982C37.7638 21.1846 37.2336 20.9669 36.7886 20.5219C36.3436 20.0674 36.1211 19.5466 36.1211 18.917V17.5441C36.1211 16.9097 36.3436 16.3889 36.7886 15.9392C37.2336 15.4942 37.7638 15.2764 38.3982 15.2764C39.0326 15.2764 39.5486 15.4942 39.9936 15.9392C40.4481 16.3842 40.6611 16.905 40.6611 17.5441V21.1846H40.6659Z" fill="#002F87"/>
<path d="M115.845 12.2228V13.2123C115.845 13.5105 115.651 13.7046 115.352 13.7046H114.439C114.136 13.7046 113.946 13.5105 113.946 13.2123V12.2228C113.946 11.9246 114.136 11.7305 114.439 11.7305H115.352C115.651 11.7305 115.845 11.9246 115.845 12.2228Z" fill="#002F87"/>
<path d="M119.357 14.2917V22.0368C119.357 23.2014 118.945 24.2003 118.122 25.0241C117.303 25.8431 116.304 26.2549 115.144 26.2549C113.984 26.2549 112.98 25.8431 112.161 25.0241C111.342 24.2003 110.926 23.1967 110.926 22.0368V17.724C110.926 17.4257 111.12 17.2316 111.418 17.2316H112.275C112.578 17.2316 112.767 17.4257 112.767 17.724V22.0368C112.767 22.6996 112.999 23.2487 113.463 23.7222C113.932 24.1908 114.476 24.4133 115.139 24.4133C115.802 24.4133 116.342 24.1908 116.81 23.7222C117.279 23.2487 117.506 22.6996 117.506 22.0368V14.2917C117.506 13.9793 117.7 13.7852 117.999 13.7852H118.851C119.154 13.7852 119.353 13.9793 119.353 14.2917H119.357Z" fill="#002F87"/>
<path d="M158.301 10.0547H157.392C157.12 10.0547 156.899 10.2751 156.899 10.547V11.6312C156.899 11.9031 157.12 12.1235 157.392 12.1235H158.301C158.573 12.1235 158.793 11.9031 158.793 11.6312V10.547C158.793 10.2751 158.573 10.0547 158.301 10.0547Z" fill="#002F87"/>
<path d="M163.683 23.0273L163.773 23.0321C163.745 23.0321 163.712 23.0321 163.683 23.0273Z" fill="#002F87"/>
<path d="M173.715 14.6376C172.915 13.8328 171.935 13.4257 170.799 13.4257C169.662 13.4257 168.687 13.8328 167.892 14.6376C167.092 15.4377 166.689 16.4082 166.689 17.5444V21.1849H163.532C163.172 21.1849 162.916 21.095 162.732 20.9151C162.609 20.8015 162.547 20.6452 162.547 20.4417V17.9136C162.547 16.5691 162.183 15.4803 161.463 14.6755C160.739 13.8517 159.759 13.4304 158.547 13.4304C157.264 13.4304 155.772 14.1831 154.097 15.6507V14.5287C154.097 14.2305 153.902 14.0364 153.595 14.0364H152.743C152.44 14.0364 152.241 14.2305 152.241 14.5287V21.1897H124.342C124.101 21.1897 123.916 21.1376 123.803 21.0287C123.694 20.9198 123.642 20.7257 123.642 20.4559V9.82296C123.642 9.51051 123.448 9.31641 123.14 9.31641H122.288C121.99 9.31641 121.795 9.51051 121.795 9.82296V20.4559C121.795 21.2465 122.032 21.8809 122.506 22.3448C122.974 22.8135 123.599 23.0407 124.371 23.0407H159.181C160.204 23.0407 161.023 22.7567 161.61 22.1839C161.624 22.2028 161.643 22.2265 161.662 22.2501C162.178 22.7567 162.86 23.0218 163.679 23.036C163.707 23.0407 163.74 23.0407 163.768 23.0407H170.794C171.93 23.0407 172.91 22.6336 173.71 21.8383C174.515 21.0335 174.922 20.0582 174.922 18.9315V17.5586C174.922 16.4224 174.515 15.4471 173.71 14.6518L173.715 14.6376ZM160.705 19.67C160.705 20.2097 160.592 20.6026 160.355 20.8346C160.118 21.0713 159.725 21.1849 159.186 21.1849H154.101V18.1267C154.641 17.4686 155.365 16.8201 156.246 16.2141C157.141 15.5939 157.908 15.2814 158.551 15.2814C159.408 15.2814 160.005 15.6176 160.365 16.3277C160.597 16.7727 160.71 17.3029 160.71 17.9089V19.6653L160.705 19.67ZM173.076 18.9173C173.076 19.5469 172.858 20.0677 172.408 20.5222C171.963 20.9672 171.433 21.1849 170.799 21.1849H168.531V17.5444C168.531 16.91 168.754 16.3892 169.199 15.9395C169.644 15.4945 170.164 15.2767 170.794 15.2767C171.424 15.2767 171.959 15.4945 172.404 15.9395C172.858 16.3845 173.071 16.9053 173.071 17.5444V18.9173H173.076Z" fill="#002F87"/>
<path d="M180.092 14.292V23.4763C180.092 24.5178 179.789 25.351 179.193 25.9428C178.591 26.544 177.758 26.847 176.717 26.847H175.803C175.505 26.847 175.311 26.6434 175.311 26.3404V25.493C175.311 25.1806 175.505 24.9865 175.803 24.9865H176.717C177.256 24.9865 177.659 24.8729 177.886 24.6409C178.123 24.4042 178.246 24.0112 178.246 23.4715V14.2873C178.246 13.9843 178.435 13.7949 178.724 13.7949H179.595C179.893 13.7949 180.087 13.9843 180.087 14.2873L180.092 14.292Z" fill="#002F87"/>
<path d="M5.23125 38.1437C5.23125 37.4856 5.00874 36.8986 4.56373 36.4062C4.18026 35.9754 3.70685 35.7009 3.15768 35.5872V35.5352H1.04152C0.757468 35.5352 0.516023 35.6346 0.302986 35.8381C0.108885 36.0322 0 36.2832 0 36.5767V43.8957C0 44.1324 0.160962 44.2934 0.407138 44.2934H0.942097C1.18354 44.2934 1.34923 44.1324 1.34923 43.8957V40.9558H3.07247C3.30444 40.9558 3.48434 41.0315 3.6453 41.1925C3.80627 41.3534 3.88201 41.5428 3.88201 41.7653V43.8957C3.88201 44.1324 4.04297 44.2934 4.28915 44.2934H4.82411C5.07502 44.2934 5.23598 44.1324 5.23598 43.8957V41.7653C5.23598 41.1925 5.03241 40.6907 4.63948 40.2835C5.03241 39.8764 5.23598 39.384 5.23598 38.8017V38.1437H5.23125ZM3.87728 38.1437V38.8017C3.87728 39.0242 3.80153 39.2089 3.64057 39.3698C3.47961 39.5261 3.29498 39.6065 3.06774 39.6065H1.3445V36.8749H2.61799C2.96832 36.8749 3.26184 36.998 3.51275 37.2537C3.76366 37.5046 3.88674 37.7934 3.88674 38.1484L3.87728 38.1437Z" fill="#002F87"/>
<path d="M13.7052 36.2974C13.1986 35.7908 12.5737 35.5352 11.8589 35.5352C11.144 35.5352 10.5191 35.7908 10.0078 36.2974C9.50125 36.8039 9.24561 37.4288 9.24561 38.1437V43.891C9.24561 44.1277 9.40657 44.2886 9.65274 44.2886H10.1877C10.4291 44.2886 10.5948 44.1277 10.5948 43.891V41.0315H13.1323V43.891C13.1323 44.1277 13.2933 44.2886 13.5442 44.2886H14.0697C14.3112 44.2886 14.4816 44.1277 14.4816 43.891V38.1437C14.4816 37.4288 14.2165 36.8039 13.7099 36.2974H13.7052ZM12.7536 37.2489C13.0045 37.4998 13.1276 37.7886 13.1276 38.1437V39.687H10.5901V38.1437C10.5901 37.7934 10.7132 37.4998 10.9641 37.2489C11.4659 36.7424 12.2471 36.7329 12.7584 37.2489H12.7536Z" fill="#002F87"/>
<path d="M26.9469 37.9766V43.8801C26.9469 44.1215 26.7859 44.2872 26.5398 44.2872H26.0143C25.7728 44.2872 25.6071 44.1262 25.6071 43.8801V37.9766C25.6071 37.6641 25.4983 37.4132 25.2758 37.2002C25.058 36.9777 24.8071 36.8735 24.4994 36.8735C24.2295 36.8735 23.9975 36.9161 23.8034 37.0108C23.5241 37.1386 23.3916 37.3564 23.3916 37.6783V43.8801C23.3916 44.1215 23.2306 44.2872 22.9844 44.2872H22.4495C22.2127 44.2872 22.0518 44.1262 22.0518 43.8801V37.6783C22.0518 37.3516 21.9145 37.1386 21.6304 37.0013C21.4363 36.9114 21.2044 36.8735 20.9345 36.8735C20.6315 36.8735 20.3712 36.9729 20.1581 37.1907C19.9356 37.4132 19.8267 37.6641 19.8267 37.9766V43.8801C19.8267 44.1215 19.6658 44.2872 19.4291 44.2872H18.8894C18.6527 44.2872 18.4917 44.1262 18.4917 43.8801V37.9766C18.4917 37.2996 18.7284 36.7173 19.2066 36.2439C19.68 35.7657 20.2623 35.5195 20.9393 35.5195C21.6825 35.5195 22.279 35.7231 22.7193 36.1302C23.1738 35.7231 23.7656 35.5195 24.5041 35.5195C25.1716 35.5195 25.7634 35.761 26.2368 36.2439C26.7149 36.722 26.9516 37.3043 26.9516 37.9766H26.9469Z" fill="#002F87"/>
<path d="M35.4305 36.2974C34.9239 35.7908 34.299 35.5352 33.5794 35.5352C32.8598 35.5352 32.2397 35.7908 31.7331 36.2974C31.2265 36.8039 30.9614 37.4288 30.9614 38.1437V43.891C30.9614 44.1277 31.1224 44.2886 31.3686 44.2886H31.9035C32.145 44.2886 32.3107 44.1277 32.3107 43.891V41.0315H34.8482V43.891C34.8482 44.1277 35.0186 44.2886 35.26 44.2886H35.7855C36.0364 44.2886 36.1974 44.1277 36.1974 43.891V38.1437C36.1974 37.4288 35.9418 36.8039 35.4352 36.2974H35.4305ZM34.4694 37.2489C34.7204 37.4998 34.8434 37.7886 34.8434 38.1437V39.687H32.3059V38.1437C32.3059 37.7934 32.429 37.4998 32.6847 37.2489C33.177 36.7424 33.9676 36.7329 34.4694 37.2489Z" fill="#002F87"/>
<path d="M44.7757 36.4059C44.3828 35.9751 43.9093 35.7006 43.3602 35.5869V35.5254H41.2487C40.9647 35.5254 40.7138 35.6343 40.5102 35.8284C40.3066 36.0319 40.1978 36.2829 40.1978 36.5716V43.2515C40.1978 43.5356 40.2972 43.777 40.5102 43.9901C40.7138 44.1936 40.9647 44.2883 41.2487 44.2883H42.8157C43.5306 44.2883 44.1555 44.0327 44.6621 43.5261C45.1686 43.0196 45.4337 42.3947 45.4337 41.6798V38.1434C45.4337 37.4806 45.2112 36.8983 44.771 36.4059H44.7757ZM42.8205 42.9486H41.5565V36.8746H42.8205C43.1708 36.8746 43.4691 36.9977 43.72 37.2392C43.9709 37.4901 44.094 37.7883 44.094 38.1386V41.6751C44.094 42.0254 43.9709 42.3236 43.72 42.5698C43.4691 42.8255 43.1708 42.9486 42.8205 42.9486Z" fill="#002F87"/>
<path d="M54.9874 35.9373V43.8859C54.9874 44.1274 54.8169 44.2931 54.5755 44.2931H54.05C53.7991 44.2931 53.6381 44.1321 53.6381 43.8859V40.4963H50.7976V43.8859C50.7976 44.1274 50.6272 44.2931 50.3858 44.2931H49.8603C49.6188 44.2931 49.4531 44.1321 49.4531 43.8859V35.9373C49.4531 35.6958 49.6141 35.5254 49.8603 35.5254H50.3858C50.6272 35.5254 50.7976 35.6958 50.7976 35.9373V39.1518H53.6381V35.9373C53.6381 35.6958 53.7991 35.5254 54.05 35.5254H54.5755C54.8169 35.5254 54.9874 35.6958 54.9874 35.9373Z" fill="#002F87"/>
<path d="M63.4615 36.2974C62.955 35.7908 62.3301 35.5352 61.6105 35.5352C60.8909 35.5352 60.2707 35.7908 59.7642 36.2974C59.2576 36.8039 59.002 37.4288 59.002 38.1437V43.891C59.002 44.1277 59.1629 44.2886 59.3996 44.2886H59.9393C60.1808 44.2886 60.3465 44.1277 60.3465 43.891V41.0315H62.884V43.891C62.884 44.1277 63.0449 44.2886 63.2911 44.2886H63.8261C64.0675 44.2886 64.2332 44.1277 64.2332 43.891V38.1437C64.2332 37.4288 63.9776 36.8039 63.471 36.2974H63.4615ZM62.51 37.2489C62.7609 37.4998 62.884 37.7886 62.884 38.1437V39.687H60.3465V38.1437C60.3465 37.7934 60.4695 37.4998 60.7205 37.2489C61.2128 36.7424 62.0034 36.7329 62.5147 37.2489H62.51Z" fill="#002F87"/>
<path d="M74.5159 35.9364V43.62C74.5159 43.9372 74.3408 44.1739 74.0283 44.2638C73.9668 44.2828 73.9052 44.2922 73.8342 44.2922C73.6022 44.2922 73.4081 44.1928 73.2803 44.0034L69.5877 38.4361V43.8946C69.5877 44.1313 69.4267 44.2922 69.1805 44.2922H68.655C68.4136 44.2922 68.2432 44.1313 68.2432 43.8946V36.2063C68.2432 35.8891 68.4183 35.6524 68.7213 35.5624C68.8018 35.5435 68.8681 35.5293 68.9391 35.5293C69.0953 35.5293 69.3131 35.5814 69.4788 35.8323L73.1667 41.3902V35.9412C73.1667 35.6997 73.3276 35.5293 73.5738 35.5293H74.1088C74.3502 35.5293 74.5207 35.6997 74.5207 35.9412L74.5159 35.9364Z" fill="#002F87"/>
<path d="M88.8934 36.2974C88.3773 35.7908 87.7572 35.5352 87.0423 35.5352C86.3274 35.5352 85.7025 35.7908 85.196 36.2974C84.6894 36.8039 84.4243 37.4288 84.4243 38.1437V43.891C84.4243 44.1277 84.5853 44.2886 84.8314 44.2886H85.3664C85.6079 44.2886 85.7736 44.1277 85.7736 43.891V41.0315H88.3111V43.891C88.3111 44.1277 88.4815 44.2886 88.7229 44.2886H89.2484C89.4993 44.2886 89.6603 44.1277 89.6603 43.891V38.1437C89.6603 37.4288 89.4046 36.8039 88.8981 36.2974H88.8934ZM87.9323 37.2489C88.1832 37.4998 88.3063 37.7886 88.3063 38.1437V39.687H85.7688V38.1437C85.7688 37.7934 85.8919 37.4998 86.1428 37.2489C86.6446 36.7424 87.4258 36.7329 87.9371 37.2489H87.9323Z" fill="#002F87"/>
<path d="M98.5034 43.351V43.8907C98.5034 44.1274 98.3424 44.2883 98.0962 44.2883H94.7066C94.4225 44.2883 94.1716 44.1936 93.968 43.9901C93.7645 43.7818 93.665 43.5309 93.665 43.2515V35.9325C93.665 35.6911 93.826 35.5254 94.0722 35.5254H94.6071C94.8486 35.5254 95.019 35.6864 95.019 35.9325V42.9486H98.0962C98.3377 42.9486 98.5034 43.1095 98.5034 43.3462V43.351Z" fill="#002F87"/>
<path d="M107.716 35.9373V43.8859C107.716 44.1274 107.555 44.2931 107.309 44.2931H106.774C106.533 44.2931 106.367 44.1321 106.367 43.8859V40.4963H103.522V43.8859C103.522 44.1274 103.361 44.2931 103.115 44.2931H102.589C102.348 44.2931 102.177 44.1321 102.177 43.8859V35.9373C102.177 35.6958 102.348 35.5254 102.589 35.5254H103.115C103.356 35.5254 103.522 35.6958 103.522 35.9373V39.1518H106.367V35.9373C106.367 35.6958 106.528 35.5254 106.774 35.5254H107.309C107.551 35.5254 107.716 35.6958 107.716 35.9373Z" fill="#002F87"/>
<path d="M116.2 36.2974C115.684 35.7908 115.069 35.5352 114.349 35.5352C113.629 35.5352 113.009 35.7908 112.503 36.2974C111.996 36.8039 111.731 37.4288 111.731 38.1437V43.891C111.731 44.1277 111.892 44.2886 112.138 44.2886H112.678C112.914 44.2886 113.075 44.1277 113.075 43.891V41.0315H115.613V43.891C115.613 44.1277 115.783 44.2886 116.025 44.2886H116.55C116.801 44.2886 116.962 44.1277 116.962 43.891V38.1437C116.962 37.4288 116.707 36.8039 116.2 36.2974ZM115.239 37.2489C115.49 37.4998 115.613 37.7886 115.613 38.1437V39.687H113.075V38.1437C113.075 37.7934 113.199 37.4998 113.454 37.2489C113.947 36.7424 114.732 36.7329 115.239 37.2489Z" fill="#002F87"/>
<path d="M127.245 35.9364V43.62C127.245 43.9372 127.07 44.1739 126.767 44.2638C126.705 44.2828 126.639 44.2922 126.572 44.2922C126.336 44.2922 126.146 44.1928 126.019 44.0034L122.326 38.4361V43.8946C122.326 44.1313 122.165 44.2922 121.919 44.2922H121.393C121.142 44.2922 120.981 44.1313 120.981 43.8946V36.2063C120.981 35.8891 121.157 35.6524 121.46 35.5624C121.54 35.5435 121.606 35.5293 121.677 35.5293C121.824 35.5293 122.051 35.5814 122.217 35.8323L125.905 41.3902V35.9412C125.905 35.6997 126.066 35.5293 126.312 35.5293H126.847C127.089 35.5293 127.254 35.6997 127.254 35.9412L127.245 35.9364Z" fill="#002F87"/>
<path d="M137.381 35.9373V36.4628C137.381 36.7042 137.22 36.8746 136.973 36.8746H134.99V43.8812C134.99 44.1226 134.829 44.2883 134.583 44.2883H134.048C133.806 44.2883 133.641 44.1274 133.641 43.8812V36.8746H131.652C131.411 36.8746 131.245 36.7042 131.245 36.4628V35.9373C131.245 35.6958 131.406 35.5254 131.652 35.5254H136.969C137.21 35.5254 137.376 35.6958 137.376 35.9373H137.381Z" fill="#002F87"/>
<path d="M145.519 36.2971C145.012 35.781 144.397 35.5254 143.672 35.5254C142.948 35.5254 142.333 35.781 141.826 36.2876C141.32 36.8036 141.064 37.4238 141.064 38.1386V41.6751C141.064 42.3899 141.32 43.0148 141.826 43.5214C142.333 44.0279 142.958 44.2836 143.672 44.2836C144.387 44.2836 145.012 44.0279 145.519 43.5214C146.025 43.0148 146.281 42.3899 146.281 41.6751V38.1386C146.281 37.4238 146.025 36.7989 145.519 36.2923V36.2971ZM142.778 42.5793C142.527 42.3284 142.404 42.0301 142.404 41.6798V38.1434C142.404 37.7931 142.527 37.4948 142.768 37.2439C143.275 36.7515 144.065 36.7515 144.563 37.2439C144.813 37.4948 144.937 37.7931 144.937 38.1434V41.6798C144.937 42.0301 144.813 42.3284 144.563 42.5793C144.07 43.0811 143.27 43.0716 142.778 42.5793Z" fill="#002F87"/>
<path d="M155.522 35.9373V41.6798C155.522 42.3947 155.266 43.0196 154.76 43.5261C154.253 44.0327 153.628 44.2883 152.913 44.2883C152.199 44.2883 151.569 44.0327 151.067 43.5261C150.551 43.0196 150.295 42.3947 150.295 41.6798V35.9373C150.295 35.6958 150.456 35.5254 150.703 35.5254H151.238C151.479 35.5254 151.645 35.6958 151.645 35.9373V41.6798C151.645 42.0301 151.768 42.3284 152.019 42.5746C152.52 43.0764 153.311 43.0811 153.813 42.5793C154.064 42.3284 154.177 42.0301 154.177 41.6798V35.9373C154.177 35.6958 154.348 35.5254 154.589 35.5254H155.115C155.366 35.5254 155.527 35.6958 155.527 35.9373H155.522Z" fill="#002F87"/>
<path d="M164.124 39.871C164.545 40.2924 164.758 40.8037 164.758 41.3907V41.6748C164.758 42.3896 164.503 43.0145 163.987 43.5211C163.48 44.0276 162.865 44.2833 162.145 44.2833C161.425 44.2833 160.805 44.0276 160.294 43.5211C159.792 43.0145 159.536 42.3991 159.532 41.6795C159.536 41.4286 159.702 41.2724 159.939 41.2724H160.474C160.711 41.2724 160.872 41.4286 160.881 41.67C160.881 42.0204 161.004 42.3186 161.255 42.5648C161.757 43.0666 162.538 43.0713 163.049 42.5648C163.3 42.3233 163.423 42.0251 163.423 41.67V41.386C163.423 41.1635 163.343 40.9741 163.187 40.8179C163.03 40.6617 162.836 40.5764 162.614 40.5764H161.7C161.113 40.5764 160.597 40.3681 160.18 39.9468C159.759 39.5255 159.546 39.0142 159.546 38.4177V38.1383C159.546 37.414 159.802 36.7938 160.308 36.2778C160.824 35.7713 161.444 35.5156 162.159 35.5156C162.874 35.5156 163.49 35.7713 164.006 36.2873C164.522 36.8033 164.768 37.4235 164.768 38.1383C164.768 38.3798 164.607 38.5455 164.361 38.5455H163.826C163.584 38.5455 163.418 38.3845 163.418 38.1478C163.418 37.7833 163.295 37.4898 163.044 37.2341C162.543 36.7418 161.752 36.7418 161.25 37.2341C160.999 37.485 160.876 37.7833 160.876 38.1383V38.4177C160.876 38.6402 160.957 38.8295 161.113 38.9905C161.274 39.1515 161.463 39.2272 161.686 39.2272H162.599C163.196 39.2272 163.707 39.445 164.119 39.8616L164.124 39.871Z" fill="#002F87"/>
<path d="M174.307 35.9373V43.8859C174.307 44.1274 174.146 44.2931 173.895 44.2931H173.37C173.128 44.2931 172.958 44.1321 172.958 43.8859V40.4963H170.117V43.8859C170.117 44.1274 169.947 44.2931 169.706 44.2931H169.185C168.934 44.2931 168.773 44.1321 168.773 43.8859V35.9373C168.773 35.6958 168.934 35.5254 169.185 35.5254H169.706C169.947 35.5254 170.117 35.6958 170.117 35.9373V39.1518H172.958V35.9373C172.958 35.6958 173.128 35.5254 173.37 35.5254H173.895C174.146 35.5254 174.307 35.6958 174.307 35.9373Z" fill="#002F87"/>
<path d="M179.889 35.9364V43.8898C179.889 44.1265 179.728 44.2875 179.491 44.2875H178.952C178.71 44.2875 178.544 44.1265 178.544 43.8898V35.9364C178.544 35.695 178.705 35.5293 178.952 35.5293H179.491C179.728 35.5293 179.889 35.6903 179.889 35.9364Z" fill="#002F87"/>
<path d="M235.496 4.83407V33.9492C235.496 33.9776 235.496 33.9965 235.491 34.0249C235.491 34.1006 235.491 34.1622 235.487 34.2095C235.482 34.2569 235.472 34.3042 235.468 34.3326C235.463 34.3847 235.453 34.4415 235.449 34.4699C235.444 34.5172 235.43 34.5693 235.42 34.6167L235.406 34.6593L235.387 34.735C235.373 34.7871 235.354 34.8439 235.34 34.8912L235.293 35.0143C235.274 35.0664 235.245 35.1137 235.231 35.1564C235.212 35.1895 235.198 35.2226 235.179 35.2558C235.16 35.2889 235.136 35.3315 235.103 35.3836V35.3978L235.089 35.412C235.075 35.4309 235.061 35.4546 235.046 35.4783C235.013 35.5304 234.98 35.5777 234.923 35.6392L234.895 35.6818L234.881 35.7008C234.819 35.7765 234.758 35.8475 234.691 35.9091L227.415 43.2896C226.908 43.8104 226.203 44.1087 225.479 44.1087C224.754 44.1087 224.044 43.8104 223.538 43.2896L216.261 35.9091L216.228 35.8759L216.214 35.8617C216.167 35.8097 216.124 35.7623 216.086 35.7055C216.053 35.6724 216.025 35.6392 215.996 35.5966C215.977 35.5635 215.949 35.5351 215.92 35.4878C215.892 35.4546 215.873 35.4215 215.845 35.3741L215.83 35.3457V35.3315C215.802 35.3031 215.788 35.2794 215.778 35.251C215.759 35.2179 215.745 35.1895 215.717 35.1279V35.1138L215.698 35.0806L215.684 35.0522L215.669 35.0191L215.655 34.9907C215.641 34.9575 215.627 34.9149 215.608 34.8676V34.825C215.589 34.7966 215.579 34.7729 215.575 34.7445C215.561 34.7161 215.556 34.6829 215.546 34.6451L215.532 34.6025V34.5741C215.518 34.5457 215.513 34.5125 215.499 34.4604C215.494 34.4178 215.485 34.3705 215.485 34.3373C215.48 34.2947 215.471 34.2474 215.466 34.1953C215.461 34.1148 215.452 34.0249 215.452 33.9397V4.82933C215.452 2.22554 217.549 0.109375 220.12 0.109375H220.929V5.64361L220.924 32.8035L225.474 37.4146L230.014 32.8035V0.109375H230.823C233.394 0.109375 235.491 2.22554 235.491 4.82933L235.496 4.83407Z" fill="#002F87"/>
<path d="M260 27.9563V33.9497C260 34.6883 259.716 35.3747 259.2 35.8955L251.923 43.2808C251.403 43.8062 250.711 44.0998 249.982 44.0998C249.253 44.0998 248.562 43.811 248.041 43.2808L240.765 35.8955C240.249 35.3747 239.965 34.6835 239.965 33.9497V27.9563C239.965 25.3525 242.053 23.2363 244.623 23.2363H245.433V32.8088L249.978 37.4199L254.522 32.8088V23.2363H255.332C257.903 23.2363 259.99 25.3525 259.99 27.9563H260Z" fill="#8C8C8A"/>
<path d="M210.987 27.9563V33.9497C210.987 34.6883 210.703 35.3747 210.187 35.8955L202.911 43.2808C202.39 43.8062 201.699 44.0998 200.97 44.0998C200.241 44.0998 199.549 43.811 199.029 43.2808L191.752 35.8955C191.236 35.3747 190.952 34.6835 190.952 33.9497V27.9563C190.952 25.3525 193.04 23.2363 195.611 23.2363H196.42V32.8088L200.965 37.4199L205.51 32.8088V23.2363H206.319C208.89 23.2363 210.978 25.3525 210.978 27.9563H210.987Z" fill="#8C8C8A"/>
<path d="M0.156102 50.9482C0.156102 50.8819 0.18924 50.8535 0.250784 50.8535H0.918302C0.984581 50.8535 1.01298 50.8867 1.01298 50.9482V56.5156C1.01298 56.5534 1.03192 56.5724 1.0698 56.5724H4.1754C4.23695 56.5724 4.27009 56.6055 4.27009 56.6671V57.273C4.27009 57.3393 4.23695 57.3677 4.1754 57.3677H0.246053C0.179774 57.3677 0.151367 57.3346 0.151367 57.273V50.9482H0.156102Z" fill="#8C8C8A"/>
<path d="M8.07162 57.3735C8.01008 57.3735 7.97693 57.3404 7.97693 57.2788V56.8764H7.96747C7.85858 57.0468 7.69289 57.1936 7.47038 57.3072C7.24787 57.4208 6.95909 57.4824 6.60876 57.4824C6.39099 57.4824 6.18742 57.454 5.99806 57.3972C5.80869 57.3404 5.64773 57.2504 5.51044 57.1368C5.37315 57.0232 5.26426 56.8764 5.18378 56.706C5.1033 56.5308 5.06543 56.332 5.06543 56.1C5.06543 55.6124 5.22166 55.2526 5.53885 55.0254C5.85603 54.7934 6.29631 54.6798 6.85494 54.6798H7.90119C7.93906 54.6798 7.958 54.6608 7.958 54.623V54.2916C7.958 53.9744 7.88225 53.7471 7.72602 53.6051C7.5698 53.4631 7.28102 53.3968 6.85494 53.3968C6.59456 53.3968 6.37679 53.4252 6.20162 53.4868C6.0312 53.5483 5.87497 53.624 5.74241 53.7235C5.6856 53.7661 5.63826 53.7661 5.60986 53.714L5.34948 53.2737C5.32581 53.2216 5.33054 53.179 5.36842 53.1412C5.53885 53.0086 5.75662 52.8997 6.02173 52.8145C6.28211 52.734 6.58509 52.6914 6.93069 52.6914C7.584 52.6914 8.04321 52.8098 8.31306 53.0512C8.58291 53.2926 8.7202 53.6903 8.7202 54.2537V57.293C8.7202 57.3593 8.68706 57.3877 8.62552 57.3877H8.06688L8.07162 57.3735ZM6.79339 56.7865C7.15793 56.7865 7.44198 56.7107 7.65028 56.5498C7.85385 56.3935 7.958 56.171 7.958 55.8822V55.3757C7.958 55.3378 7.93906 55.3189 7.90119 55.3189H6.97803C6.57562 55.3189 6.28211 55.3804 6.10221 55.494C5.92231 55.6124 5.83236 55.8018 5.83236 56.0669C5.83236 56.3036 5.91758 56.4835 6.08327 56.6018C6.24897 56.7249 6.48568 56.7865 6.79813 56.7865H6.79339Z" fill="#8C8C8A"/>
<path d="M14.1977 57.3726C14.1409 57.3726 14.1031 57.3394 14.0841 57.2779L13.0473 53.9924H13.0284L11.9822 57.2779C11.9632 57.3441 11.9254 57.3726 11.8685 57.3726H11.3146C11.2578 57.3726 11.22 57.3394 11.201 57.2779L9.76184 52.8798C9.74291 52.8183 9.76184 52.7852 9.82812 52.7852H10.4814C10.5382 52.7852 10.5809 52.8183 10.6045 52.8798L11.6224 56.1938H11.6413L12.6781 52.8798C12.697 52.8183 12.7349 52.7852 12.7917 52.7852H13.2888C13.3551 52.7852 13.3929 52.8183 13.4119 52.8798L14.4581 56.1938H14.4771L15.4665 52.8798C15.4807 52.8183 15.5186 52.7852 15.5896 52.7852H16.2429C16.3044 52.7852 16.3281 52.8183 16.3092 52.8798L14.8605 57.2779C14.8416 57.3441 14.8037 57.3726 14.7469 57.3726H14.2025H14.1977Z" fill="#8C8C8A"/>
<path d="M17.4263 59.0969C17.36 59.0969 17.3316 59.0638 17.3316 59.0022V58.4483C17.3316 58.382 17.3648 58.3537 17.4263 58.3537H17.5967C17.7814 58.3537 17.9329 58.3063 18.0465 58.2069C18.1601 58.1075 18.269 57.9276 18.3731 57.6672L18.5246 57.2459L16.8393 52.8857C16.8203 52.8241 16.844 52.791 16.915 52.791H17.5873C17.6441 52.791 17.6819 52.8241 17.7009 52.8857L18.9081 56.1996H18.927L20.0869 52.8857C20.1058 52.8241 20.1437 52.791 20.2005 52.791H20.8538C20.9248 52.791 20.9485 52.8241 20.9296 52.8857L19.1164 57.7335C19.0122 58.0033 18.9128 58.2258 18.8134 58.4057C18.714 58.5856 18.6098 58.7277 18.4962 58.8271C18.3826 58.9312 18.2595 59.0022 18.127 59.0401C17.9944 59.078 17.8382 59.1016 17.6677 59.1016H17.4168L17.4263 59.0969Z" fill="#8C8C8A"/>
<path d="M23.6044 57.4762C23.1357 57.4762 22.7475 57.3673 22.4303 57.1543C22.1131 56.9413 21.8906 56.6335 21.7628 56.2311C21.7107 56.0844 21.6729 55.9234 21.6492 55.7435C21.6255 55.5636 21.6113 55.3411 21.6113 55.0713C21.6113 54.8014 21.6208 54.5789 21.6445 54.3943C21.6681 54.2097 21.7013 54.0487 21.7534 53.9114C21.8812 53.509 22.1037 53.2013 22.4209 52.993C22.7381 52.7847 23.1168 52.6758 23.5571 52.6758C23.9973 52.6758 24.3761 52.7847 24.6933 52.9977C25.0105 53.2108 25.233 53.5185 25.3608 53.9114C25.3845 53.9872 25.4081 54.0676 25.4223 54.1481C25.4365 54.2286 25.4507 54.3185 25.4649 54.4227C25.4791 54.5268 25.4886 54.6405 25.4933 54.773C25.4981 54.9056 25.5028 55.0571 25.5028 55.2275C25.5028 55.2938 25.4697 55.3222 25.3987 55.3222H22.4966C22.4587 55.3222 22.4398 55.3411 22.4398 55.379C22.4398 55.5068 22.4445 55.611 22.4587 55.6962C22.4729 55.7814 22.4919 55.8571 22.5156 55.9376C22.6055 56.2075 22.7475 56.4063 22.9464 56.5341C23.1452 56.6667 23.3866 56.733 23.6754 56.733C23.9642 56.733 24.182 56.6856 24.3761 56.5909C24.5702 56.4963 24.7264 56.3732 24.8542 56.2264C24.9063 56.1743 24.9536 56.1696 24.9962 56.2075L25.3892 56.5625C25.4318 56.6004 25.4365 56.6478 25.3987 56.6951C25.214 56.9271 24.9678 57.1117 24.6649 57.2585C24.3619 57.4052 24.0068 57.481 23.6044 57.481V57.4762ZM24.6223 54.6689C24.6601 54.6689 24.6791 54.6499 24.6791 54.6121C24.6791 54.4037 24.6554 54.2333 24.6128 54.096C24.537 53.8688 24.4045 53.6936 24.2246 53.5705C24.0447 53.4475 23.8222 53.3859 23.5571 53.3859C23.292 53.3859 23.0742 53.4475 22.8895 53.5705C22.7049 53.6936 22.5771 53.8688 22.5013 54.096C22.4587 54.2286 22.4351 54.399 22.4351 54.6121C22.4351 54.6499 22.454 54.6689 22.4919 54.6689H24.6175H24.6223Z" fill="#8C8C8A"/>
<path d="M26.8945 57.3732C26.8282 57.3732 26.7998 57.34 26.7998 57.2785V52.8805C26.7998 52.8189 26.8329 52.7858 26.8945 52.7858H27.5099C27.5715 52.7858 27.6046 52.8189 27.6046 52.8805V53.3492H27.6141C27.7182 53.1503 27.8697 52.9894 28.0686 52.8663C28.2721 52.7432 28.523 52.6816 28.8308 52.6816C29.0154 52.6816 29.1906 52.7148 29.3515 52.7716C29.5125 52.8331 29.6545 52.9184 29.7681 53.0272C29.8107 53.0698 29.8202 53.1172 29.7871 53.1598L29.432 53.6285C29.3941 53.6805 29.3468 53.6853 29.2994 53.6474C29.1906 53.5764 29.0769 53.5243 28.9633 53.4865C28.8497 53.4486 28.7219 53.4296 28.5893 53.4296C28.239 53.4296 27.9833 53.5527 27.8318 53.7989C27.6804 54.0451 27.5999 54.367 27.5999 54.7694V57.2785C27.5999 57.3448 27.5667 57.3732 27.5052 57.3732H26.8897H26.8945Z" fill="#8C8C8A"/>
<path d="M32.2302 57.4762C32.0077 57.4762 31.7994 57.4573 31.6053 57.4147C31.4159 57.3721 31.2407 57.32 31.0845 57.2537C30.9283 57.1874 30.7862 57.1117 30.6631 57.0312C30.5401 56.9507 30.4264 56.8703 30.3318 56.785C30.2892 56.7424 30.2892 56.6951 30.3318 56.6525L30.7247 56.2311C30.7673 56.1885 30.8146 56.1885 30.8573 56.2311C31.0277 56.3779 31.2407 56.501 31.4869 56.6051C31.7331 56.7093 31.9982 56.7566 32.2775 56.7566C32.6184 56.7566 32.8693 56.6904 33.035 56.5625C33.2007 56.4347 33.2859 56.2643 33.2859 56.0607C33.2859 55.8808 33.2243 55.7388 33.1107 55.6346C32.9924 55.5305 32.7557 55.4547 32.3959 55.4169L31.9082 55.3695C31.4538 55.3174 31.1129 55.1849 30.8809 54.9671C30.649 54.7493 30.5353 54.4511 30.5353 54.0771C30.5353 53.6368 30.6821 53.2912 30.9803 53.045C31.2786 52.7989 31.6952 52.6758 32.2396 52.6758C32.5805 52.6758 32.8882 52.7231 33.1628 52.8178C33.4421 52.9125 33.6741 53.0356 33.8682 53.1823C33.9203 53.2155 33.925 53.2581 33.8871 53.3149L33.5605 53.7268C33.5226 53.7694 33.4752 53.7788 33.4279 53.7457C33.2811 53.651 33.0965 53.5611 32.8787 53.4853C32.6562 53.4096 32.429 53.3717 32.1923 53.3717C31.9035 53.3717 31.6857 53.4285 31.539 53.5469C31.3922 53.6652 31.3165 53.8167 31.3165 54.0014C31.3165 54.186 31.3827 54.328 31.5106 54.4274C31.6384 54.5268 31.8751 54.5931 32.2207 54.6215L32.7036 54.6689C33.1723 54.7115 33.5179 54.8488 33.7451 55.0713C33.9723 55.2938 34.086 55.592 34.086 55.9613C34.086 56.4158 33.925 56.7803 33.6078 57.0549C33.2906 57.3295 32.8267 57.4668 32.2302 57.4668V57.4762Z" fill="#8C8C8A"/>
<path d="M40.4247 57.3735C40.3631 57.3735 40.33 57.3404 40.33 57.2788V56.8764H40.3205C40.2116 57.0468 40.0459 57.1936 39.8234 57.3072C39.6009 57.4208 39.3121 57.4824 38.9618 57.4824C38.744 57.4824 38.5405 57.454 38.3511 57.3972C38.1617 57.3404 38.0008 57.2504 37.8635 57.1368C37.7262 57.0232 37.6173 56.8764 37.5368 56.706C37.4563 56.5308 37.4185 56.332 37.4185 56.1C37.4185 55.6124 37.5747 55.2526 37.8919 55.0254C38.2091 54.7934 38.6493 54.6798 39.208 54.6798H40.2542C40.2921 54.6798 40.311 54.6608 40.311 54.623V54.2916C40.311 53.9744 40.2353 53.7471 40.0791 53.6051C39.9228 53.4631 39.634 53.3968 39.208 53.3968C38.9476 53.3968 38.7298 53.4252 38.5547 53.4868C38.3842 53.5483 38.228 53.624 38.0954 53.7235C38.0386 53.7661 37.9913 53.7661 37.9629 53.714L37.7025 53.2737C37.6788 53.2216 37.6836 53.179 37.7214 53.1412C37.8919 53.0086 38.1096 52.8997 38.3748 52.8145C38.6351 52.734 38.9381 52.6914 39.2837 52.6914C39.937 52.6914 40.3962 52.8098 40.6661 53.0512C40.9359 53.2926 41.0732 53.6903 41.0732 54.2537V57.293C41.0732 57.3593 41.0401 57.3877 40.9785 57.3877H40.4199L40.4247 57.3735ZM39.1464 56.7865C39.511 56.7865 39.795 56.7107 40.0033 56.5498C40.2069 56.3935 40.311 56.171 40.311 55.8822V55.3757C40.311 55.3378 40.2921 55.3189 40.2542 55.3189H39.3311C38.9287 55.3189 38.6351 55.3804 38.4552 55.494C38.2753 55.6124 38.1854 55.8018 38.1854 56.0669C38.1854 56.3036 38.2706 56.4835 38.4363 56.6018C38.602 56.7249 38.8387 56.7865 39.1512 56.7865H39.1464Z" fill="#8C8C8A"/>
<path d="M45.5992 57.3721C45.5377 57.3721 45.5045 57.3389 45.5045 57.2774V54.5931C45.5045 54.2239 45.4193 53.9351 45.2489 53.7315C45.0785 53.5279 44.8228 53.4238 44.4772 53.4238C44.1648 53.4238 43.9091 53.5232 43.715 53.7268C43.5209 53.9303 43.4215 54.2002 43.4215 54.5458V57.2774C43.4215 57.3437 43.3884 57.3721 43.3268 57.3721H42.7114C42.6451 57.3721 42.6167 57.3389 42.6167 57.2774V52.8794C42.6167 52.8178 42.6498 52.7847 42.7114 52.7847H43.3268C43.3884 52.7847 43.4215 52.8178 43.4215 52.8794V53.3007H43.431C43.5399 53.1208 43.7008 52.974 43.9186 52.8557C44.1364 52.7373 44.4015 52.6758 44.7139 52.6758C45.211 52.6758 45.604 52.832 45.8833 53.1445C46.1626 53.4569 46.3046 53.8783 46.3046 54.399V57.2727C46.3046 57.3389 46.2715 57.3673 46.2099 57.3673H45.5945L45.5992 57.3721Z" fill="#8C8C8A"/>
<path d="M50.7073 57.3736C50.641 57.3736 50.6126 57.3404 50.6126 57.2789V56.8386H50.6032C50.4943 57.0233 50.338 57.1795 50.1297 57.2978C49.9214 57.4209 49.6468 57.4825 49.3013 57.4825C48.8989 57.4825 48.5627 57.3878 48.2929 57.2031C48.023 57.0185 47.8337 56.7439 47.72 56.3794C47.6585 56.1948 47.6112 56.0007 47.5922 55.8018C47.5686 55.603 47.5591 55.3616 47.5591 55.0728C47.5591 54.784 47.5686 54.5425 47.5922 54.3484C47.6159 54.1543 47.6585 53.965 47.72 53.7804C47.8337 53.4158 48.0278 53.1412 48.2929 52.9566C48.5627 52.772 48.8989 52.6773 49.3013 52.6773C49.6468 52.6773 49.9214 52.7388 50.1297 52.8572C50.338 52.9755 50.4943 53.127 50.6032 53.3117H50.6126V50.9541C50.6126 50.8878 50.6458 50.8594 50.7073 50.8594H51.3227C51.3843 50.8594 51.4174 50.8925 51.4174 50.9541V57.2789C51.4174 57.3452 51.3843 57.3736 51.3227 57.3736H50.7073ZM49.4906 56.7297C50.0161 56.7297 50.3522 56.4978 50.5085 56.0291C50.5463 55.9202 50.5747 55.7924 50.5889 55.6409C50.6032 55.4894 50.6126 55.3 50.6126 55.0728C50.6126 54.8455 50.6032 54.6562 50.5889 54.5094C50.5747 54.3627 50.5463 54.2301 50.5085 54.1165C50.357 53.6573 50.0161 53.4253 49.4906 53.4253C48.9651 53.4253 48.6432 53.6573 48.4822 54.1165C48.4444 54.2443 48.416 54.3863 48.4018 54.5378C48.3876 54.6893 48.3781 54.8692 48.3781 55.0728C48.3781 55.2763 48.3876 55.4657 48.4018 55.6172C48.416 55.7687 48.4444 55.906 48.4822 56.0291C48.6432 56.493 48.9793 56.7297 49.4906 56.7297Z" fill="#8C8C8A"/>
<path d="M55.2476 55.9423C55.2144 55.8476 55.1908 55.7481 55.1671 55.6487C55.1434 55.5493 55.1292 55.431 55.115 55.2937C55.1008 55.1564 55.0914 54.9907 55.0866 54.8013C55.0819 54.6072 55.0771 54.38 55.0771 54.1101C55.0771 53.8403 55.0772 53.613 55.0866 53.4189C55.0961 53.2248 55.1008 53.0639 55.115 52.9266C55.1292 52.7893 55.1434 52.6709 55.1671 52.5715C55.1908 52.4721 55.2144 52.3774 55.2476 52.278C55.4133 51.762 55.6831 51.3738 56.0524 51.1229C56.4216 50.872 56.8761 50.7441 57.4111 50.7441C57.8987 50.7441 58.32 50.8578 58.6798 51.085C59.0396 51.3122 59.3142 51.6342 59.4989 52.0602C59.5178 52.117 59.5036 52.1597 59.461 52.1833L58.8834 52.4626C58.8219 52.4958 58.7745 52.4768 58.7509 52.4153C58.623 52.1597 58.4526 51.9514 58.2443 51.7857C58.0313 51.6247 57.7567 51.5395 57.4111 51.5395C57.0655 51.5395 56.7672 51.6247 56.5495 51.7904C56.3317 51.9561 56.1707 52.1928 56.0619 52.5005C56.0429 52.5715 56.024 52.6473 56.0098 52.7278C55.9956 52.8082 55.9814 52.9077 55.9719 53.026C55.9624 53.1444 55.953 53.2911 55.9482 53.4663C55.9435 53.6414 55.9388 53.8592 55.9388 54.1149C55.9388 54.3705 55.9388 54.5835 55.9482 54.7634C55.953 54.9386 55.9624 55.0854 55.9719 55.2037C55.9814 55.3221 55.9956 55.4215 56.0098 55.5067C56.024 55.5919 56.0429 55.6629 56.0619 55.7245C56.1707 56.0322 56.3317 56.2689 56.5495 56.4346C56.7672 56.6003 57.056 56.6855 57.4111 56.6855C57.7661 56.6855 58.036 56.605 58.2443 56.4393C58.4573 56.2784 58.623 56.0653 58.7509 55.8097C58.7745 55.7434 58.8219 55.7292 58.8834 55.7624L59.461 56.0417C59.5036 56.0653 59.5178 56.1079 59.4989 56.1648C59.3142 56.5861 59.0396 56.9128 58.6798 57.14C58.32 57.3672 57.894 57.4809 57.4111 57.4809C56.8761 57.4809 56.4216 57.353 56.0524 57.1021C55.6831 56.8512 55.4133 56.4677 55.2476 55.947V55.9423Z" fill="#8C8C8A"/>
<path d="M62.4007 57.4762C61.951 57.4762 61.5722 57.3673 61.255 57.1496C60.9379 56.9318 60.7154 56.6288 60.5875 56.2406C60.5355 56.0796 60.4976 55.9139 60.4739 55.7388C60.4502 55.5636 60.436 55.3411 60.436 55.0713C60.436 54.8014 60.4502 54.5836 60.4739 54.4085C60.4976 54.2333 60.5355 54.0676 60.5875 53.9114C60.7154 53.5137 60.9379 53.2108 61.255 52.9977C61.5722 52.7847 61.951 52.6758 62.4007 52.6758C62.8505 52.6758 63.2292 52.7847 63.5464 52.9977C63.8636 53.2108 64.0861 53.5185 64.2139 53.9114C64.266 54.0724 64.3038 54.2381 64.3275 54.4085C64.3512 54.5789 64.3654 54.8014 64.3654 55.0713C64.3654 55.3411 64.3512 55.5636 64.3275 55.7388C64.3038 55.9139 64.266 56.0844 64.2139 56.2406C64.0861 56.6288 63.8636 56.9318 63.5464 57.1496C63.2292 57.3673 62.8505 57.4762 62.4007 57.4762ZM62.4007 56.7282C62.6564 56.7282 62.8741 56.6667 63.054 56.5436C63.2339 56.4205 63.3618 56.2406 63.4375 56.0134C63.4754 55.8855 63.5038 55.753 63.518 55.6157C63.5322 55.4784 63.5416 55.2985 63.5416 55.076C63.5416 54.8535 63.5322 54.6736 63.518 54.541C63.5038 54.4085 63.4754 54.2759 63.4375 54.1481C63.3618 53.9161 63.2339 53.741 63.054 53.6179C62.8741 53.4948 62.6564 53.4332 62.4007 53.4332C62.1451 53.4332 61.9273 53.4948 61.7474 53.6179C61.5675 53.741 61.4397 53.9209 61.3639 54.1481C61.3261 54.2759 61.2977 54.4085 61.2835 54.541C61.2693 54.6736 61.2598 54.8535 61.2598 55.076C61.2598 55.2985 61.2693 55.4784 61.2835 55.6157C61.2977 55.753 61.3261 55.8855 61.3639 56.0134C61.4397 56.2453 61.5675 56.4205 61.7474 56.5436C61.9273 56.6667 62.1451 56.7282 62.4007 56.7282Z" fill="#8C8C8A"/>
<path d="M68.6358 57.3721C68.5743 57.3721 68.5412 57.3389 68.5412 57.2774V54.5931C68.5412 54.2239 68.4559 53.9351 68.2855 53.7315C68.1151 53.5279 67.8594 53.4238 67.5138 53.4238C67.2014 53.4238 66.9457 53.5232 66.7516 53.7268C66.5575 53.9303 66.4581 54.2002 66.4581 54.5458V57.2774C66.4581 57.3437 66.425 57.3721 66.3634 57.3721H65.748C65.6817 57.3721 65.6533 57.3389 65.6533 57.2774V52.8794C65.6533 52.8178 65.6865 52.7847 65.748 52.7847H66.3634C66.425 52.7847 66.4581 52.8178 66.4581 52.8794V53.3007H66.4676C66.5765 53.1208 66.7374 52.974 66.9552 52.8557C67.173 52.7373 67.4381 52.6758 67.7506 52.6758C68.2476 52.6758 68.6406 52.832 68.9199 53.1445C69.1992 53.4569 69.3412 53.8783 69.3412 54.399V57.2727C69.3412 57.3389 69.3081 57.3673 69.2465 57.3673H68.6311L68.6358 57.3721Z" fill="#8C8C8A"/>
<path d="M72.4513 57.4762C72.2288 57.4762 72.0205 57.4573 71.8264 57.4147C71.6371 57.3721 71.4619 57.32 71.3057 57.2537C71.1495 57.1874 71.0074 57.1117 70.8843 57.0312C70.7613 56.9507 70.6476 56.8703 70.553 56.785C70.5103 56.7424 70.5103 56.6951 70.553 56.6525L70.9459 56.2311C70.9885 56.1885 71.0358 56.1885 71.0784 56.2311C71.2489 56.3779 71.4619 56.501 71.7081 56.6051C71.9543 56.7093 72.2194 56.7566 72.4987 56.7566C72.8396 56.7566 73.0905 56.6904 73.2562 56.5625C73.4218 56.4347 73.5071 56.2643 73.5071 56.0607C73.5071 55.8808 73.4455 55.7388 73.3319 55.6346C73.2135 55.5305 72.9768 55.4547 72.617 55.4169L72.1294 55.3695C71.6749 55.3174 71.3341 55.1849 71.1021 54.9671C70.8701 54.7493 70.7565 54.4511 70.7565 54.0771C70.7565 53.6368 70.9033 53.2912 71.2015 53.045C71.4998 52.7989 71.9164 52.6758 72.4608 52.6758C72.8017 52.6758 73.1094 52.7231 73.384 52.8178C73.6633 52.9125 73.8953 53.0356 74.0894 53.1823C74.1414 53.2155 74.1462 53.2581 74.1083 53.3149L73.7816 53.7268C73.7438 53.7694 73.6964 53.7788 73.6491 53.7457C73.5023 53.651 73.3177 53.5611 73.0999 53.4853C72.8774 53.4096 72.6502 53.3717 72.4135 53.3717C72.1247 53.3717 71.9069 53.4285 71.7602 53.5469C71.6134 53.6652 71.5377 53.8167 71.5377 54.0014C71.5377 54.186 71.6039 54.328 71.7318 54.4274C71.8596 54.5268 72.0963 54.5931 72.4419 54.6215L72.9248 54.6689C73.3934 54.7115 73.739 54.8488 73.9663 55.0713C74.1935 55.2938 74.3071 55.592 74.3071 55.9613C74.3071 56.4158 74.1462 56.7803 73.829 57.0549C73.5118 57.3295 73.0479 57.4668 72.4513 57.4668V57.4762Z" fill="#8C8C8A"/>
<path d="M78.4494 57.3737C78.3831 57.3737 78.3547 57.3405 78.3547 57.279V56.8482H78.3452C78.2221 57.0375 78.0612 57.1938 77.8529 57.3074C77.6446 57.421 77.3937 57.4826 77.0907 57.4826C76.5841 57.4826 76.1959 57.3263 75.9166 57.0092C75.6373 56.692 75.5 56.2754 75.5 55.7499V52.8857C75.5 52.8241 75.5331 52.791 75.5947 52.791H76.2101C76.2717 52.791 76.3048 52.8241 76.3048 52.8857V55.5605C76.3048 55.9392 76.39 56.228 76.5557 56.4316C76.7214 56.6352 76.9771 56.7393 77.3226 56.7393C77.6351 56.7393 77.886 56.6352 78.0754 56.4316C78.2648 56.228 78.3594 55.9534 78.3594 55.6078V52.8857C78.3594 52.8241 78.3926 52.791 78.4541 52.791H79.0696C79.1311 52.791 79.1642 52.8241 79.1642 52.8857V57.2837C79.1642 57.35 79.1311 57.3784 79.0696 57.3784H78.4541L78.4494 57.3737Z" fill="#8C8C8A"/>
<path d="M81.8344 57.4209C81.432 57.4209 81.1432 57.3215 80.9728 57.1274C80.8024 56.9333 80.7124 56.6256 80.7124 56.2137V50.9541C80.7124 50.8878 80.7455 50.8594 80.8071 50.8594H81.4225C81.4841 50.8594 81.5172 50.8925 81.5172 50.9541V56.1664C81.5172 56.3557 81.5551 56.493 81.6261 56.564C81.6971 56.6351 81.8155 56.6729 81.9764 56.6729H82.1563C82.2179 56.6729 82.251 56.7061 82.251 56.7676V57.3215C82.251 57.3878 82.2179 57.4162 82.1563 57.4162H81.8297L81.8344 57.4209Z" fill="#8C8C8A"/>
<path d="M84.6705 57.4193C84.2255 57.4193 83.9035 57.3152 83.7189 57.1069C83.5295 56.8986 83.4349 56.5672 83.4349 56.1127V53.4852C83.4349 53.4474 83.4159 53.4284 83.378 53.4284H82.9946C82.9283 53.4284 82.8999 53.3953 82.8999 53.3338V52.8745C82.8999 52.813 82.933 52.7799 82.9946 52.7799H83.378C83.4159 52.7799 83.4349 52.7609 83.4349 52.723V51.4306C83.4349 51.3691 83.468 51.3359 83.5295 51.3359H84.145C84.2065 51.3359 84.2397 51.3691 84.2397 51.4306V52.723C84.2397 52.7609 84.2586 52.7799 84.2965 52.7799H85.0255C85.0871 52.7799 85.1202 52.813 85.1202 52.8745V53.3338C85.1202 53.3953 85.0871 53.4284 85.0255 53.4284H84.2965C84.2586 53.4284 84.2397 53.4474 84.2397 53.4852V56.0843C84.2397 56.3163 84.287 56.4678 84.377 56.5483C84.4716 56.6287 84.6184 56.6666 84.822 56.6666H85.0255C85.0871 56.6666 85.1202 56.6997 85.1202 56.7613V57.3152C85.1202 57.3815 85.0871 57.4099 85.0255 57.4099H84.6705V57.4193Z" fill="#8C8C8A"/>
<path d="M89.1439 57.3735C89.0823 57.3735 89.0492 57.3404 89.0492 57.2788V56.8764H89.0397C88.9309 57.0468 88.7651 57.1936 88.5426 57.3072C88.3201 57.4208 88.0314 57.4824 87.681 57.4824C87.4633 57.4824 87.2597 57.454 87.0703 57.3972C86.881 57.3404 86.72 57.2504 86.5827 57.1368C86.4454 57.0232 86.3365 56.8764 86.256 56.706C86.1756 56.5308 86.1377 56.332 86.1377 56.1C86.1377 55.6124 86.2939 55.2526 86.6111 55.0254C86.9283 54.7934 87.3686 54.6798 87.9272 54.6798H88.9735C89.0113 54.6798 89.0303 54.6608 89.0303 54.623V54.2916C89.0303 53.9744 88.9545 53.7471 88.7983 53.6051C88.6421 53.4631 88.3533 53.3968 87.9272 53.3968C87.6668 53.3968 87.4491 53.4252 87.2739 53.4868C87.1035 53.5483 86.9472 53.624 86.8147 53.7235C86.7579 53.7661 86.7105 53.7661 86.6821 53.714L86.4217 53.2737C86.3981 53.2216 86.4028 53.179 86.4407 53.1412C86.6111 53.0086 86.8289 52.8997 87.094 52.8145C87.3544 52.734 87.6574 52.6914 88.003 52.6914C88.6563 52.6914 89.1155 52.8098 89.3853 53.0512C89.6552 53.2926 89.7925 53.6903 89.7925 54.2537V57.293C89.7925 57.3593 89.7593 57.3877 89.6978 57.3877H89.1392L89.1439 57.3735ZM87.8657 56.7865C88.2302 56.7865 88.5142 56.7107 88.7225 56.5498C88.9261 56.3935 89.0303 56.171 89.0303 55.8822V55.3757C89.0303 55.3378 89.0113 55.3189 88.9735 55.3189H88.0503C87.6479 55.3189 87.3544 55.3804 87.1745 55.494C86.9946 55.6124 86.9046 55.8018 86.9046 56.0669C86.9046 56.3036 86.9898 56.4835 87.1555 56.6018C87.3212 56.7249 87.5579 56.7865 87.8704 56.7865H87.8657Z" fill="#8C8C8A"/>
<path d="M94.3185 57.3721C94.2569 57.3721 94.2238 57.3389 94.2238 57.2774V54.5931C94.2238 54.2239 94.1386 53.9351 93.9681 53.7315C93.7977 53.5279 93.5421 53.4238 93.1965 53.4238C92.884 53.4238 92.6284 53.5232 92.4343 53.7268C92.2402 53.9303 92.1407 54.2002 92.1407 54.5458V57.2774C92.1407 57.3437 92.1076 57.3721 92.0461 57.3721H91.4306C91.3643 57.3721 91.3359 57.3389 91.3359 57.2774V52.8794C91.3359 52.8178 91.3691 52.7847 91.4306 52.7847H92.0461C92.1076 52.7847 92.1407 52.8178 92.1407 52.8794V53.3007H92.1502C92.2591 53.1208 92.4201 52.974 92.6378 52.8557C92.8556 52.7373 93.1207 52.6758 93.4332 52.6758C93.9303 52.6758 94.3232 52.832 94.6025 53.1445C94.8818 53.4569 95.0238 53.8783 95.0238 54.399V57.2727C95.0238 57.3389 94.9907 57.3673 94.9292 57.3673H94.3137L94.3185 57.3721Z" fill="#8C8C8A"/>
<path d="M97.8834 57.4193C97.4384 57.4193 97.1164 57.3152 96.9318 57.1069C96.7424 56.8986 96.6477 56.5672 96.6477 56.1127V53.4852C96.6477 53.4474 96.6288 53.4284 96.5909 53.4284H96.2075C96.1412 53.4284 96.1128 53.3953 96.1128 53.3338V52.8745C96.1128 52.813 96.1459 52.7799 96.2075 52.7799H96.5909C96.6288 52.7799 96.6477 52.7609 96.6477 52.723V51.4306C96.6477 51.3691 96.6809 51.3359 96.7424 51.3359H97.3579C97.4194 51.3359 97.4526 51.3691 97.4526 51.4306V52.723C97.4526 52.7609 97.4715 52.7799 97.5094 52.7799H98.2384C98.3 52.7799 98.3331 52.813 98.3331 52.8745V53.3338C98.3331 53.3953 98.3 53.4284 98.2384 53.4284H97.5094C97.4715 53.4284 97.4526 53.4474 97.4526 53.4852V56.0843C97.4526 56.3163 97.4999 56.4678 97.5898 56.5483C97.6845 56.6287 97.8313 56.6666 98.0349 56.6666H98.2384C98.3 56.6666 98.3331 56.6997 98.3331 56.7613V57.3152C98.3331 57.3815 98.3 57.4099 98.2384 57.4099H97.8834V57.4193Z" fill="#8C8C8A"/>
<path d="M101.164 57.4762C100.942 57.4762 100.733 57.4573 100.539 57.4147C100.35 57.3721 100.175 57.32 100.019 57.2537C99.8623 57.1874 99.7203 57.1117 99.5972 57.0312C99.4741 56.9507 99.3605 56.8703 99.2658 56.785C99.2232 56.7424 99.2232 56.6951 99.2658 56.6525L99.6588 56.2311C99.7014 56.1885 99.7487 56.1885 99.7913 56.2311C99.9618 56.3779 100.175 56.501 100.421 56.6051C100.667 56.7093 100.932 56.7566 101.212 56.7566C101.552 56.7566 101.803 56.6904 101.969 56.5625C102.135 56.4347 102.22 56.2643 102.22 56.0607C102.22 55.8808 102.158 55.7388 102.045 55.6346C101.926 55.5305 101.69 55.4547 101.33 55.4169L100.842 55.3695C100.388 55.3174 100.047 55.1849 99.815 54.9671C99.583 54.7493 99.4694 54.4511 99.4694 54.0771C99.4694 53.6368 99.6162 53.2912 99.9144 53.045C100.213 52.7989 100.629 52.6758 101.174 52.6758C101.515 52.6758 101.822 52.7231 102.097 52.8178C102.376 52.9125 102.608 53.0356 102.802 53.1823C102.854 53.2155 102.859 53.2581 102.821 53.3149L102.495 53.7268C102.457 53.7694 102.409 53.7788 102.362 53.7457C102.215 53.651 102.031 53.5611 101.813 53.4853C101.59 53.4096 101.363 53.3717 101.126 53.3717C100.838 53.3717 100.62 53.4285 100.473 53.5469C100.326 53.6652 100.251 53.8167 100.251 54.0014C100.251 54.186 100.317 54.328 100.445 54.4274C100.572 54.5268 100.809 54.5931 101.155 54.6215L101.638 54.6689C102.106 54.7115 102.452 54.8488 102.679 55.0713C102.906 55.2938 103.02 55.592 103.02 55.9613C103.02 56.4158 102.859 56.7803 102.542 57.0549C102.225 57.3295 101.761 57.4668 101.164 57.4668V57.4762Z" fill="#8C8C8A"/>
<path d="M106.845 55.2134C106.869 55.1707 106.916 55.166 106.978 55.2039L107.503 55.4927C107.555 55.5258 107.565 55.5684 107.532 55.6158C107.418 55.7957 107.304 56.0134 107.2 56.2785C107.096 56.5437 107.044 56.8135 107.044 57.1023C107.044 57.3911 107.091 57.6041 107.181 57.7887C107.271 57.9734 107.394 58.1154 107.541 58.2196C107.688 58.3237 107.849 58.3994 108.019 58.4468C108.19 58.4894 108.36 58.5131 108.526 58.5131C108.933 58.5131 109.269 58.4089 109.534 58.1959C109.799 57.9828 109.927 57.642 109.927 57.1686V54.3707C109.927 54.3044 109.96 54.276 110.022 54.276H110.637C110.699 54.276 110.732 54.3091 110.732 54.3707V57.178C110.732 57.8361 110.538 58.3521 110.154 58.7214C109.766 59.0906 109.212 59.2753 108.483 59.2753C108.138 59.2753 107.825 59.2279 107.551 59.138C107.271 59.0433 107.035 58.9107 106.841 58.7308C106.646 58.5509 106.495 58.3332 106.386 58.0728C106.277 57.8124 106.225 57.5142 106.225 57.178C106.225 56.7993 106.287 56.4395 106.41 56.0892C106.533 55.7389 106.68 55.4501 106.845 55.2134ZM108.483 54.0346C108.422 54.0346 108.389 54.0014 108.389 53.9399V53.2392C108.389 53.1729 108.422 53.1445 108.483 53.1445H109.137C109.203 53.1445 109.231 53.1777 109.231 53.2392V53.9399C109.231 54.0061 109.198 54.0346 109.137 54.0346H108.483Z" fill="#8C8C8A"/>
<path d="M112.701 59.2817C112.635 59.2817 112.607 59.2485 112.607 59.187V58.6331C112.607 58.5668 112.64 58.5384 112.701 58.5384H113.852C113.98 58.5384 114.098 58.5242 114.207 58.4958C114.316 58.4674 114.411 58.4201 114.491 58.3538C114.571 58.2875 114.633 58.1928 114.676 58.0745C114.718 57.9561 114.742 57.8094 114.742 57.6295V57.3786H113.715C113.435 57.3786 113.18 57.3454 112.952 57.2791C112.725 57.2128 112.531 57.104 112.375 56.9525C112.214 56.801 112.096 56.6021 112.01 56.356C111.925 56.1051 111.887 55.8021 111.887 55.4375C111.887 55.073 111.935 54.7558 112.029 54.486C112.124 54.2161 112.256 53.9889 112.427 53.8137C112.597 53.6386 112.791 53.506 113.014 53.4208C113.236 53.3356 113.478 53.293 113.734 53.293C114.302 53.293 114.747 53.4587 115.064 53.7853C115.381 54.112 115.542 54.6469 115.542 55.3807V57.6153C115.542 57.9135 115.504 58.1692 115.424 58.3822C115.343 58.5952 115.234 58.7657 115.088 58.8982C114.945 59.0308 114.77 59.1302 114.567 59.1965C114.363 59.2627 114.136 59.2911 113.885 59.2911H112.697L112.701 59.2817ZM113.734 54.0268C113.407 54.0268 113.151 54.1546 112.967 54.4102C112.782 54.6659 112.687 55.002 112.687 55.4281C112.687 55.8825 112.777 56.195 112.962 56.3654C113.142 56.5359 113.412 56.6258 113.771 56.6258H114.737V55.3713C114.737 54.9499 114.657 54.6185 114.5 54.3818C114.344 54.1451 114.089 54.0268 113.729 54.0268H113.734Z" fill="#8C8C8A"/>
<path d="M116.266 59.2812C116.205 59.2812 116.171 59.248 116.171 59.1865V58.6326C116.171 58.5663 116.205 58.5379 116.266 58.5379H116.489C117.005 58.5379 117.265 58.2681 117.265 57.7236V53.5576C117.265 53.4913 117.298 53.4629 117.36 53.4629H117.975C118.041 53.4629 118.07 53.496 118.07 53.5576V57.7047C118.07 58.2207 117.937 58.6137 117.677 58.8835C117.416 59.1534 117.033 59.2859 116.526 59.2859H116.266V59.2812Z" fill="#8C8C8A"/>
<path d="M119.362 50.9482C119.362 50.8819 119.395 50.8535 119.457 50.8535H120.072C120.134 50.8535 120.167 50.8867 120.167 50.9482V56.1132C120.167 56.3025 120.205 56.4398 120.276 56.5108C120.347 56.5866 120.465 56.6197 120.626 56.6197H121.048C121.303 56.6197 121.431 56.7475 121.431 57.0032C121.431 57.1642 121.403 57.2636 121.341 57.3062C121.28 57.3488 121.185 57.3677 121.048 57.3677H120.484C120.082 57.3677 119.793 57.2683 119.623 57.0742C119.452 56.8801 119.362 56.5771 119.362 56.1605V50.9482Z" fill="#8C8C8A"/>
<path d="M124.035 57.3729C123.831 57.3729 123.651 57.3303 123.5 57.2498C123.348 57.1693 123.23 57.0415 123.145 56.8758C122.984 57.2072 122.652 57.3729 122.146 57.3729H121.109C120.981 57.3729 120.887 57.3492 120.82 57.3066C120.754 57.264 120.726 57.174 120.726 57.0368C120.726 56.8758 120.754 56.7669 120.816 56.7101C120.877 56.6533 120.972 56.6249 121.109 56.6249H121.999C122.16 56.6249 122.274 56.587 122.349 56.516C122.42 56.445 122.458 56.3077 122.458 56.1183V54.3761C122.458 54.3099 122.491 54.2815 122.553 54.2815H123.168C123.23 54.2815 123.263 54.3146 123.263 54.3761V55.9763C123.263 56.1941 123.339 56.355 123.495 56.4639C123.647 56.5728 123.855 56.6249 124.111 56.6249H124.352C124.513 56.6249 124.627 56.587 124.702 56.516C124.773 56.445 124.811 56.3077 124.811 56.1183V54.3761C124.811 54.3099 124.844 54.2815 124.906 54.2815H125.521C125.583 54.2815 125.616 54.3146 125.616 54.3761V56.0142C125.616 56.2177 125.696 56.374 125.857 56.4734C126.018 56.5775 126.227 56.6249 126.482 56.6249H126.705C126.866 56.6249 126.979 56.587 127.055 56.516C127.126 56.445 127.164 56.3077 127.164 56.1183V53.5524C127.164 53.4861 127.197 53.4577 127.259 53.4577H127.874C127.936 53.4577 127.969 53.4909 127.969 53.5524V55.9763C127.969 56.1941 128.049 56.355 128.206 56.4639C128.362 56.5728 128.57 56.6249 128.835 56.6249H128.939C129.067 56.6249 129.162 56.6533 129.228 56.7054C129.29 56.7574 129.323 56.8521 129.323 56.9799C129.323 57.1456 129.294 57.2545 129.233 57.3019C129.171 57.3492 129.077 57.3729 128.939 57.3729H128.741C128.537 57.3729 128.357 57.3303 128.206 57.2498C128.054 57.1693 127.936 57.0415 127.85 56.8758C127.69 57.2072 127.358 57.3729 126.852 57.3729H126.392C126.189 57.3729 126.009 57.3303 125.857 57.2498C125.706 57.1693 125.588 57.0415 125.502 56.8758C125.341 57.2072 125.01 57.3729 124.503 57.3729H124.044H124.035ZM124.286 52.5014C124.224 52.5014 124.191 52.4683 124.191 52.4067V51.7061C124.191 51.6398 124.224 51.6114 124.286 51.6114H124.939C125.005 51.6114 125.034 51.6445 125.034 51.7061V52.4067C125.034 52.473 125.001 52.5014 124.939 52.5014H124.286ZM124.877 51.3842C124.816 51.3842 124.783 51.351 124.783 51.2895V50.5888C124.783 50.5273 124.816 50.4941 124.877 50.4941H125.531C125.592 50.4941 125.625 50.5273 125.625 50.5888V51.2895C125.625 51.351 125.592 51.3842 125.531 51.3842H124.877ZM125.455 52.5014C125.393 52.5014 125.36 52.4683 125.36 52.4067V51.7061C125.36 51.6398 125.393 51.6114 125.455 51.6114H126.108C126.17 51.6114 126.203 51.6445 126.203 51.7061V52.4067C126.203 52.473 126.17 52.5014 126.108 52.5014H125.455Z" fill="#8C8C8A"/>
<path d="M128.935 57.3728C128.807 57.3728 128.712 57.3491 128.646 57.3065C128.58 57.2639 128.551 57.174 128.551 57.0367C128.551 56.8757 128.58 56.7668 128.641 56.71C128.703 56.6532 128.797 56.6248 128.935 56.6248H129.588C129.749 56.6248 129.863 56.5869 129.938 56.5159C130.009 56.4449 130.047 56.3076 130.047 56.1183V53.5523C130.047 53.4861 130.08 53.4577 130.142 53.4577H130.757C130.819 53.4577 130.852 53.4908 130.852 53.5523V55.9762C130.852 56.194 130.933 56.355 131.089 56.4638C131.245 56.5727 131.453 56.6248 131.718 56.6248H131.832C131.96 56.6248 132.055 56.6532 132.121 56.7053C132.182 56.7574 132.216 56.852 132.216 56.9799C132.216 57.1456 132.187 57.2545 132.126 57.3018C132.064 57.3491 131.969 57.3728 131.832 57.3728H131.619C131.415 57.3728 131.236 57.3302 131.084 57.2497C130.928 57.1692 130.814 57.0414 130.729 56.8757C130.568 57.2071 130.237 57.3728 129.73 57.3728H128.935ZM129.517 52.5014C129.455 52.5014 129.422 52.4682 129.422 52.4067V51.706C129.422 51.6397 129.455 51.6113 129.517 51.6113H130.17C130.232 51.6113 130.265 51.6445 130.265 51.706V52.4067C130.265 52.473 130.232 52.5014 130.17 52.5014H129.517ZM130.686 52.5014C130.62 52.5014 130.592 52.4682 130.592 52.4067V51.706C130.592 51.6397 130.625 51.6113 130.686 51.6113H131.34C131.406 51.6113 131.434 51.6445 131.434 51.706V52.4067C131.434 52.473 131.401 52.5014 131.34 52.5014H130.686Z" fill="#8C8C8A"/>
<path d="M134.748 57.3722C134.545 57.3722 134.365 57.3296 134.213 57.2491C134.062 57.1686 133.943 57.0408 133.858 56.8751C133.697 57.2065 133.366 57.3722 132.859 57.3722H131.822C131.695 57.3722 131.6 57.3485 131.534 57.3059C131.467 57.2633 131.439 57.1733 131.439 57.0361C131.439 56.8751 131.467 56.7662 131.529 56.7094C131.59 56.6526 131.685 56.6242 131.822 56.6242H132.712C132.873 56.6242 132.987 56.5863 133.063 56.5153C133.134 56.4443 133.172 56.307 133.172 56.1176V54.3754C133.172 54.3092 133.205 54.2808 133.266 54.2808H133.877C133.943 54.2808 133.972 54.3139 133.972 54.3754V55.9756C133.972 56.1934 134.047 56.3543 134.204 56.4632C134.355 56.5721 134.559 56.6242 134.814 56.6242H135.056C135.217 56.6242 135.33 56.5863 135.406 56.5153C135.482 56.4443 135.515 56.307 135.515 56.1176V54.3754C135.515 54.3092 135.548 54.2808 135.61 54.2808H136.22C136.287 54.2808 136.315 54.3139 136.315 54.3754V56.0135C136.315 56.217 136.396 56.3733 136.557 56.4727C136.718 56.5768 136.926 56.6242 137.182 56.6242H137.404C137.565 56.6242 137.679 56.5863 137.754 56.5153C137.83 56.4443 137.863 56.307 137.863 56.1176V53.5517C137.863 53.4854 137.896 53.457 137.958 53.457H138.573C138.64 53.457 138.668 53.4902 138.668 53.5517V55.9756C138.668 56.1934 138.744 56.3543 138.905 56.4632C139.061 56.5721 139.269 56.6242 139.534 56.6242H139.639C139.766 56.6242 139.861 56.6526 139.927 56.7047C139.989 56.7567 140.022 56.8514 140.022 56.9792C140.022 57.1449 139.994 57.2538 139.932 57.3012C139.871 57.3485 139.776 57.3722 139.639 57.3722H139.435C139.231 57.3722 139.051 57.3296 138.9 57.2491C138.748 57.1686 138.63 57.0408 138.545 56.8751C138.384 57.2065 138.053 57.3722 137.551 57.3722H137.092C136.888 57.3722 136.708 57.3296 136.557 57.2491C136.4 57.1686 136.287 57.0408 136.202 56.8751C136.041 57.2065 135.709 57.3722 135.203 57.3722H134.743H134.748Z" fill="#8C8C8A"/>
<path d="M142.541 57.439C142.242 57.439 141.977 57.3964 141.745 57.3111C141.513 57.2259 141.319 57.0886 141.158 56.904C141.026 57.1076 140.851 57.2401 140.642 57.2922C140.434 57.3443 140.235 57.3727 140.06 57.3727H139.648C139.392 57.3727 139.265 57.2449 139.265 56.9892C139.265 56.8283 139.293 56.7288 139.355 56.6862C139.416 56.6436 139.511 56.6247 139.648 56.6247H140.126C140.197 56.6247 140.268 56.6105 140.339 56.5821C140.41 56.5537 140.472 56.5063 140.529 56.4401C140.585 56.3738 140.633 56.2838 140.666 56.1702C140.699 56.0566 140.718 55.9193 140.718 55.7536C140.713 55.6873 140.709 55.6258 140.709 55.569V55.3749C140.709 54.6411 140.87 54.1061 141.196 53.7795C141.523 53.4528 141.968 53.2871 142.536 53.2871C143.104 53.2871 143.554 53.4528 143.876 53.7795C144.198 54.1061 144.363 54.6411 144.363 55.3749C144.363 55.7394 144.321 56.0519 144.236 56.3122C144.15 56.5726 144.027 56.7904 143.871 56.9561C143.715 57.1218 143.521 57.2449 143.293 57.3253C143.066 57.4058 142.811 57.4437 142.531 57.4437L142.541 57.439ZM142.541 54.0256C142.181 54.0256 141.921 54.144 141.76 54.3807C141.599 54.6174 141.513 54.9441 141.513 55.3701C141.513 55.8293 141.594 56.1655 141.76 56.3738C141.921 56.5868 142.181 56.691 142.541 56.691C142.9 56.691 143.161 56.5868 143.322 56.3738C143.483 56.1607 143.568 55.8293 143.568 55.3701C143.568 54.9488 143.488 54.6174 143.322 54.3807C143.161 54.144 142.9 54.0256 142.541 54.0256Z" fill="#8C8C8A"/>
<path d="M146.243 59.2817C146.177 59.2817 146.148 59.2485 146.148 59.187V58.6331C146.148 58.5668 146.181 58.5384 146.243 58.5384H147.393C147.521 58.5384 147.64 58.5242 147.748 58.4958C147.857 58.4674 147.952 58.4201 148.032 58.3538C148.113 58.2875 148.175 58.1928 148.217 58.0745C148.26 57.9561 148.283 57.8094 148.283 57.6295V57.3786H147.256C146.977 57.3786 146.721 57.3454 146.494 57.2791C146.267 57.2128 146.073 57.104 145.916 56.9525C145.755 56.801 145.637 56.6021 145.552 56.356C145.467 56.1051 145.429 55.8021 145.429 55.4375C145.429 55.073 145.476 54.7558 145.571 54.486C145.665 54.2161 145.798 53.9889 145.968 53.8137C146.139 53.6386 146.333 53.506 146.555 53.4208C146.778 53.3356 147.019 53.293 147.275 53.293C147.843 53.293 148.288 53.4587 148.605 53.7853C148.923 54.112 149.083 54.6469 149.083 55.3807V57.6153C149.083 57.9135 149.041 58.1692 148.965 58.3822C148.889 58.5952 148.776 58.7657 148.629 58.8982C148.487 59.0308 148.312 59.1302 148.108 59.1965C147.905 59.2627 147.677 59.2911 147.427 59.2911H146.238L146.243 59.2817ZM147.275 54.0268C146.948 54.0268 146.693 54.1546 146.508 54.4102C146.323 54.6659 146.229 55.002 146.229 55.4281C146.229 55.8825 146.319 56.195 146.503 56.3654C146.688 56.5359 146.953 56.6258 147.313 56.6258H148.283V55.3713C148.283 54.9499 148.203 54.6185 148.047 54.3818C147.89 54.1451 147.635 54.0268 147.275 54.0268Z" fill="#8C8C8A"/>
<path d="M153.065 55.2134C153.089 55.1707 153.136 55.166 153.197 55.2039L153.723 55.4927C153.775 55.5258 153.784 55.5684 153.751 55.6158C153.638 55.7957 153.524 56.0134 153.42 56.2785C153.316 56.5389 153.264 56.8135 153.264 57.1023C153.264 57.3911 153.311 57.6041 153.401 57.7887C153.491 57.9734 153.614 58.1154 153.761 58.2196C153.908 58.3237 154.069 58.3994 154.239 58.4468C154.409 58.4894 154.58 58.5131 154.745 58.5131C155.153 58.5131 155.489 58.4089 155.749 58.1959C156.01 57.9828 156.142 57.642 156.142 57.1686V54.3707C156.142 54.3044 156.175 54.276 156.237 54.276H156.852C156.914 54.276 156.947 54.3091 156.947 54.3707V57.178C156.947 57.8361 156.753 58.3521 156.369 58.7214C155.986 59.0906 155.427 59.2753 154.698 59.2753C154.353 59.2753 154.04 59.2279 153.766 59.138C153.486 59.0433 153.249 58.9107 153.055 58.7308C152.861 58.5509 152.71 58.3332 152.601 58.0728C152.492 57.8124 152.44 57.5142 152.44 57.178C152.44 56.7993 152.501 56.4395 152.625 56.0892C152.748 55.7389 152.894 55.4501 153.06 55.2134H153.065ZM154.703 54.0346C154.637 54.0346 154.608 54.0014 154.608 53.9399V53.2392C154.608 53.1729 154.641 53.1445 154.703 53.1445H155.356C155.418 53.1445 155.451 53.1777 155.451 53.2392V53.9399C155.451 54.0061 155.418 54.0346 155.356 54.0346H154.703Z" fill="#8C8C8A"/>
<path d="M158.921 59.2817C158.854 59.2817 158.826 59.2485 158.826 59.187V58.6331C158.826 58.5668 158.859 58.5384 158.921 58.5384H160.071C160.199 58.5384 160.317 58.5242 160.426 58.4958C160.535 58.4674 160.63 58.4201 160.71 58.3538C160.791 58.2875 160.852 58.1928 160.895 58.0745C160.937 57.9561 160.961 57.8094 160.961 57.6295V57.3786H159.934C159.655 57.3786 159.399 57.3454 159.172 57.2791C158.944 57.2128 158.75 57.104 158.594 56.9525C158.433 56.801 158.315 56.6021 158.23 56.356C158.144 56.1051 158.106 55.8021 158.106 55.4375C158.106 55.073 158.154 54.7558 158.253 54.486C158.353 54.2161 158.485 53.9889 158.656 53.8137C158.826 53.6386 159.02 53.506 159.247 53.4208C159.47 53.3356 159.707 53.293 159.958 53.293C160.526 53.293 160.971 53.4587 161.288 53.7853C161.605 54.112 161.766 54.6469 161.766 55.3807V56.6353H162.429C162.557 56.6353 162.651 56.6637 162.718 56.7158C162.784 56.7678 162.812 56.8625 162.812 56.9903C162.812 57.156 162.784 57.2649 162.722 57.3123C162.661 57.3596 162.566 57.3833 162.429 57.3833H161.766V57.6153C161.766 57.9135 161.723 58.1692 161.648 58.3822C161.572 58.5952 161.458 58.7657 161.311 58.8982C161.169 59.0308 160.994 59.1302 160.791 59.1965C160.587 59.2627 160.36 59.2911 160.109 59.2911H158.921V59.2817ZM159.953 54.0268C159.631 54.0268 159.38 54.1546 159.191 54.4102C159.001 54.6659 158.907 55.002 158.907 55.4281C158.907 55.8825 158.996 56.195 159.181 56.3654C159.366 56.5359 159.631 56.6258 159.991 56.6258H160.961V55.3713C160.961 54.9499 160.881 54.6185 160.724 54.3818C160.568 54.1451 160.313 54.0268 159.953 54.0268Z" fill="#8C8C8A"/>
<path d="M165.331 57.439C165.032 57.439 164.767 57.3964 164.535 57.3111C164.303 57.2259 164.109 57.0886 163.948 56.904C163.816 57.1076 163.641 57.2401 163.432 57.2922C163.224 57.3443 163.025 57.3727 162.85 57.3727H162.438C162.183 57.3727 162.055 57.2449 162.055 56.9892C162.055 56.8283 162.083 56.7288 162.145 56.6862C162.206 56.6436 162.301 56.6247 162.438 56.6247H162.916C162.987 56.6247 163.058 56.6105 163.129 56.5821C163.2 56.5537 163.262 56.5063 163.319 56.4401C163.376 56.3738 163.423 56.2838 163.456 56.1702C163.489 56.0566 163.508 55.9193 163.508 55.7536C163.503 55.6873 163.499 55.6258 163.499 55.569V55.3749C163.499 54.6411 163.66 54.1061 163.986 53.7795C164.313 53.4528 164.758 53.2871 165.326 53.2871C165.894 53.2871 166.344 53.4528 166.666 53.7795C166.988 54.1061 167.153 54.6411 167.153 55.3749C167.153 55.7394 167.111 56.0519 167.026 56.3122C166.94 56.5726 166.817 56.7904 166.661 56.9561C166.505 57.1218 166.311 57.2449 166.083 57.3253C165.856 57.4058 165.601 57.4437 165.321 57.4437L165.331 57.439ZM165.331 54.0256C164.971 54.0256 164.711 54.144 164.55 54.3807C164.389 54.6174 164.303 54.9441 164.303 55.3701C164.303 55.8293 164.384 56.1655 164.55 56.3738C164.711 56.5868 164.971 56.691 165.331 56.691C165.691 56.691 165.951 56.5868 166.112 56.3738C166.273 56.1607 166.358 55.8293 166.358 55.3701C166.358 54.9488 166.278 54.6174 166.112 54.3807C165.951 54.144 165.691 54.0256 165.331 54.0256Z" fill="#8C8C8A"/>
<path d="M168.356 50.9482C168.356 50.8819 168.389 50.8535 168.45 50.8535H169.061C169.127 50.8535 169.156 50.8867 169.156 50.9482V56.1132C169.156 56.3025 169.194 56.4398 169.265 56.5108C169.336 56.5866 169.454 56.6197 169.615 56.6197H170.036C170.292 56.6197 170.42 56.7475 170.42 57.0032C170.42 57.1642 170.391 57.2636 170.33 57.3062C170.268 57.3488 170.174 57.3677 170.036 57.3677H169.473C169.071 57.3677 168.782 57.2683 168.611 57.0742C168.441 56.8801 168.351 56.5771 168.351 56.1605V50.9482H168.356Z" fill="#8C8C8A"/>
<path d="M172.286 54.0265C172.068 54.0265 171.869 54.0691 171.684 54.159C171.504 54.249 171.339 54.3721 171.202 54.5236C171.164 54.5662 171.116 54.5709 171.069 54.533L170.648 54.1874C170.591 54.1448 170.581 54.0975 170.619 54.0549C170.799 53.8324 171.022 53.6477 171.287 53.501C171.552 53.3542 171.874 53.2832 172.262 53.2832C172.702 53.2832 173.062 53.3542 173.346 53.4915C173.625 53.6288 173.853 53.8087 174.014 54.0312C174.179 54.2537 174.293 54.5141 174.359 54.8076C174.425 55.1011 174.454 55.4041 174.454 55.7166C174.454 55.7734 174.454 55.8302 174.454 55.8775C174.454 55.9296 174.454 55.9769 174.454 56.029C174.468 56.2279 174.553 56.3746 174.71 56.474C174.866 56.5735 175.069 56.6208 175.32 56.6208H175.424C175.552 56.6208 175.647 56.6492 175.713 56.7013C175.779 56.7533 175.808 56.848 175.808 56.9759C175.808 57.1416 175.779 57.2504 175.718 57.2978C175.656 57.3451 175.562 57.3688 175.424 57.3688H175.221C175.003 57.3688 174.809 57.3215 174.639 57.2315C174.463 57.1368 174.345 56.9995 174.274 56.8149C174.165 57.0185 174.009 57.1652 173.815 57.2457C173.616 57.3309 173.374 57.3688 173.076 57.3688H170.056C169.8 57.3688 169.672 57.241 169.672 56.9853C169.672 56.8244 169.701 56.7249 169.762 56.6823C169.824 56.6397 169.919 56.6208 170.056 56.6208H172.778C172.958 56.6208 173.1 56.6066 173.209 56.5782C173.318 56.5498 173.398 56.5024 173.46 56.4314C173.517 56.3604 173.554 56.2657 173.573 56.1474C173.592 56.029 173.602 55.8823 173.602 55.7118C173.602 55.4609 173.578 55.2337 173.535 55.0254C173.493 54.8171 173.417 54.6372 173.318 54.4904C173.218 54.3437 173.086 54.2253 172.92 54.1448C172.754 54.0643 172.546 54.0265 172.295 54.0265H172.286Z" fill="#8C8C8A"/>
<path d="M178.298 57.439C178 57.439 177.735 57.3964 177.503 57.3111C177.271 57.2259 177.077 57.0886 176.916 56.904C176.783 57.1076 176.608 57.2401 176.4 57.2922C176.191 57.3443 175.992 57.3727 175.817 57.3727H175.405C175.15 57.3727 175.022 57.2449 175.022 56.9892C175.022 56.8283 175.05 56.7288 175.112 56.6862C175.173 56.6436 175.268 56.6247 175.405 56.6247H175.884C175.955 56.6247 176.026 56.6105 176.097 56.5821C176.168 56.5537 176.229 56.5063 176.286 56.4401C176.343 56.3738 176.39 56.2838 176.423 56.1702C176.456 56.0566 176.475 55.9193 176.475 55.7536C176.471 55.6873 176.466 55.6258 176.466 55.569V55.3749C176.466 54.6411 176.627 54.1061 176.954 53.7795C177.28 53.4528 177.725 53.2871 178.293 53.2871C178.861 53.2871 179.311 53.4528 179.633 53.7795C179.955 54.1061 180.121 54.6411 180.121 55.3749C180.121 55.7394 180.078 56.0519 179.993 56.3122C179.908 56.5726 179.785 56.7904 179.628 56.9561C179.472 57.1218 179.278 57.2449 179.051 57.3253C178.824 57.4058 178.568 57.4437 178.289 57.4437L178.298 57.439ZM178.298 54.0256C177.938 54.0256 177.678 54.144 177.517 54.3807C177.356 54.6174 177.271 54.9441 177.271 55.3701C177.271 55.8293 177.351 56.1655 177.517 56.3738C177.678 56.5868 177.938 56.691 178.298 56.691C178.658 56.691 178.918 56.5868 179.079 56.3738C179.24 56.1607 179.325 55.8293 179.325 55.3701C179.325 54.9488 179.245 54.6174 179.079 54.3807C178.918 54.144 178.658 54.0256 178.298 54.0256Z" fill="#8C8C8A"/>
<path d="M190.957 57.3733C196.709 56.952 202.466 56.7342 208.218 56.5827C211.096 56.488 213.97 56.4691 216.848 56.4123L225.479 56.3555L234.109 56.4075C236.987 56.4643 239.861 56.4833 242.739 56.578C248.491 56.7247 254.248 56.9472 260 57.3686C254.248 57.7899 248.491 58.0124 242.739 58.1592C239.861 58.2539 236.987 58.2728 234.109 58.3296L225.479 58.3817L216.848 58.3249C213.97 58.2681 211.096 58.2491 208.218 58.1544C202.466 58.003 196.709 57.7852 190.957 57.3638V57.3733Z" fill="#8C8C8A"/>
</svg>
