<svg width="24" height="25" viewBox="0 0 24 25" fill="none" xmlns="http://www.w3.org/2000/svg">
<g id="facebook-02">
<path id="Vector" fill-rule="evenodd" clip-rule="evenodd" d="M6.18182 10.6243C5.20406 10.6243 5 10.8162 5 11.7354V13.4021C5 14.3214 5.20406 14.5132 6.18182 14.5132H8.54545V21.1799C8.54545 22.0991 8.74951 22.291 9.72727 22.291H12.0909C13.0687 22.291 13.2727 22.0991 13.2727 21.1799V14.5132H15.9267C16.6683 14.5132 16.8594 14.3777 17.0631 13.7074L17.5696 12.0407C17.9185 10.8924 17.7035 10.6243 16.4332 10.6243H13.2727V7.84658C13.2727 7.23293 13.8018 6.73546 14.4545 6.73546H17.8182C18.7959 6.73546 19 6.54361 19 5.62435V3.40213C19 2.48287 18.7959 2.29102 17.8182 2.29102H14.4545C11.191 2.29102 8.54545 4.77833 8.54545 7.84658V10.6243H6.18182Z" stroke="#003366" stroke-width="1.5" stroke-linejoin="round"/>
</g>
</svg>
