<svg width="24" height="25" viewBox="0 0 24 25" fill="none" xmlns="http://www.w3.org/2000/svg">
<g id="instagram">
<path id="Vector" d="M2.5 12.291C2.5 7.81268 2.5 5.57351 3.89124 4.18226C5.28249 2.79102 7.52166 2.79102 12 2.79102C16.4783 2.79102 18.7175 2.79102 20.1088 4.18226C21.5 5.57351 21.5 7.81268 21.5 12.291C21.5 16.7693 21.5 19.0085 20.1088 20.3998C18.7175 21.791 16.4783 21.791 12 21.791C7.52166 21.791 5.28249 21.791 3.89124 20.3998C2.5 19.0085 2.5 16.7693 2.5 12.291Z" stroke="#003366" stroke-width="1.5" stroke-linejoin="round"/>
<path id="Vector_2" d="M16.5 12.291C16.5 14.7763 14.4853 16.791 12 16.791C9.51472 16.791 7.5 14.7763 7.5 12.291C7.5 9.80574 9.51472 7.79102 12 7.79102C14.4853 7.79102 16.5 9.80574 16.5 12.291Z" stroke="#003366" stroke-width="1.5"/>
<path id="Vector_3" d="M17.508 6.79102H17.499" stroke="#003366" stroke-width="2" stroke-linecap="round" stroke-linejoin="round"/>
</g>
</svg>
