<svg width="24" height="25" viewBox="0 0 24 25" fill="none" xmlns="http://www.w3.org/2000/svg">
<g id="linkedin-02">
<path id="Vector" d="M4.5 9.79102H4C3.05719 9.79102 2.58579 9.79102 2.29289 10.0839C2 10.3768 2 10.8482 2 11.791V20.291C2 21.2338 2 21.7052 2.29289 21.9981C2.58579 22.291 3.05719 22.291 4 22.291H4.5C5.44281 22.291 5.91421 22.291 6.20711 21.9981C6.5 21.7052 6.5 21.2338 6.5 20.291V11.791C6.5 10.8482 6.5 10.3768 6.20711 10.0839C5.91421 9.79102 5.44281 9.79102 4.5 9.79102Z" stroke="#003366" stroke-width="1.5"/>
<path id="Vector_2" d="M6.5 4.54102C6.5 5.78366 5.49264 6.79102 4.25 6.79102C3.00736 6.79102 2 5.78366 2 4.54102C2 3.29838 3.00736 2.29102 4.25 2.29102C5.49264 2.29102 6.5 3.29838 6.5 4.54102Z" stroke="#003366" stroke-width="1.5"/>
<path id="Vector_3" d="M12.326 9.79102H11.5C10.5572 9.79102 10.0858 9.79102 9.79289 10.0839C9.5 10.3768 9.5 10.8482 9.5 11.791V20.291C9.5 21.2338 9.5 21.7052 9.79289 21.9981C10.0858 22.291 10.5572 22.291 11.5 22.291H12C12.9428 22.291 13.4142 22.291 13.7071 21.9981C14 21.7052 14 21.2338 14 20.291L14.0001 16.7911C14.0001 15.1343 14.5281 13.7911 16.0879 13.7911C16.8677 13.7911 17.5 14.4627 17.5 15.2911V19.7911C17.5 20.7339 17.5 21.2053 17.7929 21.4982C18.0857 21.7911 18.5572 21.7911 19.5 21.7911H19.9987C20.9413 21.7911 21.4126 21.7911 21.7055 21.4983C21.9984 21.2055 21.9985 20.7342 21.9987 19.7916L22.0001 14.2912C22.0001 11.806 19.6364 9.79126 17.2968 9.79126C15.9649 9.79126 14.7767 10.4441 14.0001 11.465C14 10.8349 14 10.5199 13.8632 10.286C13.7765 10.1379 13.6531 10.0145 13.505 9.92789C13.2711 9.79102 12.9561 9.79102 12.326 9.79102Z" stroke="#003366" stroke-width="1.5" stroke-linejoin="round"/>
</g>
</svg>
