<svg width="24" height="25" viewBox="0 0 24 25" fill="none" xmlns="http://www.w3.org/2000/svg">
<g id="snapchat">
<path id="Vector" d="M6.57556 7.71546C6.57556 4.71963 9.00416 2.29102 12 2.29102C14.9958 2.29102 17.4244 4.71963 17.4244 7.71546C17.4244 12.4632 17.6611 14.8366 22 16.7354C19.7778 17.291 19.2222 17.8466 18.6667 20.0688C14.7778 20.0688 14.2222 22.291 12 22.291C9.77778 22.291 9.22222 20.0688 5.33333 20.0688C4.77778 17.8466 4.22222 17.291 2 16.7354C6.33889 14.8366 6.57556 12.4632 6.57556 7.71546Z" stroke="#003366" stroke-width="1.5" stroke-linecap="round" stroke-linejoin="round"/>
<path id="Vector_2" d="M2 16.291C5.82356 14.2081 5.82356 12.2413 2.95589 9.29102" stroke="#003366" stroke-width="1.5" stroke-linecap="round"/>
<path id="Vector_3" d="M22 16.291C18.1764 14.2081 18.1764 12.2413 21.0441 9.29102" stroke="#003366" stroke-width="1.5" stroke-linecap="round"/>
</g>
</svg>
