<svg width="32" height="32" viewBox="0 0 32 32" fill="none" xmlns="http://www.w3.org/2000/svg">
<g id="equality-symbol_15791418 1">
<g id="_x36_0">
<g id="Group">
<g id="Group_2">
<path id="Vector_10" d="M21.6093 30.5228H10.3904C9.77152 30.5228 9.26788 30.0194 9.26788 29.4003V27.7748C9.26788 27.1558 9.77152 26.6523 10.3904 26.6523H21.6093C22.2281 26.6523 22.7318 27.1558 22.7318 27.7748V29.4003C22.7318 30.0194 22.2281 30.5228 21.6093 30.5228ZM10.3904 27.5599C10.2718 27.5599 10.1754 27.6565 10.1754 27.7748V29.4003C10.1754 29.5186 10.2718 29.6152 10.3904 29.6152H21.6093C21.7278 29.6152 21.8242 29.5186 21.8242 29.4003V27.7748C21.8242 27.6565 21.7278 27.5599 21.6093 27.5599H10.3904Z" fill="white"/>
</g>
</g>
<g id="Group_3">
<g id="Group_4">
<path id="Vector_11" d="M20.2026 27.5585H11.7985C11.2721 27.5585 10.8438 27.1304 10.8438 26.6039V25.3862C10.8438 24.8597 11.2721 24.4316 11.7985 24.4316H20.2026C20.729 24.4316 21.1573 24.8597 21.1573 25.3862V26.6039C21.1573 27.1304 20.729 27.5585 20.2026 27.5585ZM11.7985 25.3392C11.7726 25.3392 11.7513 25.3605 11.7513 25.3862V26.6039C11.7513 26.6296 11.7726 26.6509 11.7985 26.6509H20.2026C20.2285 26.6509 20.2497 26.6296 20.2497 26.6039V25.3862C20.2497 25.3605 20.2285 25.3392 20.2026 25.3392H11.7985Z" fill="white"/>
</g>
</g>
<g id="Group_5">
<g id="Group_6">
<path id="Vector_12" d="M17.506 25.3396H14.4937C14.2431 25.3396 14.0399 25.1367 14.0399 24.8858V11.3934C14.0399 11.2294 14.1285 11.0779 14.2717 10.9976C14.4153 10.9174 14.5905 10.9205 14.7303 11.0061C15.4799 11.4647 16.5131 11.4691 17.2693 11.0061C17.4094 10.9205 17.5846 10.917 17.728 10.9976C17.8711 11.0779 17.9598 11.2294 17.9598 11.3934V24.8858C17.9598 25.1367 17.7566 25.3396 17.506 25.3396ZM14.9475 24.4321H17.0522V12.0989C16.3795 12.3195 15.6182 12.3182 14.9475 12.0989V24.4321Z" fill="white"/>
</g>
</g>
<g id="Group_7">
<g id="Group_8">
<path id="Vector_13" d="M13.4987 10.8709H4.02181C2.91106 10.8709 2.00726 9.96731 2.00726 8.85634C2.00726 7.74537 2.91106 6.8418 4.02181 6.8418H13.4987C13.6644 6.8418 13.8171 6.9322 13.8969 7.07755C13.9764 7.22335 13.9702 7.4006 13.8809 7.5402C13.6303 7.93194 13.4978 8.38793 13.4978 8.85944C13.4978 9.33228 13.6299 9.78517 13.8794 10.1703C13.97 10.3099 13.9769 10.4876 13.8975 10.6338C13.818 10.78 13.6651 10.8709 13.4987 10.8709ZM4.02181 7.74936C3.41137 7.74936 2.91483 8.24613 2.91483 8.85634C2.91483 9.46655 3.41137 9.96332 4.02181 9.96332H12.7753C12.6532 9.61279 12.5903 9.24055 12.5903 8.85944C12.5903 8.47789 12.6538 8.10299 12.7773 7.74936H4.02181Z" fill="white"/>
</g>
</g>
<g id="Group_9">
<g id="Group_10">
<path id="Vector_14" d="M27.9764 10.8709H18.5055C18.3399 10.8709 18.1875 10.7809 18.1077 10.6356C18.028 10.4907 18.0337 10.3134 18.1224 10.1738C18.3696 9.78473 18.5004 9.33006 18.5004 8.85944C18.5004 8.39015 18.3692 7.93282 18.121 7.53665C18.0333 7.39662 18.0284 7.22024 18.1084 7.07578C18.1884 6.93131 18.3404 6.8418 18.5055 6.8418H27.9764C29.0871 6.8418 29.9909 7.74537 29.9909 8.85634C29.9909 9.9673 29.0871 10.8709 27.9764 10.8709ZM19.2242 9.96332H27.9764C28.5868 9.96332 29.0833 9.46655 29.0833 8.85634C29.0833 8.24613 28.5868 7.74936 27.9764 7.74936H19.2222C19.3448 8.10432 19.4079 8.47922 19.4079 8.85944C19.4079 9.23922 19.3454 9.6119 19.2242 9.96332Z" fill="white"/>
</g>
</g>
<g id="Group_11">
<g id="Group_12">
<path id="Vector_15" d="M16.0025 12.2646C15.3792 12.2646 14.7754 12.0971 14.2567 11.7798C13.7927 11.5099 13.3935 11.1182 13.111 10.652C12.7733 10.1313 12.5907 9.50737 12.5907 8.85905C12.5907 8.21383 12.7726 7.58855 13.1169 7.05057C13.7336 6.04906 14.8137 5.44727 16.0025 5.44727C17.1839 5.44727 18.2639 6.04817 18.8909 7.05544C19.2292 7.59475 19.4083 8.21914 19.4083 8.85905C19.4083 9.50249 19.2286 10.1251 18.8889 10.66C18.602 11.1222 18.2016 11.5126 17.7339 11.7847C17.2236 12.0971 16.6218 12.2646 16.0025 12.2646ZM16.0025 6.35483C15.1313 6.35483 14.3398 6.79532 13.8856 7.53315C13.6308 7.93154 13.4983 8.38754 13.4983 8.85905C13.4983 9.33188 13.6303 9.78478 13.8798 10.1699C14.0914 10.5186 14.3797 10.8014 14.7216 11.0003C15.488 11.4687 16.5128 11.4683 17.269 11.0052C17.6173 10.8027 17.9089 10.5182 18.1203 10.1774C18.37 9.78434 18.5007 9.32967 18.5007 8.85905C18.5007 8.38975 18.3695 7.93243 18.1214 7.53626C17.6603 6.7962 16.8684 6.35483 16.0025 6.35483Z" fill="white"/>
</g>
</g>
<g id="Group_13">
<g id="Group_14">
<path id="Vector_16" d="M16.0027 9.34368C15.9513 9.34368 15.8966 9.33393 15.8452 9.31576C15.7747 9.29316 15.7102 9.25328 15.6579 9.19921C15.6402 9.1806 15.6236 9.16022 15.6083 9.1385C15.5467 9.05918 15.5126 8.96125 15.5126 8.85976C15.5126 8.8088 15.523 8.75297 15.5405 8.702C15.5626 8.6342 15.6003 8.57172 15.6517 8.52076C15.8219 8.3497 16.1775 8.35015 16.3477 8.52031C16.4328 8.6054 16.4808 8.7215 16.4808 8.8416V8.85976C16.4808 8.9803 16.433 9.10748 16.3479 9.19257C16.3275 9.21295 16.3047 9.23201 16.2801 9.24929C16.2008 9.31 16.1035 9.34368 16.0027 9.34368Z" fill="white"/>
</g>
</g>
<g id="Group_15">
<g id="Group_16">
<path id="Vector_17" d="M27.9768 7.75043C27.9125 7.75043 27.8472 7.73669 27.7851 7.70789L16.7236 2.54347C16.2806 2.33652 15.7726 2.33696 15.3292 2.54258L4.21376 7.70833C3.98687 7.8138 3.71678 7.71498 3.61109 7.48809C3.5054 7.26076 3.604 6.99088 3.83133 6.88497L14.9468 1.71921C15.6336 1.40059 16.4213 1.40059 17.1073 1.72099L28.1689 6.88541C28.396 6.99132 28.4942 7.26164 28.3883 7.48853C28.3112 7.65383 28.1476 7.75043 27.9768 7.75043Z" fill="white"/>
</g>
</g>
<g id="Group_17">
<g id="Group_18">
<path id="Vector_18" d="M27.955 22.4657H21.2573C20.5381 22.4657 19.9531 21.8807 19.9531 21.1615V16.4624C19.9531 15.7432 20.5381 15.1582 21.2573 15.1582H27.955C28.6742 15.1582 29.2594 15.7432 29.2594 16.4624V21.1615C29.2594 21.8807 28.6742 22.4657 27.955 22.4657ZM21.2573 16.0658C21.0386 16.0658 20.8607 16.2435 20.8607 16.4624V21.1615C20.8607 21.3804 21.0386 21.5581 21.2573 21.5581H27.955C28.1739 21.5581 28.3518 21.3804 28.3518 21.1615V16.4624C28.3518 16.2435 28.1739 16.0658 27.955 16.0658H21.2573Z" fill="white"/>
</g>
</g>
<g id="Group_19">
<g id="Group_20">
<path id="Vector_19" d="M10.7412 22.4657H4.04354C3.32431 22.4657 2.73914 21.8807 2.73914 21.1615V16.4624C2.73914 15.7432 3.32431 15.1582 4.04354 15.1582H10.7412C11.4605 15.1582 12.0454 15.7432 12.0454 16.4624V21.1615C12.0454 21.8807 11.4605 22.4657 10.7412 22.4657ZM4.04354 16.0658C3.82462 16.0658 3.6467 16.2435 3.6467 16.4624V21.1615C3.6467 21.3804 3.82462 21.5581 4.04354 21.5581H10.7412C10.9599 21.5581 11.1379 21.3804 11.1379 21.1615V16.4624C11.1379 16.2435 10.9599 16.0658 10.7412 16.0658H4.04354Z" fill="white"/>
</g>
</g>
<g id="Group_21">
<g id="Group_22">
<path id="Vector_20" d="M9.78954 16.065H4.99514C4.84048 16.065 4.69624 15.9861 4.61293 15.8558C4.52939 15.7256 4.51831 15.5616 4.58301 15.4211L6.98021 10.2266C7.05444 10.0657 7.2153 9.96289 7.39234 9.96289C7.56937 9.96289 7.73024 10.0657 7.80446 10.2266L10.2017 15.4211C10.2664 15.5616 10.2553 15.7256 10.1717 15.8558C10.0884 15.9861 9.94419 16.065 9.78954 16.065ZM5.70439 15.1574H9.08028L7.39234 11.4997L5.70439 15.1574Z" fill="white"/>
</g>
</g>
<g id="Group_23">
<g id="Group_24">
<path id="Vector_21" d="M27.0034 16.065H22.2088C22.0541 16.065 21.9099 15.9861 21.8265 15.8558C21.7432 15.7256 21.7319 15.5616 21.7966 15.4211L24.1938 10.2266C24.2681 10.0657 24.4289 9.96289 24.606 9.96289C24.783 9.96289 24.9439 10.0657 25.0181 10.2266L27.4155 15.4211C27.4802 15.5616 27.4691 15.7256 27.3856 15.8558C27.3023 15.9861 27.158 16.065 27.0034 16.065ZM22.918 15.1574H26.2941L24.606 11.4997L22.918 15.1574Z" fill="white"/>
</g>
</g>
<g id="Group_25">
<g id="Group_26">
<path id="Vector_22" d="M11.5916 18.4662H3.19292C2.94232 18.4662 2.73914 18.2632 2.73914 18.0124C2.73914 17.7616 2.94232 17.5586 3.19292 17.5586H11.5916C11.8422 17.5586 12.0454 17.7616 12.0454 18.0124C12.0454 18.2632 11.8422 18.4662 11.5916 18.4662Z" fill="white"/>
</g>
</g>
<g id="Group_27">
<g id="Group_28">
<path id="Vector_23" d="M28.8056 18.4662H20.4069C20.1563 18.4662 19.9531 18.2632 19.9531 18.0124C19.9531 17.7616 20.1563 17.5586 20.4069 17.5586H28.8056C29.0562 17.5586 29.2594 17.7616 29.2594 18.0124C29.2594 18.2632 29.0562 18.4662 28.8056 18.4662Z" fill="white"/>
</g>
</g>
</g>
</g>
</svg>
