<svg width="40" height="40" viewBox="0 0 40 40" fill="none" xmlns="http://www.w3.org/2000/svg">
<g clip-path="url(#clip0_565_10025)">
<g clip-path="url(#clip1_565_10025)">
<g clip-path="url(#clip2_565_10025)">
<path fill-rule="evenodd" clip-rule="evenodd" d="M31.1276 25.5135H12.0335C9.85905 25.5135 8.08958 27.283 8.08958 29.4574C8.08958 31.6325 9.85905 33.402 12.0335 33.402H13.275V32.1659H12.0335C10.5401 32.1659 9.32508 30.9509 9.32508 29.4574C9.32508 27.964 10.5401 26.749 12.0335 26.749H31.1276C31.4603 26.749 31.7309 26.479 31.7309 26.1463V26.1162C31.7303 25.7847 31.4597 25.5135 31.1276 25.5135ZM23.2385 24.7879H24.1401L23.1216 23.4186C22.9474 23.1848 22.6913 23.0558 22.3996 23.0558H22.2688C22.1537 22.3175 21.6975 21.6901 21.0677 21.3388V11.4416H24.433C24.7687 11.4416 25.0435 11.4982 25.3521 11.6308C26.361 12.0641 27.0764 12.3589 27.526 12.4969L24.3981 18.6128C24.3709 18.6659 24.3577 18.7243 24.3583 18.7834C24.3788 20.0376 25.4166 21.0579 26.6708 21.0579H29.478C30.7328 21.0579 31.77 20.0376 31.7905 18.7834C31.7917 18.7243 31.7779 18.6659 31.7507 18.6128L28.5831 12.4191C28.9977 12.1786 29.2798 11.7074 29.2798 11.1655C29.2798 11.1282 29.2786 11.0908 29.2755 11.0541C29.2611 10.8552 29.0881 10.7051 28.8892 10.7196C28.6897 10.734 28.5403 10.907 28.5547 11.1065C28.5559 11.1258 28.5572 11.1457 28.5572 11.1655C28.5572 11.5247 28.3251 11.8207 28.0316 11.8598C28.028 11.8604 28.0238 11.8604 28.0202 11.861C28.0021 11.8628 27.984 11.8647 27.9653 11.8647C27.6857 11.846 26.1977 11.2071 25.6378 10.9667C25.2388 10.7949 24.8676 10.7184 24.4336 10.7184H21.0683V9.84749C21.6752 9.46238 22.0796 8.78497 22.0796 8.01474C22.0796 6.81843 21.1068 5.8457 19.9105 5.8457C18.7142 5.8457 17.7415 6.81843 17.7415 8.01474C17.7415 8.78497 18.1459 9.46238 18.7528 9.84749V10.719H15.3874C14.9535 10.719 14.5816 10.7955 14.1833 10.9667C13.6234 11.2077 12.1354 11.8466 11.8599 11.8647C11.8388 11.8647 11.8178 11.8634 11.7973 11.861C11.7967 11.861 11.7967 11.861 11.7961 11.861C11.4971 11.8237 11.2639 11.5266 11.2639 11.1661C11.2639 11.1463 11.2645 11.1264 11.2663 11.1071C11.2808 10.9076 11.1307 10.7346 10.9318 10.7202C10.7335 10.7051 10.5594 10.8558 10.5449 11.0547C10.5425 11.0914 10.5407 11.1288 10.5407 11.1661C10.5407 11.708 10.8233 12.1793 11.2374 12.4197L8.06909 18.6134C8.04197 18.6665 8.02871 18.7249 8.02932 18.784C8.04981 20.0382 9.08762 21.0585 10.3418 21.0585H13.1491C14.4038 21.0585 15.4411 20.0382 15.4615 18.784C15.4628 18.7249 15.4489 18.6665 15.4218 18.6134L12.2939 12.4975C12.7429 12.3595 13.4582 12.0647 14.4671 11.6314C14.7757 11.4988 15.0505 11.4422 15.3862 11.4422H18.7516V21.3394C18.1218 21.6907 17.6661 22.3181 17.551 23.0564H17.4203C17.1286 23.0564 16.8724 23.1854 16.6982 23.4192L15.6797 24.7885H16.5813H23.2385V24.7879ZM20.3445 10.1398V21.0784C20.2034 21.0525 20.0582 21.038 19.9099 21.038C19.7617 21.038 19.6164 21.0525 19.4754 21.0784V10.1398C19.6158 10.1681 19.7611 10.1838 19.9099 10.1838C20.0588 10.1832 20.204 10.1681 20.3445 10.1398ZM19.9099 21.7606C20.6994 21.7606 21.3636 22.3157 21.5317 23.0558H18.2875C18.4563 22.3163 19.1204 21.7606 19.9099 21.7606ZM21.3557 8.01474C21.3557 8.81148 20.7073 9.46057 19.9099 9.46057C19.1126 9.46057 18.4641 8.81148 18.4641 8.01474C18.4641 7.2174 19.1126 6.56892 19.9099 6.56892C20.7073 6.56831 21.3557 7.2174 21.3557 8.01474ZM13.1491 20.3353H10.3418C9.60592 20.3353 8.97974 19.8248 8.80255 19.1402H14.6889C14.5117 19.8248 13.8849 20.3353 13.1491 20.3353ZM11.7454 13.0134L14.5093 18.417H8.98155L11.7454 13.0134ZM25.3099 18.417L28.0738 13.0134L30.8377 18.417H25.3099ZM29.4774 20.3353H26.6702C25.9343 20.3353 25.3081 19.8248 25.1309 19.1402H31.0173C30.8401 19.8248 30.2133 20.3353 29.4774 20.3353ZM16.3517 32.1665H31.1276C31.4603 32.1665 31.7309 32.4371 31.7309 32.7698V32.7993C31.7309 33.132 31.4603 33.4026 31.1276 33.4026H16.3517V32.1665ZM15.6285 33.8727L15.0077 33.4761C14.889 33.4002 14.7371 33.4002 14.6184 33.4761L13.9976 33.8727V29.8197H15.6285V33.8727ZM30.1524 29.8197C30.1796 30.4043 30.2736 30.9593 30.4249 31.4433H16.3517V29.8197H30.1524ZM30.4249 27.4728C30.273 27.9574 30.1796 28.5124 30.1524 29.0964H11.6508C11.4513 29.0964 11.2892 29.2586 11.2892 29.458C11.2892 29.6581 11.4513 29.8197 11.6508 29.8197H13.2744V31.4433H12.0329C10.9384 31.4433 10.0477 30.5531 10.0477 29.458C10.0477 28.3636 10.9384 27.4728 12.0329 27.4728H30.4249Z" fill="white"/>
</g>
</g>
</g>
<defs>
<clipPath id="clip0_565_10025">
<rect width="30.8571" height="30.8571" fill="white" transform="translate(4.57227 4.57129)"/>
</clipPath>
<clipPath id="clip1_565_10025">
<rect width="30.8571" height="30.8571" fill="white" transform="translate(4.57227 4.57031)"/>
</clipPath>
<clipPath id="clip2_565_10025">
<rect width="30.8571" height="30.8571" fill="white" transform="translate(4.57227 4.56934)"/>
</clipPath>
</defs>
</svg>
