<svg width="32" height="32" viewBox="0 0 32 32" fill="none" xmlns="http://www.w3.org/2000/svg">
<g id="job-search_9752490 1">
<g id="Group">
<g id="Group_2">
<g id="Group_3">
<g id="Group_4">
<path id="Vector" d="M23.157 27.5479C22.8765 27.5479 22.6895 27.3609 22.6895 27.0804V14.9246C22.6895 14.644 22.8765 14.457 23.157 14.457C23.4375 14.457 23.6245 14.644 23.6245 14.9246V27.0804C23.6245 27.3609 23.4375 27.5479 23.157 27.5479Z" fill="white"/>
</g>
<g id="Group_5">
<path id="Vector_2" d="M22.1747 30.2133H3.84743C2.53834 30.2133 1.50977 29.1847 1.50977 27.8757V6.46266C1.50977 5.15357 2.53834 4.125 3.84743 4.125H15.9565C16.237 4.125 16.4241 4.31201 16.4241 4.59253C16.4241 4.87305 16.237 5.06007 15.9565 5.06007H3.84743C3.05262 5.06007 2.44483 5.66786 2.44483 6.46266V27.8757C2.44483 28.6705 3.05262 29.2782 3.84743 29.2782H22.1747C22.4552 29.2782 22.6422 29.4653 22.6422 29.7458C22.6422 30.0263 22.4552 30.2133 22.1747 30.2133Z" fill="white"/>
</g>
<g id="Group_6">
<path id="Vector_3" d="M15.9074 11.4645H4.07886C3.79834 11.4645 3.61133 11.2775 3.61133 10.997V7.30347C3.61133 7.02295 3.79834 6.83594 4.07886 6.83594H14.9724C15.2529 6.83594 15.4399 7.02295 15.4399 7.30347C15.4399 7.58399 15.2529 7.771 14.9724 7.771H4.54639V10.5294H15.9074C16.188 10.5294 16.375 10.7165 16.375 10.997C16.375 11.2775 16.188 11.4645 15.9074 11.4645Z" fill="white"/>
</g>
<g id="Group_7">
<path id="Vector_4" d="M21.0503 27.7827H4.07886C3.79834 27.7827 3.61133 27.5957 3.61133 27.3152C3.61133 27.0347 3.79834 26.8477 4.07886 26.8477H21.0503C21.3308 26.8477 21.5178 27.0347 21.5178 27.3152C21.5178 27.5957 21.3308 27.7827 21.0503 27.7827Z" fill="white"/>
</g>
<g id="Group_8">
<path id="Vector_5" d="M21.0503 25.6314H4.07886C3.79834 25.6314 3.61133 25.4443 3.61133 25.1638C3.61133 24.8833 3.79834 24.6963 4.07886 24.6963H21.0503C21.3308 24.6963 21.5178 24.8833 21.5178 25.1638C21.5178 25.4443 21.3308 25.6314 21.0503 25.6314Z" fill="white"/>
</g>
<g id="Group_9">
<g id="Group_10">
<path id="Vector_6" d="M16.7491 22.8264H8.42701C7.4452 22.8264 6.65039 21.9848 6.65039 20.9562V16.1406C6.65039 15.1121 7.4452 14.2705 8.42701 14.2705H16.7023C17.6842 14.2705 18.479 15.0653 18.5257 16.0939V20.9562C18.5257 21.9848 17.7309 22.8264 16.7491 22.8264ZM8.42701 15.2056C7.95948 15.2056 7.58546 15.6264 7.58546 16.1406V20.9562C7.58546 21.4705 7.95948 21.8913 8.42701 21.8913H16.7491C17.1699 21.8913 17.5907 21.4238 17.5907 20.9562V16.1406C17.5439 15.6264 17.1699 15.2056 16.7023 15.2056H8.42701ZM15.8608 19.8341H13.9907C13.7101 19.8341 13.5231 19.6471 13.5231 19.3666V17.7302C13.5231 17.4497 13.7101 17.2627 13.9907 17.2627H15.8608C16.1413 17.2627 16.3283 17.4497 16.3283 17.7302V19.3666C16.3283 19.6471 16.1413 19.8341 15.8608 19.8341ZM14.4582 18.8991H15.3932V18.1978H14.4582V18.8991Z" fill="white"/>
</g>
<g id="Group_11">
<path id="Vector_7" d="M11.1384 19.8341H9.26831C8.98779 19.8341 8.80078 19.6471 8.80078 19.3666V17.7302C8.80078 17.4497 8.98779 17.2627 9.26831 17.2627H11.1384C11.419 17.2627 11.606 17.4497 11.606 17.7302V19.3666C11.606 19.6471 11.419 19.8341 11.1384 19.8341ZM9.73585 18.8991H10.6709V18.1978H9.73585V18.8991Z" fill="white"/>
</g>
<g id="Group_12">
<path id="Vector_8" d="M15.8631 18.8991C15.5825 18.8991 15.3955 18.712 15.3955 18.4315V18.1978H14.4605V18.4315C14.4605 18.712 14.2734 18.8991 13.9929 18.8991C13.7124 18.8991 13.5254 18.712 13.5254 18.4315V17.7302C13.5254 17.4497 13.7124 17.2627 13.9929 17.2627H15.8631C16.1436 17.2627 16.3306 17.4497 16.3306 17.7302V18.4315C16.3306 18.712 16.1436 18.8991 15.8631 18.8991Z" fill="white"/>
</g>
<g id="Group_13">
<path id="Vector_9" d="M14.9727 15.2056C14.6922 15.2056 14.5052 15.0186 14.5052 14.7381V14.0368C14.5052 13.8497 14.3649 13.7095 14.2246 13.7095H10.9519C10.8117 13.7095 10.6714 13.8497 10.6714 14.0368V14.7381C10.6714 15.0186 10.4844 15.2056 10.2039 15.2056C9.92334 15.2056 9.73633 15.0186 9.73633 14.7381V14.0368C9.73633 13.3355 10.2974 12.7744 10.9519 12.7744H14.2246C14.8792 12.7744 15.4402 13.3355 15.4402 14.0368V14.7381C15.4402 15.0186 15.2532 15.2056 14.9727 15.2056Z" fill="white"/>
</g>
<g id="Group_14">
<path id="Vector_10" d="M9.26845 18.8999H7.07105C6.79053 18.8999 6.60352 18.7129 6.60352 18.4324C6.60352 18.1519 6.79053 17.9648 7.07105 17.9648H9.26845C9.54897 17.9648 9.73598 18.1519 9.73598 18.4324C9.73598 18.7129 9.54897 18.8999 9.26845 18.8999Z" fill="white"/>
</g>
<g id="Group_15">
<path id="Vector_11" d="M18.0108 18.8999H15.8601C15.5796 18.8999 15.3926 18.7129 15.3926 18.4324C15.3926 18.1519 15.5796 17.9648 15.8601 17.9648H18.0108C18.2913 17.9648 18.4783 18.1519 18.4783 18.4324C18.4783 18.7129 18.2913 18.8999 18.0108 18.8999Z" fill="white"/>
</g>
<g id="Group_16">
<path id="Vector_12" d="M13.9933 18.8999H11.1414C10.8608 18.8999 10.6738 18.7129 10.6738 18.4324C10.6738 18.1519 10.8608 17.9648 11.1414 17.9648H13.9933C14.2738 17.9648 14.4608 18.1519 14.4608 18.4324C14.4608 18.7129 14.2738 18.8999 13.9933 18.8999Z" fill="white"/>
</g>
</g>
<g id="Group_17">
<path id="Vector_13" d="M28.4395 19.6001C28.1589 19.6001 27.9719 19.4131 27.9719 19.1326V16.6079H26.6628C26.3823 16.6079 26.1953 16.4209 26.1953 16.1404C26.1953 15.8599 26.3823 15.6729 26.6628 15.6729H28.4395C28.72 15.6729 28.907 15.8599 28.907 16.1404V19.1326C28.907 19.4131 28.72 19.6001 28.4395 19.6001Z" fill="white"/>
</g>
<g id="Group_18">
<path id="Vector_14" d="M25.775 30.1664C23.9984 30.1664 22.6426 28.8105 22.6426 27.0806V16.1404C22.6426 15.8599 22.8296 15.6729 23.1101 15.6729H24.1387C24.4192 15.6729 24.6062 15.8599 24.6062 16.1404C24.6062 16.4209 24.4192 16.6079 24.1387 16.6079H23.5776V27.0806C23.5776 28.2962 24.5595 29.2313 25.775 29.2313C26.9906 29.2313 27.9724 28.2962 27.9724 27.0806V22.7793C27.9724 22.4988 28.1595 22.3118 28.44 22.3118C28.7205 22.3118 28.9075 22.4988 28.9075 22.7793V27.0806C28.9075 28.8105 27.5517 30.1664 25.775 30.1664Z" fill="white"/>
</g>
</g>
<g id="Group_19">
<path id="Vector_15" d="M25.7726 30.1665H22.1726C21.8921 30.1665 21.7051 29.9795 21.7051 29.699C21.7051 29.4185 21.8921 29.2314 22.1726 29.2314H25.7726C26.0531 29.2314 26.2401 29.4185 26.2401 29.699C26.2401 29.9795 26.0531 30.1665 25.7726 30.1665Z" fill="white"/>
</g>
</g>
<g id="Group_20">
<g id="Group_21">
<path id="Vector_16" d="M20.4899 13.8487C18.386 13.8487 16.3756 12.7266 15.2535 10.9033C14.412 9.50067 14.1782 7.86431 14.599 6.32145C15.0198 4.77859 16.0016 3.4695 17.4042 2.62794C18.5263 1.9734 19.7886 1.69288 21.0509 1.83314C22.0795 1.92664 23.0613 2.25392 23.9496 2.86171C24.7444 3.42275 25.3055 4.03054 25.7263 4.77859C26.0535 5.33963 26.2873 5.94742 26.4276 6.46171C26.8483 8.23833 26.4276 10.0617 25.3055 11.5111C25.0717 11.8851 24.6977 12.1656 24.3704 12.4461C24.2302 12.5396 24.0899 12.6331 23.9964 12.7266C23.9029 12.8201 23.7626 12.8669 23.6691 12.9604L23.6224 13.0072C22.9211 13.4279 22.173 13.6617 21.425 13.7552C21.0977 13.8487 20.7704 13.8487 20.4899 13.8487ZM20.5367 2.7682C19.6016 2.7682 18.7133 3.00197 17.8717 3.4695C16.7029 4.1708 15.8613 5.24612 15.5341 6.55521C15.2068 7.86431 15.3938 9.2669 16.0951 10.4357C17.1704 12.2124 19.2276 13.1942 21.2847 12.8669C21.8925 12.7734 22.5003 12.5864 23.1081 12.2591C23.2016 12.1656 23.3418 12.0721 23.4354 12.0253C23.5289 11.9318 23.6691 11.8851 23.7626 11.7916C24.0431 11.5111 24.3704 11.2773 24.5574 10.9968C25.4925 9.78119 25.8665 8.23833 25.4925 6.74223C25.3522 6.27469 25.1652 5.76041 24.8847 5.29288C24.5107 4.68508 24.0431 4.1708 23.3886 3.65651C22.6405 3.18898 21.799 2.86171 20.9574 2.81495C20.8172 2.7682 20.6769 2.7682 20.5367 2.7682Z" fill="white"/>
</g>
<g id="Group_22">
<path id="Vector_17" d="M22.4989 15.7656C22.3587 15.7656 22.1717 15.6721 22.0782 15.5318L20.9093 13.5682C20.7691 13.3344 20.8626 13.0539 21.0496 12.9136C21.2834 12.7734 21.5639 12.8669 21.7041 13.0539L22.6392 14.6435L25.4444 13.0071L24.5093 11.4643C24.3691 11.2305 24.4626 10.95 24.6496 10.8097C24.8834 10.6695 25.1639 10.763 25.3041 10.95L26.473 12.9136C26.5197 13.0071 26.5665 13.1474 26.5197 13.2876C26.473 13.4279 26.3795 13.5214 26.286 13.5682L26.1924 13.6617L22.7327 15.7188C22.6392 15.7656 22.5924 15.7656 22.4989 15.7656Z" fill="white"/>
</g>
<g id="Group_23">
<path id="Vector_18" d="M28.2027 23.3873C28.0624 23.3873 27.8754 23.2938 27.7819 23.1535L22.9663 15.0184C22.826 14.7847 22.9195 14.5041 23.1533 14.3639C23.3871 14.2236 23.6676 14.3171 23.8078 14.5509L28.3897 22.2652L29.4182 21.6574L24.8364 13.9431C24.6962 13.7093 24.7897 13.4288 25.0234 13.2886C25.2572 13.1483 25.5377 13.2418 25.678 13.4756L30.4468 21.6106C30.4936 21.7041 30.5403 21.8444 30.4936 21.9847C30.4468 22.1249 30.4001 22.2184 30.2598 22.2652L28.4364 23.3405C28.3429 23.3873 28.2962 23.3873 28.2027 23.3873Z" fill="white"/>
</g>
</g>
</g>
</g>
</svg>
