<svg width="32" height="32" viewBox="0 0 32 32" fill="none" xmlns="http://www.w3.org/2000/svg">
<g id="laws_11520986 1">
<g id="laws">
<path id="Vector" d="M16.7494 30.5528C16.5352 30.5532 16.3235 30.5071 16.1289 30.4177H3.20893C2.75431 30.4172 2.31846 30.2363 1.997 29.9148C1.67553 29.5934 1.49469 29.1575 1.49414 28.7029V4.89475C1.49345 4.43888 1.67359 4.00134 1.99506 3.67811C2.31652 3.35487 2.75306 3.17233 3.20893 3.17052L3.23719 3.15169C3.23764 2.69953 3.41747 2.26602 3.73719 1.9463C4.05692 1.62657 4.49042 1.44675 4.94258 1.44629H19.89C20.3434 1.44559 20.7785 1.62474 21.1 1.94445C21.4214 2.26415 21.603 2.69831 21.6048 3.15169V20.1981H22.9815C23.3573 20.2046 23.717 20.3518 23.9893 20.6108C24.2617 20.8698 24.427 21.2215 24.4524 21.5965C24.4779 21.9714 24.3617 22.3423 24.1268 22.6357C23.8919 22.9291 23.5555 23.1236 23.184 23.1809V24.0542H29.1797C29.5277 24.0573 29.8605 24.1974 30.1059 24.4441C30.3513 24.6909 30.4895 25.0244 30.4906 25.3724C30.4917 25.7204 30.3556 26.0548 30.1118 26.3031C29.868 26.5515 29.5362 26.6937 29.1882 26.699H23.184V27.5794C23.5551 27.6355 23.8915 27.8292 24.1265 28.1219C24.3614 28.4146 24.4777 28.7849 24.4522 29.1594C24.4267 29.5339 24.2613 29.885 23.9888 30.1432C23.7164 30.4013 23.3568 30.5475 22.9815 30.5528L16.7494 30.5528ZM16.5149 29.5335C16.5881 29.5697 16.6687 29.5886 16.7504 29.5886H22.9815C23.1219 29.5886 23.2565 29.5328 23.3557 29.4335C23.455 29.3343 23.5107 29.1997 23.5107 29.0593C23.5107 28.919 23.455 28.7844 23.3557 28.6851C23.2565 28.5859 23.1219 28.5301 22.9815 28.5301H16.7843C16.6714 28.5266 16.5602 28.5573 16.4651 28.6181L16.4641 28.6186C16.3877 28.6703 16.3259 28.741 16.2849 28.8237C16.2438 28.9064 16.225 28.9983 16.2301 29.0905C16.2352 29.1826 16.2641 29.2719 16.3141 29.3495C16.364 29.4272 16.4332 29.4906 16.5149 29.5335ZM3.20893 4.13481C3.00873 4.13636 2.81731 4.21722 2.67662 4.35967C2.53594 4.50213 2.45747 4.69454 2.45841 4.89475V28.7029C2.4587 28.9019 2.53787 29.0926 2.67856 29.2333C2.81924 29.374 3.00997 29.4531 3.20893 29.4534H15.3087C15.2412 29.2018 15.2396 28.937 15.3039 28.6845H4.94258C4.48911 28.6828 4.05485 28.5012 3.73512 28.1796C3.41539 27.858 3.23631 27.4228 3.23719 26.9693L3.20893 4.13481ZM4.20147 26.9693C4.1998 27.0675 4.21776 27.1651 4.25429 27.2563C4.29082 27.3476 4.34519 27.4306 4.41421 27.5005C4.48323 27.5705 4.56551 27.6259 4.65624 27.6637C4.74697 27.7014 4.84432 27.7206 4.94258 27.7203H16.0893C16.2336 27.6499 16.388 27.6027 16.547 27.5804V23.1809C16.1753 23.1239 15.8386 22.9293 15.6035 22.6358C15.3685 22.3423 15.2522 21.9712 15.2778 21.596C15.3034 21.2208 15.469 20.869 15.7417 20.6101C16.0144 20.3512 16.3744 20.2041 16.7504 20.1981H20.6405V3.15169C20.6389 2.95398 20.5591 2.76495 20.4184 2.62603C20.2777 2.48711 20.0877 2.40963 19.89 2.41058H4.94258C4.84497 2.40953 4.74813 2.42799 4.65774 2.46486C4.56735 2.50173 4.48524 2.55629 4.41621 2.62531C4.34718 2.69434 4.29263 2.77646 4.25576 2.86684C4.21888 2.95723 4.20043 3.05407 4.20147 3.15169V26.9693ZM17.5113 27.5658H22.2197V23.1945H17.5113V27.5658ZM23.184 25.7347H29.1797C29.2732 25.7319 29.3619 25.6926 29.4268 25.6253C29.4917 25.5579 29.5277 25.4679 29.5271 25.3743C29.5265 25.2808 29.4893 25.1912 29.4235 25.1247C29.3577 25.0582 29.2685 25.0201 29.1749 25.0185H23.184V25.7347ZM22.7018 22.2302H22.9815C23.1204 22.2262 23.2523 22.1682 23.3492 22.0685C23.446 21.9688 23.5002 21.8353 23.5002 21.6963C23.5002 21.5573 23.446 21.4238 23.3492 21.3241C23.2523 21.2244 23.1204 21.1664 22.9815 21.1624H16.7504C16.61 21.1625 16.4755 21.2183 16.3763 21.3175C16.2771 21.4167 16.2213 21.5513 16.2211 21.6916C16.2231 21.8322 16.2792 21.9667 16.3778 22.067C16.4764 22.1673 16.6098 22.2258 16.7504 22.2303L22.7018 22.2302ZM18.1686 19.4217H6.66492C6.53872 19.4191 6.41854 19.3672 6.33018 19.2771C6.24182 19.1869 6.19233 19.0657 6.19233 18.9395C6.19233 18.8133 6.24182 18.6921 6.33018 18.6019C6.41854 18.5118 6.53872 18.4599 6.66492 18.4574H18.1686C18.2948 18.4599 18.415 18.5118 18.5033 18.6019C18.5917 18.6921 18.6412 18.8133 18.6412 18.9395C18.6412 19.0657 18.5917 19.1869 18.5033 19.2771C18.415 19.3672 18.2948 19.4191 18.1686 19.4217ZM18.1686 16.9107H6.66492C6.53863 16.9083 6.41833 16.8564 6.32986 16.7662C6.2414 16.6761 6.19184 16.5548 6.19184 16.4285C6.19184 16.3022 6.2414 16.1809 6.32986 16.0908C6.41833 16.0006 6.53863 15.9488 6.66492 15.9464H18.1685C18.2947 15.9489 18.4148 16.0009 18.5031 16.091C18.5914 16.1811 18.6409 16.3023 18.6409 16.4285C18.6409 16.5547 18.5915 16.6758 18.5032 16.766C18.4149 16.8561 18.2947 16.9081 18.1686 16.9107ZM18.1686 14.3992H6.66492C6.53872 14.3967 6.41854 14.3447 6.33018 14.2546C6.24182 14.1645 6.19233 14.0433 6.19233 13.917C6.19233 13.7908 6.24182 13.6696 6.33018 13.5795C6.41854 13.4893 6.53872 13.4374 6.66492 13.4349H18.1686C18.2947 13.4375 18.4149 13.4894 18.5032 13.5795C18.5915 13.6697 18.6409 13.7908 18.6409 13.917C18.6409 14.0432 18.5915 14.1644 18.5032 14.2545C18.4149 14.3447 18.2947 14.3966 18.1686 14.3992ZM16.0564 11.8877H8.77524C8.46086 11.8844 8.15626 11.7779 7.90829 11.5846C7.66032 11.3913 7.48272 11.1219 7.4028 10.8179C7.32287 10.5138 7.34505 10.1919 7.46592 9.90164C7.58679 9.6114 7.79966 9.3689 8.0718 9.21144C8.12615 8.35003 8.43759 7.52472 8.96588 6.84216C9.49417 6.1596 10.215 5.65116 11.0353 5.38255C11.1255 5.08714 11.3082 4.8285 11.5564 4.64471C11.8046 4.46092 12.1053 4.3617 12.4142 4.36165C12.7231 4.36159 13.0238 4.46072 13.2721 4.64442C13.5204 4.82812 13.7032 5.0867 13.7935 5.38208C14.6138 5.65121 15.3348 6.15985 15.8635 6.84244C16.3922 7.52503 16.7043 8.3503 16.7598 9.2119C17.0321 9.36914 17.2453 9.61157 17.3663 9.90186C17.4874 10.1921 17.5097 10.5142 17.4297 10.8184C17.3497 11.1226 17.172 11.392 16.9238 11.5852C16.6757 11.7785 16.3709 11.8847 16.0564 11.8877ZM8.64721 10.0081C8.54025 10.0402 8.44832 10.1096 8.38805 10.2036C8.32778 10.2976 8.30316 10.4101 8.31864 10.5207C8.33412 10.6313 8.38868 10.7327 8.47245 10.8066C8.55622 10.8804 8.66366 10.9219 8.77533 10.9234H16.0564C16.1185 10.9241 16.1801 10.9124 16.2377 10.889C16.2952 10.8655 16.3474 10.8308 16.3914 10.7869C16.4353 10.743 16.4701 10.6908 16.4935 10.6333C16.517 10.5758 16.5288 10.5142 16.5282 10.4521C16.4973 10.0224 16.1508 9.96825 15.74 9.9902C15.3572 9.98835 13.6161 9.99393 13.3566 9.9902C12.0039 10.0051 10.0511 9.961 8.64721 10.0081ZM15.6261 9.02592H15.7692C15.6909 8.46892 15.4744 7.94038 15.1395 7.48847C14.8047 7.03656 14.362 6.67566 13.8519 6.43868V9.02592C14.512 9.02495 15.254 9.01941 15.6261 9.02592ZM11.945 9.02592H12.8876V5.76156C12.8849 5.70073 12.8702 5.64103 12.8442 5.58595C12.8183 5.53086 12.7816 5.48149 12.7364 5.4407C12.6912 5.39991 12.6383 5.36851 12.5809 5.34834C12.5234 5.32817 12.4625 5.31963 12.4017 5.32321C12.3416 5.3202 12.2815 5.3297 12.2252 5.3511C12.1689 5.37251 12.1177 5.40536 12.0748 5.44758C12.0319 5.4898 11.9982 5.54046 11.9758 5.59637C11.9535 5.65228 11.943 5.71222 11.945 5.77239V9.02592ZM10.7283 9.02592H10.9807C10.9807 7.69673 10.9798 6.9076 10.9807 6.43817C10.4689 6.67346 10.0247 7.03387 9.68895 7.48614C9.3532 7.9384 9.13679 8.46796 9.05968 9.02592C9.54145 9.02296 9.96516 9.02153 10.7283 9.02592Z" fill="white"/>
</g>
</g>
</svg>
