<svg width="32" height="32" viewBox="0 0 32 32" fill="none" xmlns="http://www.w3.org/2000/svg">
<g id="money_15420351 1">
<path id="Vector" d="M14.3126 15.2787C14.3201 15.724 14.5002 16.1489 14.8151 16.4637C15.13 16.7786 15.5549 16.9588 16.0001 16.9662V18.4127C15.8541 18.4046 15.7133 18.355 15.5946 18.2695C15.4758 18.1841 15.384 18.0665 15.3299 17.9305C15.2892 17.8519 15.2276 17.786 15.1519 17.7401C15.0762 17.6942 14.9894 17.67 14.9008 17.6702C14.8234 17.6702 14.7472 17.6889 14.6785 17.7246C14.6098 17.7603 14.5508 17.8121 14.5063 17.8754C14.4619 17.9388 14.4333 18.0119 14.4231 18.0887C14.4129 18.1654 14.4213 18.2434 14.4476 18.3162C14.5787 18.6224 14.7943 18.8849 15.0693 19.0728C15.3443 19.2607 15.6672 19.3662 16.0001 19.377V19.8591C16.0001 19.987 16.0509 20.1096 16.1413 20.2C16.2318 20.2904 16.3544 20.3412 16.4823 20.3412C16.6101 20.3412 16.7328 20.2904 16.8232 20.2C16.9136 20.1096 16.9644 19.987 16.9644 19.8591V19.377C17.412 19.377 17.8412 19.1992 18.1576 18.8827C18.4741 18.5662 18.6519 18.137 18.6519 17.6895C18.6519 17.2419 18.4741 16.8127 18.1576 16.4962C17.8412 16.1797 17.412 16.002 16.9644 16.002V14.5555C17.1073 14.5611 17.2457 14.6064 17.3642 14.6865C17.4826 14.7666 17.5762 14.8782 17.6346 15.0087C17.6753 15.0874 17.7369 15.1532 17.8126 15.1992C17.8883 15.2451 17.9752 15.2693 18.0637 15.2691C18.1411 15.2691 18.2174 15.2504 18.286 15.2147C18.3547 15.1789 18.4137 15.1272 18.4582 15.0638C18.5027 15.0005 18.5312 14.9273 18.5414 14.8506C18.5516 14.7739 18.5432 14.6958 18.5169 14.623C18.3816 14.3222 18.1641 14.0658 17.8895 13.8832C17.6148 13.7007 17.2941 13.5995 16.9644 13.5912V13.1091C16.9644 12.9812 16.9136 12.8586 16.8232 12.7682C16.7328 12.6777 16.6101 12.627 16.4823 12.627C16.3544 12.627 16.2318 12.6777 16.1413 12.7682C16.0509 12.8586 16.0001 12.9812 16.0001 13.1091V13.5912C15.5549 13.5987 15.13 13.7789 14.8151 14.0937C14.5002 14.4086 14.3201 14.8335 14.3126 15.2787ZM15.2769 15.2787C15.2829 15.0888 15.3611 14.9084 15.4954 14.774C15.6298 14.6397 15.8102 14.5616 16.0001 14.5555V16.002C15.8102 15.9959 15.6298 15.9178 15.4954 15.7834C15.3611 15.6491 15.2829 15.4686 15.2769 15.2787ZM17.6876 17.6895C17.6816 17.8793 17.6035 18.0598 17.4691 18.1942C17.3348 18.3285 17.1543 18.4066 16.9644 18.4127V16.9662C17.1543 16.9723 17.3348 17.0504 17.4691 17.1847C17.6035 17.3191 17.6816 17.4996 17.6876 17.6895Z" fill="white"/>
<path id="Vector_2" d="M13.1072 13.5912H13.5894C13.7173 13.5912 13.8399 13.5404 13.9303 13.45C14.0207 13.3596 14.0715 13.237 14.0715 13.1091C14.0715 12.9812 14.0207 12.8586 13.9303 12.7682C13.8399 12.6777 13.7173 12.627 13.5894 12.627H13.1072C12.2121 12.627 11.3537 12.9825 10.7208 13.6155C10.0878 14.2484 9.73224 15.1068 9.73224 16.002V16.9662C9.73224 17.8613 10.0878 18.7198 10.7208 19.3527C11.3537 19.9857 12.2121 20.3412 13.1072 20.3412H13.5894C13.7173 20.3412 13.8399 20.2904 13.9303 20.2C14.0207 20.1096 14.0715 19.987 14.0715 19.8591C14.0715 19.7312 14.0207 19.6086 13.9303 19.5182C13.8399 19.4278 13.7173 19.377 13.5894 19.377H13.1072C12.4679 19.377 11.8547 19.123 11.4026 18.6709C10.9505 18.2188 10.6965 17.6056 10.6965 16.9662V16.002C10.6965 15.3626 10.9505 14.7494 11.4026 14.2973C11.8547 13.8452 12.4679 13.5912 13.1072 13.5912Z" fill="white"/>
<path id="Vector_3" d="M17.0174 6.52662L19.9103 7.76572C19.9698 7.79092 20.0337 7.8039 20.0983 7.8039C20.1629 7.8039 20.2269 7.79092 20.2864 7.76572L23.1792 6.52662C23.2664 6.48971 23.3407 6.42797 23.393 6.34909C23.4453 6.27021 23.4733 6.17769 23.4733 6.08305V2.77554C23.4733 2.6809 23.4453 2.58838 23.393 2.5095C23.3407 2.43062 23.2664 2.36888 23.1792 2.33197L20.2864 1.09287C20.2269 1.06767 20.1629 1.05469 20.0983 1.05469C20.0337 1.05469 19.9698 1.06767 19.9103 1.09287L17.0174 2.33197C16.9303 2.36888 16.8559 2.43062 16.8036 2.5095C16.7513 2.58838 16.7234 2.6809 16.7233 2.77554V6.08305C16.7234 6.17769 16.7513 6.27021 16.8036 6.34909C16.8559 6.42797 16.9303 6.48971 17.0174 6.52662ZM17.6876 3.5084L19.6162 4.33287V6.58929L17.6876 5.76483V3.5084ZM20.5805 6.58929V4.33287L22.509 3.5084V5.76483L20.5805 6.58929ZM20.0983 2.06197L21.7858 2.77554L20.0983 3.49394L18.4108 2.77554L20.0983 2.06197Z" fill="white"/>
<path id="Vector_4" d="M1.5362 30.947C1.66407 30.947 1.78671 30.8962 1.87713 30.8058C1.96755 30.7154 2.01834 30.5928 2.01834 30.4649V25.5808C2.01834 24.6792 2.53424 24.197 3.46477 24.197H9.32763C10.5764 23.9994 11.9891 23.6522 12.9871 22.577L13.0594 22.5047C13.0878 22.4704 13.1242 22.4437 13.1654 22.4268C13.2066 22.41 13.2514 22.4036 13.2957 22.4083C13.3439 22.4133 13.3901 22.43 13.4304 22.4569C13.4707 22.4838 13.5039 22.52 13.5271 22.5626C13.5698 22.6313 13.5925 22.7106 13.5925 22.7916C13.5925 22.8725 13.5698 22.9519 13.5271 23.0206L12.9051 23.956C12.2494 24.9203 11.0971 25.2963 9.87727 25.6676L8.59959 26.1497C8.50653 26.1845 8.42648 26.2471 8.37039 26.3291C8.31429 26.4111 8.28489 26.5084 8.2862 26.6078V30.4649C8.2862 30.5928 8.337 30.7154 8.42742 30.8058C8.51784 30.8962 8.64047 30.947 8.76834 30.947C8.89622 30.947 9.01885 30.8962 9.10927 30.8058C9.19969 30.7154 9.25049 30.5928 9.25049 30.4649V26.9356L10.0894 26.6078H10.1569C11.425 26.222 12.8569 25.7785 13.7007 24.5104L14.2985 23.6136C14.4195 23.4375 14.5 23.2368 14.5342 23.0259C14.5684 22.815 14.5554 22.5991 14.4962 22.3938C14.4237 22.148 14.2803 21.929 14.0839 21.7643C13.8875 21.5996 13.6468 21.4966 13.3921 21.4681C13.1992 21.4476 13.0042 21.4731 12.8232 21.5427C12.6421 21.6123 12.4802 21.7239 12.3507 21.8683L12.2832 21.9406C11.4925 22.7892 10.3546 23.0785 9.21192 23.2569H7.47138C7.98998 22.9138 8.38427 22.4129 8.5958 21.8282C8.80732 21.2435 8.82484 20.6062 8.64574 20.0108C8.46664 19.4153 8.10046 18.8935 7.60148 18.5225C7.1025 18.1515 6.49727 17.9512 5.87549 17.9512C5.25371 17.9512 4.64847 18.1515 4.14949 18.5225C3.65051 18.8935 3.28433 19.4153 3.10523 20.0108C2.92614 20.6062 2.94365 21.2435 3.15518 21.8282C3.3667 22.4129 3.76099 22.9138 4.27959 23.2569H3.46477C3.1468 23.2301 2.82678 23.2719 2.52639 23.3796C2.226 23.4872 1.95224 23.6582 1.72365 23.8808C1.49507 24.1035 1.31698 24.3726 1.20146 24.6701C1.08593 24.9675 1.03566 25.2863 1.05406 25.6049V30.4649C1.05406 30.5928 1.10485 30.7154 1.19527 30.8058C1.28569 30.8962 1.40833 30.947 1.5362 30.947ZM5.87549 18.8935C6.25692 18.8935 6.62979 19.0066 6.94694 19.2185C7.26409 19.4304 7.51129 19.7316 7.65725 20.084C7.80322 20.4364 7.84142 20.8242 7.767 21.1983C7.69259 21.5724 7.50891 21.916 7.23919 22.1857C6.96948 22.4555 6.62584 22.6391 6.25173 22.7136C5.87763 22.788 5.48985 22.7498 5.13745 22.6038C4.78505 22.4578 4.48385 22.2106 4.27194 21.8935C4.06002 21.5763 3.94691 21.2035 3.94691 20.822C3.94691 20.3105 4.1501 19.82 4.51178 19.4583C4.87346 19.0967 5.364 18.8935 5.87549 18.8935Z" fill="white"/>
<path id="Vector_5" d="M3.46438 26.127C3.33651 26.127 3.21387 26.1777 3.12346 26.2682C3.03304 26.3586 2.98224 26.4812 2.98224 26.6091V30.4662C2.98224 30.5941 3.03304 30.7167 3.12346 30.8072C3.21387 30.8976 3.33651 30.9484 3.46438 30.9484C3.59225 30.9484 3.71489 30.8976 3.80531 30.8072C3.89573 30.7167 3.94652 30.5941 3.94652 30.4662V26.6091C3.94652 26.4812 3.89573 26.3586 3.80531 26.2682C3.71489 26.1777 3.59225 26.127 3.46438 26.127Z" fill="white"/>
<path id="Vector_6" d="M28.536 11.1787H27.7211C28.2397 10.8357 28.634 10.3347 28.8456 9.75005C29.0571 9.16536 29.0746 8.52807 28.8955 7.93264C28.7164 7.33722 28.3502 6.81534 27.8512 6.44436C27.3523 6.07338 26.747 5.87305 26.1253 5.87305C25.5035 5.87305 24.8982 6.07338 24.3993 6.44436C23.9003 6.81534 23.5341 7.33722 23.355 7.93264C23.1759 8.52807 23.1934 9.16536 23.4049 9.75005C23.6165 10.3347 24.0108 10.8357 24.5294 11.1787H22.7888C21.6606 11.0003 20.5083 10.6966 19.7176 9.86248L19.6501 9.79016C19.5206 9.64575 19.3586 9.53417 19.1776 9.46459C18.9965 9.39502 18.8015 9.36945 18.6086 9.38998C18.3537 9.41784 18.1127 9.52065 17.9162 9.68542C17.7197 9.85019 17.5764 10.0695 17.5045 10.3157C17.446 10.5213 17.4339 10.7374 17.4689 10.9483C17.5039 11.1593 17.5852 11.3598 17.707 11.5355L18.3001 12.4275C19.1438 13.7003 20.5758 14.1439 21.8438 14.5296L22.7503 14.8816V18.4109C22.7503 18.5387 22.801 18.6614 22.8915 18.7518C22.9819 18.8422 23.1045 18.893 23.2324 18.893C23.3603 18.893 23.4829 18.8422 23.5733 18.7518C23.6637 18.6614 23.7145 18.5387 23.7145 18.4109V14.5537C23.7143 14.4566 23.6846 14.3618 23.6296 14.2818C23.5745 14.2018 23.4966 14.1403 23.406 14.1053L22.1958 13.6232H22.1283C20.9085 13.2519 19.7561 12.8952 19.1004 11.9116L18.4785 10.9762C18.432 10.9044 18.4072 10.8207 18.4072 10.7352C18.4072 10.6496 18.432 10.5659 18.4785 10.4941C18.5025 10.4527 18.536 10.4176 18.5763 10.3916C18.6165 10.3656 18.6623 10.3495 18.7099 10.3446C18.7537 10.3402 18.7979 10.3462 18.839 10.3621C18.88 10.3781 18.9168 10.4034 18.9461 10.4362L19.0185 10.5134C20.0165 11.5886 21.4292 11.9357 22.6779 12.1334H28.536C29.4665 12.1334 29.9824 12.6155 29.9824 13.5171V18.4109C29.9824 18.5387 30.0332 18.6614 30.1236 18.7518C30.214 18.8422 30.3367 18.893 30.4645 18.893C30.5924 18.893 30.715 18.8422 30.8055 18.7518C30.8959 18.6614 30.9467 18.5387 30.9467 18.4109V13.5268C30.9651 13.2082 30.9148 12.8894 30.7993 12.5919C30.6838 12.2945 30.5057 12.0253 30.2771 11.8027C30.0485 11.58 29.7747 11.4091 29.4743 11.3015C29.174 11.1938 28.8539 11.152 28.536 11.1787ZM26.1253 6.83945C26.5067 6.83945 26.8796 6.95256 27.1967 7.16447C27.5139 7.37639 27.7611 7.67759 27.907 8.02999C28.053 8.38239 28.0912 8.77016 28.0168 9.14427C27.9424 9.51837 27.7587 9.86201 27.489 10.1317C27.2192 10.4014 26.8756 10.5851 26.5015 10.6595C26.1274 10.7339 25.7396 10.6958 25.3872 10.5498C25.0348 10.4038 24.7336 10.1566 24.5217 9.83948C24.3098 9.52232 24.1967 9.14946 24.1967 8.76802C24.1967 8.25653 24.3999 7.76599 24.7615 7.40431C25.1232 7.04264 25.6138 6.83945 26.1253 6.83945Z" fill="white"/>
<path id="Vector_7" d="M28.5359 18.8937C28.6637 18.8937 28.7864 18.8429 28.8768 18.7525C28.9672 18.6621 29.018 18.5394 29.018 18.4116V14.5544C29.018 14.4265 28.9672 14.3039 28.8768 14.2135C28.7864 14.1231 28.6637 14.0723 28.5359 14.0723C28.408 14.0723 28.2853 14.1231 28.1949 14.2135C28.1045 14.3039 28.0537 14.4265 28.0537 14.5544V18.4116C28.0537 18.5394 28.1045 18.6621 28.1949 18.7525C28.2853 18.8429 28.408 18.8937 28.5359 18.8937Z" fill="white"/>
<path id="Vector_8" d="M4.2886 16.4833C4.35192 16.4833 4.41461 16.4708 4.47311 16.4466C4.5316 16.4223 4.58476 16.3868 4.62953 16.342C4.6743 16.2973 4.70981 16.2441 4.73404 16.1856C4.75827 16.1271 4.77074 16.0644 4.77074 16.0011C4.77074 13.1879 5.88828 10.49 7.8775 8.50073C9.86673 6.51151 12.5647 5.39397 15.3779 5.39397C15.5058 5.39397 15.6284 5.34318 15.7188 5.25276C15.8092 5.16234 15.86 5.0397 15.86 4.91183C15.86 4.78396 15.8092 4.66132 15.7188 4.5709C15.6284 4.48048 15.5058 4.42969 15.3779 4.42969C12.309 4.42969 9.36571 5.64882 7.19565 7.81888C5.02559 9.98894 3.80646 12.9322 3.80646 16.0011C3.80646 16.129 3.85725 16.2516 3.94767 16.342C4.03809 16.4325 4.16073 16.4833 4.2886 16.4833Z" fill="white"/>
<path id="Vector_9" d="M26.2308 20.0262C26.2532 19.9667 26.2636 19.9034 26.2614 19.8399C26.2591 19.7763 26.2444 19.7139 26.218 19.6561C26.1915 19.5983 26.1539 19.5463 26.1073 19.503C26.0607 19.4598 26.006 19.4262 25.9464 19.4042C25.8268 19.3606 25.6948 19.366 25.5792 19.4193C25.4635 19.4726 25.3737 19.5694 25.3292 19.6887C24.4644 22.0163 22.8104 23.9666 20.6554 25.2001C18.5004 26.4335 15.981 26.8718 13.536 26.4387C13.4727 26.4276 13.4078 26.4291 13.3451 26.4431C13.2823 26.4571 13.223 26.4833 13.1704 26.5203C13.1178 26.5572 13.0729 26.6041 13.0385 26.6584C13.004 26.7127 12.9806 26.7732 12.9695 26.8365C12.9584 26.8998 12.9599 26.9647 12.9739 27.0274C12.9879 27.0901 13.0141 27.1495 13.051 27.2021C13.088 27.2547 13.1349 27.2995 13.1892 27.334C13.2434 27.3685 13.3039 27.3919 13.3673 27.403C16.0358 27.8742 18.7852 27.394 21.1359 26.0459C23.4867 24.6978 25.2898 22.5674 26.2308 20.0262Z" fill="white"/>
</g>
</svg>
