<svg width="32" height="32" viewBox="0 0 32 32" fill="none" xmlns="http://www.w3.org/2000/svg">
<g id="service icons">
<path id="Vector" d="M17.4473 18.8916H20.3401V19.8559H17.4473V18.8916Z" fill="white"/>
<path id="Vector_2" d="M16.2559 16.9883L18.3014 14.9427L18.9833 15.6246L16.9377 17.6701L16.2559 16.9883Z" fill="white"/>
<path id="Vector_3" d="M16.2539 21.7627L16.9358 21.0808L18.9813 23.1264L18.2995 23.8083L16.2539 21.7627Z" fill="white"/>
<path id="Vector_4" d="M28.0541 1.53516H6.83984C6.71197 1.53516 6.58934 1.58595 6.49892 1.67637C6.4085 1.76679 6.3577 1.88943 6.3577 2.0173V16.9637H4.91127C4.52766 16.9637 4.15975 17.1161 3.88849 17.3874C3.61723 17.6586 3.46484 18.0265 3.46484 18.4102V20.3387C3.46484 20.7223 3.61723 21.0903 3.88849 21.3615C4.15975 21.6328 4.52766 21.7852 4.91127 21.7852V26.1244C4.91127 26.2523 4.96207 26.375 5.05249 26.4654C5.14291 26.5558 5.26554 26.6066 5.39342 26.6066H6.3577V29.9816C6.3577 30.1095 6.4085 30.2321 6.49892 30.3225C6.58934 30.4129 6.71197 30.4637 6.83984 30.4637H28.0541C28.4377 30.4637 28.8057 30.3113 29.0769 30.0401C29.3482 29.7688 29.5006 29.4009 29.5006 29.0173V2.98158C29.5006 2.59797 29.3482 2.23006 29.0769 1.95881C28.8057 1.68755 28.4377 1.53516 28.0541 1.53516ZM23.7148 2.49944H25.6434V5.3923L25.0648 4.62087C25.018 4.56392 24.9591 4.51805 24.8924 4.48656C24.8257 4.45507 24.7529 4.43874 24.6791 4.43874C24.6054 4.43874 24.5325 4.45507 24.4659 4.48656C24.3992 4.51805 24.3403 4.56392 24.2934 4.62087L23.7148 5.3923V2.49944ZM12.1434 22.5195L8.28627 20.9766V17.7723L12.1434 16.2294V22.5195ZM7.32199 2.49944H10.2148V15.9623L7.71108 16.9637H7.32199V2.49944ZM6.3577 17.928H7.32199V20.8209H6.3577V17.928ZM4.42913 20.3387V18.4102C4.42913 18.2823 4.47993 18.1597 4.57035 18.0692C4.66077 17.9788 4.7834 17.928 4.91127 17.928H5.39342V20.8209H4.91127C4.7834 20.8209 4.66077 20.7701 4.57035 20.6797C4.47993 20.5892 4.42913 20.4666 4.42913 20.3387ZM5.87556 21.7852H7.71108L7.80413 21.8223V25.6423H5.87556V21.7852ZM7.32199 26.6066H8.28627C8.41414 26.6066 8.53678 26.5558 8.6272 26.4654C8.71762 26.375 8.76842 26.2523 8.76842 26.1244V22.208L10.2148 22.7866V29.4994H7.32199V26.6066ZM28.5363 29.0173C28.5363 29.1452 28.4855 29.2678 28.3951 29.3582C28.3046 29.4486 28.182 29.4994 28.0541 29.4994H11.1791V23.1723L12.1916 23.5768C12.2772 23.918 12.4844 24.2163 12.7744 24.4156C13.0643 24.6148 13.417 24.7014 13.7662 24.659C14.1155 24.6166 14.4372 24.4482 14.6711 24.1854C14.9049 23.9226 15.0348 23.5834 15.0363 23.2316V21.2346C15.4498 21.1293 15.8164 20.8893 16.0782 20.5525C16.3401 20.2156 16.4823 19.8011 16.4823 19.3744C16.4823 18.9478 16.3401 18.5333 16.0782 18.1964C15.8164 17.8596 15.4498 17.6196 15.0363 17.5143V15.5173C15.0348 15.1655 14.9049 14.8263 14.6711 14.5635C14.4372 14.3007 14.1155 14.1323 13.7662 14.0899C13.417 14.0475 13.0643 14.1341 12.7744 14.3333C12.4844 14.5326 12.2772 14.8308 12.1916 15.1721L11.1791 15.5766V2.49944H22.7506V6.83873C22.7506 6.93992 22.7824 7.03855 22.8416 7.12064C22.9007 7.20273 22.9842 7.26413 23.0802 7.29613C23.1762 7.32813 23.2799 7.32911 23.3765 7.29894C23.4731 7.26877 23.5577 7.20897 23.6184 7.12801L24.6791 5.71389L25.7398 7.12801C25.7848 7.18789 25.843 7.2365 25.9099 7.26997C25.9769 7.30344 26.0507 7.32087 26.1256 7.32087C26.1773 7.32075 26.2287 7.31245 26.2779 7.29628C26.374 7.26429 26.4575 7.20288 26.5167 7.12076C26.5759 7.03863 26.6077 6.93996 26.6077 6.83873V2.49944H28.0541C28.182 2.49944 28.3046 2.55024 28.3951 2.64066C28.4855 2.73108 28.5363 2.85371 28.5363 2.98158V29.0173ZM13.1077 23.2316V15.5173C13.1077 15.3894 13.1585 15.2668 13.2489 15.1764C13.3393 15.086 13.462 15.0352 13.5898 15.0352C13.7177 15.0352 13.8404 15.086 13.9308 15.1764C14.0212 15.2668 14.072 15.3894 14.072 15.5173V23.2316C14.072 23.3595 14.0212 23.4821 13.9308 23.5725C13.8404 23.6629 13.7177 23.7137 13.5898 23.7137C13.462 23.7137 13.3393 23.6629 13.2489 23.5725C13.1585 23.4821 13.1077 23.3595 13.1077 23.2316ZM15.0363 18.5442C15.1827 18.6278 15.3044 18.7486 15.389 18.8944C15.4737 19.0402 15.5182 19.2058 15.5182 19.3744C15.5182 19.543 15.4737 19.7086 15.389 19.8544C15.3044 20.0003 15.1827 20.1211 15.0363 20.2047V18.5442Z" fill="white"/>
<path id="Vector_5" d="M13.1074 6.35645H20.8217V7.32073H13.1074V6.35645Z" fill="white"/>
<path id="Vector_6" d="M13.1074 4.42773H15.036V5.39202H13.1074V4.42773Z" fill="white"/>
<path id="Vector_7" d="M16 4.42773H20.8214V5.39202H16V4.42773Z" fill="white"/>
<path id="Vector_8" d="M13.1074 9.24902H17.9289V10.2133H13.1074V9.24902Z" fill="white"/>
<path id="Vector_9" d="M18.8945 9.24902H26.6088V10.2133H18.8945V9.24902Z" fill="white"/>
<path id="Vector_10" d="M13.1074 11.1777H20.8217V12.142H13.1074V11.1777Z" fill="white"/>
<path id="Vector_11" d="M21.7871 11.1777H26.6085V12.142H21.7871V11.1777Z" fill="white"/>
<path id="Vector_12" d="M15.0371 13.1064H26.6085V14.0707H15.0371V13.1064Z" fill="white"/>
<path id="Vector_13" d="M21.7871 15.0352H26.6085V15.9994H21.7871V15.0352Z" fill="white"/>
<path id="Vector_14" d="M21.7871 16.9629H26.6085V17.9272H21.7871V16.9629Z" fill="white"/>
<path id="Vector_15" d="M21.7871 18.8916H26.6085V19.8559H21.7871V18.8916Z" fill="white"/>
<path id="Vector_16" d="M21.7871 20.8203H26.6085V21.7846H21.7871V20.8203Z" fill="white"/>
<path id="Vector_17" d="M21.7871 22.749H26.6085V23.7133H21.7871V22.749Z" fill="white"/>
<path id="Vector_18" d="M16 24.6777H23.7143V25.642H16V24.6777Z" fill="white"/>
<path id="Vector_19" d="M24.6797 24.6777H26.6083V25.642H24.6797V24.6777Z" fill="#003366"/>
<path id="Vector_20" d="M13.1074 26.6064H26.6074V27.5707H13.1074V26.6064Z" fill="#003366"/>
</g>
</svg>
