<svg width="32" height="32" viewBox="0 0 32 32" fill="none" xmlns="http://www.w3.org/2000/svg">
<g id="thin_12737916 1">
<g id="Layer_4">
<g id="Group">
<path id="Vector" d="M4.14163 28.6868H14.4103C14.7006 28.6868 14.9754 28.5614 15.1657 28.3425C15.355 28.1243 15.4402 27.8343 15.3993 27.5483L15.2341 26.3934C15.0262 24.9338 13.2638 24.504 13.0667 24.461C13.0667 24.461 11.7164 24.1649 11.3799 24.0608C11.1015 23.975 10.8762 23.7917 10.7261 23.5545C11.3124 23.2398 11.7614 22.7375 12.0761 22.1377H12.4489C12.8398 22.1377 13.2056 21.9651 13.4531 21.6636C13.7009 21.3617 13.7999 20.9699 13.725 20.5871C13.617 20.0368 13.1667 19.6267 12.6235 19.5524V18.655C12.6235 17.98 12.3602 17.3452 11.8829 16.8672C11.4056 16.3899 10.7708 16.127 10.0948 16.127H8.45777C7.78181 16.127 7.14666 16.3899 6.66934 16.8672C6.19202 17.3452 5.92909 17.98 5.92909 18.655L5.93006 19.5524C5.38588 19.6263 4.93523 20.0365 4.82723 20.5871C4.75266 20.9696 4.85166 21.3617 5.09948 21.6636C5.34698 21.9654 5.71309 22.1377 6.10363 22.1377H6.47198C6.78666 22.7362 7.23698 23.2398 7.82584 23.5552C7.67573 23.7921 7.45041 23.975 7.1727 24.0608C6.83488 24.1649 5.48809 24.4603 5.48809 24.4603C5.28784 24.5043 3.52577 24.9344 3.3178 26.3927L3.15259 27.5483C3.11177 27.835 3.19695 28.124 3.38659 28.3425C3.57623 28.5614 3.85138 28.6868 4.14163 28.6868ZM12.7791 20.7729C12.7983 20.8719 12.7726 20.9735 12.708 21.0525C12.6447 21.1293 12.5502 21.1737 12.4489 21.174C12.5062 20.9635 12.5496 20.7481 12.5807 20.5308C12.6801 20.5739 12.7572 20.6617 12.7791 20.7729ZM5.84391 21.0525C5.77931 20.9735 5.75327 20.8719 5.77288 20.7729C5.79441 20.6626 5.87027 20.5765 5.96766 20.5328C5.99788 20.7488 6.04223 20.9628 6.09881 21.1731C5.99916 21.1718 5.90627 21.1284 5.84391 21.0525ZM6.89241 20.1506V18.6553C6.89241 18.2432 7.05956 17.8398 7.35077 17.549C7.64584 17.2536 8.03927 17.0909 8.45745 17.0909H10.0945C10.513 17.0909 10.9058 17.2532 11.2008 17.549C11.4921 17.8405 11.6595 18.2439 11.6595 18.6553L11.6608 20.1143C11.5547 21.5231 10.7762 22.9438 9.27613 22.9438C7.77602 22.9438 6.9972 21.5231 6.89241 20.1506ZM4.2718 26.529C4.39041 25.6985 5.68288 25.4043 5.69895 25.4005C5.69895 25.4005 7.08045 25.0974 7.45684 24.9813C8.02995 24.8046 8.48252 24.4028 8.74834 23.8608C8.91741 23.8882 9.09131 23.9071 9.27613 23.9071C9.45966 23.9071 9.63291 23.8885 9.80102 23.8615C10.0598 24.3931 10.5149 24.8026 11.0957 24.9817C11.4712 25.0971 12.8562 25.4015 12.8562 25.4015C12.8694 25.4047 14.1618 25.6988 14.2804 26.53L14.4106 27.7238L4.10659 27.6849L4.2718 26.529Z" fill="white"/>
<path id="Vector_2" d="M17.507 28.6868H27.7757C28.0656 28.6868 28.3407 28.5614 28.5307 28.3425C28.72 28.1243 28.8055 27.835 28.7647 27.5476L28.5995 26.3934C28.3912 24.9344 26.6291 24.504 26.4321 24.461C26.4321 24.461 25.0824 24.1649 24.7452 24.0608C24.4669 23.975 24.2412 23.7921 24.0914 23.5545C24.6777 23.2398 25.1268 22.7375 25.4414 22.1377H25.8143C26.2052 22.1377 26.5709 21.9651 26.8184 21.6636C27.0663 21.3617 27.1653 20.9699 27.0904 20.5871C26.9824 20.0368 26.5324 19.6267 25.9885 19.5524V18.655C25.9885 17.98 25.7256 17.3452 25.2483 16.8672C24.7709 16.3899 24.1358 16.127 23.4602 16.127H21.8228C21.1472 16.127 20.512 16.3899 20.0347 16.8672C19.5574 17.3452 19.2944 17.98 19.2944 18.655L19.2951 19.5524C18.7512 19.6263 18.3009 20.0365 18.1926 20.5871C18.1177 20.9696 18.2167 21.3617 18.4645 21.6636C18.712 21.9654 19.0781 22.1377 19.4687 22.1377H19.8373C20.152 22.7362 20.602 23.2398 21.1909 23.5552C21.0411 23.7921 20.8158 23.975 20.538 24.0608C20.2005 24.1649 18.8534 24.4603 18.8534 24.4603C18.6532 24.5043 16.8911 24.9338 16.6828 26.3927L16.5179 27.5476C16.4768 27.8343 16.5623 28.124 16.7516 28.3425C16.9416 28.5614 17.217 28.6868 17.507 28.6868ZM26.1444 20.7729C26.1637 20.8719 26.138 20.9735 26.0734 21.0525C26.0097 21.1293 25.9152 21.1737 25.8143 21.174C25.8712 20.9635 25.9149 20.7481 25.9461 20.5308C26.0454 20.5739 26.1229 20.661 26.1444 20.7729ZM19.2093 21.0525C19.1447 20.9735 19.1189 20.8719 19.1382 20.7729C19.1598 20.663 19.2356 20.5768 19.333 20.5331C19.3635 20.7491 19.4076 20.9632 19.4642 21.1734C19.3648 21.1718 19.2719 21.1284 19.2093 21.0525ZM20.2578 20.1506V18.6553C20.2578 18.2439 20.4246 17.8405 20.7161 17.549C21.0112 17.2536 21.4043 17.0909 21.8225 17.0909H23.4598C23.8783 17.0909 24.2711 17.2532 24.5662 17.549C24.8574 17.8398 25.0245 18.2432 25.0245 18.6553L25.0262 20.1143C24.9201 21.5231 24.1416 22.9438 22.6415 22.9438C21.1414 22.9438 20.3622 21.5231 20.2578 20.1506ZM17.6368 26.529C17.7554 25.6985 19.0482 25.4043 19.0643 25.4005C19.0643 25.4005 20.4461 25.0967 20.8222 24.9813C21.3943 24.8046 21.8466 24.4037 22.113 23.8605C22.2824 23.8878 22.4563 23.9068 22.6415 23.9068C22.825 23.9068 22.9983 23.8882 23.1664 23.8612C23.4248 24.3928 23.8803 24.8023 24.4611 24.9813C24.8368 25.0974 26.2215 25.4011 26.2215 25.4011C26.2344 25.4043 27.5272 25.6985 27.6458 26.5297L27.7593 27.3233L27.776 27.7235L17.4719 27.6839L17.6368 26.529Z" fill="white"/>
<path id="Vector_3" d="M5.4065 11.7198H8.03675L10.5542 14.0794C10.6905 14.2067 10.8676 14.2739 11.0469 14.2739C11.1437 14.2739 11.2417 14.2546 11.3343 14.2144C11.5979 14.1003 11.7679 13.8406 11.7679 13.5533V11.7198H11.827C13.0713 11.7198 14.0831 10.7073 14.0831 9.46372V5.57154C14.0831 4.32761 13.071 3.31543 11.827 3.31543H5.4065C4.16225 3.31543 3.15039 4.32793 3.15039 5.57154V9.46372C3.15007 10.7076 4.16225 11.7198 5.4065 11.7198ZM4.11371 5.57154C4.11371 4.85893 4.69357 4.27875 5.4065 4.27875H11.8274C12.5403 4.27875 13.1201 4.85893 13.1201 5.57154V9.46372C13.1201 10.1763 12.5403 10.7565 11.8274 10.7565H11.2864C11.0202 10.7565 10.8046 10.9722 10.8046 11.2383V12.994L8.55682 10.887C8.46746 10.8031 8.3495 10.7565 8.22736 10.7565H5.4065C4.69357 10.7565 4.11371 10.1763 4.11371 9.46372V5.57154Z" fill="white"/>
<path id="Vector_4" d="M20.1799 11.7198H20.2394V13.5533C20.2394 13.8406 20.4098 14.1003 20.673 14.2144C20.7656 14.2546 20.863 14.2739 20.96 14.2739C21.1394 14.2739 21.3165 14.2067 21.4534 14.0788L23.9705 11.7198H26.6005C27.8447 11.7198 28.8566 10.7073 28.8566 9.46372V5.57154C28.8566 4.32761 27.8444 3.31543 26.6005 3.31543H20.1799C18.9357 3.31543 17.9238 4.32793 17.9238 5.57154V9.46372C17.9238 10.7076 18.936 11.7198 20.1799 11.7198ZM18.8875 5.57154C18.8875 4.85893 19.4673 4.27875 20.1803 4.27875H26.6011C27.314 4.27875 27.8939 4.85893 27.8939 5.57154V9.46372C27.8939 10.1763 27.314 10.7565 26.6011 10.7565H23.7803C23.6578 10.7565 23.5405 10.8028 23.4508 10.887L21.203 12.994V11.2383C21.203 10.9725 20.9874 10.7565 20.7212 10.7565H20.1799C19.467 10.7565 18.8871 10.1763 18.8871 9.46372V5.57154H18.8875Z" fill="white"/>
<path id="Vector_5" d="M6.36073 6.84743H10.2147C10.4808 6.84743 10.6965 6.63175 10.6965 6.36561C10.6965 6.09947 10.4811 5.88379 10.2147 5.88379H6.36073C6.09491 5.88379 5.87891 6.09947 5.87891 6.36561C5.87891 6.63175 6.09458 6.84743 6.36073 6.84743Z" fill="white"/>
<path id="Vector_6" d="M6.36073 8.77517H8.67309C8.93891 8.77517 9.15491 8.55949 9.15491 8.29335C9.15491 8.02752 8.93923 7.81152 8.67309 7.81152H6.36073C6.09491 7.81152 5.87891 8.0272 5.87891 8.29335C5.87891 8.55949 6.09459 8.77517 6.36073 8.77517Z" fill="white"/>
<path id="Vector_7" d="M21.7642 9.27608C21.8584 9.37026 21.9815 9.41719 22.1049 9.41719C22.2284 9.41719 22.3515 9.37026 22.4457 9.27608L23.3897 8.33204L24.3337 9.27608C24.4279 9.37026 24.551 9.41719 24.6744 9.41719C24.7979 9.41719 24.921 9.37026 25.0152 9.27608C25.2032 9.08804 25.2032 8.78301 25.0152 8.59497L24.0711 7.65094L25.0152 6.7069C25.2032 6.51886 25.2032 6.21383 25.0152 6.02579C24.8271 5.83776 24.5221 5.83776 24.3341 6.02579L23.39 6.96983L22.446 6.02579C22.2579 5.83776 21.9529 5.83776 21.7649 6.02579C21.5768 6.21383 21.5768 6.51886 21.7649 6.7069L22.7089 7.65094L21.7649 8.59497C21.5759 8.78333 21.5759 9.08804 21.7642 9.27608Z" fill="white"/>
</g>
</g>
</g>
</svg>
