<svg width="32" height="32" viewBox="0 0 32 32" fill="none" xmlns="http://www.w3.org/2000/svg">
<g id="thin_12737916 1">
<g id="Group">
<path id="Vector" d="M11.0243 18.4382C9.03671 18.4382 7.41992 16.8214 7.41992 14.8338C7.41992 12.8463 9.03671 11.2295 11.0243 11.2295C13.0118 11.2295 14.6286 12.8463 14.6286 14.8338C14.6286 16.8213 13.0119 18.4382 11.0243 18.4382ZM11.0243 12.149C9.54394 12.149 8.33953 13.3535 8.33953 14.8337C8.33953 16.3141 9.54394 17.5185 11.0243 17.5185C12.5046 17.5185 13.709 16.3141 13.709 14.8337C13.709 13.3535 12.5046 12.149 11.0243 12.149Z" fill="white"/>
<path id="Vector_2" d="M12.0794 23.4926C11.8339 23.4926 11.63 23.2987 11.6203 23.0508L11.5062 20.1451C11.4963 19.8916 11.6939 19.6778 11.9477 19.6678C12.2007 19.6527 12.4152 19.8553 12.4251 20.1092L12.5391 23.0149C12.549 23.2685 12.3515 23.4822 12.0977 23.4923C12.0916 23.4926 12.0855 23.4926 12.0794 23.4926Z" fill="white"/>
<path id="Vector_3" d="M9.9699 23.4928C9.69781 23.4824 9.50007 23.2686 9.51013 23.015L9.62437 20.1093C9.63424 19.8558 9.83993 19.6517 10.102 19.6679C10.3556 19.678 10.5533 19.8917 10.5432 20.1453L10.429 23.0509C10.4192 23.2985 10.2154 23.4928 9.9699 23.4928Z" fill="white"/>
<path id="Vector_4" d="M17.8894 29.7037H4.15862C3.69095 29.7037 3.31055 29.3229 3.31055 28.8552V21.9738C3.31055 20.635 4.20837 19.4399 5.494 19.0673L7.65776 18.4398C7.86771 18.378 8.09131 18.4739 8.19276 18.6672L11.0239 24.0522L13.8552 18.6672C13.9569 18.4739 14.1808 18.3773 14.3902 18.4398L16.554 19.0673C17.8396 19.4399 18.7375 20.635 18.7375 21.9738V28.8556C18.7375 29.3233 18.357 29.7037 17.8894 29.7037ZM4.23009 28.7841H17.8179V21.9738C17.8179 21.0419 17.1929 20.2097 16.2979 19.9503L14.4947 19.4273L11.4309 25.2541C11.3513 25.4053 11.1947 25.4998 11.0239 25.4998C10.8531 25.4998 10.6965 25.405 10.6169 25.2541L7.55328 19.4273L5.75005 19.9503C4.85507 20.2097 4.23003 21.0419 4.23003 21.9738L4.23009 28.7841Z" fill="white"/>
<path id="Vector_5" d="M6.39141 29.7045C6.13746 29.7045 5.93164 29.4987 5.93164 29.2447V24.7108C5.93164 24.4568 6.13746 24.251 6.39141 24.251C6.64537 24.251 6.85118 24.4568 6.85118 24.7108V29.2447C6.85118 29.4987 6.64537 29.7045 6.39141 29.7045Z" fill="white"/>
<path id="Vector_6" d="M15.657 29.7045C15.4031 29.7045 15.1973 29.4987 15.1973 29.2447V24.7108C15.1973 24.4568 15.4031 24.251 15.657 24.251C15.911 24.251 16.1168 24.4568 16.1168 24.7108V29.2447C16.1168 29.4987 15.911 29.7045 15.657 29.7045Z" fill="white"/>
<path id="Vector_7" d="M11.0238 27.7066C10.8839 27.7066 10.7482 27.6426 10.6595 27.5273L8.46362 24.6767C8.42375 24.6249 8.39542 24.5653 8.3803 24.5017L8.12561 23.4219L7.26284 22.8479C7.20983 22.8126 7.16478 22.7667 7.13046 22.7132L5.23491 19.758C5.09784 19.5442 5.15999 19.2597 5.37371 19.1229C5.58742 18.9853 5.87174 19.0478 6.00899 19.2615L7.85246 22.1356L8.78607 22.7567C8.88327 22.8213 8.95202 22.9204 8.97899 23.0339L9.2527 24.1939L10.564 25.8966V25.041C10.564 24.787 10.7698 24.5811 11.0238 24.5811C11.2778 24.5811 11.4836 24.787 11.4836 25.041V27.2469C11.4836 27.4437 11.3584 27.6186 11.172 27.6822C11.1233 27.6987 11.0733 27.7066 11.0238 27.7066Z" fill="white"/>
<path id="Vector_8" d="M11.0243 27.7058C10.9747 27.7058 10.9248 27.6979 10.876 27.6813C10.6896 27.6177 10.5645 27.4428 10.5645 27.246V25.0401C10.5645 24.7861 10.7703 24.5802 11.0243 24.5802C11.2782 24.5802 11.4841 24.7861 11.4841 25.0401V25.8957L12.7955 24.193L13.0693 23.0331C13.0962 22.9196 13.165 22.8204 13.2621 22.7558L14.1957 22.1347L16.0392 19.2606C16.1764 19.0466 16.4609 18.9844 16.6745 19.122C16.8882 19.2589 16.9503 19.5434 16.8133 19.7571L14.9177 22.7123C14.8834 22.7658 14.8384 22.8118 14.7853 22.847L13.9225 23.4211L13.6679 24.5008C13.6528 24.5644 13.6244 24.6241 13.5845 24.6758L11.3885 27.5264C11.2998 27.6418 11.1642 27.7058 11.0243 27.7058Z" fill="white"/>
<path id="Vector_9" d="M18.6047 18.1618C18.5422 18.1618 18.4792 18.1489 18.4198 18.1231C18.2529 18.0494 18.1451 17.8845 18.1451 17.7021V14.7418H17.4818C16.3277 14.7418 15.3887 13.8028 15.3887 12.6487V6.57436C15.3887 5.69074 15.9476 4.89826 16.7794 4.60191C17.019 4.51786 17.2818 4.64178 17.3669 4.88105C17.452 5.12031 17.3272 5.38328 17.0879 5.46832C16.6215 5.63427 16.3082 6.07867 16.3082 6.57436V12.6487C16.3082 13.2956 16.8346 13.8222 17.4818 13.8222H18.6049C18.8589 13.8222 19.0647 14.028 19.0647 14.282V16.6575L22.0282 13.9429C22.1129 13.8654 22.2238 13.8222 22.3387 13.8222H27.7931C28.4402 13.8222 28.9668 13.2956 28.9668 12.6487V6.57436C28.9668 6.07614 28.6512 5.63075 28.1814 5.46616C27.9418 5.38217 27.8155 5.11988 27.8996 4.88031C27.9833 4.64067 28.2462 4.51422 28.4856 4.59827C29.3234 4.89178 29.8863 5.68605 29.8863 6.57436V12.6487C29.8863 13.8028 28.9474 14.7418 27.793 14.7418H22.5175L18.9155 18.0412C18.829 18.1202 18.7177 18.1618 18.6047 18.1618Z" fill="white"/>
<path id="Vector_10" d="M25.786 9.77706C24.4146 9.77706 23.2988 8.66133 23.2988 7.28985C23.2988 7.0359 23.5046 6.83008 23.7586 6.83008H27.8135C28.0675 6.83008 28.2734 7.0359 28.2734 7.28985C28.2734 8.66133 27.1575 9.77706 25.786 9.77706ZM24.2872 7.74974C24.484 8.39059 25.0816 8.85758 25.786 8.85758C26.4906 8.85758 27.088 8.39059 27.285 7.74974H24.2872Z" fill="white"/>
<path id="Vector_11" d="M27.3323 7.74971H24.2429C24.084 7.74971 23.9364 7.66782 23.8525 7.53273C23.7686 7.39763 23.7604 7.22878 23.8306 7.08659L25.3752 3.9557C25.4526 3.7987 25.6124 3.69922 25.7876 3.69922C25.9625 3.69922 26.1226 3.79876 26.1999 3.9557L27.7447 7.08659C27.8149 7.22878 27.8067 7.39763 27.7228 7.53273C27.6389 7.66776 27.4913 7.74971 27.3323 7.74971ZM24.9825 6.83011H26.5926L25.7875 5.1982L24.9825 6.83011Z" fill="white"/>
<path id="Vector_12" d="M19.4892 9.77706C18.1177 9.77706 17.002 8.66133 17.002 7.28985C17.002 7.0359 17.2078 6.83008 17.4618 6.83008H21.5165C21.7705 6.83008 21.9763 7.0359 21.9763 7.28985C21.9763 8.66133 20.8606 9.77706 19.4892 9.77706ZM17.9904 7.74974C18.1872 8.39059 18.7848 8.85758 19.4892 8.85758C20.1936 8.85758 20.7911 8.39059 20.988 7.74974H17.9904Z" fill="white"/>
<path id="Vector_13" d="M21.0337 7.74971H17.9441C17.7852 7.74971 17.6375 7.66782 17.5536 7.53273C17.4698 7.39763 17.4616 7.22878 17.5317 7.08659L19.0765 3.9557C19.1539 3.7987 19.3138 3.69922 19.4889 3.69922C19.664 3.69922 19.8239 3.79876 19.9013 3.9557L21.446 7.08659C21.5163 7.22878 21.508 7.39763 21.4241 7.53273C21.3402 7.66776 21.1926 7.74971 21.0337 7.74971ZM18.6837 6.83011H20.2941L19.4889 5.1982L18.6837 6.83011Z" fill="white"/>
<path id="Vector_14" d="M22.6376 11.6003C22.3836 11.6003 22.1777 11.3944 22.1777 11.1405V4.28601C22.1777 4.03205 22.3836 3.82617 22.6376 3.82617C22.8915 3.82617 23.0973 4.03205 23.0973 4.28601V11.1405C23.0973 11.3944 22.8915 11.6003 22.6376 11.6003Z" fill="white"/>
<path id="Vector_15" d="M26.5251 4.61866H25.4216C24.921 4.61866 24.4343 4.4753 24.014 4.2045L23.1027 3.6279C22.888 3.49213 22.8243 3.20806 22.96 2.99354C23.0958 2.77871 23.3794 2.71484 23.5944 2.85055L24.5089 3.4293C24.7836 3.60636 25.0981 3.69906 25.4215 3.69906H26.525C26.779 3.69906 26.9848 3.90487 26.9848 4.15889C26.9849 4.41284 26.779 4.61866 26.5251 4.61866Z" fill="white"/>
<path id="Vector_16" d="M19.9317 4.61849H18.7508C18.4968 4.61849 18.291 4.41267 18.291 4.15872C18.291 3.9047 18.4968 3.69889 18.7508 3.69889H19.9317C20.2751 3.69889 20.6057 3.59545 20.8881 3.4L21.6647 2.86124C21.873 2.71683 22.1595 2.76817 22.3044 2.97683C22.4491 3.18555 22.3975 3.47221 22.1888 3.61693L21.412 4.15576C20.975 4.45865 20.4632 4.61849 19.9317 4.61849Z" fill="white"/>
<path id="Vector_17" d="M24.7976 13.0364H20.4774C20.2234 13.0364 20.0176 12.8305 20.0176 12.5766V11.865C20.0176 11.212 20.5489 10.6807 21.2021 10.6807H24.0731C24.7262 10.6807 25.2575 11.212 25.2575 11.865V12.5766C25.2574 12.8305 25.0516 13.0364 24.7976 13.0364ZM20.9372 12.1168H24.3378V11.865C24.3378 11.7192 24.2191 11.6003 24.0731 11.6003H21.2021C21.056 11.6003 20.9371 11.7192 20.9371 11.865L20.9372 12.1168Z" fill="white"/>
<path id="Vector_18" d="M25.9058 13.0368H19.37C19.116 13.0368 18.9102 12.8309 18.9102 12.577C18.9102 12.323 19.116 12.1172 19.37 12.1172H25.9058C26.1599 12.1172 26.3657 12.323 26.3657 12.577C26.3656 12.8309 26.1598 13.0368 25.9058 13.0368Z" fill="white"/>
<path id="Vector_19" d="M22.6386 4.74601C21.9634 4.74601 21.4141 4.19681 21.4141 3.52141C21.4141 2.84607 21.9634 2.29688 22.6386 2.29688C23.3137 2.29688 23.8631 2.84607 23.8631 3.52141C23.8631 4.19681 23.3137 4.74601 22.6386 4.74601ZM22.6386 3.21654C22.4705 3.21654 22.3336 3.35336 22.3336 3.52147C22.3336 3.68958 22.4705 3.8264 22.6386 3.8264C22.8066 3.8264 22.9435 3.68958 22.9435 3.52147C22.9435 3.35336 22.8066 3.21654 22.6386 3.21654Z" fill="#003366"/>
<path id="Vector_20" d="M25.5336 29.7038H2.57501C2.32105 29.7038 2.11523 29.4979 2.11523 29.2439C2.11523 28.99 2.32105 28.7842 2.57501 28.7842H25.5336C25.7875 28.7842 25.9934 28.99 25.9934 29.2439C25.9934 29.498 25.7875 29.7038 25.5336 29.7038Z" fill="#003366"/>
<path id="Vector_21" d="M24.7967 24.2791C24.5428 24.2791 24.337 24.0733 24.337 23.8193C24.337 22.8379 23.5386 22.0398 22.5574 22.0398C22.3035 22.0398 22.0977 21.8339 22.0977 21.5799C22.0977 21.326 22.3035 21.1202 22.5574 21.1202C23.5386 21.1202 24.337 20.322 24.337 19.3406C24.337 19.0867 24.5428 18.8809 24.7967 18.8809C25.0507 18.8809 25.2566 19.0867 25.2566 19.3406C25.2566 20.322 26.0549 21.1202 27.0361 21.1202C27.29 21.1202 27.4959 21.326 27.4959 21.5799C27.4959 21.8339 27.29 22.0398 27.0361 22.0398C26.0549 22.0398 25.2566 22.8379 25.2566 23.8193C25.2566 24.0733 25.0507 24.2791 24.7967 24.2791ZM24.0628 21.5799C24.352 21.775 24.6017 22.0246 24.7967 22.3138C24.9917 22.0246 25.2414 21.775 25.5306 21.5799C25.2414 21.3849 24.9918 21.1352 24.7967 20.846C24.6017 21.1352 24.352 21.3849 24.0628 21.5799Z" fill="#003366"/>
<path id="Vector_22" d="M7.3814 10.0201C7.12745 10.0201 6.92163 9.81419 6.92163 9.56024C6.92163 8.32422 5.91618 7.31877 4.68047 7.31877C4.42652 7.31877 4.2207 7.11296 4.2207 6.859C4.2207 6.60499 4.42652 6.39917 4.68047 6.39917C5.91618 6.39917 6.92163 5.39372 6.92163 4.15808C6.92163 3.90406 7.12745 3.69824 7.3814 3.69824C7.63535 3.69824 7.84117 3.90406 7.84117 4.15808C7.84117 5.39372 8.84662 6.39917 10.0823 6.39917C10.3363 6.39917 10.5421 6.60499 10.5421 6.859C10.5421 7.11296 10.3363 7.31877 10.0823 7.31877C8.84662 7.31877 7.84117 8.32422 7.84117 9.55993C7.84111 9.81388 7.63529 10.0201 7.3814 10.0201ZM6.32084 6.859C6.75333 7.12264 7.11776 7.48719 7.3814 7.91975C7.64504 7.48719 8.00965 7.12264 8.44215 6.859C8.00965 6.5953 7.64504 6.23075 7.3814 5.79819C7.1177 6.23075 6.75327 6.5953 6.32084 6.859Z" fill="#003366"/>
</g>
</g>
</svg>
