<svg width="24" height="24" viewBox="0 0 24 24" fill="none" xmlns="http://www.w3.org/2000/svg">
<g id="fi-rr-angle-right" clip-path="url(#clip0_1159_9056)">
<path id="Vector" d="M6.99994 24.0002C6.86833 24.0009 6.73787 23.9757 6.61603 23.9259C6.4942 23.8762 6.38338 23.8028 6.28994 23.7102C6.19621 23.6172 6.12182 23.5066 6.07105 23.3847C6.02028 23.2629 5.99414 23.1322 5.99414 23.0002C5.99414 22.8681 6.02028 22.7374 6.07105 22.6156C6.12182 22.4937 6.19621 22.3831 6.28994 22.2902L14.4599 14.1202C15.0217 13.5577 15.3373 12.7952 15.3373 12.0002C15.3373 11.2052 15.0217 10.4427 14.4599 9.88017L6.28994 1.71018C6.10164 1.52188 5.99585 1.26649 5.99585 1.00018C5.99585 0.733883 6.10164 0.478489 6.28994 0.290185C6.47824 0.101882 6.73364 -0.00390625 6.99994 -0.00390625C7.26624 -0.00390625 7.52164 0.101882 7.70994 0.290185L15.8799 8.46017C16.3456 8.92463 16.715 9.47639 16.9671 10.0838C17.2191 10.6913 17.3489 11.3425 17.3489 12.0002C17.3489 12.6578 17.2191 13.3091 16.9671 13.9165C16.715 14.524 16.3456 15.0757 15.8799 15.5402L7.70994 23.7102C7.6165 23.8028 7.50568 23.8762 7.38385 23.9259C7.26201 23.9757 7.13155 24.0009 6.99994 24.0002Z" fill="#003366"/>
</g>
<defs>
<clipPath id="clip0_1159_9056">
<rect width="24" height="24" fill="white"/>
</clipPath>
</defs>
</svg>
