<svg width="24" height="24" viewBox="0 0 24 24" fill="none" xmlns="http://www.w3.org/2000/svg">
<g id="fi-rr-angle-right" clip-path="url(#clip0_1159_9053)">
<path id="Vector" d="M17.0001 -0.000156403C17.1317 -0.000917435 17.2621 0.0243073 17.384 0.0740719C17.5058 0.123837 17.6166 0.197163 17.7101 0.289845C17.8038 0.382807 17.8782 0.493406 17.929 0.615267C17.9797 0.737125 18.0059 0.86783 18.0059 0.999842C18.0059 1.13186 17.9797 1.26256 17.929 1.38442C17.8782 1.50628 17.8038 1.61688 17.7101 1.70984L9.54006 9.87983C8.97826 10.4423 8.6627 11.2048 8.6627 11.9998C8.6627 12.7948 8.97826 13.5573 9.54006 14.1198L17.7101 22.2898C17.8984 22.4781 18.0042 22.7335 18.0042 22.9998C18.0042 23.2661 17.8984 23.5215 17.7101 23.7098C17.5218 23.8981 17.2664 24.0039 17.0001 24.0039C16.7338 24.0039 16.4784 23.8981 16.2901 23.7098L8.12006 15.5398C7.65443 15.0754 7.285 14.5236 7.03294 13.9162C6.78087 13.3087 6.65112 12.6575 6.65112 11.9998C6.65112 11.3422 6.78087 10.6909 7.03294 10.0835C7.285 9.47604 7.65443 8.92429 8.12006 8.45983L16.2901 0.289845C16.3835 0.197163 16.4943 0.123837 16.6162 0.0740719C16.738 0.0243073 16.8685 -0.000917435 17.0001 -0.000156403Z" fill="white"/>
</g>
<defs>
<clipPath id="clip0_1159_9053">
<rect width="24" height="24" fill="white" transform="matrix(-1 0 0 -1 24 24)"/>
</clipPath>
</defs>
</svg>
