<svg width="128" height="128" viewBox="0 0 128 128" fill="none" xmlns="http://www.w3.org/2000/svg">
<path d="M36.0001 31.3195V5.99951L6.12012 28.3995L12.2401 27.4795C20.3601 26.2795 28.7201 27.6395 36.0001 31.3195Z" fill="#C59B4B"/>
<path d="M60 104V71.9995C60 66.7995 63.36 62.3195 68 60.6795V43.9995C68 30.7595 78.76 19.9995 92 19.9995H100V7.99951C100 5.79951 98.2 3.99951 96 3.99951H44V38.5195C44 40.0395 43.12 41.4395 41.76 42.1195C41.2 42.3995 40.6 42.5195 40 42.5195C39.12 42.5195 38.28 42.2395 37.56 41.6795C30.76 36.3995 21.96 34.0795 13.44 35.3595L4 36.7595V119.96C4 122.16 5.8 123.96 8 123.96H96C98.2 123.96 100 122.16 100 119.96V115.96H72C65.4 115.96 60 110.56 60 103.96V104ZM74 11.9995H76C78.2 11.9995 80 13.7995 80 15.9995C80 18.1995 78.2 19.9995 76 19.9995H74C71.8 19.9995 70 18.1995 70 15.9995C70 13.7995 71.8 11.9995 74 11.9995ZM46 99.9995H18C15.8 99.9995 14 98.1995 14 95.9995C14 93.7995 15.8 91.9995 18 91.9995H46C48.2 91.9995 50 93.7995 50 95.9995C50 98.1995 48.2 99.9995 46 99.9995ZM46 83.9995H18C15.8 83.9995 14 82.1995 14 79.9995C14 77.7995 15.8 75.9995 18 75.9995H46C48.2 75.9995 50 77.7995 50 79.9995C50 82.1995 48.2 83.9995 46 83.9995ZM46 67.9995H18C15.8 67.9995 14 66.1995 14 63.9995C14 61.7995 15.8 59.9995 18 59.9995H46C48.2 59.9995 50 61.7995 50 63.9995C50 66.1995 48.2 67.9995 46 67.9995ZM52 15.9995C52 13.7995 53.8 11.9995 56 11.9995H60C62.2 11.9995 64 13.7995 64 15.9995C64 18.1995 62.2 19.9995 60 19.9995H56C53.8 19.9995 52 18.1995 52 15.9995Z" fill="#C59B4B"/>
<path d="M120 67.9995H116V43.9995C116 35.1595 108.84 27.9995 100 27.9995H92C83.16 27.9995 76 35.1595 76 43.9995V67.9995H72C69.8 67.9995 68 69.7995 68 71.9995V104C68 106.2 69.8 108 72 108H120C122.2 108 124 106.2 124 104V71.9995C124 69.7995 122.2 67.9995 120 67.9995ZM84 43.9995C84 39.5995 87.6 35.9995 92 35.9995H100C104.4 35.9995 108 39.5995 108 43.9995V67.9995H84V43.9995ZM98 91.9995H94C91.8 91.9995 90 90.1995 90 87.9995C90 85.7995 91.8 83.9995 94 83.9995H98C100.2 83.9995 102 85.7995 102 87.9995C102 90.1995 100.2 91.9995 98 91.9995Z" fill="#C59B4B"/>
</svg>
