<svg width="124" height="124" viewBox="0 0 124 124" fill="none" xmlns="http://www.w3.org/2000/svg">
<path fill-rule="evenodd" clip-rule="evenodd" d="M95.132 32.6306C88.5888 32.6306 83.2843 37.9349 83.2843 44.4781C83.2843 51.0214 88.5885 56.3256 95.132 56.3256C101.675 56.3256 106.98 51.0214 106.98 44.4781C106.98 37.9349 101.675 32.6306 95.132 32.6306ZM97.132 51.0654V51.5201C97.132 52.6246 96.2365 53.5201 95.132 53.5201C94.0275 53.5201 93.132 52.6246 93.132 51.5201V51.1456C92.283 50.8367 91.544 50.2826 91.0138 49.5494C90.371 48.6562 90.5738 47.4109 91.4668 46.7682C92.36 46.1254 93.6053 46.3281 94.248 47.2211C94.3443 47.3544 94.4685 47.4124 94.631 47.4124H95.4075C95.6603 47.4124 95.8745 47.1982 95.8745 46.9454C95.8745 46.6926 95.6603 46.4784 95.4075 46.4784H94.8558C92.3948 46.4784 90.3888 44.4724 90.3888 42.0114C90.3888 40.2084 91.4785 38.5869 93.1315 37.8914V37.4366C93.1315 36.3321 94.027 35.4366 95.1315 35.4366C96.236 35.4366 97.1315 36.3321 97.1315 37.4366V37.8111C97.9745 38.1179 98.7233 38.6716 99.2498 39.3996C99.8968 40.2929 99.6975 41.5416 98.8045 42.1886C97.9113 42.8359 96.6628 42.6364 96.0155 41.7434C95.9143 41.6031 95.8058 41.5444 95.6325 41.5444H94.8558C94.603 41.5444 94.3888 41.7586 94.3888 42.0114C94.3888 42.2641 94.603 42.4784 94.8558 42.4784H95.4075C97.8683 42.4784 99.8745 44.4846 99.8745 46.9454C99.8748 48.7486 98.785 50.3701 97.132 51.0654ZM81.368 14.7136H108.896C110.214 14.7136 111.292 15.7919 111.292 17.1099C111.292 18.4279 110.214 19.5061 108.896 19.5061H81.368C80.05 19.5061 78.9718 18.4279 78.9718 17.1099C78.972 15.7919 80.05 14.7136 81.368 14.7136ZM110.815 23.4071C110.209 23.5984 109.564 23.7016 108.896 23.7016H81.368C80.6998 23.7016 80.0553 23.5984 79.449 23.4071C68.9935 34.4709 61.3895 48.9484 70.7548 61.2176C74.9445 66.7066 80.8868 69.6464 87.792 69.6464H102.472C109.376 69.6464 115.317 66.7076 119.508 61.2199C128.876 48.9511 121.271 34.4719 110.815 23.4071ZM95.132 61.6481C85.7573 61.6481 78.158 54.0486 78.158 44.6741C78.158 35.2996 85.7575 27.7001 95.132 27.7001C104.507 27.7001 112.106 35.2996 112.106 44.6741C112.106 54.0484 104.507 61.6481 95.132 61.6481ZM81.138 10.7181C80.8228 10.2434 80.447 9.69765 79.9883 9.0429C76.3975 3.91765 77.1255 2.1814 85.896 5.4234C89.5778 6.78415 88.0275 0.139648 95.132 0.139648C102.237 0.139648 100.686 6.78415 104.368 5.4234C113.139 2.18165 113.867 3.9179 110.276 9.0429C109.817 9.69765 109.442 10.2434 109.126 10.7181C109.05 10.7154 108.973 10.7136 108.896 10.7136H81.368C81.291 10.7136 81.2145 10.7154 81.138 10.7181ZM62 72.6067C66.3623 72.6067 69.8988 76.1429 69.8988 80.5054C69.8988 84.8679 66.3623 88.4042 62 88.4042C57.6378 88.4042 54.1013 84.8679 54.1013 80.5054C54.1013 76.1429 57.6378 72.6067 62 72.6067ZM43.0108 114.105H80.9893C84.959 114.105 88.207 117.353 88.207 121.323V123.64H35.793V121.323C35.793 117.353 39.0408 114.105 43.0108 114.105ZM3.659 77.0964H50.598C50.2755 78.1764 50.1015 79.3204 50.1015 80.5051C50.1015 81.6901 50.2755 82.8341 50.598 83.9141H3.659C1.784 83.9141 0.25 82.3801 0.25 80.5051C0.25 78.6304 1.784 77.0964 3.659 77.0964ZM73.4023 77.0964H120.341C122.216 77.0964 123.75 78.6304 123.75 80.5054C123.75 82.3804 122.216 83.9144 120.341 83.9144H73.402C73.7245 82.8344 73.8985 81.6902 73.8985 80.5054C73.8988 79.3204 73.7245 78.1764 73.4023 77.0964ZM69.7168 89.5616L77.128 110.105H46.872L54.2833 89.5616C56.361 91.3336 59.0553 92.4039 62 92.4039C64.9448 92.4039 67.6393 91.3339 69.7168 89.5616ZM51.4975 0.139648H2C1.03625 0.139648 0.25 0.925898 0.25 1.88965V67.0839L4.0355 62.7256L7.82125 67.0839L11.6068 62.7256L15.3923 67.0839L19.1778 62.7256L22.9633 67.0839L26.7488 62.7256L30.5343 67.0839L34.3198 62.7256L38.1055 67.0839L41.891 62.7256L45.6765 67.0839L49.462 62.7256L53.2475 67.0839V1.88965C53.2475 0.925898 52.4615 0.139648 51.4975 0.139648ZM17.1428 47.2179L12.4193 51.9854C11.648 52.7611 10.397 52.7696 9.61475 52.0086L6.98 49.4406C6.1905 48.6726 6.17275 47.4099 6.941 46.6204C7.709 45.8309 8.97175 45.8134 9.76125 46.5814L10.981 47.7704L14.3145 44.4056C15.091 43.6246 16.3538 43.6212 17.1348 44.3979C17.916 45.1741 17.9195 46.4369 17.1428 47.2179ZM17.1428 30.4551L12.4193 35.2226C11.648 35.9984 10.397 36.0069 9.61475 35.2459L6.98 32.6782C6.1905 31.9102 6.17275 30.6474 6.941 29.8579C7.709 29.0684 8.97175 29.0509 9.76125 29.8189L10.981 31.0076L14.3145 27.6429C15.091 26.8619 16.3538 26.8584 17.1348 27.6351C17.916 28.4114 17.9195 29.6741 17.1428 30.4551ZM17.1428 13.6924L12.4193 18.4599C11.648 19.2356 10.397 19.2441 9.61475 18.4831L6.98025 15.9151C6.19075 15.1471 6.173 13.8844 6.94125 13.0949C7.70925 12.3054 8.972 12.2879 9.7615 13.0559L10.9813 14.2449L14.3148 10.8799C15.0913 10.0989 16.354 10.0954 17.135 10.8721C17.916 11.6489 17.9195 12.9114 17.1428 13.6924ZM39.1848 54.0356H24.2798C23.1753 54.0356 22.2798 53.1401 22.2798 52.0356C22.2798 50.9311 23.1753 50.0356 24.2798 50.0356H39.1848C40.2893 50.0356 41.1848 50.9311 41.1848 52.0356C41.1848 53.1404 40.2893 54.0356 39.1848 54.0356ZM45.1268 46.3549H24.28C23.1755 46.3549 22.28 45.4594 22.28 44.3549C22.28 43.2504 23.1755 42.3549 24.28 42.3549H45.1268C46.2313 42.3549 47.1268 43.2504 47.1268 44.3549C47.1268 45.4594 46.2313 46.3549 45.1268 46.3549ZM22.28 35.2729C22.28 34.1684 23.1755 33.2729 24.28 33.2729H39.185C40.2895 33.2729 41.185 34.1684 41.185 35.2729C41.185 36.3774 40.2895 37.2729 39.185 37.2729H24.28C23.1755 37.2729 22.28 36.3777 22.28 35.2729ZM45.1268 29.5921H24.28C23.1755 29.5921 22.28 28.6966 22.28 27.5921C22.28 26.4876 23.1755 25.5921 24.28 25.5921H45.1268C46.2313 25.5921 47.1268 26.4876 47.1268 27.5921C47.1268 28.6966 46.2313 29.5921 45.1268 29.5921ZM22.28 18.5101C22.28 17.4056 23.1755 16.5101 24.28 16.5101H39.185C40.2895 16.5101 41.185 17.4056 41.185 18.5101C41.185 19.6146 40.2895 20.5101 39.185 20.5101H24.28C23.1755 20.5101 22.28 19.6149 22.28 18.5101ZM45.1268 12.8294H24.28C23.1755 12.8294 22.28 11.9339 22.28 10.8294C22.28 9.7249 23.1755 8.8294 24.28 8.8294H45.1268C46.2313 8.8294 47.1268 9.7249 47.1268 10.8294C47.1268 11.9339 46.2313 12.8294 45.1268 12.8294Z" fill="#C59B4B"/>
</svg>
