<svg width="128" height="129" viewBox="0 0 128 129" fill="none" xmlns="http://www.w3.org/2000/svg">
<g clip-path="url(#clip0_1174_13946)">
<path d="M100.696 97.8633H32.0778C28.3916 97.8633 25.0328 99.5478 22.5912 102.261C20.1203 105.008 18.5869 108.804 18.5869 112.986C18.5869 117.169 20.1203 120.965 22.5912 123.711C25.0328 126.425 28.3916 128.11 32.0778 128.11H100.696V120.122H96.2497H33.1544C31.3334 120.122 29.6852 119.303 28.497 117.982C27.338 116.694 26.6184 114.925 26.6184 112.986C26.6184 111.048 27.338 109.279 28.497 107.991C29.6852 106.67 31.3334 105.851 33.1544 105.851H96.2497H100.696V97.8633Z" fill="#C59B4B"/>
<path d="M95.0972 108.155V117.818H33.1544C32.0146 117.818 30.9708 117.291 30.2075 116.443C29.415 115.562 28.9231 114.339 28.9231 112.987C28.9231 111.634 29.415 110.411 30.2075 109.53C30.9708 108.682 32.0146 108.155 33.1544 108.155H95.0972Z" fill="#C59B4B"/>
<path d="M64.001 28.4383C69.2749 28.4383 73.5503 24.163 73.5503 18.8891C73.5503 13.6152 69.2749 9.33984 64.001 9.33984C58.7271 9.33984 54.4518 13.6152 54.4518 18.8891C54.4518 24.163 58.7271 28.4383 64.001 28.4383Z" fill="#C59B4B"/>
<path fill-rule="evenodd" clip-rule="evenodd" d="M26.3769 56.415H8.73291C8.73291 66.1598 16.6324 74.059 26.3769 74.059C36.1213 74.059 44.0208 66.1598 44.0208 56.415H26.3769Z" fill="#C59B4B"/>
<path d="M11.8074 55.8477C11.4944 56.735 11.9601 57.7083 12.8474 58.021C13.7347 58.3339 14.7079 57.8683 15.0209 56.9813L26.5314 24.3772C26.8444 23.4902 26.3787 22.5169 25.4914 22.2039C24.6041 21.8909 23.6312 22.3566 23.3182 23.2439L11.8074 55.8477ZM30.4869 26.018C30.1778 25.1307 29.2075 24.6624 28.3202 24.9716C27.4332 25.2807 26.9646 26.251 27.2737 27.1383L37.733 56.9745C38.0422 57.8618 39.0124 58.3304 39.8997 58.021C40.7871 57.7118 41.2557 56.7418 40.9462 55.8545L30.4869 26.018Z" fill="#C59B4B"/>
<path fill-rule="evenodd" clip-rule="evenodd" d="M101.623 56.415H83.979C83.979 66.1598 91.8782 74.059 101.623 74.059C111.367 74.059 119.267 66.1598 119.267 56.415H101.623Z" fill="#C59B4B"/>
<path d="M87.0537 55.8545C86.7446 56.7418 87.2129 57.7118 88.1002 58.021C88.9875 58.3304 89.9578 57.8618 90.2669 56.9745L100.726 27.1383C101.036 26.251 100.567 25.2807 99.6797 24.9716C98.7924 24.6624 97.8222 25.1307 97.513 26.018L87.0537 55.8545ZM104.682 23.2439C104.369 22.3566 103.396 21.8909 102.508 22.2039C101.621 22.5169 101.156 23.4902 101.469 24.3772L112.979 56.9813C113.292 57.8683 114.265 58.3339 115.153 58.021C116.04 57.7083 116.505 56.735 116.192 55.8477L104.682 23.2439Z" fill="#C59B4B"/>
<path fill-rule="evenodd" clip-rule="evenodd" d="M78.0758 87.5781H49.9242H41.7202V94.4067H86.2798V87.5781H78.0758Z" fill="#C59B4B"/>
<path fill-rule="evenodd" clip-rule="evenodd" d="M78.0756 85.273C75.6552 79.9128 70.2632 76.1826 63.9998 76.1826C57.7364 76.1826 52.3443 79.9128 49.924 85.273H78.0756Z" fill="#C59B4B"/>
<path fill-rule="evenodd" clip-rule="evenodd" d="M68.5666 74.4747V24.9707C67.2101 25.7107 65.654 26.1314 63.9999 26.1314C62.3457 26.1314 60.7896 25.7107 59.4331 24.9707V74.4747C60.9009 74.084 62.4334 73.8776 63.9999 73.8776C65.5663 73.8776 67.0988 74.084 68.5666 74.4747Z" fill="#C59B4B"/>
<path fill-rule="evenodd" clip-rule="evenodd" d="M70.865 21.557C79.5107 19.0327 89.9771 30.069 98.2135 28.8864C100.004 28.6295 101.798 27.795 103.601 26.1188C103.839 25.8982 104.076 25.6628 104.314 25.4122C105.148 24.5334 105.59 23.523 105.736 22.5462C105.772 22.3289 105.791 22.1059 105.791 21.878L105.791 21.8585C105.808 20.1949 104.981 18.7537 103.806 18.4144C103.211 18.0654 102.518 17.8649 101.778 17.8649C99.562 17.8649 97.7653 19.6617 97.7653 21.878C97.7653 22.1372 97.7901 22.3903 97.837 22.6357C95.233 23.9367 92.0165 23.3251 89.6774 20.686C87.8204 18.5907 79.508 13.7721 70.6282 15.5077C71.0259 16.5583 71.2438 17.8295 71.2438 18.8877C71.2438 19.946 71.1118 20.7102 70.865 21.557Z" fill="#C59B4B"/>
<path fill-rule="evenodd" clip-rule="evenodd" d="M57.1341 21.5573C56.8878 20.7102 56.7559 19.946 56.7559 18.8877C56.7559 17.8295 56.9738 16.5583 57.3721 15.5077C48.492 13.7721 40.1793 18.5907 38.3223 20.686C35.9832 23.3254 32.767 23.9364 30.1633 22.6357C30.2102 22.3903 30.235 22.1372 30.235 21.878C30.235 19.6617 28.4383 17.8649 26.2219 17.8649C25.4822 17.8649 24.7892 18.0654 24.1942 18.4144C23.0179 18.754 22.1902 20.1982 22.2088 21.865L22.2085 21.878C22.2085 22.0992 22.2268 22.3159 22.2611 22.5273C22.4037 23.51 22.8466 24.5278 23.6861 25.4122C23.9238 25.6628 24.1615 25.8982 24.3986 26.1188C26.2018 27.7953 27.9959 28.6295 29.7862 28.8867C38.0229 30.0687 48.4893 19.033 57.1341 21.5573Z" fill="#C59B4B"/>
<path fill-rule="evenodd" clip-rule="evenodd" d="M63.9999 11.6441C65.654 11.6441 67.2101 12.0645 68.5666 12.8048V2.34432C68.5666 1.11509 67.57 0.109375 66.3523 0.109375H61.6474C60.4297 0.109375 59.4331 1.11538 59.4331 2.34432V12.8048C60.7896 12.0645 62.3457 11.6441 63.9999 11.6441Z" fill="#C59B4B"/>
</g>
<defs>
<clipPath id="clip0_1174_13946">
<rect width="128" height="128" fill="white" transform="translate(0 0.109375)"/>
</clipPath>
</defs>
</svg>
