<svg width="70" height="71" viewBox="0 0 70 71" fill="none" xmlns="http://www.w3.org/2000/svg">
<g clip-path="url(#clip0_1439_183)">
<path d="M26.2901 39.3769C22.8118 39.3769 19.9824 36.5475 19.9824 33.0692C19.9824 29.5911 22.8118 26.7617 26.2901 26.7617C29.7682 26.7617 32.5976 29.5911 32.5976 33.0692C32.5977 36.5474 29.7683 39.3769 26.2901 39.3769ZM26.2901 28.3709C23.6995 28.3709 21.5917 30.4786 21.5917 33.0691C21.5917 35.6597 23.6995 37.7675 26.2901 37.7675C28.8805 37.7675 30.9883 35.6597 30.9883 33.0691C30.9884 30.4786 28.8806 28.3709 26.2901 28.3709Z" fill="white"/>
<path d="M28.1375 48.2222C27.7078 48.2222 27.3511 47.8828 27.3341 47.4491L27.1344 42.3641C27.1171 41.9203 27.4628 41.5463 27.907 41.5287C28.3498 41.5024 28.7251 41.8568 28.7424 42.3012L28.942 47.3861C28.9593 47.83 28.6136 48.204 28.1695 48.2216C28.1589 48.2222 28.1482 48.2222 28.1375 48.2222Z" fill="white"/>
<path d="M24.4439 48.2205C23.9677 48.2023 23.6217 47.8282 23.6393 47.3843L23.8392 42.2995C23.8565 41.8557 24.2165 41.4987 24.675 41.527C25.1189 41.5446 25.4648 41.9186 25.4472 42.3623L25.2473 47.4473C25.2303 47.8805 24.8735 48.2205 24.4439 48.2205Z" fill="white"/>
<path d="M38.3049 59.0925H14.2761C13.4577 59.0925 12.792 58.4261 12.792 57.6077V45.5652C12.792 43.2223 14.3632 41.1309 16.613 40.4789L20.3996 39.3808C20.767 39.2727 21.1583 39.4405 21.3359 39.7786L26.2904 49.2024L31.2452 39.7786C31.4231 39.4405 31.815 39.2714 32.1814 39.3808L35.968 40.4789C38.2179 41.1309 39.7891 43.2223 39.7891 45.5652V57.6084C39.7891 58.4269 39.1234 59.0925 38.3049 59.0925ZM14.4012 57.4832H38.1799V45.5652C38.1799 43.9345 37.0861 42.478 35.5198 42.0242L32.3642 41.1089L27.0025 51.3057C26.8633 51.5704 26.5892 51.7358 26.2904 51.7358C25.9914 51.7358 25.7173 51.5698 25.5781 51.3057L20.2168 41.1089L17.0611 42.0242C15.4949 42.478 14.4011 43.9345 14.4011 45.5652L14.4012 57.4832Z" fill="white"/>
<path d="M18.1835 59.0906C17.7391 59.0906 17.3789 58.7303 17.3789 58.2859V50.3516C17.3789 49.9071 17.7391 49.5469 18.1835 49.5469C18.6279 49.5469 18.9881 49.9071 18.9881 50.3516V58.2859C18.9881 58.7304 18.6279 59.0906 18.1835 59.0906Z" fill="white"/>
<path d="M34.3974 59.0906C33.953 59.0906 33.5928 58.7303 33.5928 58.2859V50.3516C33.5928 49.9071 33.953 49.5469 34.3974 49.5469C34.8418 49.5469 35.202 49.9071 35.202 50.3516V58.2859C35.202 58.7304 34.8418 59.0906 34.3974 59.0906Z" fill="white"/>
<path d="M26.2911 55.5947C26.0463 55.5947 25.8089 55.4828 25.6537 55.2809L21.8108 50.2923C21.7411 50.2017 21.6915 50.0974 21.665 49.9861L21.2193 48.0965L19.7095 47.0919C19.6167 47.0303 19.5379 46.9498 19.4778 46.8563L16.1606 41.6846C15.9207 41.3106 16.0295 40.8127 16.4035 40.5732C16.7775 40.3324 17.2751 40.4418 17.5152 40.8158L20.7413 45.8454L22.3751 46.9323C22.5452 47.0454 22.6656 47.2188 22.7127 47.4176L23.1917 49.4475L25.4865 52.4271V50.9298C25.4865 50.4854 25.8467 50.1251 26.2912 50.1251C26.7356 50.1251 27.0958 50.4854 27.0958 50.9298V54.7902C27.0958 55.1346 26.8768 55.4408 26.5505 55.552C26.4652 55.5808 26.3778 55.5947 26.2911 55.5947Z" fill="white"/>
<path d="M26.291 55.5949C26.2042 55.5949 26.1169 55.5811 26.0316 55.5522C25.7054 55.4409 25.4863 55.1347 25.4863 54.7903V50.93C25.4863 50.4856 25.8465 50.1253 26.291 50.1253C26.7355 50.1253 27.0956 50.4856 27.0956 50.93V52.4273L29.3907 49.4477L29.8697 47.4177C29.9168 47.2191 30.0372 47.0455 30.2072 46.9325L31.841 45.8456L35.0671 40.816C35.3072 40.4413 35.8052 40.3326 36.1789 40.5733C36.5529 40.8129 36.6616 41.3107 36.4218 41.6848L33.1045 46.8564C33.0445 46.95 32.9657 47.0305 32.8729 47.0921L31.3629 48.0967L30.9173 49.9863C30.891 50.0976 30.8413 50.202 30.7714 50.2925L26.9283 55.2811C26.7733 55.483 26.5359 55.5949 26.291 55.5949Z" fill="white"/>
<path d="M39.5578 38.8931C39.4484 38.8931 39.3381 38.8705 39.2341 38.8253C38.9421 38.6963 38.7534 38.4077 38.7534 38.0885V32.908H37.5927C35.5729 32.908 33.9297 31.2648 33.9297 29.245V18.615C33.9297 17.0687 34.9078 15.6818 36.3635 15.1632C36.7827 15.0161 37.2426 15.233 37.3915 15.6517C37.5406 16.0704 37.3221 16.5306 36.9034 16.6794C36.0871 16.9698 35.5389 17.7475 35.5389 18.615V29.245C35.5389 30.3772 36.4601 31.2987 37.5926 31.2987H39.5581C40.0025 31.2987 40.3627 31.6589 40.3627 32.1033V36.2605L45.5489 31.5099C45.6972 31.3742 45.8912 31.2987 46.0923 31.2987H55.6374C56.7699 31.2987 57.6914 30.3772 57.6914 29.245V18.615C57.6914 17.7431 57.1391 16.9637 56.3169 16.6756C55.8976 16.5287 55.6767 16.0697 55.8238 15.6504C55.9702 15.231 56.4304 15.0097 56.8493 15.1568C58.3155 15.6705 59.3005 17.0604 59.3005 18.615V29.245C59.3005 31.2648 57.6574 32.908 55.6373 32.908H46.4051L40.1016 38.6819C39.9503 38.8202 39.7554 38.8931 39.5578 38.8931Z" fill="white"/>
<path d="M52.1251 24.2178C49.725 24.2178 47.7725 22.2652 47.7725 19.8651C47.7725 19.4207 48.1326 19.0605 48.5771 19.0605H55.6732C56.1176 19.0605 56.4779 19.4207 56.4779 19.8651C56.4779 22.2652 54.5251 24.2178 52.1251 24.2178ZM49.5021 20.67C49.8466 21.7914 50.8924 22.6087 52.1251 22.6087C53.3581 22.6087 54.4036 21.7914 54.7483 20.67H49.5021Z" fill="white"/>
<path d="M54.8282 20.6704H49.4217C49.1436 20.6704 48.8853 20.5271 48.7385 20.2907C48.5916 20.0543 48.5772 19.7588 48.7002 19.5099L51.4032 14.0309C51.5386 13.7561 51.8183 13.582 52.1248 13.582C52.4309 13.582 52.7111 13.7562 52.8465 14.0309L55.5498 19.5099C55.6727 19.7588 55.6583 20.0543 55.5115 20.2907C55.3647 20.527 55.1063 20.6704 54.8282 20.6704ZM50.716 19.0611H53.5337L52.1247 16.2052L50.716 19.0611Z" fill="white"/>
<path d="M41.1046 24.2178C38.7045 24.2178 36.752 22.2652 36.752 19.8651C36.752 19.4207 37.1121 19.0605 37.5567 19.0605H44.6525C45.0969 19.0605 45.4571 19.4207 45.4571 19.8651C45.4571 22.2652 43.5045 24.2178 41.1046 24.2178ZM38.4817 20.67C38.8261 21.7914 39.8719 22.6087 41.1046 22.6087C42.3373 22.6087 43.383 21.7914 43.7276 20.67H38.4817Z" fill="white"/>
<path d="M43.8079 20.6704H38.4012C38.1231 20.6704 37.8647 20.5271 37.7179 20.2907C37.5711 20.0543 37.5568 19.7588 37.6796 19.5099L40.3829 14.0309C40.5183 13.7561 40.7982 13.582 41.1046 13.582C41.4111 13.582 41.6908 13.7562 41.8262 14.0309L44.5296 19.5099C44.6525 19.7588 44.638 20.0543 44.4912 20.2907C44.3445 20.527 44.0861 20.6704 43.8079 20.6704ZM39.6955 19.0611H42.5136L41.1046 16.2052L39.6955 19.0611Z" fill="white"/>
<path d="M46.6143 27.4094C46.1697 27.4094 45.8096 27.0492 45.8096 26.6047V14.6094C45.8096 14.165 46.1697 13.8047 46.6143 13.8047C47.0587 13.8047 47.4189 14.165 47.4189 14.6094V26.6047C47.4189 27.0492 47.0587 27.4094 46.6143 27.4094Z" fill="white"/>
<path d="M53.4165 15.1915H51.4853C50.6093 15.1915 49.7575 14.9407 49.0221 14.4668L47.4272 13.4577C47.0515 13.2201 46.94 12.723 47.1775 12.3476C47.4152 11.9716 47.9115 11.8598 48.2878 12.0973L49.8882 13.1102C50.3688 13.42 50.9192 13.5822 51.4852 13.5822H53.4164C53.8608 13.5822 54.221 13.9424 54.221 14.3869C54.2211 14.8314 53.8609 15.1915 53.4165 15.1915Z" fill="white"/>
<path d="M41.879 15.1912H39.8124C39.368 15.1912 39.0078 14.8311 39.0078 14.3866C39.0078 13.9421 39.368 13.5819 39.8124 13.5819H41.879C42.4799 13.5819 43.0586 13.4009 43.5527 13.0589L44.9117 12.1161C45.2763 11.8633 45.7777 11.9532 46.0313 12.3183C46.2845 12.6836 46.1941 13.1853 45.8289 13.4385L44.4695 14.3815C43.7047 14.9115 42.8091 15.1912 41.879 15.1912Z" fill="white"/>
<path d="M50.3943 29.9234H42.834C42.3895 29.9234 42.0293 29.5631 42.0293 29.1186V27.8734C42.0293 26.7306 42.9591 25.8008 44.1022 25.8008H49.1265C50.2694 25.8008 51.1991 26.7306 51.1991 27.8734V29.1186C51.199 29.5631 50.8389 29.9234 50.3943 29.9234ZM43.6386 28.3141H49.5897V27.8734C49.5897 27.6182 49.3819 27.4101 49.1264 27.4101H44.1021C43.8466 27.4101 43.6385 27.6182 43.6385 27.8734L43.6386 28.3141Z" fill="white"/>
<path d="M52.3332 29.9238H40.8955C40.451 29.9238 40.0908 29.5635 40.0908 29.1191C40.0908 28.6746 40.451 28.3145 40.8955 28.3145H52.3333C52.7778 28.3145 53.138 28.6746 53.138 29.1191C53.1379 29.5635 52.7777 29.9238 52.3332 29.9238Z" fill="white"/>
<path d="M46.6146 15.4149C45.4331 15.4149 44.4717 14.4538 44.4717 13.2718C44.4717 12.09 45.4331 11.1289 46.6146 11.1289C47.796 11.1289 48.7574 12.09 48.7574 13.2718C48.7574 14.4538 47.796 15.4149 46.6146 15.4149ZM46.6146 12.7383C46.3204 12.7383 46.0809 12.9778 46.0809 13.272C46.0809 13.5661 46.3204 13.8056 46.6146 13.8056C46.9087 13.8056 47.1482 13.5661 47.1482 13.272C47.1482 12.9778 46.9087 12.7383 46.6146 12.7383Z" fill="white"/>
<path d="M51.6823 59.0917H11.5048C11.0604 59.0917 10.7002 58.7314 10.7002 58.287C10.7002 57.8426 11.0604 57.4824 11.5048 57.4824H51.6823C52.1267 57.4824 52.4869 57.8426 52.4869 58.287C52.4869 58.7315 52.1267 59.0917 51.6823 59.0917Z" fill="white"/>
<path d="M50.3953 49.5973C49.9508 49.5973 49.5907 49.2371 49.5907 48.7927C49.5907 47.0752 48.1936 45.6785 46.4765 45.6785C46.0321 45.6785 45.6719 45.3182 45.6719 44.8738C45.6719 44.4294 46.0321 44.0692 46.4765 44.0692C48.1936 44.0692 49.5907 42.6724 49.5907 40.955C49.5907 40.5106 49.9508 40.1504 50.3953 40.1504C50.8398 40.1504 51.2 40.5106 51.2 40.955C51.2 42.6724 52.5971 44.0692 54.3141 44.0692C54.7586 44.0692 55.1187 44.4294 55.1187 44.8738C55.1187 45.3182 54.7586 45.6785 54.3141 45.6785C52.5971 45.6785 51.2 47.0752 51.2 48.7927C51.2 49.2371 50.8398 49.5973 50.3953 49.5973ZM49.1109 44.8738C49.617 45.2151 50.0539 45.652 50.3951 46.1581C50.7365 45.652 51.1735 45.2152 51.6795 44.8738C51.1735 44.5325 50.7366 44.0955 50.3951 43.5894C50.0539 44.0955 49.617 44.5324 49.1109 44.8738Z" fill="white"/>
<path d="M19.917 24.6452C19.4725 24.6452 19.1124 24.2849 19.1124 23.8405C19.1124 21.6775 17.3528 19.918 15.1903 19.918C14.7459 19.918 14.3857 19.5578 14.3857 19.1134C14.3857 18.6688 14.7459 18.3087 15.1903 18.3087C17.3528 18.3087 19.1124 16.5491 19.1124 14.3867C19.1124 13.9422 19.4725 13.582 19.917 13.582C20.3614 13.582 20.7216 13.9422 20.7216 14.3867C20.7216 16.5491 22.4811 18.3087 24.6436 18.3087C25.088 18.3087 25.4482 18.6688 25.4482 19.1134C25.4482 19.5578 25.088 19.918 24.6436 19.918C22.4811 19.918 20.7216 21.6775 20.7216 23.84C20.7215 24.2844 20.3613 24.6452 19.917 24.6452ZM18.061 19.1134C18.8178 19.5747 19.4556 20.2127 19.917 20.9697C20.3783 20.2127 21.0164 19.5747 21.7733 19.1134C21.0164 18.6519 20.3783 18.0139 19.917 17.2569C19.4555 18.0139 18.8177 18.6519 18.061 19.1134Z" fill="white"/>
</g>
<defs>
<clipPath id="clip0_1439_183">
<rect width="54" height="54" fill="white" transform="translate(8 8.10938)"/>
</clipPath>
</defs>
</svg>
