<svg width="128" height="129" viewBox="0 0 128 129" fill="none" xmlns="http://www.w3.org/2000/svg">
<g clip-path="url(#clip0_1439_1190)">
<path d="M105.56 40.6219C105.56 46.0148 101.189 50.3863 95.7957 50.3863C90.4028 50.3863 86.0312 46.0148 86.0312 40.6219C86.0312 35.2299 90.4028 30.8584 95.7957 30.8584C101.189 30.8584 105.56 35.2299 105.56 40.6219Z" fill="#C59B4B"/>
<path d="M42.5142 126.779L46.2902 98.4813L45.0672 89.3165L45.4395 88.9791L38.4039 82.5627L38.3443 82.5031C33.7372 77.8898 33.1087 70.7811 36.4588 65.49L36.2696 65.2103L38.334 63.116L43.838 57.612C44.2268 57.2232 44.6249 56.9465 45.0271 56.6153C41.9762 54.95 38.5315 54.124 34.9941 54.124H29.3595C23.803 54.124 18.4707 56.0259 14.5425 59.9541L9.03848 65.1835H9.04979C5.09278 69.3967 5.09278 75.7925 9.04979 79.7567L19.2885 89.2085L14.2288 127.174C14.128 127.933 14.7205 128.644 15.4847 128.644H23.2167C23.8503 128.644 24.3831 128.203 24.4726 127.575L28.661 97.1894C28.732 96.6741 28.9048 96.1999 29.1537 95.774C30.4745 93.5214 33.8812 93.5255 35.1957 95.7771C35.4508 96.204 35.6226 96.6854 35.6936 97.2017L39.8831 127.574C39.9715 128.203 40.5043 128.644 41.139 128.644H42.6428C42.4782 128.117 42.4309 127.413 42.5142 126.779ZM21.0124 77.6038L17.7774 74.3627C16.9124 73.4977 16.9124 72.0998 17.7774 71.2348L21.8713 67.1409C22.0842 66.927 22.4463 67.1049 22.4051 67.4073L21.0124 77.6038Z" fill="#C59B4B"/>
<path d="M41.942 40.6229C41.942 46.0148 37.5705 50.3863 32.1776 50.3863C26.7846 50.3863 22.4131 46.0148 22.4131 40.6229C22.4131 35.2299 26.7846 30.8584 32.1776 30.8584C37.5705 30.8584 41.942 35.2299 41.942 40.6229Z" fill="#C59B4B"/>
<path d="M32.0712 25.4408C32.1462 25.4521 32.2213 25.4572 32.2954 25.4572C33.0956 25.4572 33.7951 24.8658 33.9072 24.0491C34.6344 18.7611 39.2137 14.7742 44.5604 14.7742C45.4604 14.7742 46.1897 14.0449 46.1897 13.1449C46.1897 12.2459 45.4604 11.5156 44.5604 11.5156C37.5947 11.5156 31.6268 16.7131 30.6784 23.6047C30.556 24.4965 31.1794 25.3184 32.0712 25.4408Z" fill="#C59B4B"/>
<path d="M82.723 14.7742C88.082 14.7742 92.6634 18.7724 93.3793 24.0728C93.4904 24.8905 94.1899 25.484 94.9922 25.484C95.0652 25.484 95.1382 25.4788 95.2123 25.4686C96.1041 25.3482 96.7295 24.5274 96.6091 23.6356C95.6752 16.7265 89.7052 11.5156 82.723 11.5156C81.823 11.5156 81.0938 12.2459 81.0938 13.146C81.0938 14.0449 81.823 14.7742 82.723 14.7742Z" fill="#C59B4B"/>
<path d="M79.8926 111.938L76.8767 89.3288L79.8987 86.5743L87.1143 79.9923C91.0724 76.0291 91.0724 69.6055 87.1143 65.6484L87.1267 65.6299L81.6227 60.1259C81.0713 59.5746 80.4912 59.121 79.8864 58.654C76.1896 55.6865 71.5805 54.124 66.8047 54.124H61.17C56.3953 54.124 51.7851 55.6865 48.0883 58.6488C47.4845 59.122 46.9034 59.6095 46.352 60.1598L40.848 65.6474L40.8603 65.6567C36.9033 69.6137 36.9033 76.0321 40.8603 79.9964L48.077 86.5763L51.098 89.3299L48.0821 111.938L46.0393 127.266C45.9437 127.982 46.4652 128.598 47.1646 128.67C47.2058 128.675 47.2531 128.644 47.2942 128.644H55.0262C55.6598 128.644 56.1937 128.206 56.2821 127.578L60.4716 97.1935C60.5426 96.6782 60.7143 96.1999 60.9633 95.774C62.284 93.5286 65.6907 93.5317 67.0052 95.7771C67.2603 96.203 67.4321 96.6915 67.5041 97.2079L71.6926 127.577C71.781 128.206 72.3138 128.644 72.9485 128.644H80.6805C80.7216 128.644 80.7689 128.674 80.8111 128.669C81.5095 128.597 82.032 127.967 81.9364 127.249L79.8926 111.938ZM52.8219 77.61L49.587 74.3689C48.7219 73.5039 48.7219 72.106 49.587 71.2409L53.6818 67.1471C53.8958 66.9332 54.2558 67.1111 54.2146 67.4073L52.8219 77.61ZM73.76 67.4073C73.7189 67.1111 74.0799 66.9332 74.2939 67.1471L78.3877 71.2409C79.2528 72.106 79.2528 73.5039 78.3877 74.3689L75.1528 77.61L73.76 67.4073Z" fill="#C59B4B"/>
<path d="M118.925 65.6423L118.936 65.6248L113.433 60.1907C109.499 56.2635 104.172 54.124 98.6142 54.124H92.9806C89.4401 54.124 85.9923 54.951 82.9404 56.6215C83.3416 56.9619 83.7417 57.2859 84.1367 57.6799L91.7175 65.2267L91.5159 65.5065C94.866 70.7986 94.2375 77.898 89.6304 82.5123L89.5111 82.6224L82.5341 88.9822L82.9085 89.3237L81.6855 98.4936L85.4605 126.769C85.5448 127.41 85.4975 128.117 85.3299 128.644H86.8368C87.4704 128.644 88.0032 128.203 88.0927 127.575L92.2811 97.1894C92.3531 96.6741 92.5239 96.1999 92.7728 95.774C94.0946 93.5214 97.5013 93.5255 98.8158 95.7771C99.0658 96.204 99.2365 96.6854 99.3137 97.2017L103.502 127.574C103.592 128.203 104.124 128.644 104.759 128.644H112.49C113.254 128.644 113.847 127.991 113.746 127.232L108.686 89.3093L118.925 79.9789C122.882 76.0147 122.882 69.5993 118.925 65.6423ZM110.197 74.3627L106.962 77.6038L105.571 67.4073C105.528 67.106 105.891 66.927 106.103 67.1409L110.197 71.2348C111.063 72.0998 111.063 73.4977 110.197 74.3627Z" fill="#C59B4B"/>
<path d="M63.9881 30.6885C58.5951 30.6885 54.2246 35.0384 54.2246 40.4314C54.2246 45.8233 58.5951 50.1742 63.9881 50.1742C69.381 50.1742 73.7525 45.8233 73.7525 40.4314C73.7525 35.0384 69.381 30.6885 63.9881 30.6885Z" fill="#C59B4B"/>
<path d="M60.297 13.4525H61.2504C61.2504 11.9397 62.4816 10.7134 64.0004 10.7134C65.5191 10.7134 66.7504 11.9397 66.7504 13.4525H67.7037C67.9829 13.4522 68.2468 13.3252 68.4205 13.1074L74.0085 6.14817H70.417V3.40905C70.417 1.89627 69.1858 0.669922 67.667 0.669922H60.3337C58.8149 0.669922 57.5837 1.89627 57.5837 3.40905V6.14817H53.9922L59.5839 13.1101C59.7573 13.3259 60.0195 13.4518 60.297 13.4525ZM59.417 3.40905C59.417 2.90479 59.8274 2.49601 60.3337 2.49601H67.667C68.1733 2.49601 68.5837 2.90479 68.5837 3.40905V6.14817H59.417V3.40905Z" fill="#C59B4B"/>
<path d="M63.084 13.4521V15.2782C63.084 15.7824 63.4944 16.1912 64.0007 16.1912C64.5069 16.1912 64.9173 15.7824 64.9173 15.2782V13.4521C64.9173 12.9478 64.5069 12.5391 64.0007 12.5391C63.4944 12.5391 63.084 12.9478 63.084 13.4521Z" fill="#C59B4B"/>
<path d="M69.8493 14.251C69.3275 14.9 68.5381 15.2779 67.7033 15.2781H66.75C66.75 16.7909 65.5188 18.0173 64 18.0173C62.4812 18.0173 61.25 16.7909 61.25 15.2781H60.2967C59.4633 15.2777 58.6752 14.901 58.1535 14.2537L53 7.83594V17.1042H54.8333C56.3521 17.1042 57.5833 18.3306 57.5833 19.8434V21.6694H70.4167V19.8434C70.4167 18.3306 71.6479 17.1042 73.1667 17.1042H75V7.83594L69.8493 14.251Z" fill="#C59B4B"/>
<path d="M54.8333 18.9307H53V20.7567C53 21.261 53.4104 21.6698 53.9167 21.6698H55.75V19.8437C55.75 19.3394 55.3396 18.9307 54.8333 18.9307Z" fill="#C59B4B"/>
<path d="M72.25 19.8437V21.6698H74.0833C74.5896 21.6698 75 21.261 75 20.7567V18.9307H73.1667C72.6604 18.9307 72.25 19.3394 72.25 19.8437Z" fill="#C59B4B"/>
</g>
<defs>
<clipPath id="clip0_1439_1190">
<rect width="128" height="128" fill="white" transform="translate(0 0.669922)"/>
</clipPath>
</defs>
</svg>
