<svg width="32" height="33" viewBox="0 0 32 33" fill="none" xmlns="http://www.w3.org/2000/svg">
<g id="vuesax/linear/call">
<g id="call">
<g id="call_2">
<path id="Vector" d="M29.2934 24.9393C29.2934 25.4193 29.1867 25.9127 28.96 26.3927C28.7334 26.8727 28.44 27.326 28.0534 27.7527C27.4 28.4727 26.68 28.9927 25.8667 29.326C25.0667 29.6594 24.2 29.8327 23.2667 29.8327C21.9067 29.8327 20.4534 29.5127 18.92 28.8594C17.3867 28.206 15.8534 27.326 14.3334 26.2194C12.8 25.0994 11.3467 23.8593 9.96002 22.486C8.58669 21.0993 7.34669 19.646 6.24002 18.126C5.14669 16.606 4.26669 15.086 3.62669 13.5793C2.98669 12.0593 2.66669 10.606 2.66669 9.21935C2.66669 8.31268 2.82669 7.44602 3.14669 6.64602C3.46669 5.83268 3.97335 5.08602 4.68002 4.41935C5.53335 3.57935 6.46669 3.16602 7.45335 3.16602C7.82669 3.16602 8.20002 3.24602 8.53335 3.40602C8.88002 3.56602 9.18669 3.80602 9.42669 4.15268L12.52 8.51268C12.76 8.84602 12.9334 9.15268 13.0534 9.44602C13.1734 9.72602 13.24 10.006 13.24 10.2593C13.24 10.5793 13.1467 10.8993 12.96 11.206C12.7867 11.5127 12.5334 11.8327 12.2134 12.1527L11.2 13.206C11.0534 13.3527 10.9867 13.526 10.9867 13.7393C10.9867 13.846 11 13.9393 11.0267 14.046C11.0667 14.1527 11.1067 14.2327 11.1334 14.3127C11.3734 14.7527 11.7867 15.326 12.3734 16.0193C12.9734 16.7127 13.6134 17.4193 14.3067 18.126C15.0267 18.8327 15.72 19.486 16.4267 20.086C17.12 20.6727 17.6934 21.0727 18.1467 21.3127C18.2134 21.3393 18.2934 21.3793 18.3867 21.4193C18.4934 21.4593 18.6 21.4727 18.72 21.4727C18.9467 21.4727 19.12 21.3927 19.2667 21.246L20.28 20.246C20.6134 19.9127 20.9334 19.6593 21.24 19.4993C21.5467 19.3127 21.8534 19.2193 22.1867 19.2193C22.44 19.2193 22.7067 19.2727 23 19.3927C23.2934 19.5127 23.6 19.686 23.9334 19.9127L28.3467 23.046C28.6934 23.286 28.9334 23.566 29.08 23.8993C29.2134 24.2327 29.2934 24.566 29.2934 24.9393Z" stroke="white" stroke-width="1.5" stroke-miterlimit="10"/>
</g>
</g>
</g>
</svg>
