<svg width="260" height="60" viewBox="0 0 260 60" fill="none" xmlns="http://www.w3.org/2000/svg">
<path d="M6.29122 27.3132V28.3831C6.29122 28.6861 6.09712 28.8755 5.79887 28.8755H4.89465C4.59166 28.8755 4.39282 28.6861 4.39282 28.3831V27.3132C4.39282 27.0102 4.58693 26.8066 4.89465 26.8066H5.79887C6.09712 26.8066 6.29122 27.0102 6.29122 27.3132Z" fill="#002F87"/>
<path d="M8.734 27.3132V28.3831C8.734 28.6861 8.53989 28.8755 8.23217 28.8755H7.33268C7.0297 28.8755 6.84033 28.6861 6.84033 28.3831V27.3132C6.84033 27.0102 7.0297 26.8066 7.33268 26.8066H8.23217C8.53516 26.8066 8.734 27.0102 8.734 27.3132Z" fill="#002F87"/>
<path d="M32.102 14.6641V20.8375C32.102 21.6139 31.8606 22.253 31.3872 22.7264C30.8995 23.1951 30.2652 23.4223 29.4982 23.4223H28.5845C27.7371 23.4223 27.0554 23.2282 26.5536 22.8211C26.0944 23.2187 25.4979 23.4223 24.7735 23.4223H23.874C23.0172 23.4223 22.3307 23.2187 21.8384 22.8211C21.3791 23.2282 20.7826 23.4223 20.0678 23.4223H18.6333V23.4365H15.3999C15.1585 23.4365 14.9312 23.3466 14.7513 23.1667C14.5667 22.9773 14.472 22.7548 14.472 22.5039V17.1211C14.472 16.7235 14.3347 16.3826 14.0459 16.0938C13.7619 15.8098 13.4258 15.6725 13.0234 15.6725C12.621 15.6725 12.2848 15.8098 12.0008 16.0986C11.7167 16.3826 11.5747 16.7187 11.5747 17.1211V24.6485C11.5747 24.8994 11.4848 25.1219 11.3049 25.297C11.1202 25.4817 10.9072 25.5764 10.6468 25.5764H4.22255C3.10056 25.5764 2.11112 25.1645 1.28737 24.3455C0.46363 23.5265 0.0517578 22.5181 0.0517578 21.363C0.0517578 20.5581 0.269531 19.8007 0.686137 19.1095C1.11221 18.4136 1.68504 17.8739 2.39517 17.5141L2.7739 17.32C2.91592 17.2537 3.04375 17.2537 3.17157 17.301C3.28046 17.3342 3.38934 17.4147 3.45088 17.5425L3.83435 18.3C3.87696 18.3804 3.8959 18.4704 3.8959 18.5509C3.8959 18.6503 3.86275 18.8491 3.61184 18.9722L3.23311 19.1663C2.82598 19.3699 2.50405 19.6729 2.25788 20.0705C2.01644 20.4682 1.89335 20.9037 1.89335 21.363C1.89335 22.021 2.12532 22.5654 2.58927 23.0341C3.05795 23.5028 3.60238 23.7253 4.26043 23.7253H9.72365V17.1259C9.72365 16.2217 10.0503 15.4358 10.6894 14.7919C11.3238 14.1481 12.1097 13.8262 13.0139 13.8262C13.9181 13.8262 14.6992 14.1528 15.3478 14.7919C15.9822 15.4358 16.3136 16.2169 16.3136 17.1259V21.5807H20.1435C20.366 21.576 20.527 21.5144 20.6311 21.4198C20.7306 21.3109 20.7921 21.1168 20.7921 20.8517V14.6689C20.7921 14.3706 20.9862 14.1765 21.2845 14.1765H22.1366C22.4396 14.1765 22.6384 14.3706 22.6384 14.6689V21.0884C22.6384 21.2257 22.6668 21.3203 22.7189 21.3677C22.7994 21.4576 23.0077 21.576 23.6326 21.5855H24.7972C25.0529 21.5855 25.228 21.5334 25.3322 21.4292C25.4553 21.3061 25.5168 21.1168 25.5168 20.8469V15.1659C25.5168 14.863 25.7062 14.6736 26.0091 14.6736H26.866C27.1643 14.6736 27.3584 14.863 27.3584 15.1659V21.0884C27.3584 21.2162 27.3868 21.3203 27.4483 21.3866C27.5146 21.4482 27.7324 21.576 28.3431 21.5807H29.4935C29.7633 21.5807 29.9527 21.5286 30.0616 21.4198C30.1752 21.3061 30.232 21.1168 30.232 20.8469V14.6736C30.232 14.3753 30.4261 14.1812 30.7244 14.1812H31.5813C31.8937 14.1812 32.0878 14.3753 32.0878 14.6736L32.102 14.6641Z" fill="#002F87"/>
<path d="M28.6272 10.9377V12.0218C28.6272 12.32 28.4236 12.5141 28.1206 12.5141H27.2211C26.9181 12.5141 26.7288 12.32 26.7288 12.0218V10.9377C26.7288 10.6394 26.9181 10.4453 27.2211 10.4453H28.1206C28.4236 10.4453 28.6272 10.6394 28.6272 10.9377Z" fill="#002F87"/>
<path d="M25.6826 10.4453H24.7736C24.5017 10.4453 24.2812 10.6657 24.2812 10.9377V12.0218C24.2812 12.2937 24.5017 12.5141 24.7736 12.5141H25.6826C25.9545 12.5141 26.1749 12.2937 26.1749 12.0218V10.9377C26.1749 10.6657 25.9545 10.4453 25.6826 10.4453Z" fill="#002F87"/>
<path d="M26.9086 8.16406H25.9997C25.7278 8.16406 25.5073 8.3845 25.5073 8.65642V9.73581C25.5073 10.0077 25.7278 10.2282 25.9997 10.2282H26.9086C27.1806 10.2282 27.401 10.0077 27.401 9.73581V8.65642C27.401 8.3845 27.1806 8.16406 26.9086 8.16406Z" fill="#002F87"/>
<path d="M73.7721 10.9377V12.0218C73.7721 12.32 73.578 12.5141 73.2798 12.5141H72.3661C72.0631 12.5141 71.8643 12.32 71.8643 12.0218V10.9377C71.8643 10.6394 72.0584 10.4453 72.3661 10.4453H73.2798C73.578 10.4453 73.7721 10.6394 73.7721 10.9377Z" fill="#002F87"/>
<path d="M76.2007 10.9377V12.0218C76.2007 12.32 76.0066 12.5141 75.6989 12.5141H74.8041C74.5011 12.5141 74.3118 12.32 74.3118 12.0218V10.9377C74.3118 10.6394 74.5011 10.4453 74.8041 10.4453H75.6989C76.0019 10.4453 76.2007 10.6394 76.2007 10.9377Z" fill="#002F87"/>
<path d="M81.716 10.9377V12.0218C81.716 12.32 81.5125 12.5141 81.2095 12.5141H80.31C80.007 12.5141 79.8176 12.32 79.8176 12.0218V10.9377C79.8176 10.6394 80.007 10.4453 80.31 10.4453H81.2095C81.5125 10.4453 81.716 10.6394 81.716 10.9377Z" fill="#002F87"/>
<path d="M104.563 10.1935V22.9284C104.563 23.2314 104.374 23.4208 104.075 23.4208H103.209C102.911 23.4208 102.717 23.2314 102.717 22.9284V10.1935C102.717 9.89528 102.911 9.70117 103.209 9.70117H104.075C104.374 9.70117 104.563 9.89528 104.563 10.1935Z" fill="#002F87"/>
<path d="M99.7816 9.69727H98.9247C98.6264 9.69727 98.4323 9.89136 98.4323 10.2038V20.8415C98.4323 21.1066 98.3708 21.3007 98.2619 21.4143C98.1719 21.509 98.0204 21.5611 97.8074 21.5753H96.2735L95.1658 21.5705C94.5977 21.5705 94.3609 21.4569 94.2615 21.3528C94.2095 21.3054 94.181 21.2107 94.181 21.0734V18.2945C94.181 17.0636 93.736 15.9937 92.8602 15.1273C91.9939 14.2563 90.924 13.8065 89.6931 13.8065C87.8609 13.8065 86.4312 14.4977 85.4607 15.8422L85.1956 16.2162C85.1483 16.2967 85.1199 16.3866 85.1199 16.4813V16.5713C85.1483 16.6991 85.2146 16.808 85.3282 16.8979L86.0099 17.3761C86.1093 17.4566 86.2134 17.4897 86.3223 17.4897C86.4312 17.4897 86.5875 17.4566 86.7153 17.2719L86.9662 16.9216C87.5674 16.0694 88.4622 15.6623 89.6931 15.6623C90.4316 15.6623 91.0376 15.9132 91.5583 16.434C92.0743 16.95 92.3205 17.556 92.3205 18.2945V20.0509C92.3205 20.5906 92.2069 20.9835 91.9749 21.2155C91.7382 21.4522 91.3453 21.5658 90.8056 21.5658H82.677C82.0663 21.5658 81.8438 21.438 81.7633 21.3575C81.7018 21.296 81.6876 21.1681 81.6876 21.0734V14.6776C81.6876 14.3651 81.484 14.171 81.181 14.171H80.3336C80.0306 14.171 79.8318 14.3651 79.8318 14.6776V20.8273C79.8318 21.1066 79.7797 21.3007 79.6614 21.4096C79.562 21.5185 79.3773 21.5705 79.1359 21.5705H75.9451C75.3344 21.5705 75.1213 21.4427 75.0408 21.3528C74.9888 21.3054 74.9604 21.2107 74.9604 21.0734V14.6776C74.9604 14.3651 74.7663 14.171 74.468 14.171H73.6111C73.3129 14.171 73.1235 14.3651 73.1235 14.6776V20.8273C73.1235 21.0971 73.062 21.296 72.9389 21.4096C72.8395 21.5185 72.6548 21.5705 72.4134 21.5705H42.5124V17.93C42.5124 16.7938 42.1053 15.8185 41.3005 15.0232C40.5004 14.2184 39.5204 13.8113 38.3985 13.8113C37.2765 13.8113 36.287 14.2184 35.4822 15.0232C34.6774 15.8233 34.2703 16.7938 34.2703 17.93V19.3029C34.2703 20.4343 34.6774 21.4143 35.4822 22.2191C36.287 23.0192 37.2623 23.4169 38.3985 23.4169H40.6661C40.6519 23.9423 40.4625 24.3968 40.0696 24.7898C39.6719 25.1969 39.2033 25.3863 38.6541 25.3863H36.7557C36.4574 25.3863 36.2681 25.5804 36.2681 25.8881V26.7402C36.2681 27.0432 36.4574 27.2421 36.7557 27.2421H38.6541C39.6956 27.2421 40.6093 26.8586 41.3668 26.0917C42.1195 25.3389 42.503 24.4394 42.5077 23.4216H72.3802C73.0951 23.4216 73.6869 23.2275 74.1366 22.8251C74.61 23.2086 75.2681 23.4074 76.0966 23.4216H79.0933C79.8034 23.4216 80.3904 23.2322 80.8591 22.8204C81.3325 23.2038 81.9906 23.4074 82.8191 23.4216H90.8009C91.7808 23.4216 92.5667 23.1565 93.149 22.6357L93.1916 22.6783C93.6792 23.1565 94.3941 23.4074 95.3172 23.4216H97.6891C98.4513 23.4216 99.0809 23.1896 99.5638 22.7257C100.037 22.2523 100.274 21.6226 100.274 20.8367V10.2038C100.274 9.89136 100.08 9.69727 99.7816 9.69727ZM40.6661 21.5753H38.3985C37.7641 21.5753 37.2338 21.3575 36.7888 20.9125C36.3438 20.458 36.1213 19.9373 36.1213 19.3076V17.9347C36.1213 17.3003 36.3438 16.7796 36.7888 16.3298C37.2338 15.8848 37.7641 15.667 38.3985 15.667C39.0328 15.667 39.5488 15.8848 39.9939 16.3298C40.4483 16.7748 40.6614 17.2956 40.6614 17.9347V21.5753H40.6661Z" fill="#002F87"/>
<path d="M115.845 12.6135V13.6029C115.845 13.9011 115.651 14.0952 115.352 14.0952H114.439C114.136 14.0952 113.946 13.9011 113.946 13.6029V12.6135C113.946 12.3152 114.136 12.1211 114.439 12.1211H115.352C115.651 12.1211 115.845 12.3152 115.845 12.6135Z" fill="#002F87"/>
<path d="M119.357 14.6823V22.4274C119.357 23.592 118.945 24.5909 118.122 25.4147C117.303 26.2337 116.304 26.6456 115.144 26.6456C113.984 26.6456 112.98 26.2337 112.161 25.4147C111.342 24.5909 110.926 23.5873 110.926 22.4274V18.1146C110.926 17.8164 111.12 17.6222 111.418 17.6222H112.275C112.578 17.6222 112.767 17.8164 112.767 18.1146V22.4274C112.767 23.0902 112.999 23.6394 113.463 24.1128C113.932 24.5815 114.476 24.804 115.139 24.804C115.802 24.804 116.342 24.5815 116.81 24.1128C117.279 23.6394 117.506 23.0902 117.506 22.4274V14.6823C117.506 14.3699 117.7 14.1758 117.999 14.1758H118.851C119.154 14.1758 119.353 14.3699 119.353 14.6823H119.357Z" fill="#002F87"/>
<path d="M158.3 10.4453H157.392C157.12 10.4453 156.899 10.6657 156.899 10.9377V12.0218C156.899 12.2937 157.12 12.5141 157.392 12.5141H158.3C158.572 12.5141 158.793 12.2937 158.793 12.0218V10.9377C158.793 10.6657 158.572 10.4453 158.3 10.4453Z" fill="#002F87"/>
<path d="M163.683 23.418L163.773 23.4227C163.745 23.4227 163.712 23.4227 163.683 23.418Z" fill="#002F87"/>
<path d="M173.715 15.0282C172.915 14.2234 171.935 13.8163 170.799 13.8163C169.662 13.8163 168.687 14.2234 167.892 15.0282C167.092 15.8283 166.689 16.7988 166.689 17.935V21.5756H163.532C163.172 21.5756 162.916 21.4856 162.732 21.3057C162.609 21.1921 162.547 21.0359 162.547 20.8323V18.3043C162.547 16.9598 162.183 15.8709 161.463 15.0661C160.739 14.2424 159.759 13.821 158.547 13.821C157.264 13.821 155.772 14.5737 154.097 16.0413V14.9193C154.097 14.6211 153.902 14.427 153.595 14.427H152.743C152.44 14.427 152.241 14.6211 152.241 14.9193V21.5803H124.342C124.101 21.5803 123.916 21.5282 123.803 21.4193C123.694 21.3105 123.642 21.1164 123.642 20.8465V10.2136C123.642 9.90114 123.448 9.70703 123.14 9.70703H122.288C121.99 9.70703 121.795 9.90114 121.795 10.2136V20.8465C121.795 21.6371 122.032 22.2715 122.506 22.7354C122.974 23.2041 123.599 23.4314 124.371 23.4314H159.181C160.204 23.4314 161.023 23.1473 161.61 22.5745C161.624 22.5934 161.643 22.6171 161.662 22.6408C162.178 23.1473 162.86 23.4124 163.679 23.4266C163.707 23.4314 163.74 23.4314 163.768 23.4314H170.794C171.93 23.4314 172.91 23.0242 173.71 22.2289C174.515 21.4241 174.922 20.4488 174.922 19.3221V17.9492C174.922 16.813 174.515 15.8378 173.71 15.0424L173.715 15.0282ZM160.705 20.0606C160.705 20.6003 160.592 20.9933 160.355 21.2252C160.118 21.4619 159.725 21.5756 159.186 21.5756H154.101V18.5173C154.641 17.8593 155.365 17.2107 156.246 16.6047C157.141 15.9845 157.908 15.6721 158.551 15.6721C159.408 15.6721 160.005 16.0082 160.365 16.7183C160.597 17.1633 160.71 17.6936 160.71 18.2995V20.0559L160.705 20.0606ZM173.076 19.3079C173.076 19.9376 172.858 20.4583 172.408 20.9128C171.963 21.3578 171.433 21.5756 170.799 21.5756H168.531V17.935C168.531 17.3006 168.754 16.7799 169.199 16.3301C169.644 15.8851 170.164 15.6673 170.794 15.6673C171.424 15.6673 171.959 15.8851 172.404 16.3301C172.858 16.7751 173.071 17.2959 173.071 17.935V19.3079H173.076Z" fill="#002F87"/>
<path d="M180.092 14.6826V23.8669C180.092 24.9084 179.789 25.7416 179.192 26.3334C178.591 26.9346 177.758 27.2376 176.716 27.2376H175.803C175.504 27.2376 175.31 27.0341 175.31 26.7311V25.8837C175.31 25.5712 175.504 25.3771 175.803 25.3771H176.716C177.256 25.3771 177.658 25.2635 177.886 25.0315C178.122 24.7948 178.245 24.4019 178.245 23.8622V14.6779C178.245 14.3749 178.435 14.1855 178.724 14.1855H179.595C179.893 14.1855 180.087 14.3749 180.087 14.6779L180.092 14.6826Z" fill="#002F87"/>
<path d="M5.23125 38.5343C5.23125 37.8763 5.00874 37.2892 4.56373 36.7969C4.18026 36.3661 3.70685 36.0915 3.15768 35.9779V35.9258H1.04152C0.757468 35.9258 0.516023 36.0252 0.302986 36.2288C0.108885 36.4229 0 36.6738 0 36.9673V44.2863C0 44.523 0.160962 44.684 0.407138 44.684H0.942097C1.18354 44.684 1.34923 44.523 1.34923 44.2863V41.3464H3.07247C3.30444 41.3464 3.48434 41.4221 3.6453 41.5831C3.80627 41.7441 3.88201 41.9334 3.88201 42.1559V44.2863C3.88201 44.523 4.04297 44.684 4.28915 44.684H4.82411C5.07502 44.684 5.23598 44.523 5.23598 44.2863V42.1559C5.23598 41.5831 5.03241 41.0813 4.63948 40.6741C5.03241 40.267 5.23598 39.7747 5.23598 39.1924V38.5343H5.23125ZM3.87728 38.5343V39.1924C3.87728 39.4149 3.80153 39.5995 3.64057 39.7605C3.47961 39.9167 3.29498 39.9972 3.06774 39.9972H1.3445V37.2655H2.61799C2.96832 37.2655 3.26184 37.3886 3.51275 37.6443C3.76366 37.8952 3.88674 38.184 3.88674 38.539L3.87728 38.5343Z" fill="#002F87"/>
<path d="M13.7054 36.688C13.1989 36.1814 12.574 35.9258 11.8591 35.9258C11.1442 35.9258 10.5193 36.1814 10.008 36.688C9.50149 37.1945 9.24585 37.8194 9.24585 38.5343V44.2816C9.24585 44.5183 9.40681 44.6792 9.65299 44.6792H10.1879C10.4294 44.6792 10.5951 44.5183 10.5951 44.2816V41.4221H13.1326V44.2816C13.1326 44.5183 13.2936 44.6792 13.5445 44.6792H14.07C14.3114 44.6792 14.4818 44.5183 14.4818 44.2816V38.5343C14.4818 37.8194 14.2167 37.1945 13.7102 36.688H13.7054ZM12.7539 37.6395C13.0048 37.8905 13.1279 38.1792 13.1279 38.5343V40.0776H10.5904V38.5343C10.5904 38.184 10.7134 37.8905 10.9644 37.6395C11.4662 37.133 12.2473 37.1235 12.7586 37.6395H12.7539Z" fill="#002F87"/>
<path d="M26.9469 38.3672V44.2707C26.9469 44.5121 26.7859 44.6778 26.5398 44.6778H26.0143C25.7728 44.6778 25.6071 44.5169 25.6071 44.2707V38.3672C25.6071 38.0547 25.4983 37.8038 25.2758 37.5908C25.058 37.3683 24.8071 37.2641 24.4994 37.2641C24.2295 37.2641 23.9975 37.3067 23.8034 37.4014C23.5241 37.5292 23.3916 37.747 23.3916 38.0689V44.2707C23.3916 44.5121 23.2306 44.6778 22.9844 44.6778H22.4495C22.2127 44.6778 22.0518 44.5169 22.0518 44.2707V38.0689C22.0518 37.7423 21.9145 37.5292 21.6304 37.392C21.4363 37.302 21.2044 37.2641 20.9345 37.2641C20.6315 37.2641 20.3712 37.3635 20.1581 37.5813C19.9356 37.8038 19.8267 38.0547 19.8267 38.3672V44.2707C19.8267 44.5121 19.6658 44.6778 19.4291 44.6778H18.8894C18.6527 44.6778 18.4917 44.5169 18.4917 44.2707V38.3672C18.4917 37.6902 18.7284 37.1079 19.2066 36.6345C19.68 36.1563 20.2623 35.9102 20.9393 35.9102C21.6825 35.9102 22.279 36.1137 22.7193 36.5209C23.1738 36.1137 23.7656 35.9102 24.5041 35.9102C25.1716 35.9102 25.7634 36.1516 26.2368 36.6345C26.7149 37.1126 26.9516 37.6949 26.9516 38.3672H26.9469Z" fill="#002F87"/>
<path d="M35.4305 36.688C34.9239 36.1814 34.299 35.9258 33.5794 35.9258C32.8598 35.9258 32.2397 36.1814 31.7331 36.688C31.2265 37.1945 30.9614 37.8194 30.9614 38.5343V44.2816C30.9614 44.5183 31.1224 44.6792 31.3686 44.6792H31.9035C32.145 44.6792 32.3107 44.5183 32.3107 44.2816V41.4221H34.8482V44.2816C34.8482 44.5183 35.0186 44.6792 35.26 44.6792H35.7855C36.0364 44.6792 36.1974 44.5183 36.1974 44.2816V38.5343C36.1974 37.8194 35.9418 37.1945 35.4352 36.688H35.4305ZM34.4694 37.6395C34.7204 37.8905 34.8434 38.1792 34.8434 38.5343V40.0776H32.3059V38.5343C32.3059 38.184 32.429 37.8905 32.6847 37.6395C33.177 37.133 33.9676 37.1235 34.4694 37.6395Z" fill="#002F87"/>
<path d="M44.7759 36.7966C44.383 36.3658 43.9096 36.0912 43.3604 35.9776V35.916H41.249C40.9649 35.916 40.714 36.0249 40.5105 36.219C40.3069 36.4226 40.198 36.6735 40.198 36.9623V43.6422C40.198 43.9262 40.2974 44.1677 40.5105 44.3807C40.714 44.5843 40.9649 44.6789 41.249 44.6789H42.816C43.5308 44.6789 44.1558 44.4233 44.6623 43.9167C45.1689 43.4102 45.434 42.7853 45.434 42.0704V38.534C45.434 37.8712 45.2115 37.2889 44.7712 36.7966H44.7759ZM42.8207 43.3392H41.5567V37.2653H42.8207C43.1711 37.2653 43.4693 37.3883 43.7202 37.6298C43.9711 37.8807 44.0942 38.1789 44.0942 38.5293V42.0657C44.0942 42.416 43.9711 42.7143 43.7202 42.9604C43.4693 43.2161 43.1711 43.3392 42.8207 43.3392Z" fill="#002F87"/>
<path d="M54.9874 36.3279V44.2765C54.9874 44.518 54.8169 44.6837 54.5755 44.6837H54.05C53.7991 44.6837 53.6381 44.5227 53.6381 44.2765V40.8869H50.7976V44.2765C50.7976 44.518 50.6272 44.6837 50.3858 44.6837H49.8603C49.6188 44.6837 49.4531 44.5227 49.4531 44.2765V36.3279C49.4531 36.0865 49.6141 35.916 49.8603 35.916H50.3858C50.6272 35.916 50.7976 36.0865 50.7976 36.3279V39.5424H53.6381V36.3279C53.6381 36.0865 53.7991 35.916 54.05 35.916H54.5755C54.8169 35.916 54.9874 36.0865 54.9874 36.3279Z" fill="#002F87"/>
<path d="M63.4615 36.688C62.955 36.1814 62.3301 35.9258 61.6105 35.9258C60.8909 35.9258 60.2707 36.1814 59.7642 36.688C59.2576 37.1945 59.002 37.8194 59.002 38.5343V44.2816C59.002 44.5183 59.1629 44.6792 59.3996 44.6792H59.9393C60.1808 44.6792 60.3465 44.5183 60.3465 44.2816V41.4221H62.884V44.2816C62.884 44.5183 63.0449 44.6792 63.2911 44.6792H63.8261C64.0675 44.6792 64.2332 44.5183 64.2332 44.2816V38.5343C64.2332 37.8194 63.9776 37.1945 63.471 36.688H63.4615ZM62.51 37.6395C62.7609 37.8905 62.884 38.1792 62.884 38.5343V40.0776H60.3465V38.5343C60.3465 38.184 60.4695 37.8905 60.7205 37.6395C61.2128 37.133 62.0034 37.1235 62.5147 37.6395H62.51Z" fill="#002F87"/>
<path d="M74.5157 36.3271V44.0106C74.5157 44.3278 74.3405 44.5645 74.0281 44.6544C73.9665 44.6734 73.905 44.6828 73.834 44.6828C73.602 44.6828 73.4079 44.5834 73.2801 44.3941L69.5874 38.8267V44.2852C69.5874 44.5219 69.4265 44.6828 69.1803 44.6828H68.6548C68.4133 44.6828 68.2429 44.5219 68.2429 44.2852V36.5969C68.2429 36.2797 68.4181 36.043 68.7211 35.9531C68.8015 35.9341 68.8678 35.9199 68.9388 35.9199C69.0951 35.9199 69.3128 35.972 69.4785 36.2229L73.1664 41.7808V36.3318C73.1664 36.0903 73.3274 35.9199 73.5736 35.9199H74.1085C74.35 35.9199 74.5204 36.0903 74.5204 36.3318L74.5157 36.3271Z" fill="#002F87"/>
<path d="M88.8934 36.688C88.3773 36.1814 87.7572 35.9258 87.0423 35.9258C86.3274 35.9258 85.7025 36.1814 85.196 36.688C84.6894 37.1945 84.4243 37.8194 84.4243 38.5343V44.2816C84.4243 44.5183 84.5853 44.6792 84.8314 44.6792H85.3664C85.6079 44.6792 85.7736 44.5183 85.7736 44.2816V41.4221H88.3111V44.2816C88.3111 44.5183 88.4815 44.6792 88.7229 44.6792H89.2484C89.4993 44.6792 89.6603 44.5183 89.6603 44.2816V38.5343C89.6603 37.8194 89.4046 37.1945 88.8981 36.688H88.8934ZM87.9323 37.6395C88.1832 37.8905 88.3063 38.1792 88.3063 38.5343V40.0776H85.7688V38.5343C85.7688 38.184 85.8919 37.8905 86.1428 37.6395C86.6446 37.133 87.4258 37.1235 87.9371 37.6395H87.9323Z" fill="#002F87"/>
<path d="M98.5034 43.7416V44.2813C98.5034 44.518 98.3424 44.6789 98.0962 44.6789H94.7066C94.4225 44.6789 94.1716 44.5843 93.968 44.3807C93.7645 44.1724 93.665 43.9215 93.665 43.6422V36.3232C93.665 36.0817 93.826 35.916 94.0722 35.916H94.6071C94.8486 35.916 95.019 36.077 95.019 36.3232V43.3392H98.0962C98.3377 43.3392 98.5034 43.5001 98.5034 43.7368V43.7416Z" fill="#002F87"/>
<path d="M107.716 36.3279V44.2765C107.716 44.518 107.555 44.6837 107.309 44.6837H106.774C106.532 44.6837 106.367 44.5227 106.367 44.2765V40.8869H103.522V44.2765C103.522 44.518 103.361 44.6837 103.114 44.6837H102.589C102.347 44.6837 102.177 44.5227 102.177 44.2765V36.3279C102.177 36.0865 102.347 35.916 102.589 35.916H103.114C103.356 35.916 103.522 36.0865 103.522 36.3279V39.5424H106.367V36.3279C106.367 36.0865 106.528 35.916 106.774 35.916H107.309C107.55 35.916 107.716 36.0865 107.716 36.3279Z" fill="#002F87"/>
<path d="M116.2 36.688C115.684 36.1814 115.069 35.9258 114.349 35.9258C113.629 35.9258 113.009 36.1814 112.503 36.688C111.996 37.1945 111.731 37.8194 111.731 38.5343V44.2816C111.731 44.5183 111.892 44.6792 112.138 44.6792H112.678C112.914 44.6792 113.075 44.5183 113.075 44.2816V41.4221H115.613V44.2816C115.613 44.5183 115.783 44.6792 116.025 44.6792H116.55C116.801 44.6792 116.962 44.5183 116.962 44.2816V38.5343C116.962 37.8194 116.707 37.1945 116.2 36.688ZM115.239 37.6395C115.49 37.8905 115.613 38.1792 115.613 38.5343V40.0776H113.075V38.5343C113.075 38.184 113.199 37.8905 113.454 37.6395C113.947 37.133 114.732 37.1235 115.239 37.6395Z" fill="#002F87"/>
<path d="M127.245 36.3271V44.0106C127.245 44.3278 127.07 44.5645 126.767 44.6544C126.705 44.6734 126.639 44.6828 126.572 44.6828C126.336 44.6828 126.146 44.5834 126.019 44.3941L122.326 38.8267V44.2852C122.326 44.5219 122.165 44.6828 121.919 44.6828H121.393C121.142 44.6828 120.981 44.5219 120.981 44.2852V36.5969C120.981 36.2797 121.157 36.043 121.46 35.9531C121.54 35.9341 121.606 35.9199 121.677 35.9199C121.824 35.9199 122.051 35.972 122.217 36.2229L125.905 41.7808V36.3318C125.905 36.0903 126.066 35.9199 126.312 35.9199H126.847C127.089 35.9199 127.254 36.0903 127.254 36.3318L127.245 36.3271Z" fill="#002F87"/>
<path d="M137.381 36.3279V36.8534C137.381 37.0948 137.22 37.2653 136.973 37.2653H134.99V44.2718C134.99 44.5133 134.829 44.6789 134.583 44.6789H134.048C133.806 44.6789 133.641 44.518 133.641 44.2718V37.2653H131.652C131.411 37.2653 131.245 37.0948 131.245 36.8534V36.3279C131.245 36.0865 131.406 35.916 131.652 35.916H136.969C137.21 35.916 137.376 36.0865 137.376 36.3279H137.381Z" fill="#002F87"/>
<path d="M145.519 36.6877C145.012 36.1717 144.397 35.916 143.672 35.916C142.948 35.916 142.333 36.1717 141.826 36.6782C141.32 37.1942 141.064 37.8144 141.064 38.5293V42.0657C141.064 42.7805 141.32 43.4055 141.826 43.912C142.333 44.4186 142.958 44.6742 143.672 44.6742C144.387 44.6742 145.012 44.4186 145.519 43.912C146.025 43.4055 146.281 42.7805 146.281 42.0657V38.5293C146.281 37.8144 146.025 37.1895 145.519 36.683V36.6877ZM142.778 42.9699C142.527 42.719 142.404 42.4208 142.404 42.0704V38.534C142.404 38.1837 142.527 37.8854 142.768 37.6345C143.275 37.1422 144.065 37.1422 144.563 37.6345C144.813 37.8854 144.937 38.1837 144.937 38.534V42.0704C144.937 42.4208 144.813 42.719 144.563 42.9699C144.07 43.4717 143.27 43.4623 142.778 42.9699Z" fill="#002F87"/>
<path d="M155.522 36.3279V42.0704C155.522 42.7853 155.266 43.4102 154.76 43.9167C154.253 44.4233 153.628 44.6789 152.914 44.6789C152.199 44.6789 151.569 44.4233 151.067 43.9167C150.551 43.4102 150.296 42.7853 150.296 42.0704V36.3279C150.296 36.0865 150.457 35.916 150.703 35.916H151.238C151.479 35.916 151.645 36.0865 151.645 36.3279V42.0704C151.645 42.4208 151.768 42.719 152.019 42.9652C152.521 43.467 153.311 43.4717 153.813 42.9699C154.064 42.719 154.178 42.4208 154.178 42.0704V36.3279C154.178 36.0865 154.348 35.916 154.589 35.916H155.115C155.366 35.916 155.527 36.0865 155.527 36.3279H155.522Z" fill="#002F87"/>
<path d="M164.124 40.2617C164.545 40.683 164.758 41.1943 164.758 41.7813V42.0654C164.758 42.7802 164.503 43.4052 163.987 43.9117C163.48 44.4183 162.865 44.6739 162.145 44.6739C161.425 44.6739 160.805 44.4183 160.294 43.9117C159.792 43.4052 159.536 42.7897 159.532 42.0701C159.536 41.8192 159.702 41.663 159.939 41.663H160.474C160.711 41.663 160.872 41.8192 160.881 42.0607C160.881 42.411 161.004 42.7092 161.255 42.9554C161.757 43.4572 162.538 43.462 163.049 42.9554C163.3 42.714 163.423 42.4157 163.423 42.0607V41.7766C163.423 41.5541 163.343 41.3647 163.187 41.2085C163.03 41.0523 162.836 40.9671 162.614 40.9671H161.7C161.113 40.9671 160.597 40.7588 160.18 40.3374C159.759 39.9161 159.546 39.4048 159.546 38.8083V38.529C159.546 37.8046 159.802 37.1845 160.308 36.6684C160.824 36.1619 161.444 35.9062 162.159 35.9062C162.874 35.9062 163.49 36.1619 164.006 36.6779C164.522 37.1939 164.768 37.8141 164.768 38.529C164.768 38.7704 164.607 38.9361 164.361 38.9361H163.826C163.584 38.9361 163.418 38.7751 163.418 38.5384C163.418 38.1739 163.295 37.8804 163.044 37.6247C162.543 37.1324 161.752 37.1324 161.25 37.6247C160.999 37.8757 160.876 38.1739 160.876 38.529V38.8083C160.876 39.0308 160.957 39.2202 161.113 39.3811C161.274 39.5421 161.463 39.6178 161.686 39.6178H162.599C163.196 39.6178 163.707 39.8356 164.119 40.2522L164.124 40.2617Z" fill="#002F87"/>
<path d="M174.307 36.3279V44.2765C174.307 44.518 174.146 44.6837 173.895 44.6837H173.37C173.128 44.6837 172.958 44.5227 172.958 44.2765V40.8869H170.117V44.2765C170.117 44.518 169.947 44.6837 169.705 44.6837H169.185C168.934 44.6837 168.773 44.5227 168.773 44.2765V36.3279C168.773 36.0865 168.934 35.916 169.185 35.916H169.705C169.947 35.916 170.117 36.0865 170.117 36.3279V39.5424H172.958V36.3279C172.958 36.0865 173.128 35.916 173.37 35.916H173.895C174.146 35.916 174.307 36.0865 174.307 36.3279Z" fill="#002F87"/>
<path d="M179.889 36.3271V44.2804C179.889 44.5172 179.728 44.6781 179.491 44.6781H178.951C178.71 44.6781 178.544 44.5172 178.544 44.2804V36.3271C178.544 36.0856 178.705 35.9199 178.951 35.9199H179.491C179.728 35.9199 179.889 36.0809 179.889 36.3271Z" fill="#002F87"/>
<path d="M235.496 5.2247V34.3398C235.496 34.3682 235.496 34.3871 235.491 34.4155C235.491 34.4913 235.491 34.5528 235.487 34.6001C235.482 34.6475 235.472 34.6948 235.468 34.7232C235.463 34.7753 235.453 34.8321 235.449 34.8605C235.444 34.9079 235.43 34.9599 235.42 35.0073L235.406 35.0499L235.387 35.1256C235.373 35.1777 235.354 35.2345 235.34 35.2819L235.292 35.405C235.273 35.457 235.245 35.5044 235.231 35.547C235.212 35.5801 235.198 35.6133 235.179 35.6464C235.16 35.6795 235.136 35.7221 235.103 35.7742V35.7884L235.089 35.8026C235.075 35.8216 235.06 35.8452 235.046 35.8689C235.013 35.921 234.98 35.9683 234.923 36.0299L234.895 36.0725L234.881 36.0914C234.819 36.1672 234.757 36.2382 234.691 36.2997L227.415 43.6803C226.908 44.201 226.203 44.4993 225.478 44.4993C224.754 44.4993 224.044 44.201 223.537 43.6803L216.261 36.2997L216.228 36.2666L216.214 36.2524C216.166 36.2003 216.124 36.153 216.086 36.0961C216.053 36.063 216.024 36.0299 215.996 35.9873C215.977 35.9541 215.949 35.9257 215.92 35.8784C215.892 35.8452 215.873 35.8121 215.844 35.7648L215.83 35.7364V35.7221C215.802 35.6937 215.788 35.6701 215.778 35.6417C215.759 35.6085 215.745 35.5801 215.717 35.5186V35.5044L215.698 35.4712L215.684 35.4428L215.669 35.4097L215.655 35.3813C215.641 35.3481 215.627 35.3055 215.608 35.2582V35.2156C215.589 35.1872 215.579 35.1635 215.575 35.1351C215.56 35.1067 215.556 35.0736 215.546 35.0357L215.532 34.9931V34.9647C215.518 34.9363 215.513 34.9031 215.499 34.8511C215.494 34.8084 215.485 34.7611 215.485 34.728C215.48 34.6854 215.47 34.638 215.466 34.5859C215.461 34.5055 215.452 34.4155 215.452 34.3303V5.21996C215.452 2.61617 217.549 0.5 220.119 0.5H220.929V6.03423L220.924 33.1941L225.474 37.8052L230.014 33.1941V0.5H230.823C233.394 0.5 235.491 2.61617 235.491 5.21996L235.496 5.2247Z" fill="#002F87"/>
<path d="M260 28.3469V34.3404C260 35.0789 259.716 35.7653 259.2 36.2861L251.924 43.6714C251.403 44.1969 250.712 44.4904 249.983 44.4904C249.253 44.4904 248.562 44.2016 248.042 43.6714L240.765 36.2861C240.249 35.7653 239.965 35.0742 239.965 34.3404V28.3469C239.965 25.7431 242.053 23.627 244.623 23.627H245.433V33.1994L249.978 37.8105L254.523 33.1994V23.627H255.332C257.903 23.627 259.991 25.7431 259.991 28.3469H260Z" fill="#8C8C8A"/>
<path d="M210.987 28.3469V34.3404C210.987 35.0789 210.703 35.7653 210.187 36.2861L202.911 43.6714C202.39 44.1969 201.699 44.4904 200.97 44.4904C200.241 44.4904 199.55 44.2016 199.029 43.6714L191.752 36.2861C191.236 35.7653 190.952 35.0742 190.952 34.3404V28.3469C190.952 25.7431 193.04 23.627 195.611 23.627H196.42V33.1994L200.965 37.8105L205.51 33.1994V23.627H206.319C208.89 23.627 210.978 25.7431 210.978 28.3469H210.987Z" fill="#8C8C8A"/>
<path d="M0.156102 51.3388C0.156102 51.2725 0.18924 51.2441 0.250784 51.2441H0.918302C0.984581 51.2441 1.01298 51.2773 1.01298 51.3388V56.9062C1.01298 56.9441 1.03192 56.963 1.0698 56.963H4.1754C4.23695 56.963 4.27009 56.9962 4.27009 57.0577V57.6637C4.27009 57.7299 4.23695 57.7583 4.1754 57.7583H0.246053C0.179774 57.7583 0.151367 57.7252 0.151367 57.6637V51.3388H0.156102Z" fill="#8C8C8A"/>
<path d="M8.07162 57.7641C8.01008 57.7641 7.97693 57.731 7.97693 57.6694V57.267H7.96747C7.85858 57.4375 7.69289 57.5842 7.47038 57.6978C7.24787 57.8115 6.95909 57.873 6.60876 57.873C6.39099 57.873 6.18742 57.8446 5.99806 57.7878C5.80869 57.731 5.64773 57.641 5.51044 57.5274C5.37315 57.4138 5.26426 57.267 5.18378 57.0966C5.1033 56.9214 5.06543 56.7226 5.06543 56.4906C5.06543 56.003 5.22166 55.6432 5.53885 55.416C5.85603 55.184 6.29631 55.0704 6.85494 55.0704H7.90119C7.93906 55.0704 7.958 55.0514 7.958 55.0136V54.6822C7.958 54.365 7.88225 54.1378 7.72602 53.9957C7.5698 53.8537 7.28102 53.7874 6.85494 53.7874C6.59456 53.7874 6.37679 53.8158 6.20162 53.8774C6.0312 53.9389 5.87497 54.0147 5.74241 54.1141C5.6856 54.1567 5.63826 54.1567 5.60986 54.1046L5.34948 53.6643C5.32581 53.6123 5.33054 53.5697 5.36842 53.5318C5.53885 53.3992 5.75662 53.2903 6.02173 53.2051C6.28211 53.1246 6.58509 53.082 6.93069 53.082C7.584 53.082 8.04321 53.2004 8.31306 53.4418C8.58291 53.6833 8.7202 54.0809 8.7202 54.6443V57.6836C8.7202 57.7499 8.68706 57.7783 8.62552 57.7783H8.06688L8.07162 57.7641ZM6.79339 57.1771C7.15793 57.1771 7.44198 57.1013 7.65028 56.9404C7.85385 56.7842 7.958 56.5616 7.958 56.2729V55.7663C7.958 55.7284 7.93906 55.7095 7.90119 55.7095H6.97803C6.57562 55.7095 6.28211 55.771 6.10221 55.8847C5.92231 56.003 5.83236 56.1924 5.83236 56.4575C5.83236 56.6942 5.91758 56.8741 6.08327 56.9925C6.24897 57.1155 6.48568 57.1771 6.79813 57.1771H6.79339Z" fill="#8C8C8A"/>
<path d="M14.1975 57.7632C14.1407 57.7632 14.1028 57.73 14.0839 57.6685L13.0471 54.383H13.0282L11.9819 57.6685C11.963 57.7348 11.9251 57.7632 11.8683 57.7632H11.3144C11.2576 57.7632 11.2197 57.73 11.2008 57.6685L9.7616 53.2705C9.74266 53.2089 9.7616 53.1758 9.82788 53.1758H10.4812C10.538 53.1758 10.5806 53.2089 10.6043 53.2705L11.6221 56.5844H11.6411L12.6778 53.2705C12.6968 53.2089 12.7347 53.1758 12.7915 53.1758H13.2885C13.3548 53.1758 13.3927 53.2089 13.4116 53.2705L14.4579 56.5844H14.4768L15.4663 53.2705C15.4805 53.2089 15.5183 53.1758 15.5893 53.1758H16.2427C16.3042 53.1758 16.3279 53.2089 16.3089 53.2705L14.8603 57.6685C14.8414 57.7348 14.8035 57.7632 14.7467 57.7632H14.2022H14.1975Z" fill="#8C8C8A"/>
<path d="M17.4263 59.4875C17.36 59.4875 17.3316 59.4544 17.3316 59.3929V58.839C17.3316 58.7727 17.3648 58.7443 17.4263 58.7443H17.5967C17.7814 58.7443 17.9329 58.6969 18.0465 58.5975C18.1601 58.4981 18.269 58.3182 18.3731 58.0578L18.5246 57.6365L16.8393 53.2763C16.8203 53.2148 16.844 53.1816 16.915 53.1816H17.5873C17.6441 53.1816 17.6819 53.2148 17.7009 53.2763L18.9081 56.5902H18.927L20.0869 53.2763C20.1058 53.2148 20.1437 53.1816 20.2005 53.1816H20.8538C20.9248 53.1816 20.9485 53.2148 20.9296 53.2763L19.1164 58.1241C19.0122 58.394 18.9128 58.6164 18.8134 58.7963C18.714 58.9762 18.6098 59.1183 18.4962 59.2177C18.3826 59.3218 18.2595 59.3928 18.127 59.4307C17.9944 59.4686 17.8382 59.4923 17.6677 59.4923H17.4168L17.4263 59.4875Z" fill="#8C8C8A"/>
<path d="M23.6044 57.8669C23.1357 57.8669 22.7475 57.758 22.4303 57.5449C22.1131 57.3319 21.8906 57.0242 21.7628 56.6218C21.7107 56.475 21.6729 56.314 21.6492 56.1341C21.6255 55.9542 21.6113 55.7317 21.6113 55.4619C21.6113 55.192 21.6208 54.9695 21.6445 54.7849C21.6681 54.6003 21.7013 54.4393 21.7534 54.302C21.8812 53.8996 22.1037 53.5919 22.4209 53.3836C22.7381 53.1753 23.1168 53.0664 23.5571 53.0664C23.9973 53.0664 24.3761 53.1753 24.6933 53.3883C25.0105 53.6014 25.233 53.9091 25.3608 54.302C25.3845 54.3778 25.4081 54.4583 25.4223 54.5387C25.4365 54.6192 25.4507 54.7092 25.4649 54.8133C25.4791 54.9175 25.4886 55.0311 25.4933 55.1636C25.4981 55.2962 25.5028 55.4477 25.5028 55.6181C25.5028 55.6844 25.4697 55.7128 25.3987 55.7128H22.4966C22.4587 55.7128 22.4398 55.7317 22.4398 55.7696C22.4398 55.8974 22.4445 56.0016 22.4587 56.0868C22.4729 56.172 22.4919 56.2478 22.5156 56.3282C22.6055 56.5981 22.7475 56.7969 22.9464 56.9248C23.1452 57.0573 23.3866 57.1236 23.6754 57.1236C23.9642 57.1236 24.182 57.0762 24.3761 56.9816C24.5702 56.8869 24.7264 56.7638 24.8542 56.617C24.9063 56.5649 24.9536 56.5602 24.9962 56.5981L25.3892 56.9532C25.4318 56.991 25.4365 57.0384 25.3987 57.0857C25.214 57.3177 24.9678 57.5023 24.6649 57.6491C24.3619 57.7958 24.0068 57.8716 23.6044 57.8716V57.8669ZM24.6223 55.0595C24.6601 55.0595 24.6791 55.0405 24.6791 55.0027C24.6791 54.7944 24.6554 54.6239 24.6128 54.4867C24.537 54.2594 24.4045 54.0843 24.2246 53.9612C24.0447 53.8381 23.8222 53.7765 23.5571 53.7765C23.292 53.7765 23.0742 53.8381 22.8895 53.9612C22.7049 54.0843 22.5771 54.2594 22.5013 54.4867C22.4587 54.6192 22.4351 54.7896 22.4351 55.0027C22.4351 55.0405 22.454 55.0595 22.4919 55.0595H24.6175H24.6223Z" fill="#8C8C8A"/>
<path d="M26.8947 57.7638C26.8285 57.7638 26.8 57.7307 26.8 57.6691V53.2711C26.8 53.2096 26.8332 53.1764 26.8947 53.1764H27.5102C27.5717 53.1764 27.6049 53.2096 27.6049 53.2711V53.7398H27.6143C27.7185 53.5409 27.87 53.38 28.0688 53.2569C28.2724 53.1338 28.5233 53.0723 28.831 53.0723C29.0156 53.0723 29.1908 53.1054 29.3518 53.1622C29.5127 53.2238 29.6547 53.309 29.7684 53.4179C29.811 53.4605 29.8204 53.5078 29.7873 53.5504L29.4322 54.0191C29.3944 54.0712 29.347 54.0759 29.2997 54.038C29.1908 53.967 29.0772 53.915 28.9636 53.8771C28.8499 53.8392 28.7221 53.8203 28.5896 53.8203C28.2392 53.8203 27.9836 53.9434 27.8321 54.1895C27.6806 54.4357 27.6001 54.7576 27.6001 55.16V57.6691C27.6001 57.7354 27.567 57.7638 27.5054 57.7638H26.89H26.8947Z" fill="#8C8C8A"/>
<path d="M32.2299 57.8669C32.0074 57.8669 31.7991 57.8479 31.605 57.8053C31.4156 57.7627 31.2405 57.7106 31.0842 57.6443C30.928 57.5781 30.786 57.5023 30.6629 57.4218C30.5398 57.3414 30.4262 57.2609 30.3315 57.1757C30.2889 57.1331 30.2889 57.0857 30.3315 57.0431L30.7245 56.6218C30.7671 56.5792 30.8144 56.5792 30.857 56.6218C31.0274 56.7685 31.2405 56.8916 31.4867 56.9958C31.7328 57.0999 31.9979 57.1473 32.2773 57.1473C32.6181 57.1473 32.869 57.081 33.0347 56.9532C33.2004 56.8253 33.2856 56.6549 33.2856 56.4513C33.2856 56.2714 33.2241 56.1294 33.1105 56.0253C32.9921 55.9211 32.7554 55.8454 32.3956 55.8075L31.908 55.7601C31.4535 55.7081 31.1127 55.5755 30.8807 55.3577C30.6487 55.14 30.5351 54.8417 30.5351 54.4677C30.5351 54.0275 30.6818 53.6818 30.9801 53.4357C31.2783 53.1895 31.695 53.0664 32.2394 53.0664C32.5802 53.0664 32.888 53.1138 33.1625 53.2084C33.4419 53.3031 33.6738 53.4262 33.8679 53.573C33.92 53.6061 33.9247 53.6487 33.8869 53.7055L33.5602 54.1174C33.5223 54.16 33.475 54.1695 33.4277 54.1363C33.2809 54.0416 33.0963 53.9517 32.8785 53.876C32.656 53.8002 32.4288 53.7623 32.192 53.7623C31.9033 53.7623 31.6855 53.8191 31.5387 53.9375C31.392 54.0558 31.3162 54.2073 31.3162 54.392C31.3162 54.5766 31.3825 54.7186 31.5103 54.8181C31.6381 54.9175 31.8749 54.9837 32.2204 55.0122L32.7033 55.0595C33.172 55.1021 33.5176 55.2394 33.7448 55.4619C33.9721 55.6844 34.0857 55.9826 34.0857 56.3519C34.0857 56.8064 33.9247 57.1709 33.6076 57.4455C33.2904 57.7201 32.8264 57.8574 32.2299 57.8574V57.8669Z" fill="#8C8C8A"/>
<path d="M40.4249 57.7641C40.3634 57.7641 40.3302 57.731 40.3302 57.6694V57.267H40.3207C40.2119 57.4375 40.0462 57.5842 39.8237 57.6978C39.6011 57.8115 39.3124 57.873 38.962 57.873C38.7443 57.873 38.5407 57.8446 38.3513 57.7878C38.162 57.731 38.001 57.641 37.8637 57.5274C37.7264 57.4138 37.6175 57.267 37.5371 57.0966C37.4566 56.9214 37.4187 56.7226 37.4187 56.4906C37.4187 56.003 37.5749 55.6432 37.8921 55.416C38.2093 55.184 38.6496 55.0704 39.2082 55.0704H40.2545C40.2923 55.0704 40.3113 55.0514 40.3113 55.0136V54.6822C40.3113 54.365 40.2355 54.1378 40.0793 53.9957C39.9231 53.8537 39.6343 53.7874 39.2082 53.7874C38.9478 53.7874 38.7301 53.8158 38.5549 53.8774C38.3845 53.9389 38.2282 54.0147 38.0957 54.1141C38.0389 54.1567 37.9915 54.1567 37.9631 54.1046L37.7028 53.6643C37.6791 53.6123 37.6838 53.5697 37.7217 53.5318C37.8921 53.3992 38.1099 53.2903 38.375 53.2051C38.6354 53.1246 38.9384 53.082 39.284 53.082C39.9373 53.082 40.3965 53.2004 40.6663 53.4418C40.9362 53.6833 41.0735 54.0809 41.0735 54.6443V57.6836C41.0735 57.7499 41.0403 57.7783 40.9788 57.7783H40.4202L40.4249 57.7641ZM39.1467 57.1771C39.5112 57.1771 39.7953 57.1013 40.0036 56.9404C40.2071 56.7842 40.3113 56.5616 40.3113 56.2729V55.7663C40.3113 55.7284 40.2923 55.7095 40.2545 55.7095H39.3313C38.9289 55.7095 38.6354 55.771 38.4555 55.8847C38.2756 56.003 38.1856 56.1924 38.1856 56.4575C38.1856 56.6942 38.2708 56.8741 38.4365 56.9925C38.6022 57.1155 38.839 57.1771 39.1514 57.1771H39.1467Z" fill="#8C8C8A"/>
<path d="M45.5992 57.7627C45.5377 57.7627 45.5045 57.7296 45.5045 57.668V54.9837C45.5045 54.6145 45.4193 54.3257 45.2489 54.1221C45.0785 53.9186 44.8228 53.8144 44.4772 53.8144C44.1648 53.8144 43.9091 53.9138 43.715 54.1174C43.5209 54.321 43.4215 54.5908 43.4215 54.9364V57.668C43.4215 57.7343 43.3884 57.7627 43.3268 57.7627H42.7114C42.6451 57.7627 42.6167 57.7296 42.6167 57.668V53.27C42.6167 53.2084 42.6498 53.1753 42.7114 53.1753H43.3268C43.3884 53.1753 43.4215 53.2084 43.4215 53.27V53.6913H43.431C43.5399 53.5114 43.7008 53.3647 43.9186 53.2463C44.1364 53.128 44.4015 53.0664 44.7139 53.0664C45.211 53.0664 45.604 53.2226 45.8833 53.5351C46.1626 53.8476 46.3046 54.2689 46.3046 54.7896V57.6633C46.3046 57.7296 46.2715 57.758 46.2099 57.758H45.5945L45.5992 57.7627Z" fill="#8C8C8A"/>
<path d="M50.7075 57.7642C50.6413 57.7642 50.6129 57.7311 50.6129 57.6695V57.2292H50.6034C50.4945 57.4139 50.3383 57.5701 50.13 57.6885C49.9217 57.8115 49.6471 57.8731 49.3015 57.8731C48.8991 57.8731 48.563 57.7784 48.2931 57.5938C48.0233 57.4091 47.8339 57.1346 47.7203 56.77C47.6587 56.5854 47.6114 56.3913 47.5925 56.1925C47.5688 55.9936 47.5593 55.7522 47.5593 55.4634C47.5593 55.1746 47.5688 54.9332 47.5925 54.7391C47.6161 54.545 47.6587 54.3556 47.7203 54.171C47.8339 53.8065 48.028 53.5319 48.2931 53.3472C48.563 53.1626 48.8991 53.0679 49.3015 53.0679C49.6471 53.0679 49.9217 53.1295 50.13 53.2478C50.3383 53.3662 50.4945 53.5177 50.6034 53.7023H50.6129V51.3447C50.6129 51.2784 50.646 51.25 50.7075 51.25H51.323C51.3845 51.25 51.4177 51.2831 51.4177 51.3447V57.6695C51.4177 57.7358 51.3845 57.7642 51.323 57.7642H50.7075ZM49.4909 57.1204C50.0164 57.1204 50.3525 56.8884 50.5087 56.4197C50.5466 56.3108 50.575 56.183 50.5892 56.0315C50.6034 55.88 50.6129 55.6906 50.6129 55.4634C50.6129 55.2362 50.6034 55.0468 50.5892 54.9C50.575 54.7533 50.5466 54.6207 50.5087 54.5071C50.3572 54.0479 50.0164 53.8159 49.4909 53.8159C48.9654 53.8159 48.6434 54.0479 48.4825 54.5071C48.4446 54.6349 48.4162 54.777 48.402 54.9285C48.3878 55.0799 48.3783 55.2598 48.3783 55.4634C48.3783 55.667 48.3878 55.8563 48.402 56.0078C48.4162 56.1593 48.4446 56.2966 48.4825 56.4197C48.6434 56.8837 48.9796 57.1204 49.4909 57.1204Z" fill="#8C8C8A"/>
<path d="M55.2476 56.3329C55.2144 56.2382 55.1908 56.1388 55.1671 56.0393C55.1434 55.9399 55.1292 55.8216 55.115 55.6843C55.1008 55.547 55.0914 55.3813 55.0866 55.1919C55.0819 54.9978 55.0771 54.7706 55.0771 54.5007C55.0771 54.2309 55.0772 54.0037 55.0866 53.8096C55.0961 53.6155 55.1008 53.4545 55.115 53.3172C55.1292 53.1799 55.1434 53.0616 55.1671 52.9621C55.1908 52.8627 55.2144 52.768 55.2476 52.6686C55.4133 52.1526 55.6831 51.7644 56.0524 51.5135C56.4216 51.2626 56.8761 51.1348 57.4111 51.1348C57.8987 51.1348 58.32 51.2484 58.6798 51.4756C59.0396 51.7029 59.3142 52.0248 59.4989 52.4509C59.5178 52.5077 59.5036 52.5503 59.461 52.574L58.8834 52.8533C58.8219 52.8864 58.7745 52.8675 58.7509 52.8059C58.623 52.5503 58.4526 52.342 58.2443 52.1763C58.0313 52.0153 57.7567 51.9301 57.4111 51.9301C57.0655 51.9301 56.7672 52.0153 56.5495 52.181C56.3317 52.3467 56.1707 52.5834 56.0619 52.8911C56.0429 52.9621 56.024 53.0379 56.0098 53.1184C55.9956 53.1989 55.9814 53.2983 55.9719 53.4166C55.9624 53.535 55.953 53.6817 55.9482 53.8569C55.9435 54.0321 55.9388 54.2498 55.9388 54.5055C55.9388 54.7611 55.9388 54.9742 55.9482 55.1541C55.953 55.3292 55.9624 55.476 55.9719 55.5943C55.9814 55.7127 55.9956 55.8121 56.0098 55.8973C56.024 55.9825 56.0429 56.0536 56.0619 56.1151C56.1707 56.4228 56.3317 56.6595 56.5495 56.8252C56.7672 56.9909 57.056 57.0761 57.4111 57.0761C57.7661 57.0761 58.036 56.9957 58.2443 56.83C58.4573 56.669 58.623 56.456 58.7509 56.2003C58.7745 56.134 58.8219 56.1198 58.8834 56.153L59.461 56.4323C59.5036 56.456 59.5178 56.4986 59.4989 56.5554C59.3142 56.9767 59.0396 57.3034 58.6798 57.5306C58.32 57.7579 57.894 57.8715 57.4111 57.8715C56.8761 57.8715 56.4216 57.7436 56.0524 57.4927C55.6831 57.2418 55.4133 56.8584 55.2476 56.3376V56.3329Z" fill="#8C8C8A"/>
<path d="M62.4007 57.8669C61.951 57.8669 61.5722 57.758 61.255 57.5402C60.9379 57.3224 60.7154 57.0194 60.5875 56.6312C60.5355 56.4703 60.4976 56.3046 60.4739 56.1294C60.4502 55.9542 60.436 55.7317 60.436 55.4619C60.436 55.192 60.4502 54.9743 60.4739 54.7991C60.4976 54.6239 60.5355 54.4583 60.5875 54.302C60.7154 53.9044 60.9379 53.6014 61.255 53.3883C61.5722 53.1753 61.951 53.0664 62.4007 53.0664C62.8505 53.0664 63.2292 53.1753 63.5464 53.3883C63.8636 53.6014 64.0861 53.9091 64.2139 54.302C64.266 54.463 64.3038 54.6287 64.3275 54.7991C64.3512 54.9695 64.3654 55.192 64.3654 55.4619C64.3654 55.7317 64.3512 55.9542 64.3275 56.1294C64.3038 56.3046 64.266 56.475 64.2139 56.6312C64.0861 57.0194 63.8636 57.3224 63.5464 57.5402C63.2292 57.758 62.8505 57.8669 62.4007 57.8669ZM62.4007 57.1188C62.6564 57.1188 62.8741 57.0573 63.054 56.9342C63.2339 56.8111 63.3618 56.6312 63.4375 56.404C63.4754 56.2762 63.5038 56.1436 63.518 56.0063C63.5322 55.869 63.5416 55.6891 63.5416 55.4666C63.5416 55.2441 63.5322 55.0642 63.518 54.9317C63.5038 54.7991 63.4754 54.6666 63.4375 54.5387C63.3618 54.3068 63.2339 54.1316 63.054 54.0085C62.8741 53.8854 62.6564 53.8239 62.4007 53.8239C62.1451 53.8239 61.9273 53.8854 61.7474 54.0085C61.5675 54.1316 61.4397 54.3115 61.3639 54.5387C61.3261 54.6666 61.2977 54.7991 61.2835 54.9317C61.2693 55.0642 61.2598 55.2441 61.2598 55.4666C61.2598 55.6891 61.2693 55.869 61.2835 56.0063C61.2977 56.1436 61.3261 56.2762 61.3639 56.404C61.4397 56.636 61.5675 56.8111 61.7474 56.9342C61.9273 57.0573 62.1451 57.1188 62.4007 57.1188Z" fill="#8C8C8A"/>
<path d="M68.6356 57.7627C68.5741 57.7627 68.5409 57.7296 68.5409 57.668V54.9837C68.5409 54.6145 68.4557 54.3257 68.2853 54.1221C68.1148 53.9186 67.8592 53.8144 67.5136 53.8144C67.2011 53.8144 66.9455 53.9138 66.7514 54.1174C66.5573 54.321 66.4579 54.5908 66.4579 54.9364V57.668C66.4579 57.7343 66.4247 57.7627 66.3632 57.7627H65.7478C65.6815 57.7627 65.6531 57.7296 65.6531 57.668V53.27C65.6531 53.2084 65.6862 53.1753 65.7478 53.1753H66.3632C66.4247 53.1753 66.4579 53.2084 66.4579 53.27V53.6913H66.4674C66.5762 53.5114 66.7372 53.3647 66.955 53.2463C67.1727 53.128 67.4379 53.0664 67.7503 53.0664C68.2474 53.0664 68.6403 53.2226 68.9196 53.5351C69.199 53.8476 69.341 54.2689 69.341 54.7896V57.6633C69.341 57.7296 69.3078 57.758 69.2463 57.758H68.6309L68.6356 57.7627Z" fill="#8C8C8A"/>
<path d="M72.4513 57.8669C72.2288 57.8669 72.0205 57.8479 71.8264 57.8053C71.6371 57.7627 71.4619 57.7106 71.3057 57.6443C71.1495 57.5781 71.0074 57.5023 70.8843 57.4218C70.7613 57.3414 70.6476 57.2609 70.553 57.1757C70.5103 57.1331 70.5103 57.0857 70.553 57.0431L70.9459 56.6218C70.9885 56.5792 71.0358 56.5792 71.0784 56.6218C71.2489 56.7685 71.4619 56.8916 71.7081 56.9958C71.9543 57.0999 72.2194 57.1473 72.4987 57.1473C72.8396 57.1473 73.0905 57.081 73.2562 56.9532C73.4218 56.8253 73.5071 56.6549 73.5071 56.4513C73.5071 56.2714 73.4455 56.1294 73.3319 56.0253C73.2135 55.9211 72.9768 55.8454 72.617 55.8075L72.1294 55.7601C71.6749 55.7081 71.3341 55.5755 71.1021 55.3577C70.8701 55.14 70.7565 54.8417 70.7565 54.4677C70.7565 54.0275 70.9033 53.6818 71.2015 53.4357C71.4998 53.1895 71.9164 53.0664 72.4608 53.0664C72.8017 53.0664 73.1094 53.1138 73.384 53.2084C73.6633 53.3031 73.8953 53.4262 74.0894 53.573C74.1414 53.6061 74.1462 53.6487 74.1083 53.7055L73.7816 54.1174C73.7438 54.16 73.6964 54.1695 73.6491 54.1363C73.5023 54.0416 73.3177 53.9517 73.0999 53.876C72.8774 53.8002 72.6502 53.7623 72.4135 53.7623C72.1247 53.7623 71.9069 53.8191 71.7602 53.9375C71.6134 54.0558 71.5377 54.2073 71.5377 54.392C71.5377 54.5766 71.6039 54.7186 71.7318 54.8181C71.8596 54.9175 72.0963 54.9837 72.4419 55.0122L72.9248 55.0595C73.3934 55.1021 73.739 55.2394 73.9663 55.4619C74.1935 55.6844 74.3071 55.9826 74.3071 56.3519C74.3071 56.8064 74.1462 57.1709 73.829 57.4455C73.5118 57.7201 73.0479 57.8574 72.4513 57.8574V57.8669Z" fill="#8C8C8A"/>
<path d="M78.4496 57.7643C78.3833 57.7643 78.3549 57.7312 78.3549 57.6696V57.2388H78.3455C78.2224 57.4282 78.0614 57.5844 77.8531 57.698C77.6448 57.8116 77.3939 57.8732 77.0909 57.8732C76.5844 57.8732 76.1962 57.717 75.9169 57.3998C75.6375 57.0826 75.5002 56.666 75.5002 56.1405V53.2763C75.5002 53.2148 75.5334 53.1816 75.5949 53.1816H76.2104C76.2719 53.1816 76.305 53.2148 76.305 53.2763V55.9511C76.305 56.3298 76.3903 56.6186 76.556 56.8222C76.7217 57.0258 76.9773 57.1299 77.3229 57.1299C77.6353 57.1299 77.8863 57.0258 78.0756 56.8222C78.265 56.6186 78.3597 56.3441 78.3597 55.9985V53.2763C78.3597 53.2148 78.3928 53.1816 78.4544 53.1816H79.0698C79.1313 53.1816 79.1645 53.2148 79.1645 53.2763V57.6744C79.1645 57.7406 79.1313 57.769 79.0698 57.769H78.4544L78.4496 57.7643Z" fill="#8C8C8A"/>
<path d="M81.8346 57.8116C81.4322 57.8116 81.1435 57.7121 80.973 57.518C80.8026 57.3239 80.7126 57.0162 80.7126 56.6043V51.3447C80.7126 51.2784 80.7458 51.25 80.8073 51.25H81.4228C81.4843 51.25 81.5175 51.2831 81.5175 51.3447V56.557C81.5175 56.7464 81.5553 56.8837 81.6263 56.9547C81.6974 57.0257 81.8157 57.0635 81.9767 57.0635H82.1566C82.2181 57.0635 82.2512 57.0967 82.2512 57.1582V57.7121C82.2512 57.7784 82.2181 57.8068 82.1566 57.8068H81.8299L81.8346 57.8116Z" fill="#8C8C8A"/>
<path d="M84.6702 57.81C84.2252 57.81 83.9033 57.7058 83.7187 57.4975C83.5293 57.2892 83.4346 56.9578 83.4346 56.5033V53.8759C83.4346 53.838 83.4157 53.8191 83.3778 53.8191H82.9943C82.9281 53.8191 82.8997 53.7859 82.8997 53.7244V53.2652C82.8997 53.2036 82.9328 53.1705 82.9943 53.1705H83.3778C83.4157 53.1705 83.4346 53.1515 83.4346 53.1137V51.8213C83.4346 51.7597 83.4678 51.7266 83.5293 51.7266H84.1447C84.2063 51.7266 84.2394 51.7597 84.2394 51.8213V53.1137C84.2394 53.1515 84.2584 53.1705 84.2962 53.1705H85.0253C85.0868 53.1705 85.12 53.2036 85.12 53.2652V53.7244C85.12 53.7859 85.0868 53.8191 85.0253 53.8191H84.2962C84.2584 53.8191 84.2394 53.838 84.2394 53.8759V56.4749C84.2394 56.7069 84.2868 56.8584 84.3767 56.9389C84.4714 57.0194 84.6182 57.0572 84.8217 57.0572H85.0253C85.0868 57.0572 85.12 57.0904 85.12 57.1519V57.7058C85.12 57.7721 85.0868 57.8005 85.0253 57.8005H84.6702V57.81Z" fill="#8C8C8A"/>
<path d="M89.1441 57.7641C89.0826 57.7641 89.0494 57.731 89.0494 57.6694V57.267H89.04C88.9311 57.4375 88.7654 57.5842 88.5429 57.6978C88.3204 57.8115 88.0316 57.873 87.6813 57.873C87.4635 57.873 87.2599 57.8446 87.0706 57.7878C86.8812 57.731 86.7202 57.641 86.583 57.5274C86.4457 57.4138 86.3368 57.267 86.2563 57.0966C86.1758 56.9214 86.1379 56.7226 86.1379 56.4906C86.1379 56.003 86.2942 55.6432 86.6114 55.416C86.9285 55.184 87.3688 55.0704 87.9275 55.0704H88.9737C89.0116 55.0704 89.0305 55.0514 89.0305 55.0136V54.6822C89.0305 54.365 88.9548 54.1378 88.7985 53.9957C88.6423 53.8537 88.3535 53.7874 87.9275 53.7874C87.6671 53.7874 87.4493 53.8158 87.2741 53.8774C87.1037 53.9389 86.9475 54.0147 86.8149 54.1141C86.7581 54.1567 86.7108 54.1567 86.6824 54.1046L86.422 53.6643C86.3983 53.6123 86.403 53.5697 86.4409 53.5318C86.6113 53.3992 86.8291 53.2903 87.0942 53.2051C87.3546 53.1246 87.6576 53.082 88.0032 53.082C88.6565 53.082 89.1157 53.2004 89.3856 53.4418C89.6554 53.6833 89.7927 54.0809 89.7927 54.6443V57.6836C89.7927 57.7499 89.7596 57.7783 89.698 57.7783H89.1394L89.1441 57.7641ZM87.8659 57.1771C88.2304 57.1771 88.5145 57.1013 88.7228 56.9404C88.9264 56.7842 89.0305 56.5616 89.0305 56.2729V55.7663C89.0305 55.7284 89.0116 55.7095 88.9737 55.7095H88.0505C87.6481 55.7095 87.3546 55.771 87.1747 55.8847C86.9948 56.003 86.9049 56.1924 86.9049 56.4575C86.9049 56.6942 86.9901 56.8741 87.1558 56.9925C87.3215 57.1155 87.5582 57.1771 87.8706 57.1771H87.8659Z" fill="#8C8C8A"/>
<path d="M94.3185 57.7627C94.2569 57.7627 94.2238 57.7296 94.2238 57.668V54.9837C94.2238 54.6145 94.1386 54.3257 93.9681 54.1221C93.7977 53.9186 93.5421 53.8144 93.1965 53.8144C92.884 53.8144 92.6284 53.9138 92.4343 54.1174C92.2402 54.321 92.1407 54.5908 92.1407 54.9364V57.668C92.1407 57.7343 92.1076 57.7627 92.0461 57.7627H91.4306C91.3643 57.7627 91.3359 57.7296 91.3359 57.668V53.27C91.3359 53.2084 91.3691 53.1753 91.4306 53.1753H92.0461C92.1076 53.1753 92.1407 53.2084 92.1407 53.27V53.6913H92.1502C92.2591 53.5114 92.4201 53.3647 92.6378 53.2463C92.8556 53.128 93.1207 53.0664 93.4332 53.0664C93.9303 53.0664 94.3232 53.2226 94.6025 53.5351C94.8818 53.8476 95.0238 54.2689 95.0238 54.7896V57.6633C95.0238 57.7296 94.9907 57.758 94.9292 57.758H94.3137L94.3185 57.7627Z" fill="#8C8C8A"/>
<path d="M97.8834 57.81C97.4384 57.81 97.1164 57.7058 96.9318 57.4975C96.7424 57.2892 96.6477 56.9578 96.6477 56.5033V53.8759C96.6477 53.838 96.6288 53.8191 96.5909 53.8191H96.2075C96.1412 53.8191 96.1128 53.7859 96.1128 53.7244V53.2652C96.1128 53.2036 96.1459 53.1705 96.2075 53.1705H96.5909C96.6288 53.1705 96.6477 53.1515 96.6477 53.1137V51.8213C96.6477 51.7597 96.6809 51.7266 96.7424 51.7266H97.3579C97.4194 51.7266 97.4526 51.7597 97.4526 51.8213V53.1137C97.4526 53.1515 97.4715 53.1705 97.5094 53.1705H98.2384C98.3 53.1705 98.3331 53.2036 98.3331 53.2652V53.7244C98.3331 53.7859 98.3 53.8191 98.2384 53.8191H97.5094C97.4715 53.8191 97.4526 53.838 97.4526 53.8759V56.4749C97.4526 56.7069 97.4999 56.8584 97.5898 56.9389C97.6845 57.0194 97.8313 57.0572 98.0349 57.0572H98.2384C98.3 57.0572 98.3331 57.0904 98.3331 57.1519V57.7058C98.3331 57.7721 98.3 57.8005 98.2384 57.8005H97.8834V57.81Z" fill="#8C8C8A"/>
<path d="M101.164 57.8669C100.942 57.8669 100.733 57.8479 100.539 57.8053C100.35 57.7627 100.175 57.7106 100.019 57.6443C99.8623 57.5781 99.7203 57.5023 99.5972 57.4218C99.4741 57.3414 99.3605 57.2609 99.2658 57.1757C99.2232 57.1331 99.2232 57.0857 99.2658 57.0431L99.6588 56.6218C99.7014 56.5792 99.7487 56.5792 99.7913 56.6218C99.9618 56.7685 100.175 56.8916 100.421 56.9958C100.667 57.0999 100.932 57.1473 101.212 57.1473C101.552 57.1473 101.803 57.081 101.969 56.9532C102.135 56.8253 102.22 56.6549 102.22 56.4513C102.22 56.2714 102.158 56.1294 102.045 56.0253C101.926 55.9211 101.69 55.8454 101.33 55.8075L100.842 55.7601C100.388 55.7081 100.047 55.5755 99.815 55.3577C99.583 55.14 99.4694 54.8417 99.4694 54.4677C99.4694 54.0275 99.6162 53.6818 99.9144 53.4357C100.213 53.1895 100.629 53.0664 101.174 53.0664C101.515 53.0664 101.822 53.1138 102.097 53.2084C102.376 53.3031 102.608 53.4262 102.802 53.573C102.854 53.6061 102.859 53.6487 102.821 53.7055L102.495 54.1174C102.457 54.16 102.409 54.1695 102.362 54.1363C102.215 54.0416 102.031 53.9517 101.813 53.876C101.59 53.8002 101.363 53.7623 101.126 53.7623C100.838 53.7623 100.62 53.8191 100.473 53.9375C100.326 54.0558 100.251 54.2073 100.251 54.392C100.251 54.5766 100.317 54.7186 100.445 54.8181C100.572 54.9175 100.809 54.9837 101.155 55.0122L101.638 55.0595C102.106 55.1021 102.452 55.2394 102.679 55.4619C102.906 55.6844 103.02 55.9826 103.02 56.3519C103.02 56.8064 102.859 57.1709 102.542 57.4455C102.225 57.7201 101.761 57.8574 101.164 57.8574V57.8669Z" fill="#8C8C8A"/>
<path d="M106.845 55.604C106.869 55.5614 106.916 55.5566 106.978 55.5945L107.503 55.8833C107.555 55.9164 107.565 55.959 107.531 56.0064C107.418 56.1863 107.304 56.4041 107.2 56.6692C107.096 56.9343 107.044 57.2041 107.044 57.4929C107.044 57.7817 107.091 57.9947 107.181 58.1794C107.271 58.364 107.394 58.506 107.541 58.6102C107.688 58.7143 107.849 58.7901 108.019 58.8374C108.19 58.88 108.36 58.9037 108.526 58.9037C108.933 58.9037 109.269 58.7995 109.534 58.5865C109.799 58.3735 109.927 58.0326 109.927 57.5592V54.7613C109.927 54.695 109.96 54.6666 110.022 54.6666H110.637C110.699 54.6666 110.732 54.6998 110.732 54.7613V57.5687C110.732 58.2267 110.538 58.7427 110.154 59.112C109.766 59.4813 109.212 59.6659 108.483 59.6659C108.137 59.6659 107.825 59.6186 107.55 59.5286C107.271 59.4339 107.034 59.3014 106.84 59.1215C106.646 58.9416 106.495 58.7238 106.386 58.4634C106.277 58.203 106.225 57.9048 106.225 57.5687C106.225 57.1899 106.286 56.8301 106.409 56.4798C106.533 56.1295 106.679 55.8407 106.845 55.604ZM108.483 54.4252C108.421 54.4252 108.388 54.392 108.388 54.3305V53.6298C108.388 53.5636 108.421 53.5352 108.483 53.5352H109.136C109.203 53.5352 109.231 53.5683 109.231 53.6298V54.3305C109.231 54.3968 109.198 54.4252 109.136 54.4252H108.483Z" fill="#8C8C8A"/>
<path d="M112.701 59.6723C112.635 59.6723 112.607 59.6392 112.607 59.5776V59.0237C112.607 58.9574 112.64 58.929 112.701 58.929H113.852C113.979 58.929 114.098 58.9148 114.207 58.8864C114.316 58.858 114.41 58.8107 114.491 58.7444C114.571 58.6781 114.633 58.5835 114.675 58.4651C114.718 58.3467 114.742 58.2 114.742 58.0201V57.7692H113.714C113.435 57.7692 113.179 57.736 112.952 57.6697C112.725 57.6035 112.531 57.4946 112.375 57.3431C112.214 57.1916 112.095 56.9928 112.01 56.7466C111.925 56.4957 111.887 56.1927 111.887 55.8282C111.887 55.4636 111.934 55.1464 112.029 54.8766C112.124 54.6067 112.256 54.3795 112.427 54.2044C112.597 54.0292 112.791 53.8966 113.014 53.8114C113.236 53.7262 113.478 53.6836 113.733 53.6836C114.301 53.6836 114.746 53.8493 115.064 54.1759C115.381 54.5026 115.542 55.0376 115.542 55.7714V58.0059C115.542 58.3041 115.504 58.5598 115.423 58.7728C115.343 58.9859 115.234 59.1563 115.087 59.2888C114.945 59.4214 114.77 59.5208 114.566 59.5871C114.363 59.6534 114.136 59.6818 113.885 59.6818H112.697L112.701 59.6723ZM113.733 54.4174C113.407 54.4174 113.151 54.5452 112.966 54.8008C112.782 55.0565 112.687 55.3926 112.687 55.8187C112.687 56.2732 112.777 56.5856 112.962 56.7561C113.142 56.9265 113.411 57.0164 113.771 57.0164H114.737V55.7619C114.737 55.3405 114.656 55.0092 114.5 54.7724C114.344 54.5357 114.088 54.4174 113.729 54.4174H113.733Z" fill="#8C8C8A"/>
<path d="M116.266 59.6718C116.205 59.6718 116.171 59.6387 116.171 59.5771V59.0232C116.171 58.9569 116.205 58.9285 116.266 58.9285H116.489C117.005 58.9285 117.265 58.6587 117.265 58.1143V53.9482C117.265 53.8819 117.298 53.8535 117.36 53.8535H117.975C118.041 53.8535 118.07 53.8867 118.07 53.9482V58.0953C118.07 58.6114 117.937 59.0043 117.677 59.2741C117.416 59.544 117.033 59.6765 116.526 59.6765H116.266V59.6718Z" fill="#8C8C8A"/>
<path d="M119.362 51.3388C119.362 51.2725 119.395 51.2441 119.457 51.2441H120.072C120.134 51.2441 120.167 51.2773 120.167 51.3388V56.5038C120.167 56.6932 120.205 56.8304 120.276 56.9015C120.347 56.9772 120.465 57.0104 120.626 57.0104H121.048C121.303 57.0104 121.431 57.1382 121.431 57.3938C121.431 57.5548 121.403 57.6542 121.341 57.6968C121.28 57.7394 121.185 57.7583 121.048 57.7583H120.484C120.082 57.7583 119.793 57.6589 119.623 57.4648C119.452 57.2707 119.362 56.9677 119.362 56.5511V51.3388Z" fill="#8C8C8A"/>
<path d="M124.035 57.7635C123.831 57.7635 123.651 57.7209 123.5 57.6404C123.348 57.5599 123.23 57.4321 123.145 57.2664C122.984 57.5978 122.652 57.7635 122.146 57.7635H121.109C120.981 57.7635 120.887 57.7398 120.82 57.6972C120.754 57.6546 120.726 57.5647 120.726 57.4274C120.726 57.2664 120.754 57.1575 120.816 57.1007C120.877 57.0439 120.972 57.0155 121.109 57.0155H121.999C122.16 57.0155 122.274 56.9776 122.349 56.9066C122.42 56.8356 122.458 56.6983 122.458 56.5089V54.7668C122.458 54.7005 122.491 54.6721 122.553 54.6721H123.168C123.23 54.6721 123.263 54.7052 123.263 54.7668V56.3669C123.263 56.5847 123.339 56.7456 123.495 56.8545C123.647 56.9634 123.855 57.0155 124.111 57.0155H124.352C124.513 57.0155 124.627 56.9776 124.702 56.9066C124.773 56.8356 124.811 56.6983 124.811 56.5089V54.7668C124.811 54.7005 124.844 54.6721 124.906 54.6721H125.521C125.583 54.6721 125.616 54.7052 125.616 54.7668V56.4048C125.616 56.6084 125.696 56.7646 125.857 56.864C126.018 56.9682 126.227 57.0155 126.482 57.0155H126.705C126.866 57.0155 126.979 56.9776 127.055 56.9066C127.126 56.8356 127.164 56.6983 127.164 56.5089V53.943C127.164 53.8768 127.197 53.8484 127.259 53.8484H127.874C127.936 53.8484 127.969 53.8815 127.969 53.943V56.3669C127.969 56.5847 128.049 56.7456 128.206 56.8545C128.362 56.9634 128.57 57.0155 128.835 57.0155H128.939C129.067 57.0155 129.162 57.0439 129.228 57.096C129.29 57.1481 129.323 57.2427 129.323 57.3706C129.323 57.5363 129.294 57.6451 129.233 57.6925C129.171 57.7398 129.077 57.7635 128.939 57.7635H128.741C128.537 57.7635 128.357 57.7209 128.206 57.6404C128.054 57.5599 127.936 57.4321 127.85 57.2664C127.69 57.5978 127.358 57.7635 126.852 57.7635H126.392C126.189 57.7635 126.009 57.7209 125.857 57.6404C125.706 57.5599 125.588 57.4321 125.502 57.2664C125.341 57.5978 125.01 57.7635 124.503 57.7635H124.044H124.035ZM124.286 52.892C124.224 52.892 124.191 52.8589 124.191 52.7974V52.0967C124.191 52.0304 124.224 52.002 124.286 52.002H124.939C125.005 52.002 125.034 52.0352 125.034 52.0967V52.7974C125.034 52.8636 125.001 52.892 124.939 52.892H124.286ZM124.877 51.7748C124.816 51.7748 124.783 51.7416 124.783 51.6801V50.9794C124.783 50.9179 124.816 50.8848 124.877 50.8848H125.531C125.592 50.8848 125.625 50.9179 125.625 50.9794V51.6801C125.625 51.7416 125.592 51.7748 125.531 51.7748H124.877ZM125.455 52.892C125.393 52.892 125.36 52.8589 125.36 52.7974V52.0967C125.36 52.0304 125.393 52.002 125.455 52.002H126.108C126.17 52.002 126.203 52.0352 126.203 52.0967V52.7974C126.203 52.8636 126.17 52.892 126.108 52.892H125.455Z" fill="#8C8C8A"/>
<path d="M128.935 57.7634C128.807 57.7634 128.712 57.7398 128.646 57.6971C128.58 57.6545 128.551 57.5646 128.551 57.4273C128.551 57.2663 128.58 57.1575 128.641 57.1007C128.703 57.0438 128.797 57.0154 128.935 57.0154H129.588C129.749 57.0154 129.863 56.9776 129.938 56.9065C130.009 56.8355 130.047 56.6982 130.047 56.5089V53.943C130.047 53.8767 130.08 53.8483 130.142 53.8483H130.757C130.819 53.8483 130.852 53.8814 130.852 53.943V56.3668C130.852 56.5846 130.933 56.7456 131.089 56.8545C131.245 56.9634 131.453 57.0154 131.718 57.0154H131.832C131.96 57.0154 132.055 57.0438 132.121 57.0959C132.182 57.148 132.216 57.2427 132.216 57.3705C132.216 57.5362 132.187 57.6451 132.126 57.6924C132.064 57.7398 131.969 57.7634 131.832 57.7634H131.619C131.415 57.7634 131.236 57.7208 131.084 57.6403C130.928 57.5599 130.814 57.432 130.729 57.2664C130.568 57.5977 130.237 57.7634 129.73 57.7634H128.935ZM129.517 52.892C129.455 52.892 129.422 52.8588 129.422 52.7973V52.0966C129.422 52.0304 129.455 52.002 129.517 52.002H130.17C130.232 52.002 130.265 52.0351 130.265 52.0966V52.7973C130.265 52.8636 130.232 52.892 130.17 52.892H129.517ZM130.686 52.892C130.62 52.892 130.592 52.8588 130.592 52.7973V52.0966C130.592 52.0304 130.625 52.002 130.686 52.002H131.34C131.406 52.002 131.434 52.0351 131.434 52.0966V52.7973C131.434 52.8636 131.401 52.892 131.34 52.892H130.686Z" fill="#8C8C8A"/>
<path d="M134.748 57.7628C134.545 57.7628 134.365 57.7202 134.213 57.6397C134.062 57.5592 133.943 57.4314 133.858 57.2657C133.697 57.5971 133.366 57.7628 132.859 57.7628H131.822C131.695 57.7628 131.6 57.7391 131.534 57.6965C131.467 57.6539 131.439 57.564 131.439 57.4267C131.439 57.2657 131.467 57.1568 131.529 57.1C131.59 57.0432 131.685 57.0148 131.822 57.0148H132.712C132.873 57.0148 132.987 56.9769 133.063 56.9059C133.134 56.8349 133.172 56.6976 133.172 56.5083V54.7661C133.172 54.6998 133.205 54.6714 133.266 54.6714H133.877C133.943 54.6714 133.972 54.7045 133.972 54.7661V56.3662C133.972 56.584 134.047 56.745 134.204 56.8538C134.355 56.9627 134.559 57.0148 134.814 57.0148H135.056C135.217 57.0148 135.33 56.9769 135.406 56.9059C135.482 56.8349 135.515 56.6976 135.515 56.5083V54.7661C135.515 54.6998 135.548 54.6714 135.61 54.6714H136.22C136.287 54.6714 136.315 54.7045 136.315 54.7661V56.4041C136.315 56.6077 136.396 56.7639 136.557 56.8633C136.718 56.9675 136.926 57.0148 137.182 57.0148H137.404C137.565 57.0148 137.679 56.9769 137.754 56.9059C137.83 56.8349 137.863 56.6976 137.863 56.5083V53.9423C137.863 53.8761 137.896 53.8477 137.958 53.8477H138.573C138.64 53.8477 138.668 53.8808 138.668 53.9423V56.3662C138.668 56.584 138.744 56.745 138.905 56.8538C139.061 56.9627 139.269 57.0148 139.534 57.0148H139.639C139.766 57.0148 139.861 57.0432 139.927 57.0953C139.989 57.1474 140.022 57.242 140.022 57.3699C140.022 57.5356 139.994 57.6444 139.932 57.6918C139.871 57.7391 139.776 57.7628 139.639 57.7628H139.435C139.231 57.7628 139.051 57.7202 138.9 57.6397C138.748 57.5592 138.63 57.4314 138.545 57.2657C138.384 57.5971 138.053 57.7628 137.551 57.7628H137.092C136.888 57.7628 136.708 57.7202 136.557 57.6397C136.4 57.5592 136.287 57.4314 136.202 57.2657C136.041 57.5971 135.709 57.7628 135.203 57.7628H134.743H134.748Z" fill="#8C8C8A"/>
<path d="M142.541 57.8296C142.242 57.8296 141.977 57.787 141.745 57.7018C141.513 57.6166 141.319 57.4793 141.158 57.2946C141.026 57.4982 140.851 57.6308 140.642 57.6828C140.434 57.7349 140.235 57.7633 140.06 57.7633H139.648C139.392 57.7633 139.265 57.6355 139.265 57.3799C139.265 57.2189 139.293 57.1195 139.355 57.0769C139.416 57.0343 139.511 57.0153 139.648 57.0153H140.126C140.197 57.0153 140.268 57.0011 140.339 56.9727C140.41 56.9443 140.472 56.897 140.529 56.8307C140.585 56.7644 140.633 56.6745 140.666 56.5608C140.699 56.4472 140.718 56.3099 140.718 56.1442C140.713 56.0779 140.709 56.0164 140.709 55.9596V55.7655C140.709 55.0317 140.87 54.4967 141.196 54.1701C141.523 53.8434 141.968 53.6777 142.536 53.6777C143.104 53.6777 143.554 53.8434 143.876 54.1701C144.198 54.4967 144.363 55.0317 144.363 55.7655C144.363 56.13 144.321 56.4425 144.236 56.7029C144.15 56.9632 144.027 57.181 143.871 57.3467C143.715 57.5124 143.521 57.6355 143.293 57.716C143.066 57.7965 142.811 57.8343 142.531 57.8343L142.541 57.8296ZM142.541 54.4163C142.181 54.4163 141.921 54.5346 141.76 54.7713C141.599 55.008 141.513 55.3347 141.513 55.7608C141.513 56.22 141.594 56.5561 141.76 56.7644C141.921 56.9774 142.181 57.0816 142.541 57.0816C142.9 57.0816 143.161 56.9774 143.322 56.7644C143.483 56.5514 143.568 56.22 143.568 55.7608C143.568 55.3394 143.488 55.008 143.322 54.7713C143.161 54.5346 142.9 54.4163 142.541 54.4163Z" fill="#8C8C8A"/>
<path d="M146.243 59.6723C146.176 59.6723 146.148 59.6392 146.148 59.5776V59.0237C146.148 58.9574 146.181 58.929 146.243 58.929H147.393C147.521 58.929 147.639 58.9148 147.748 58.8864C147.857 58.858 147.952 58.8107 148.032 58.7444C148.113 58.6781 148.174 58.5835 148.217 58.4651C148.26 58.3467 148.283 58.2 148.283 58.0201V57.7692H147.256C146.977 57.7692 146.721 57.736 146.494 57.6697C146.266 57.6035 146.072 57.4946 145.916 57.3431C145.755 57.1916 145.637 56.9928 145.552 56.7466C145.466 56.4957 145.428 56.1927 145.428 55.8282C145.428 55.4636 145.476 55.1464 145.571 54.8766C145.665 54.6067 145.798 54.3795 145.968 54.2044C146.139 54.0292 146.333 53.8966 146.555 53.8114C146.778 53.7262 147.019 53.6836 147.275 53.6836C147.843 53.6836 148.288 53.8493 148.605 54.1759C148.922 54.5026 149.083 55.0376 149.083 55.7714V58.0059C149.083 58.3041 149.041 58.5598 148.965 58.7728C148.889 58.9859 148.776 59.1563 148.629 59.2888C148.487 59.4214 148.312 59.5208 148.108 59.5871C147.904 59.6534 147.677 59.6818 147.426 59.6818H146.238L146.243 59.6723ZM147.275 54.4174C146.948 54.4174 146.692 54.5452 146.508 54.8008C146.323 55.0565 146.229 55.3926 146.229 55.8187C146.229 56.2732 146.318 56.5856 146.503 56.7561C146.688 56.9265 146.953 57.0164 147.313 57.0164H148.283V55.7619C148.283 55.3405 148.203 55.0092 148.046 54.7724C147.89 54.5357 147.635 54.4174 147.275 54.4174Z" fill="#8C8C8A"/>
<path d="M153.065 55.604C153.088 55.5614 153.136 55.5566 153.197 55.5945L153.723 55.8833C153.775 55.9164 153.784 55.959 153.751 56.0064C153.638 56.1863 153.524 56.4041 153.42 56.6692C153.316 56.9295 153.264 57.2041 153.264 57.4929C153.264 57.7817 153.311 57.9947 153.401 58.1794C153.491 58.364 153.614 58.506 153.761 58.6102C153.907 58.7143 154.068 58.7901 154.239 58.8374C154.409 58.88 154.58 58.9037 154.745 58.9037C155.152 58.9037 155.489 58.7995 155.749 58.5865C156.009 58.3735 156.142 58.0326 156.142 57.5592V54.7613C156.142 54.695 156.175 54.6666 156.237 54.6666H156.852C156.914 54.6666 156.947 54.6998 156.947 54.7613V57.5687C156.947 58.2267 156.753 58.7427 156.369 59.112C155.986 59.4813 155.427 59.6659 154.698 59.6659C154.352 59.6659 154.04 59.6186 153.765 59.5286C153.486 59.4339 153.249 59.3014 153.055 59.1215C152.861 58.9416 152.71 58.7238 152.601 58.4634C152.492 58.203 152.44 57.9048 152.44 57.5687C152.44 57.1899 152.501 56.8301 152.624 56.4798C152.748 56.1295 152.894 55.8407 153.06 55.604H153.065ZM154.703 54.4252C154.636 54.4252 154.608 54.392 154.608 54.3305V53.6298C154.608 53.5636 154.641 53.5352 154.703 53.5352H155.356C155.418 53.5352 155.451 53.5683 155.451 53.6298V54.3305C155.451 54.3968 155.418 54.4252 155.356 54.4252H154.703Z" fill="#8C8C8A"/>
<path d="M158.921 59.6723C158.855 59.6723 158.826 59.6392 158.826 59.5776V59.0237C158.826 58.9574 158.859 58.929 158.921 58.929H160.071C160.199 58.929 160.317 58.9148 160.426 58.8864C160.535 58.858 160.63 58.8107 160.71 58.7444C160.791 58.6781 160.852 58.5835 160.895 58.4651C160.938 58.3467 160.961 58.2 160.961 58.0201V57.7692H159.934C159.655 57.7692 159.399 57.736 159.172 57.6697C158.945 57.6035 158.75 57.4946 158.594 57.3431C158.433 57.1916 158.315 56.9928 158.23 56.7466C158.144 56.4957 158.107 56.1927 158.107 55.8282C158.107 55.4636 158.154 55.1464 158.253 54.8766C158.353 54.6067 158.485 54.3795 158.656 54.2044C158.826 54.0292 159.02 53.8966 159.248 53.8114C159.47 53.7262 159.707 53.6836 159.958 53.6836C160.526 53.6836 160.971 53.8493 161.288 54.1759C161.605 54.5026 161.766 55.0376 161.766 55.7714V57.0259H162.429C162.557 57.0259 162.651 57.0543 162.718 57.1064C162.784 57.1585 162.812 57.2531 162.812 57.381C162.812 57.5467 162.784 57.6555 162.722 57.7029C162.661 57.7502 162.566 57.7739 162.429 57.7739H161.766V58.0059C161.766 58.3041 161.723 58.5598 161.648 58.7728C161.572 58.9859 161.458 59.1563 161.312 59.2888C161.17 59.4214 160.994 59.5208 160.791 59.5871C160.587 59.6534 160.36 59.6818 160.109 59.6818H158.921V59.6723ZM159.953 54.4174C159.631 54.4174 159.38 54.5452 159.191 54.8008C159.001 55.0565 158.907 55.3926 158.907 55.8187C158.907 56.2732 158.997 56.5856 159.181 56.7561C159.366 56.9265 159.631 57.0164 159.991 57.0164H160.961V55.7619C160.961 55.3405 160.881 55.0092 160.725 54.7724C160.568 54.5357 160.313 54.4174 159.953 54.4174Z" fill="#8C8C8A"/>
<path d="M165.331 57.8296C165.032 57.8296 164.767 57.787 164.535 57.7018C164.303 57.6166 164.109 57.4793 163.948 57.2946C163.816 57.4982 163.641 57.6308 163.432 57.6828C163.224 57.7349 163.025 57.7633 162.85 57.7633H162.438C162.183 57.7633 162.055 57.6355 162.055 57.3799C162.055 57.2189 162.083 57.1195 162.145 57.0769C162.206 57.0343 162.301 57.0153 162.438 57.0153H162.916C162.987 57.0153 163.058 57.0011 163.129 56.9727C163.2 56.9443 163.262 56.897 163.319 56.8307C163.376 56.7644 163.423 56.6745 163.456 56.5608C163.489 56.4472 163.508 56.3099 163.508 56.1442C163.503 56.0779 163.499 56.0164 163.499 55.9596V55.7655C163.499 55.0317 163.66 54.4967 163.986 54.1701C164.313 53.8434 164.758 53.6777 165.326 53.6777C165.894 53.6777 166.344 53.8434 166.666 54.1701C166.988 54.4967 167.153 55.0317 167.153 55.7655C167.153 56.13 167.111 56.4425 167.026 56.7029C166.94 56.9632 166.817 57.181 166.661 57.3467C166.505 57.5124 166.311 57.6355 166.083 57.716C165.856 57.7965 165.601 57.8343 165.321 57.8343L165.331 57.8296ZM165.331 54.4163C164.971 54.4163 164.711 54.5346 164.55 54.7713C164.389 55.008 164.303 55.3347 164.303 55.7608C164.303 56.22 164.384 56.5561 164.55 56.7644C164.711 56.9774 164.971 57.0816 165.331 57.0816C165.691 57.0816 165.951 56.9774 166.112 56.7644C166.273 56.5514 166.358 56.22 166.358 55.7608C166.358 55.3394 166.278 55.008 166.112 54.7713C165.951 54.5346 165.691 54.4163 165.331 54.4163Z" fill="#8C8C8A"/>
<path d="M168.356 51.3388C168.356 51.2725 168.389 51.2441 168.451 51.2441H169.061C169.128 51.2441 169.156 51.2773 169.156 51.3388V56.5038C169.156 56.6932 169.194 56.8304 169.265 56.9015C169.336 56.9772 169.454 57.0104 169.615 57.0104H170.037C170.292 57.0104 170.42 57.1382 170.42 57.3938C170.42 57.5548 170.392 57.6542 170.33 57.6968C170.269 57.7394 170.174 57.7583 170.037 57.7583H169.473C169.071 57.7583 168.782 57.6589 168.612 57.4648C168.441 57.2707 168.351 56.9677 168.351 56.5511V51.3388H168.356Z" fill="#8C8C8A"/>
<path d="M172.285 54.4171C172.068 54.4171 171.869 54.4597 171.684 54.5497C171.504 54.6396 171.339 54.7627 171.201 54.9142C171.163 54.9568 171.116 54.9615 171.069 54.9237L170.647 54.5781C170.591 54.5354 170.581 54.4881 170.619 54.4455C170.799 54.223 171.021 54.0384 171.286 53.8916C171.552 53.7449 171.874 53.6738 172.262 53.6738C172.702 53.6738 173.062 53.7448 173.346 53.8821C173.625 54.0194 173.852 54.1993 174.013 54.4218C174.179 54.6443 174.293 54.9047 174.359 55.1982C174.425 55.4917 174.454 55.7947 174.454 56.1072C174.454 56.164 174.454 56.2208 174.454 56.2682C174.454 56.3202 174.454 56.3676 174.454 56.4196C174.468 56.6185 174.553 56.7652 174.709 56.8647C174.865 56.9641 175.069 57.0114 175.32 57.0114H175.424C175.552 57.0114 175.647 57.0398 175.713 57.0919C175.779 57.144 175.808 57.2387 175.808 57.3665C175.808 57.5322 175.779 57.6411 175.718 57.6884C175.656 57.7357 175.561 57.7594 175.424 57.7594H175.221C175.003 57.7594 174.809 57.7121 174.638 57.6221C174.463 57.5274 174.345 57.3902 174.274 57.2055C174.165 57.4091 174.009 57.5559 173.815 57.6363C173.616 57.7215 173.374 57.7594 173.076 57.7594H170.056C169.8 57.7594 169.672 57.6316 169.672 57.3759C169.672 57.215 169.701 57.1156 169.762 57.073C169.824 57.0304 169.918 57.0114 170.056 57.0114H172.778C172.958 57.0114 173.1 56.9972 173.209 56.9688C173.317 56.9404 173.398 56.8931 173.459 56.8221C173.516 56.751 173.554 56.6564 173.573 56.538C173.592 56.4196 173.601 56.2729 173.601 56.1025C173.601 55.8515 173.578 55.6243 173.535 55.416C173.493 55.2077 173.417 55.0278 173.317 54.881C173.218 54.7343 173.085 54.6159 172.92 54.5354C172.754 54.455 172.546 54.4171 172.295 54.4171H172.285Z" fill="#8C8C8A"/>
<path d="M178.298 57.8296C178 57.8296 177.734 57.787 177.502 57.7018C177.27 57.6166 177.076 57.4793 176.915 57.2946C176.783 57.4982 176.608 57.6308 176.399 57.6828C176.191 57.7349 175.992 57.7633 175.817 57.7633H175.405C175.15 57.7633 175.022 57.6355 175.022 57.3799C175.022 57.2189 175.05 57.1195 175.112 57.0769C175.173 57.0343 175.268 57.0153 175.405 57.0153H175.883C175.954 57.0153 176.025 57.0011 176.096 56.9727C176.167 56.9443 176.229 56.897 176.286 56.8307C176.343 56.7644 176.39 56.6745 176.423 56.5608C176.456 56.4472 176.475 56.3099 176.475 56.1442C176.47 56.0779 176.466 56.0164 176.466 55.9596V55.7655C176.466 55.0317 176.627 54.4967 176.953 54.1701C177.28 53.8434 177.725 53.6777 178.293 53.6777C178.861 53.6777 179.311 53.8434 179.633 54.1701C179.955 54.4967 180.12 55.0317 180.12 55.7655C180.12 56.13 180.078 56.4425 179.993 56.7029C179.907 56.9632 179.784 57.181 179.628 57.3467C179.472 57.5124 179.278 57.6355 179.051 57.716C178.823 57.7965 178.568 57.8343 178.288 57.8343L178.298 57.8296ZM178.298 54.4163C177.938 54.4163 177.678 54.5346 177.517 54.7713C177.356 55.008 177.27 55.3347 177.27 55.7608C177.27 56.22 177.351 56.5561 177.517 56.7644C177.678 56.9774 177.938 57.0816 178.298 57.0816C178.658 57.0816 178.918 56.9774 179.079 56.7644C179.24 56.5514 179.325 56.22 179.325 55.7608C179.325 55.3394 179.245 55.008 179.079 54.7713C178.918 54.5346 178.658 54.4163 178.298 54.4163Z" fill="#8C8C8A"/>
<path d="M190.957 57.7639C196.709 57.3426 202.466 57.1248 208.218 56.9733C211.096 56.8786 213.97 56.8597 216.848 56.8029L225.479 56.7461L234.109 56.7982C236.987 56.855 239.861 56.8739 242.739 56.9686C248.491 57.1154 254.248 57.3379 260 57.7592C254.248 58.1805 248.491 58.403 242.739 58.5498C239.861 58.6445 236.987 58.6634 234.109 58.7202L225.479 58.7723L216.848 58.7155C213.97 58.6587 211.096 58.6398 208.218 58.5451C202.466 58.3936 196.709 58.1758 190.957 57.7545V57.7639Z" fill="#8C8C8A"/>
</svg>
