<svg width="28" height="31" viewBox="0 0 28 31" fill="none" xmlns="http://www.w3.org/2000/svg">
<g id="instagram logo" clip-path="url(#clip0_394_27238)">
<path id="Vector" d="M14.0062 8.7622C10.2204 8.7622 7.16687 11.7681 7.16687 15.4946C7.16687 19.2212 10.2204 22.227 14.0062 22.227C17.7919 22.227 20.8454 19.2212 20.8454 15.4946C20.8454 11.7681 17.7919 8.7622 14.0062 8.7622ZM14.0062 19.8716C11.5597 19.8716 9.55973 17.9087 9.55973 15.4946C9.55973 13.0806 11.5538 11.1177 14.0062 11.1177C16.4585 11.1177 18.4526 13.0806 18.4526 15.4946C18.4526 17.9087 16.4526 19.8716 14.0062 19.8716ZM22.7204 8.48681C22.7204 9.35986 22.0061 10.0571 21.1252 10.0571C20.2383 10.0571 19.53 9.354 19.53 8.48681C19.53 7.61963 20.2442 6.9165 21.1252 6.9165C22.0061 6.9165 22.7204 7.61963 22.7204 8.48681ZM27.2502 10.0806C27.149 7.97705 26.6609 6.11377 25.0954 4.57861C23.5359 3.04346 21.6431 2.56299 19.5062 2.45752C17.3038 2.33447 10.7026 2.33447 8.50021 2.45752C6.36926 2.55713 4.4764 3.0376 2.91092 4.57275C1.34545 6.10791 0.863307 7.97119 0.756164 10.0747C0.631165 12.2427 0.631165 18.7407 0.756164 20.9087C0.857355 23.0122 1.34545 24.8755 2.91092 26.4106C4.4764 27.9458 6.3633 28.4263 8.50021 28.5317C10.7026 28.6548 17.3038 28.6548 19.5062 28.5317C21.6431 28.4321 23.5359 27.9516 25.0954 26.4106C26.655 24.8755 27.1431 23.0122 27.2502 20.9087C27.3752 18.7407 27.3752 12.2485 27.2502 10.0806ZM24.405 23.2349C23.9407 24.3833 23.0419 25.2681 21.8692 25.7309C20.1133 26.4165 15.9466 26.2583 14.0062 26.2583C12.0657 26.2583 7.89306 26.4106 6.14306 25.7309C4.9764 25.2739 4.07759 24.3891 3.60735 23.2349C2.91092 21.5063 3.07164 17.4048 3.07164 15.4946C3.07164 13.5845 2.91688 9.47705 3.60735 7.75439C4.07164 6.60595 4.97045 5.72119 6.14306 5.2583C7.89902 4.57275 12.0657 4.73096 14.0062 4.73096C15.9466 4.73096 20.1192 4.57861 21.8692 5.2583C23.0359 5.71533 23.9347 6.6001 24.405 7.75439C25.1014 9.48291 24.9407 13.5845 24.9407 15.4946C24.9407 17.4048 25.1014 21.5122 24.405 23.2349Z" fill="#003366"/>
</g>
<defs>
<clipPath id="clip0_394_27238">
<rect width="26.6667" height="30" fill="white" transform="translate(0.66687 0.5)"/>
</clipPath>
</defs>
</svg>
