<svg width="28" height="26" viewBox="0 0 28 26" fill="none" xmlns="http://www.w3.org/2000/svg">
<g id="linkedin logo" clip-path="url(#clip0_394_27242)">
<path id="Vector" d="M6.72135 25.166V8.29856H1.00418V25.166H6.72135ZM3.86351 5.99422C5.85718 5.99422 7.09815 4.69899 7.09815 3.08039C7.06101 1.42529 5.85726 0.166016 3.90134 0.166016C1.94572 0.166016 0.66687 1.42532 0.66687 3.08039C0.66687 4.69907 1.90753 5.99422 3.82618 5.99422H3.86333H3.86351ZM9.88579 25.166H15.603V15.7464C15.603 15.2423 15.6401 14.7387 15.7911 14.3783C16.2044 13.3711 17.1451 12.3279 18.7244 12.3279C20.7932 12.3279 21.6209 13.8747 21.6209 16.1422V25.1659H27.3377V15.4943C27.3377 10.3132 24.5171 7.90257 20.7556 7.90257C17.6714 7.90257 16.3172 9.59312 15.5649 10.7445H15.6031V8.29821H9.88591C9.96094 9.88097 9.88591 25.1657 9.88591 25.1657L9.88579 25.166Z" fill="#003366"/>
</g>
<defs>
<clipPath id="clip0_394_27242">
<rect width="26.6667" height="25" fill="white" transform="translate(0.66687 0.166016)"/>
</clipPath>
</defs>
</svg>
