<svg width="30" height="25" viewBox="0 0 30 25" fill="none" xmlns="http://www.w3.org/2000/svg">
<g id="Twitter logo" clip-path="url(#clip0_394_27246)">
<path id="Vector" d="M30 3.67532C28.8766 4.14944 27.685 4.46065 26.4649 4.5986C27.7358 3.87293 28.7116 2.72379 29.1711 1.3546C27.963 2.03761 26.6412 2.51884 25.2628 2.77749C24.14 1.63795 22.5405 0.925781 20.7702 0.925781C17.3711 0.925781 14.6152 3.55117 14.6152 6.78926C14.6152 7.24889 14.6696 7.69635 14.7745 8.12562C9.6593 7.88101 5.12414 5.54667 2.0884 1.99911C1.55871 2.86513 1.2552 3.87248 1.2552 4.94693C1.2552 6.98128 2.34188 8.77594 3.99328 9.8275C3.01588 9.79834 2.05998 9.54684 1.20539 9.09401C1.20504 9.11857 1.20504 9.14313 1.20504 9.1678C1.20504 12.0088 3.3266 14.3787 6.14215 14.9174C5.2358 15.1522 4.28511 15.1866 3.3627 15.0179C4.14586 17.3474 6.41895 19.0426 9.11215 19.09C7.0057 20.6626 4.35176 21.6001 1.46824 21.6001C0.971367 21.6001 0.481523 21.5723 0 21.5182C2.72379 23.1819 5.95898 24.1526 9.43477 24.1526C20.7559 24.1526 26.9466 15.2177 26.9466 7.46927C26.9466 7.21495 26.9407 6.96208 26.9288 6.71066C28.1337 5.8808 29.1737 4.85294 30 3.67532Z" fill="#003366"/>
</g>
<defs>
<clipPath id="clip0_394_27246">
<rect width="30" height="23.3333" fill="white" transform="translate(0 0.833984)"/>
</clipPath>
</defs>
</svg>
