<svg width="54" height="54" viewBox="0 0 54 54" fill="none" xmlns="http://www.w3.org/2000/svg">
<g clip-path="url(#clip0_188_8801)">
<path d="M24.0469 25.7344C24.0599 26.5135 24.3752 27.2571 24.9262 27.8081C25.4773 28.3592 26.2208 28.6745 27 28.6875V31.2188C26.7444 31.2047 26.4981 31.1177 26.2903 30.9682C26.0825 30.8187 25.9218 30.6129 25.8272 30.375C25.7559 30.2374 25.6481 30.1221 25.5157 30.0418C25.3832 29.9614 25.2312 29.9191 25.0762 29.9194C24.9408 29.9194 24.8073 29.9521 24.6872 30.0146C24.567 30.0771 24.4637 30.1677 24.3859 30.2786C24.3081 30.3895 24.2581 30.5175 24.2402 30.6517C24.2224 30.786 24.2371 30.9226 24.2831 31.05C24.5124 31.5858 24.8899 32.0451 25.3711 32.374C25.8524 32.7028 26.4175 32.8874 27 32.9062V33.75C27 33.9738 27.0889 34.1884 27.2471 34.3466C27.4054 34.5049 27.62 34.5938 27.8438 34.5938C28.0675 34.5938 28.2821 34.5049 28.4404 34.3466C28.5986 34.1884 28.6875 33.9738 28.6875 33.75V32.9062C29.4707 32.9062 30.2219 32.5951 30.7757 32.0413C31.3295 31.4875 31.6406 30.7363 31.6406 29.9531C31.6406 29.1699 31.3295 28.4188 30.7757 27.865C30.2219 27.3111 29.4707 27 28.6875 27V24.4688C28.9375 24.4784 29.1798 24.5578 29.3871 24.698C29.5943 24.8382 29.7582 25.0335 29.8603 25.2619C29.9316 25.3994 30.0394 25.5147 30.1718 25.5951C30.3043 25.6755 30.4563 25.7178 30.6112 25.7175C30.7467 25.7174 30.8802 25.6848 31.0003 25.6223C31.1205 25.5597 31.2238 25.4692 31.3016 25.3583C31.3794 25.2474 31.4294 25.1194 31.4473 24.9851C31.4651 24.8509 31.4504 24.7143 31.4044 24.5869C31.1677 24.0605 30.787 23.6117 30.3063 23.2923C29.8256 22.9728 29.2645 22.7957 28.6875 22.7812V21.9375C28.6875 21.7137 28.5986 21.4991 28.4404 21.3409C28.2821 21.1826 28.0675 21.0938 27.8438 21.0938C27.62 21.0938 27.4054 21.1826 27.2471 21.3409C27.0889 21.4991 27 21.7137 27 21.9375V22.7812C26.2208 22.7943 25.4773 23.1096 24.9262 23.6606C24.3752 24.2116 24.0599 24.9552 24.0469 25.7344ZM25.7344 25.7344C25.7449 25.4021 25.8817 25.0862 26.1168 24.8511C26.3519 24.616 26.6677 24.4793 27 24.4688V27C26.6677 26.9894 26.3519 26.8527 26.1168 26.6176C25.8817 26.3825 25.7449 26.0667 25.7344 25.7344ZM29.9531 29.9531C29.9426 30.2854 29.8058 30.6013 29.5707 30.8364C29.3356 31.0715 29.0198 31.2082 28.6875 31.2188V28.6875C29.0198 28.6981 29.3356 28.8348 29.5707 29.0699C29.8058 29.305 29.9426 29.6208 29.9531 29.9531Z" fill="#ffff"/>
<path d="M21.9375 22.7812H22.7812C23.005 22.7812 23.2196 22.6924 23.3779 22.5341C23.5361 22.3759 23.625 22.1613 23.625 21.9375C23.625 21.7137 23.5361 21.4991 23.3779 21.3409C23.2196 21.1826 23.005 21.0938 22.7812 21.0938H21.9375C20.3711 21.0938 18.8688 21.716 17.7612 22.8237C16.6535 23.9313 16.0312 25.4336 16.0312 27V28.6875C16.0312 30.2539 16.6535 31.7562 17.7612 32.8639C18.8688 33.9715 20.3711 34.5938 21.9375 34.5938H22.7812C23.005 34.5938 23.2196 34.5049 23.3779 34.3466C23.5361 34.1884 23.625 33.9738 23.625 33.75C23.625 33.5262 23.5361 33.3116 23.3779 33.1534C23.2196 32.9951 23.005 32.9062 22.7812 32.9062H21.9375C20.8186 32.9062 19.7456 32.4618 18.9544 31.6706C18.1632 30.8794 17.7188 29.8064 17.7188 28.6875V27C17.7188 25.8811 18.1632 24.8081 18.9544 24.0169C19.7456 23.2257 20.8186 22.7812 21.9375 22.7812Z" fill="#ffff"/>
<path d="M28.7803 10.4206L33.8428 12.589C33.9469 12.6331 34.0588 12.6559 34.1719 12.6559C34.2849 12.6559 34.3968 12.6331 34.5009 12.589L39.5634 10.4206C39.7159 10.356 39.8461 10.248 39.9376 10.1099C40.0291 9.97189 40.078 9.80997 40.0781 9.64435V3.85623C40.078 3.69061 40.0291 3.52869 39.9376 3.39065C39.8461 3.25262 39.7159 3.14457 39.5634 3.07998L34.5009 0.911539C34.3968 0.867447 34.2849 0.844727 34.1719 0.844727C34.0588 0.844727 33.9469 0.867447 33.8428 0.911539L28.7803 3.07998C28.6278 3.14457 28.4977 3.25262 28.4062 3.39065C28.3146 3.52869 28.2658 3.69061 28.2656 3.85623V9.64435C28.2658 9.80997 28.3146 9.97189 28.4062 10.1099C28.4977 10.248 28.6278 10.356 28.7803 10.4206ZM29.9531 5.13873L33.3281 6.58154V10.5303L29.9531 9.08748V5.13873ZM35.0156 10.5303V6.58154L38.3906 5.13873V9.08748L35.0156 10.5303ZM34.1719 2.60748L37.125 3.85623L34.1719 5.11341L31.2188 3.85623L34.1719 2.60748Z" fill="#ffff"/>
<path d="M1.68812 53.1559C1.9119 53.1559 2.12651 53.067 2.28474 52.9087C2.44298 52.7505 2.53187 52.5359 2.53187 52.3121V43.7649C2.53187 42.1871 3.43468 41.3434 5.06312 41.3434H15.3231C17.5084 40.9974 19.9806 40.3899 21.7272 38.5084L21.8537 38.3818C21.9034 38.3218 21.9671 38.2749 22.0393 38.2455C22.1114 38.216 22.1897 38.2049 22.2672 38.213C22.3515 38.2219 22.4324 38.251 22.503 38.2981C22.5736 38.3451 22.6316 38.4086 22.6722 38.483C22.7469 38.6034 22.7866 38.7422 22.7866 38.8838C22.7866 39.0255 22.7469 39.1643 22.6722 39.2846L21.5837 40.9215C20.4362 42.609 18.4197 43.2671 16.285 43.9168L14.0491 44.7605C13.8862 44.8214 13.7461 44.931 13.6479 45.0745C13.5498 45.218 13.4983 45.3883 13.5006 45.5621V52.3121C13.5006 52.5359 13.5895 52.7505 13.7477 52.9087C13.906 53.067 14.1206 53.1559 14.3444 53.1559C14.5681 53.1559 14.7828 53.067 14.941 52.9087C15.0992 52.7505 15.1881 52.5359 15.1881 52.3121V46.1359L16.6562 45.5621H16.7744C18.9934 44.8871 21.4994 44.1109 22.9759 41.8918L24.0222 40.3224C24.2339 40.0142 24.3748 39.663 24.4346 39.2939C24.4944 38.9248 24.4717 38.547 24.3681 38.1877C24.2413 37.7575 23.9903 37.3742 23.6466 37.086C23.3029 36.7978 22.8817 36.6175 22.4359 36.5677C22.0984 36.5318 21.7572 36.5765 21.4403 36.6983C21.1234 36.82 20.84 37.0153 20.6134 37.268L20.4953 37.3946C19.1116 38.8796 17.1203 39.3859 15.1206 39.698H12.0747C12.9822 39.0978 13.6722 38.221 14.0424 37.1978C14.4126 36.1746 14.4432 35.0594 14.1298 34.0174C13.8164 32.9754 13.1756 32.0621 12.3024 31.4129C11.4291 30.7637 10.37 30.4131 9.28187 30.4131C8.19376 30.4131 7.1346 30.7637 6.26138 31.4129C5.38816 32.0621 4.74735 32.9754 4.43393 34.0174C4.12051 35.0594 4.15116 36.1746 4.52133 37.1978C4.8915 38.221 5.5815 39.0978 6.48906 39.698H5.06312C4.50667 39.6512 3.94664 39.7244 3.42096 39.9128C2.89527 40.1012 2.4162 40.4003 2.01617 40.79C1.61614 41.1796 1.30449 41.6506 1.10232 42.1712C0.900152 42.6917 0.812185 43.2496 0.844372 43.8071V52.3121C0.844372 52.5359 0.933267 52.7505 1.0915 52.9087C1.24973 53.067 1.46435 53.1559 1.68812 53.1559ZM9.28187 32.0621C9.94938 32.0621 10.6019 32.26 11.1569 32.6309C11.7119 33.0017 12.1445 33.5288 12.4 34.1455C12.6554 34.7622 12.7222 35.4408 12.592 36.0955C12.4618 36.7502 12.1404 37.3516 11.6684 37.8236C11.1964 38.2956 10.595 38.617 9.9403 38.7473C9.28561 38.8775 8.60702 38.8106 7.99031 38.5552C7.37361 38.2997 6.84651 37.8672 6.47566 37.3122C6.10481 36.7571 5.90687 36.1046 5.90687 35.4371C5.90687 34.542 6.26245 33.6836 6.89539 33.0506C7.52832 32.4177 8.38677 32.0621 9.28187 32.0621Z" fill="#ffff"/>
<path d="M5.0625 44.7188C4.83872 44.7188 4.62411 44.8076 4.46588 44.9659C4.30765 45.1241 4.21875 45.3387 4.21875 45.5625V52.3125C4.21875 52.5363 4.30765 52.7509 4.46588 52.9091C4.62411 53.0674 4.83872 53.1562 5.0625 53.1562C5.28628 53.1562 5.50089 53.0674 5.65912 52.9091C5.81736 52.7509 5.90625 52.5363 5.90625 52.3125V45.5625C5.90625 45.3387 5.81736 45.1241 5.65912 44.9659C5.50089 44.8076 5.28628 44.7188 5.0625 44.7188Z" fill="#ffff"/>
<path d="M48.9377 18.5623H47.5118C48.4193 17.962 49.1093 17.0853 49.4795 16.0621C49.8497 15.0389 49.8803 13.9236 49.5669 12.8816C49.2535 11.8396 48.6127 10.9264 47.7395 10.2771C46.8662 9.62793 45.8071 9.27734 44.719 9.27734C43.6309 9.27734 42.5717 9.62793 41.6985 10.2771C40.8253 10.9264 40.1845 11.8396 39.871 12.8816C39.5576 13.9236 39.5883 15.0389 39.9584 16.0621C40.3286 17.0853 41.0186 17.962 41.9262 18.5623H38.8802C36.9059 18.2501 34.8893 17.7185 33.5055 16.2589L33.3874 16.1323C33.1608 15.8796 32.8774 15.6843 32.5605 15.5625C32.2437 15.4408 31.9024 15.396 31.5649 15.432C31.1188 15.4807 30.6971 15.6606 30.3532 15.949C30.0093 16.2373 29.7585 16.6212 29.6327 17.052C29.5303 17.4119 29.509 17.79 29.5703 18.1591C29.6316 18.5282 29.7739 18.8792 29.9871 19.1867L31.0249 20.7476C32.5015 22.9751 35.0074 23.7514 37.2265 24.4264L38.8127 25.0423V31.2185C38.8127 31.4423 38.9016 31.6569 39.0599 31.8152C39.2181 31.9734 39.4327 32.0623 39.6565 32.0623C39.8803 32.0623 40.0949 31.9734 40.2531 31.8152C40.4113 31.6569 40.5002 31.4423 40.5002 31.2185V24.4685C40.4997 24.2986 40.4479 24.1327 40.3515 23.9927C40.2552 23.8527 40.1188 23.745 39.9602 23.6839L37.8424 22.8401H37.7243C35.5896 22.1904 33.573 21.566 32.4255 19.8448L31.3371 18.2079C31.2557 18.0823 31.2125 17.9357 31.2125 17.786C31.2125 17.6363 31.2557 17.4898 31.3371 17.3642C31.3792 17.2917 31.4379 17.2303 31.5082 17.1848C31.5786 17.1394 31.6588 17.1112 31.7421 17.1026C31.8188 17.0949 31.8962 17.1054 31.968 17.1333C32.0399 17.1611 32.1041 17.2055 32.1555 17.2629L32.2821 17.3979C34.0287 19.2795 36.5009 19.887 38.6862 20.2329H48.9377C50.5662 20.2329 51.469 21.0767 51.469 22.6545V31.2185C51.469 31.4423 51.5579 31.6569 51.7161 31.8152C51.8743 31.9734 52.089 32.0623 52.3127 32.0623C52.5365 32.0623 52.7511 31.9734 52.9093 31.8152C53.0676 31.6569 53.1565 31.4423 53.1565 31.2185V22.6714C53.1887 22.1139 53.1007 21.556 52.8985 21.0354C52.6964 20.5149 52.3847 20.0438 51.9847 19.6542C51.5847 19.2646 51.1056 18.9655 50.5799 18.7771C50.0542 18.5887 49.4942 18.5154 48.9377 18.5623ZM44.719 10.9685C45.3865 10.9685 46.039 11.1665 46.594 11.5373C47.149 11.9082 47.5816 12.4353 47.8371 13.052C48.0925 13.6687 48.1594 14.3473 48.0291 15.002C47.8989 15.6567 47.5775 16.258 47.1055 16.73C46.6335 17.202 46.0321 17.5235 45.3774 17.6537C44.7227 17.7839 44.0441 17.7171 43.4274 17.4616C42.8107 17.2062 42.2836 16.7736 41.9128 16.2186C41.5419 15.6636 41.344 15.0111 41.344 14.3435C41.344 13.4484 41.6996 12.59 42.3325 11.9571C42.9654 11.3241 43.8239 10.9685 44.719 10.9685Z" fill="#ffff"/>
<path d="M48.9375 32.0625C49.1613 32.0625 49.3759 31.9736 49.5341 31.8154C49.6924 31.6571 49.7812 31.4425 49.7812 31.2188V24.4688C49.7812 24.245 49.6924 24.0304 49.5341 23.8721C49.3759 23.7139 49.1613 23.625 48.9375 23.625C48.7137 23.625 48.4991 23.7139 48.3409 23.8721C48.1826 24.0304 48.0938 24.245 48.0938 24.4688V31.2188C48.0938 31.4425 48.1826 31.6571 48.3409 31.8154C48.4991 31.9736 48.7137 32.0625 48.9375 32.0625Z" fill="#ffff"/>
<path d="M6.50488 27.8438C6.61569 27.8438 6.7254 27.8219 6.82777 27.7795C6.93014 27.7371 7.02315 27.675 7.1015 27.5966C7.17985 27.5183 7.242 27.4253 7.28441 27.3229C7.32681 27.2205 7.34863 27.1108 7.34863 27C7.34863 22.0769 9.30432 17.3555 12.7855 13.8743C16.2666 10.3932 20.9881 8.4375 25.9111 8.4375C26.1349 8.4375 26.3495 8.34861 26.5078 8.19037C26.666 8.03214 26.7549 7.81753 26.7549 7.59375C26.7549 7.36997 26.666 7.15536 26.5078 6.99713C26.3495 6.8389 26.1349 6.75 25.9111 6.75C20.5405 6.75 15.3898 8.88348 11.5922 12.6811C7.79461 16.4787 5.66113 21.6294 5.66113 27C5.66113 27.2238 5.75003 27.4384 5.90826 27.5966C6.0665 27.7549 6.28111 27.8438 6.50488 27.8438Z" fill="#ffff"/>
<path d="M44.9038 34.0449C44.9429 33.9408 44.961 33.8299 44.9572 33.7188C44.9533 33.6076 44.9275 33.4983 44.8812 33.3971C44.835 33.296 44.7692 33.205 44.6876 33.1293C44.606 33.0537 44.5103 32.995 44.4059 32.9565C44.1967 32.88 43.9657 32.8895 43.7633 32.9828C43.561 33.076 43.4038 33.2455 43.3259 33.4543C41.8125 37.5275 38.918 40.9406 35.1467 43.0991C31.3755 45.2577 26.9665 46.0248 22.6878 45.2668C22.577 45.2474 22.4635 45.25 22.3537 45.2745C22.2439 45.299 22.14 45.3449 22.048 45.4095C21.9559 45.4741 21.8775 45.5563 21.8171 45.6512C21.7568 45.7462 21.7158 45.8521 21.6964 45.9629C21.677 46.0737 21.6796 46.1872 21.7041 46.297C21.7286 46.4068 21.7745 46.5107 21.8391 46.6027C21.9038 46.6948 21.9859 46.7732 22.0809 46.8335C22.1758 46.8939 22.2817 46.9349 22.3925 46.9543C27.0625 47.779 31.8739 46.9385 35.9877 44.5793C40.1016 42.2202 43.2569 38.4921 44.9038 34.0449Z" fill="#ffff"/>
</g>
<defs>
<clipPath id="clip0_188_8801">
<rect width="54" height="54" fill="white"/>
</clipPath>
</defs>
</svg>
