<svg width="54" height="54" viewBox="0 0 54 54" fill="none" xmlns="http://www.w3.org/2000/svg">
<path d="M18.2901 31.2655C14.8118 31.2655 11.9824 28.4362 11.9824 24.9579C11.9824 21.4798 14.8118 18.6504 18.2901 18.6504C21.7682 18.6504 24.5976 21.4798 24.5976 24.9579C24.5977 28.4361 21.7683 31.2655 18.2901 31.2655ZM18.2901 20.2596C15.6995 20.2596 13.5917 22.3673 13.5917 24.9578C13.5917 27.5484 15.6995 29.6561 18.2901 29.6561C20.8805 29.6561 22.9883 27.5484 22.9883 24.9578C22.9884 22.3673 20.8806 20.2596 18.2901 20.2596Z" fill="#ffff"/>
<path d="M20.1375 40.1112C19.7078 40.1112 19.3511 39.7717 19.3341 39.338L19.1344 34.253C19.1171 33.8092 19.4628 33.4352 19.907 33.4176C20.3498 33.3913 20.7251 33.7457 20.7424 34.1902L20.942 39.275C20.9593 39.7189 20.6136 40.0929 20.1695 40.1105C20.1589 40.1112 20.1482 40.1112 20.1375 40.1112Z" fill="#ffff"/>
<path d="M16.4439 40.1111C15.9677 40.093 15.6217 39.7189 15.6393 39.275L15.8392 34.1901C15.8565 33.7463 16.2165 33.3893 16.675 33.4176C17.1189 33.4352 17.4648 33.8092 17.4472 34.253L17.2473 39.3379C17.2303 39.7711 16.8735 40.1111 16.4439 40.1111Z" fill="#ffff"/>
<path d="M30.3049 50.9812H6.27613C5.4577 50.9812 4.79199 50.3148 4.79199 49.4964V37.4538C4.79199 35.111 6.36318 33.0196 8.61303 32.3676L12.3996 31.2694C12.767 31.1613 13.1583 31.3292 13.3359 31.6673L18.2904 41.0911L23.2452 31.6673C23.4231 31.3292 23.815 31.16 24.1814 31.2694L27.968 32.3676C30.2179 33.0196 31.7891 35.111 31.7891 37.4538V49.497C31.7891 50.3156 31.1234 50.9812 30.3049 50.9812ZM6.40119 49.3719H30.1799V37.4538C30.1799 35.8232 29.0861 34.3667 27.5198 33.9128L24.3642 32.9975L19.0025 43.1944C18.8633 43.4591 18.5892 43.6244 18.2904 43.6244C17.9914 43.6244 17.7173 43.4584 17.5781 43.1944L12.2168 32.9975L9.06112 33.9128C7.49491 34.3667 6.40108 35.8232 6.40108 37.4538L6.40119 49.3719Z" fill="#ffff"/>
<path d="M10.1835 50.9812C9.73909 50.9812 9.37891 50.621 9.37891 50.1765V42.2422C9.37891 41.7977 9.73909 41.4375 10.1835 41.4375C10.6279 41.4375 10.9881 41.7977 10.9881 42.2422V50.1765C10.9881 50.6211 10.6279 50.9812 10.1835 50.9812Z" fill="#ffff"/>
<path d="M26.3974 50.9812C25.953 50.9812 25.5928 50.621 25.5928 50.1765V42.2422C25.5928 41.7977 25.953 41.4375 26.3974 41.4375C26.8418 41.4375 27.202 41.7977 27.202 42.2422V50.1765C27.202 50.6211 26.8418 50.9812 26.3974 50.9812Z" fill="#ffff"/>
<path d="M18.2911 47.4853C18.0463 47.4853 17.8089 47.3734 17.6537 47.1715L13.8108 42.1829C13.7411 42.0923 13.6915 41.988 13.665 41.8767L13.2193 39.9872L11.7095 38.9826C11.6167 38.9209 11.5379 38.8404 11.4778 38.7469L8.16061 33.5752C7.92074 33.2012 8.02949 32.7033 8.4035 32.4638C8.7775 32.2231 9.27506 32.3325 9.51525 32.7065L12.7413 37.736L14.3751 38.8229C14.5452 38.936 14.6656 39.1095 14.7127 39.3082L15.1917 41.3381L17.4865 44.3178V42.8204C17.4865 42.376 17.8467 42.0157 18.2912 42.0157C18.7356 42.0157 19.0958 42.376 19.0958 42.8204V46.6808C19.0958 47.0252 18.8768 47.3314 18.5505 47.4426C18.4652 47.4715 18.3778 47.4853 18.2911 47.4853Z" fill="#ffff"/>
<path d="M18.291 47.4846C18.2042 47.4846 18.1169 47.4708 18.0316 47.4418C17.7054 47.3306 17.4863 47.0244 17.4863 46.68V42.8196C17.4863 42.3752 17.8465 42.0149 18.291 42.0149C18.7355 42.0149 19.0956 42.3752 19.0956 42.8196V44.3169L21.3907 41.3373L21.8697 39.3074C21.9168 39.1087 22.0372 38.9352 22.2072 38.8221L23.841 37.7352L27.0671 32.7056C27.3072 32.331 27.8052 32.2222 28.1789 32.463C28.5529 32.7025 28.6616 33.2004 28.4218 33.5744L25.1045 38.7461C25.0445 38.8396 24.9657 38.9202 24.8729 38.9817L23.3629 39.9864L22.9173 41.8759C22.891 41.9873 22.8413 42.0916 22.7714 42.1821L18.9283 47.1707C18.7733 47.3727 18.5359 47.4846 18.291 47.4846Z" fill="#ffff"/>
<path d="M31.5578 30.7827C31.4484 30.7827 31.3381 30.7602 31.2341 30.7149C30.9421 30.586 30.7534 30.2974 30.7534 29.9781V24.7977H29.5927C27.5729 24.7977 25.9297 23.1545 25.9297 21.1347V10.5046C25.9297 8.9583 26.9078 7.57148 28.3635 7.05286C28.7827 6.90576 29.2426 7.12263 29.3915 7.54134C29.5406 7.96006 29.3221 8.42025 28.9034 8.56907C28.0871 8.85948 27.5389 9.63719 27.5389 10.5046V21.1347C27.5389 22.2668 28.4601 23.1884 29.5926 23.1884H31.5581C32.0025 23.1884 32.3627 23.5486 32.3627 23.993V28.1501L37.5489 23.3995C37.6972 23.2639 37.8912 23.1884 38.0923 23.1884H47.6374C48.7699 23.1884 49.6914 22.2668 49.6914 21.1347V10.5046C49.6914 9.63276 49.1391 8.85333 48.3169 8.56529C47.8976 8.4183 47.6767 7.9593 47.8238 7.54005C47.9702 7.12068 48.4304 6.89939 48.8493 7.04649C50.3155 7.56013 51.3005 8.9501 51.3005 10.5046V21.1347C51.3005 23.1545 49.6574 24.7977 47.6373 24.7977H38.4051L32.1016 30.5716C31.9503 30.7098 31.7554 30.7827 31.5578 30.7827Z" fill="#ffff"/>
<path d="M44.1251 16.1084C41.725 16.1084 39.7725 14.1559 39.7725 11.7558C39.7725 11.3114 40.1326 10.9512 40.5771 10.9512H47.6732C48.1176 10.9512 48.4779 11.3114 48.4779 11.7558C48.4779 14.1559 46.5251 16.1084 44.1251 16.1084ZM41.5021 12.5606C41.8466 13.6821 42.8924 14.4993 44.1251 14.4993C45.3581 14.4993 46.4036 13.6821 46.7483 12.5606H41.5021Z" fill="#ffff"/>
<path d="M46.8282 12.561H41.4217C41.1436 12.561 40.8853 12.4177 40.7385 12.1813C40.5916 11.9449 40.5772 11.6494 40.7002 11.4006L43.4032 5.9215C43.5386 5.64675 43.8183 5.47266 44.1248 5.47266C44.4309 5.47266 44.7111 5.64686 44.8465 5.9215L47.5498 11.4006C47.6727 11.6494 47.6583 11.9449 47.5115 12.1813C47.3647 12.4176 47.1063 12.561 46.8282 12.561ZM42.716 10.9517H45.5337L44.1247 8.09587L42.716 10.9517Z" fill="#ffff"/>
<path d="M33.1046 16.1084C30.7045 16.1084 28.752 14.1559 28.752 11.7558C28.752 11.3114 29.1121 10.9512 29.5567 10.9512H36.6525C37.0969 10.9512 37.4571 11.3114 37.4571 11.7558C37.4571 14.1559 35.5045 16.1084 33.1046 16.1084ZM30.4817 12.5606C30.8261 13.6821 31.8719 14.4993 33.1046 14.4993C34.3373 14.4993 35.383 13.6821 35.7276 12.5606H30.4817Z" fill="#ffff"/>
<path d="M35.8079 12.561H30.4012C30.1231 12.561 29.8647 12.4177 29.7179 12.1813C29.5711 11.9449 29.5568 11.6494 29.6796 11.4006L32.3829 5.9215C32.5183 5.64675 32.7982 5.47266 33.1046 5.47266C33.4111 5.47266 33.6908 5.64686 33.8262 5.9215L36.5296 11.4006C36.6525 11.6494 36.638 11.9449 36.4912 12.1813C36.3445 12.4176 36.0861 12.561 35.8079 12.561ZM31.6955 10.9517H34.5136L33.1046 8.09587L31.6955 10.9517Z" fill="#ffff"/>
<path d="M38.6143 19.3001C38.1697 19.3001 37.8096 18.9398 37.8096 18.4954V6.50002C37.8096 6.0556 38.1697 5.69531 38.6143 5.69531C39.0587 5.69531 39.4189 6.0556 39.4189 6.50002V18.4954C39.4189 18.9398 39.0587 19.3001 38.6143 19.3001Z" fill="#ffff"/>
<path d="M45.4165 7.08143H43.4853C42.6093 7.08143 41.7575 6.83055 41.0221 6.35665L39.4272 5.3476C39.0515 5.11 38.94 4.61288 39.1775 4.23747C39.4152 3.86152 39.9115 3.74974 40.2878 3.98723L41.8882 5.00006C42.3688 5.30991 42.9192 5.47213 43.4852 5.47213H45.4164C45.8608 5.47213 46.221 5.83231 46.221 6.27683C46.2211 6.72125 45.8609 7.08143 45.4165 7.08143Z" fill="#ffff"/>
<path d="M33.879 7.08187H31.8124C31.368 7.08187 31.0078 6.72169 31.0078 6.27727C31.0078 5.83274 31.368 5.47256 31.8124 5.47256H33.879C34.4799 5.47256 35.0586 5.29156 35.5527 4.94952L36.9117 4.00668C37.2763 3.75396 37.7777 3.84382 38.0313 4.20896C38.2845 4.57422 38.1941 5.07588 37.8289 5.32914L36.4695 6.27209C35.7047 6.80215 34.8091 7.08187 33.879 7.08187Z" fill="#ffff"/>
<path d="M42.3943 21.813H34.834C34.3895 21.813 34.0293 21.4527 34.0293 21.0083V19.7631C34.0293 18.6202 34.9591 17.6904 36.1022 17.6904H41.1265C42.2694 17.6904 43.1991 18.6202 43.1991 19.7631V21.0083C43.199 21.4527 42.8389 21.813 42.3943 21.813ZM35.6386 20.2037H41.5897V19.7631C41.5897 19.5079 41.3819 19.2997 41.1264 19.2997H36.1021C35.8466 19.2997 35.6385 19.5079 35.6385 19.7631L35.6386 20.2037Z" fill="#ffff"/>
<path d="M44.3332 21.8132H32.8955C32.451 21.8132 32.0908 21.4529 32.0908 21.0085C32.0908 20.564 32.451 20.2039 32.8955 20.2039H44.3333C44.7778 20.2039 45.138 20.564 45.138 21.0085C45.1379 21.4529 44.7777 21.8132 44.3332 21.8132Z" fill="#ffff"/>
<path d="M38.6146 7.30453C37.4331 7.30453 36.4717 6.34344 36.4717 5.16149C36.4717 3.97965 37.4331 3.01855 38.6146 3.01855C39.796 3.01855 40.7574 3.97965 40.7574 5.16149C40.7574 6.34344 39.796 7.30453 38.6146 7.30453ZM38.6146 4.62797C38.3204 4.62797 38.0809 4.86741 38.0809 5.1616C38.0809 5.45579 38.3204 5.69523 38.6146 5.69523C38.9087 5.69523 39.1482 5.45579 39.1482 5.1616C39.1482 4.86741 38.9087 4.62797 38.6146 4.62797Z" fill="#ffff"/>
<path d="M43.6823 50.9811H3.5048C3.06038 50.9811 2.7002 50.6208 2.7002 50.1764C2.7002 49.732 3.06038 49.3718 3.5048 49.3718H43.6823C44.1267 49.3718 44.4869 49.732 44.4869 50.1764C44.4869 50.621 44.1267 50.9811 43.6823 50.9811Z" fill="#ffff"/>
<path d="M42.3953 41.4879C41.9508 41.4879 41.5907 41.1277 41.5907 40.6833C41.5907 38.9659 40.1936 37.5691 38.4765 37.5691C38.0321 37.5691 37.6719 37.2088 37.6719 36.7644C37.6719 36.32 38.0321 35.9598 38.4765 35.9598C40.1936 35.9598 41.5907 34.563 41.5907 32.8456C41.5907 32.4012 41.9508 32.041 42.3953 32.041C42.8398 32.041 43.2 32.4012 43.2 32.8456C43.2 34.563 44.5971 35.9598 46.3141 35.9598C46.7586 35.9598 47.1187 36.32 47.1187 36.7644C47.1187 37.2088 46.7586 37.5691 46.3141 37.5691C44.5971 37.5691 43.2 38.9659 43.2 40.6833C43.2 41.1277 42.8398 41.4879 42.3953 41.4879ZM41.1109 36.7644C41.617 37.1057 42.0539 37.5426 42.3951 38.0487C42.7365 37.5426 43.1735 37.1058 43.6795 36.7644C43.1735 36.4231 42.7366 35.9861 42.3951 35.4801C42.0539 35.9861 41.617 36.423 41.1109 36.7644Z" fill="#ffff"/>
<path d="M11.917 16.5349C11.4725 16.5349 11.1124 16.1746 11.1124 15.7302C11.1124 13.5671 9.35283 11.8076 7.19034 11.8076C6.74592 11.8076 6.38574 11.4474 6.38574 11.003C6.38574 10.5585 6.74592 10.1983 7.19034 10.1983C9.35283 10.1983 11.1124 8.43876 11.1124 6.27639C11.1124 5.83186 11.4725 5.47168 11.917 5.47168C12.3614 5.47168 12.7216 5.83186 12.7216 6.27639C12.7216 8.43876 14.4811 10.1983 16.6436 10.1983C17.088 10.1983 17.4482 10.5585 17.4482 11.003C17.4482 11.4474 17.088 11.8076 16.6436 11.8076C14.4811 11.8076 12.7216 13.5671 12.7216 15.7296C12.7215 16.174 12.3613 16.5349 11.917 16.5349ZM10.061 11.003C10.8178 11.4644 11.4556 12.1023 11.917 12.8593C12.3783 12.1023 13.0164 11.4644 13.7733 11.003C13.0164 10.5415 12.3783 9.90357 11.917 9.1466C11.4555 9.90357 10.8177 10.5415 10.061 11.003Z" fill="#ffff"/>
</svg>
