<svg width="54" height="54" viewBox="0 0 54 54" fill="none" xmlns="http://www.w3.org/2000/svg">
<path d="M39.5184 47.2099C39.0275 47.2099 38.7002 46.8826 38.7002 46.3917V25.119C38.7002 24.6281 39.0275 24.3008 39.5184 24.3008C40.0093 24.3008 40.3366 24.6281 40.3366 25.119V46.3917C40.3366 46.8826 40.0093 47.2099 39.5184 47.2099Z" fill="#ffff"/>
<path d="M37.8004 51.8733H5.72763C3.43672 51.8733 1.63672 50.0733 1.63672 47.7824V10.3097C1.63672 8.01875 3.43672 6.21875 5.72763 6.21875H26.9185C27.4094 6.21875 27.7367 6.54602 27.7367 7.03693C27.7367 7.52784 27.4094 7.85511 26.9185 7.85511H5.72763C4.33672 7.85511 3.27308 8.91875 3.27308 10.3097V47.7824C3.27308 49.1733 4.33672 50.2369 5.72763 50.2369H37.8004C38.2913 50.2369 38.6185 50.5642 38.6185 51.0551C38.6185 51.546 38.2913 51.8733 37.8004 51.8733Z" fill="#ffff"/>
<path d="M26.8365 19.0639H6.13654C5.64563 19.0639 5.31836 18.7366 5.31836 18.2457V11.782C5.31836 11.2911 5.64563 10.9639 6.13654 10.9639H25.2002C25.6911 10.9639 26.0184 11.2911 26.0184 11.782C26.0184 12.273 25.6911 12.6002 25.2002 12.6002H6.95472V17.4275H26.8365C27.3274 17.4275 27.6547 17.7548 27.6547 18.2457C27.6547 18.7366 27.3274 19.0639 26.8365 19.0639Z" fill="#ffff"/>
<path d="M35.8365 47.6188H6.13654C5.64563 47.6188 5.31836 47.2915 5.31836 46.8006C5.31836 46.3097 5.64563 45.9824 6.13654 45.9824H35.8365C36.3274 45.9824 36.6547 46.3097 36.6547 46.8006C36.6547 47.2915 36.3274 47.6188 35.8365 47.6188Z" fill="#ffff"/>
<path d="M35.8365 43.8551H6.13654C5.64563 43.8551 5.31836 43.5278 5.31836 43.0369C5.31836 42.546 5.64563 42.2188 6.13654 42.2188H35.8365C36.3274 42.2188 36.6547 42.546 36.6547 43.0369C36.6547 43.5278 36.3274 43.8551 35.8365 43.8551Z" fill="#ffff"/>
<path d="M28.3094 38.9464H13.7458C12.0276 38.9464 10.6367 37.4736 10.6367 35.6736V27.2464C10.6367 25.4464 12.0276 23.9736 13.7458 23.9736H28.2276C29.9458 23.9736 31.3367 25.3645 31.4185 27.1645V35.6736C31.4185 37.4736 30.0276 38.9464 28.3094 38.9464ZM13.7458 25.61C12.9276 25.61 12.2731 26.3464 12.2731 27.2464V35.6736C12.2731 36.5736 12.9276 37.31 13.7458 37.31H28.3094C29.0458 37.31 29.7822 36.4918 29.7822 35.6736V27.2464C29.7004 26.3464 29.0458 25.61 28.2276 25.61H13.7458ZM26.7549 33.71H23.4822C22.9913 33.71 22.664 33.3827 22.664 32.8918V30.0282C22.664 29.5373 22.9913 29.21 23.4822 29.21H26.7549C27.2458 29.21 27.5731 29.5373 27.5731 30.0282V32.8918C27.5731 33.3827 27.2458 33.71 26.7549 33.71ZM24.3004 32.0736H25.9367V30.8464H24.3004V32.0736Z" fill="#ffff"/>
<path d="M18.4913 33.71H15.2186C14.7277 33.71 14.4004 33.3827 14.4004 32.8918V30.0281C14.4004 29.5372 14.7277 29.21 15.2186 29.21H18.4913C18.9822 29.21 19.3095 29.5372 19.3095 30.0281V32.8918C19.3095 33.3827 18.9822 33.71 18.4913 33.71ZM16.0368 32.0736H17.6731V30.8463H16.0368V32.0736Z" fill="#ffff"/>
<path d="M26.755 32.0736C26.2641 32.0736 25.9368 31.7463 25.9368 31.2554V30.8463H24.3004V31.2554C24.3004 31.7463 23.9732 32.0736 23.4822 32.0736C22.9913 32.0736 22.6641 31.7463 22.6641 31.2554V30.0281C22.6641 29.5372 22.9913 29.21 23.4822 29.21H26.755C27.2459 29.21 27.5732 29.5372 27.5732 30.0281V31.2554C27.5732 31.7463 27.2459 32.0736 26.755 32.0736Z" fill="#ffff"/>
<path d="M25.1998 25.61C24.7089 25.61 24.3816 25.2827 24.3816 24.7918V23.5646C24.3816 23.2373 24.1361 22.9918 23.8907 22.9918H18.1634C17.918 22.9918 17.6725 23.2373 17.6725 23.5646V24.7918C17.6725 25.2827 17.3452 25.61 16.8543 25.61C16.3634 25.61 16.0361 25.2827 16.0361 24.7918V23.5646C16.0361 22.3373 17.018 21.3555 18.1634 21.3555H23.8907C25.0361 21.3555 26.018 22.3373 26.018 23.5646V24.7918C26.018 25.2827 25.6907 25.61 25.1998 25.61Z" fill="#ffff"/>
<path d="M15.2183 32.0739H11.3729C10.882 32.0739 10.5547 31.7466 10.5547 31.2557C10.5547 30.7648 10.882 30.4375 11.3729 30.4375H15.2183C15.7092 30.4375 16.0365 30.7648 16.0365 31.2557C16.0365 31.7466 15.7092 32.0739 15.2183 32.0739Z" fill="#ffff"/>
<path d="M30.5183 32.0739H26.7547C26.2638 32.0739 25.9365 31.7466 25.9365 31.2557C25.9365 30.7648 26.2638 30.4375 26.7547 30.4375H30.5183C31.0092 30.4375 31.3365 30.7648 31.3365 31.2557C31.3365 31.7466 31.0092 32.0739 30.5183 32.0739Z" fill="#ffff"/>
<path d="M23.4819 32.0739H18.491C18.0001 32.0739 17.6729 31.7466 17.6729 31.2557C17.6729 30.7648 18.0001 30.4375 18.491 30.4375H23.4819C23.9729 30.4375 24.3001 30.7648 24.3001 31.2557C24.3001 31.7466 23.9729 32.0739 23.4819 32.0739Z" fill="#ffff"/>
<path d="M48.7642 33.3005C48.2733 33.3005 47.946 32.9732 47.946 32.4823V28.0641H45.6551C45.1642 28.0641 44.8369 27.7368 44.8369 27.2459C44.8369 26.755 45.1642 26.4277 45.6551 26.4277H48.7642C49.2551 26.4277 49.5824 26.755 49.5824 27.2459V32.4823C49.5824 32.9732 49.2551 33.3005 48.7642 33.3005Z" fill="#ffff"/>
<path d="M44.1 51.7914C40.9909 51.7914 38.6182 49.4186 38.6182 46.3914V27.2459C38.6182 26.755 38.9454 26.4277 39.4363 26.4277H41.2363C41.7273 26.4277 42.0545 26.755 42.0545 27.2459C42.0545 27.7368 41.7273 28.0641 41.2363 28.0641H40.2545V46.3914C40.2545 48.5186 41.9727 50.155 44.1 50.155C46.2273 50.155 47.9454 48.5186 47.9454 46.3914V38.8641C47.9454 38.3732 48.2727 38.0459 48.7636 38.0459C49.2545 38.0459 49.5818 38.3732 49.5818 38.8641V46.3914C49.5818 49.4186 47.2091 51.7914 44.1 51.7914Z" fill="#ffff"/>
<path d="M44.1006 51.7916H37.8006C37.3097 51.7916 36.9824 51.4644 36.9824 50.9735C36.9824 50.4825 37.3097 50.1553 37.8006 50.1553H44.1006C44.5915 50.1553 44.9188 50.4825 44.9188 50.9735C44.9188 51.4644 44.5915 51.7916 44.1006 51.7916Z" fill="#ffff"/>
<path d="M34.8554 23.2365C31.1735 23.2365 27.6554 21.2728 25.6917 18.0819C24.219 15.6274 23.8099 12.7638 24.5463 10.0638C25.2826 7.36375 27.0008 5.07284 29.4554 3.60012C31.419 2.45466 33.6281 1.96375 35.8372 2.20921C37.6372 2.37285 39.3554 2.94557 40.9099 4.00921C42.3008 4.99103 43.2826 6.05466 44.019 7.36375C44.5917 8.34557 45.0008 9.40921 45.2463 10.3092C45.9826 13.4183 45.2463 16.6092 43.2826 19.1456C42.8735 19.8001 42.219 20.291 41.6463 20.7819C41.4008 20.9456 41.1554 21.1092 40.9917 21.2728C40.8281 21.4365 40.5826 21.5183 40.419 21.6819L40.3372 21.7638C39.1099 22.5001 37.8008 22.9092 36.4917 23.0728C35.919 23.2365 35.3463 23.2365 34.8554 23.2365ZM34.9372 3.84557C33.3008 3.84557 31.7463 4.25466 30.2735 5.07284C28.2281 6.30012 26.7554 8.18194 26.1826 10.4728C25.6099 12.7638 25.9372 15.2183 27.1645 17.2638C29.0463 20.3728 32.6463 22.091 36.2463 21.5183C37.3099 21.3547 38.3735 21.0274 39.4372 20.4547C39.6008 20.291 39.8463 20.1274 40.0099 20.0456C40.1735 19.8819 40.419 19.8001 40.5826 19.6365C41.0735 19.1456 41.6463 18.7365 41.9735 18.2456C43.6099 16.1183 44.2645 13.4183 43.6099 10.8001C43.3645 9.98194 43.0372 9.08194 42.5463 8.26375C41.8917 7.20012 41.0735 6.30012 39.9281 5.40012C38.619 4.58194 37.1463 4.00921 35.6735 3.92739C35.4281 3.84557 35.1826 3.84557 34.9372 3.84557Z" fill="#ffff"/>
<path d="M38.3736 26.5907C38.1282 26.5907 37.8009 26.4271 37.6373 26.1816L35.5918 22.7453C35.3464 22.3362 35.51 21.8453 35.8373 21.5998C36.2464 21.3544 36.7373 21.518 36.9827 21.8453L38.6191 24.6271L43.5282 21.7634L41.8918 19.0634C41.6464 18.6543 41.81 18.1634 42.1373 17.918C42.5464 17.6725 43.0373 17.8362 43.2827 18.1634L45.3282 21.5998C45.41 21.7634 45.4918 22.0089 45.41 22.2544C45.3282 22.4998 45.1645 22.6634 45.0009 22.7453L44.8373 22.9089L38.7827 26.5089C38.6191 26.5907 38.5373 26.5907 38.3736 26.5907Z" fill="#ffff"/>
<path d="M48.3551 39.9277C48.1097 39.9277 47.7824 39.7641 47.6188 39.5186L39.1915 25.2822C38.946 24.8732 39.1097 24.3822 39.5188 24.1368C39.9279 23.8913 40.4188 24.055 40.6642 24.4641L48.6824 37.9641L50.4824 36.9004L42.4642 23.4004C42.2188 22.9913 42.3824 22.5004 42.7915 22.255C43.2006 22.0095 43.6915 22.1732 43.937 22.5822L52.2824 36.8186C52.3642 36.9822 52.446 37.2277 52.3642 37.4732C52.2824 37.7186 52.2006 37.8822 51.9551 37.9641L48.7642 39.8459C48.6006 39.9277 48.5188 39.9277 48.3551 39.9277Z" fill="#ffff"/>
</svg>
