<svg width="54" height="54" viewBox="0 0 54 54" fill="none" xmlns="http://www.w3.org/2000/svg">
<path d="M36.8172 52.4119H17.1841C16.1011 52.4119 15.2197 51.531 15.2197 50.4476V47.603C15.2197 46.5196 16.1011 45.6387 17.1841 45.6387H36.8172C37.9002 45.6387 38.7815 46.5196 38.7815 47.603V50.4476C38.7815 51.531 37.9002 52.4119 36.8172 52.4119ZM17.1841 47.2269C16.9766 47.2269 16.808 47.396 16.808 47.603V50.4476C16.808 50.6546 16.9766 50.8237 17.1841 50.8237H36.8172C37.0246 50.8237 37.1933 50.6546 37.1933 50.4476V47.603C37.1933 47.396 37.0246 47.2269 36.8172 47.2269H17.1841Z" fill="#ffff"/>
<path d="M34.3535 47.2269H19.6464C18.7251 47.2269 17.9756 46.4777 17.9756 45.5564V43.4253C17.9756 42.504 18.7251 41.7549 19.6464 41.7549H34.3535C35.2748 41.7549 36.0243 42.504 36.0243 43.4253V45.5564C36.0243 46.4777 35.2748 47.2269 34.3535 47.2269ZM19.6464 43.3431C19.601 43.3431 19.5638 43.3803 19.5638 43.4253V45.5564C19.5638 45.6014 19.601 45.6386 19.6464 45.6386H34.3535C34.3989 45.6386 34.4361 45.6014 34.4361 45.5564V43.4253C34.4361 43.3803 34.3989 43.3431 34.3535 43.3431H19.6464Z" fill="#ffff"/>
<path d="M29.6359 43.3429H24.3644C23.9259 43.3429 23.5703 42.9877 23.5703 42.5488V18.9369C23.5703 18.65 23.7254 18.3848 23.9759 18.2444C24.2272 18.104 24.5339 18.1095 24.7786 18.2591C26.0903 19.0618 27.8984 19.0695 29.2218 18.2591C29.4669 18.1095 29.7736 18.1033 30.0245 18.2444C30.2749 18.3848 30.43 18.65 30.43 18.9369V42.5488C30.43 42.9877 30.0745 43.3429 29.6359 43.3429ZM25.1585 41.7546H28.8418V20.1715C27.6646 20.5577 26.3323 20.5554 25.1585 20.1715V41.7546Z" fill="#ffff"/>
<path d="M22.6247 18.0226H6.0401C4.09629 18.0226 2.51465 16.4413 2.51465 14.4971C2.51465 12.5529 4.09629 10.9717 6.0401 10.9717H22.6247C22.9147 10.9717 23.1819 11.1299 23.3215 11.3842C23.4607 11.6394 23.4498 11.9496 23.2935 12.1939C22.855 12.8794 22.6231 13.6774 22.6231 14.5026C22.6231 15.33 22.8542 16.1226 23.2908 16.7965C23.4494 17.0408 23.4614 17.3518 23.3226 17.6077C23.1834 17.8636 22.9159 18.0226 22.6247 18.0226ZM6.0401 12.5599C4.97184 12.5599 4.10288 13.4293 4.10288 14.4971C4.10288 15.565 4.97184 16.4343 6.0401 16.4343H21.3587C21.145 15.8209 21.0349 15.1695 21.0349 14.5026C21.0349 13.8348 21.1462 13.1788 21.3621 12.5599H6.0401Z" fill="#ffff"/>
<path d="M47.9601 18.0226H31.386C31.0963 18.0226 30.8295 17.8651 30.69 17.6108C30.5504 17.3572 30.5604 17.047 30.7155 16.8027C31.1483 16.1218 31.3771 15.3261 31.3771 14.5026C31.3771 13.6813 31.1475 12.881 30.7132 12.1877C30.5597 11.9426 30.5511 11.634 30.6911 11.3811C30.8311 11.1283 31.0971 10.9717 31.386 10.9717H47.9601C49.9039 10.9717 51.4855 12.5529 51.4855 14.4971C51.4855 16.4413 49.9039 18.0226 47.9601 18.0226ZM32.6438 16.4343H47.9601C49.0283 16.4343 49.8973 15.565 49.8973 14.4971C49.8973 13.4293 49.0283 12.5599 47.9601 12.5599H32.6404C32.8548 13.1811 32.9653 13.8372 32.9653 14.5026C32.9653 15.1672 32.8559 15.8194 32.6438 16.4343Z" fill="#ffff"/>
<path d="M27.0058 20.4626C25.915 20.4626 24.8584 20.1695 23.9507 19.6142C23.1387 19.1419 22.44 18.4564 21.9456 17.6405C21.3547 16.7293 21.0352 15.6374 21.0352 14.5028C21.0352 13.3737 21.3535 12.2795 21.9561 11.338C23.0352 9.58536 24.9255 8.53223 27.0058 8.53223C29.0733 8.53223 30.9632 9.58381 32.0605 11.3465C32.6526 12.2903 32.9659 13.383 32.9659 14.5028C32.9659 15.6289 32.6515 16.7185 32.057 17.6545C31.5549 18.4633 30.8542 19.1466 30.0357 19.6227C29.1427 20.1695 28.0895 20.4626 27.0058 20.4626ZM27.0058 10.1205C25.4811 10.1205 24.0961 10.8913 23.3012 12.1825C22.8553 12.8797 22.6234 13.6777 22.6234 14.5028C22.6234 15.3303 22.8545 16.1229 23.2911 16.7968C23.6614 17.4071 24.1659 17.9019 24.7642 18.2501C26.1054 19.0698 27.8988 19.069 29.2222 18.2586C29.8317 17.9042 30.342 17.4063 30.7119 16.81C31.1489 16.1221 31.3777 15.3264 31.3777 14.5028C31.3777 13.6816 31.1481 12.8813 30.7139 12.188C29.9069 10.8929 28.5211 10.1205 27.0058 10.1205Z" fill="#ffff"/>
<path d="M27.0052 15.35C26.9152 15.35 26.8194 15.3329 26.7295 15.3011C26.6062 15.2616 26.4933 15.1918 26.4018 15.0972C26.3708 15.0646 26.3417 15.0289 26.315 14.9909C26.2072 14.8521 26.1475 14.6807 26.1475 14.5031C26.1475 14.4139 26.1657 14.3162 26.1963 14.227C26.2351 14.1084 26.301 13.999 26.391 13.9099C26.6888 13.6105 27.3111 13.6113 27.6089 13.9091C27.7578 14.058 27.8419 14.2612 27.8419 14.4713V14.5031C27.8419 14.7141 27.7582 14.9366 27.6093 15.0855C27.5736 15.1212 27.5337 15.1545 27.4906 15.1848C27.3518 15.291 27.1816 15.35 27.0052 15.35Z" fill="#ffff"/>
<path d="M47.9603 12.5603C47.8479 12.5603 47.7335 12.5363 47.6249 12.4859L28.2672 3.44814C27.492 3.08597 26.6029 3.08675 25.827 3.44658L6.37502 12.4867C5.97796 12.6712 5.50529 12.4983 5.32033 12.1012C5.13537 11.7034 5.30792 11.2311 5.70576 11.0458L25.1578 2.0057C26.3598 1.44811 27.7383 1.44811 28.9387 2.0088L48.2965 11.0465C48.694 11.2319 48.8657 11.7049 48.6804 12.102C48.5455 12.3913 48.2593 12.5603 47.9603 12.5603Z" fill="#ffff"/>
<path d="M47.9203 38.3135H36.1993C34.9407 38.3135 33.917 37.2898 33.917 36.0312V27.8077C33.917 26.5491 34.9407 25.5254 36.1993 25.5254H47.9203C49.1789 25.5254 50.203 26.5491 50.203 27.8077V36.0312C50.203 37.2898 49.1789 38.3135 47.9203 38.3135ZM36.1993 27.1136C35.8166 27.1136 35.5052 27.4246 35.5052 27.8077V36.0312C35.5052 36.4143 35.8166 36.7252 36.1993 36.7252H47.9203C48.3034 36.7252 48.6148 36.4143 48.6148 36.0312V27.8077C48.6148 27.4246 48.3034 27.1136 47.9203 27.1136H36.1993Z" fill="#ffff"/>
<path d="M17.7986 38.3135H6.07762C4.81898 38.3135 3.79492 37.2898 3.79492 36.0312V27.8077C3.79492 26.5491 4.81898 25.5254 6.07762 25.5254H17.7986C19.0573 25.5254 20.0809 26.5491 20.0809 27.8077V36.0312C20.0809 37.2898 19.0573 38.3135 17.7986 38.3135ZM6.07762 27.1136C5.69452 27.1136 5.38316 27.4246 5.38316 27.8077V36.0312C5.38316 36.4143 5.69452 36.7252 6.07762 36.7252H17.7986C18.1813 36.7252 18.4927 36.4143 18.4927 36.0312V27.8077C18.4927 27.4246 18.1813 27.1136 17.7986 27.1136H6.07762Z" fill="#ffff"/>
<path d="M16.1326 27.1133H7.74242C7.47177 27.1133 7.21935 26.9752 7.07355 26.7472C6.92737 26.5192 6.90798 26.2323 7.0212 25.9865L11.2163 16.896C11.3462 16.6145 11.6277 16.4346 11.9375 16.4346C12.2473 16.4346 12.5288 16.6145 12.6587 16.896L16.8538 25.9865C16.9671 26.2323 16.9477 26.5192 16.8015 26.7472C16.6557 26.9752 16.4033 27.1133 16.1326 27.1133ZM8.98362 25.525H14.8914L11.9375 19.124L8.98362 25.525Z" fill="#ffff"/>
<path d="M46.2559 27.1133H37.8653C37.5947 27.1133 37.3423 26.9752 37.1965 26.7472C37.0507 26.5192 37.0309 26.2323 37.1441 25.9865L41.3392 16.896C41.4691 16.6145 41.7506 16.4346 42.0604 16.4346C42.3703 16.4346 42.6518 16.6145 42.7817 16.896L46.9772 25.9865C47.0904 26.2323 47.071 26.5192 46.9248 26.7472C46.779 26.9752 46.5266 27.1133 46.2559 27.1133ZM39.1065 25.525H45.0147L42.0604 19.124L39.1065 25.525Z" fill="#ffff"/>
<path d="M19.2868 31.3128H4.58904C4.15049 31.3128 3.79492 30.9577 3.79492 30.5187C3.79492 30.0798 4.15049 29.7246 4.58904 29.7246H19.2868C19.7254 29.7246 20.0809 30.0798 20.0809 30.5187C20.0809 30.9577 19.7254 31.3128 19.2868 31.3128Z" fill="#ffff"/>
<path d="M49.4089 31.3128H34.7111C34.2726 31.3128 33.917 30.9577 33.917 30.5187C33.917 30.0798 34.2726 29.7246 34.7111 29.7246H49.4089C49.8474 29.7246 50.203 30.0798 50.203 30.5187C50.203 30.9577 49.8474 31.3128 49.4089 31.3128Z" fill="#ffff"/>
</svg>
