<svg width="54" height="54" viewBox="0 0 54 54" fill="none" xmlns="http://www.w3.org/2000/svg">
<path d="M29.5312 32.0625H34.5938V33.75H29.5312V32.0625Z" fill="#ffff"/>
<path d="M27.4463 28.7295L31.026 25.1498L32.2193 26.343L28.6395 29.9227L27.4463 28.7295Z" fill="#ffff"/>
<path d="M27.4443 37.085L28.6376 35.8917L32.2173 39.4714L31.0241 40.6647L27.4443 37.085Z" fill="#ffff"/>
<path d="M48.0938 1.6875H10.9688C10.745 1.6875 10.5304 1.77639 10.3721 1.93463C10.2139 2.09286 10.125 2.30747 10.125 2.53125V28.6875H7.59375C6.92242 28.6875 6.27859 28.9542 5.80389 29.4289C5.32918 29.9036 5.0625 30.5474 5.0625 31.2188V34.5938C5.0625 35.2651 5.32918 35.9089 5.80389 36.3836C6.27859 36.8583 6.92242 37.125 7.59375 37.125V44.7188C7.59375 44.9425 7.68265 45.1571 7.84088 45.3154C7.99911 45.4736 8.21372 45.5625 8.4375 45.5625H10.125V51.4688C10.125 51.6925 10.2139 51.9071 10.3721 52.0654C10.5304 52.2236 10.745 52.3125 10.9688 52.3125H48.0938C48.7651 52.3125 49.4089 52.0458 49.8836 51.5711C50.3583 51.0964 50.625 50.4526 50.625 49.7812V4.21875C50.625 3.54742 50.3583 2.90359 49.8836 2.42889C49.4089 1.95418 48.7651 1.6875 48.0938 1.6875ZM40.5 3.375H43.875V8.4375L42.8625 7.0875C42.7805 6.98784 42.6774 6.90757 42.5607 6.85246C42.444 6.79736 42.3166 6.76877 42.1875 6.76877C42.0584 6.76877 41.931 6.79736 41.8143 6.85246C41.6976 6.90757 41.5945 6.98784 41.5125 7.0875L40.5 8.4375V3.375ZM20.25 38.41L13.5 35.71V30.1025L20.25 27.4025V38.41ZM11.8125 3.375H16.875V26.935L12.4934 28.6875H11.8125V3.375ZM10.125 30.375H11.8125V35.4375H10.125V30.375ZM6.75 34.5938V31.2188C6.75 30.995 6.83889 30.7804 6.99713 30.6221C7.15536 30.4639 7.36997 30.375 7.59375 30.375H8.4375V35.4375H7.59375C7.36997 35.4375 7.15536 35.3486 6.99713 35.1904C6.83889 35.0321 6.75 34.8175 6.75 34.5938ZM9.28125 37.125H12.4934L12.6562 37.19V43.875H9.28125V37.125ZM11.8125 45.5625H13.5C13.7238 45.5625 13.9384 45.4736 14.0966 45.3154C14.2549 45.1571 14.3438 44.9425 14.3438 44.7188V37.865L16.875 38.8775V50.625H11.8125V45.5625ZM48.9375 49.7812C48.9375 50.005 48.8486 50.2196 48.6904 50.3779C48.5321 50.5361 48.3175 50.625 48.0938 50.625H18.5625V39.5525L20.3344 40.2604C20.4841 40.8575 20.8468 41.3795 21.3541 41.7282C21.8615 42.0769 22.4788 42.2284 23.0899 42.1543C23.7011 42.0801 24.2642 41.7853 24.6734 41.3254C25.0827 40.8654 25.3099 40.2719 25.3125 39.6562V36.1614C26.0361 35.9773 26.6777 35.5573 27.1359 34.9678C27.5942 34.3783 27.843 33.6529 27.843 32.9062C27.843 32.1596 27.5942 31.4342 27.1359 30.8447C26.6777 30.2552 26.0361 29.8352 25.3125 29.6511V26.1562C25.3099 25.5406 25.0827 24.9471 24.6734 24.4871C24.2642 24.0272 23.7011 23.7324 23.0899 23.6582C22.4788 23.5841 21.8615 23.7356 21.3541 24.0843C20.8468 24.433 20.4841 24.955 20.3344 25.5521L18.5625 26.26V3.375H38.8125V10.9688C38.8125 11.1458 38.8682 11.3184 38.9718 11.4621C39.0753 11.6058 39.2214 11.7132 39.3894 11.7692C39.5574 11.8252 39.7388 11.8269 39.9078 11.7741C40.0769 11.7213 40.225 11.6167 40.3312 11.475L42.1875 9.00028L44.0438 11.475C44.1223 11.5798 44.2243 11.6648 44.3414 11.7234C44.4586 11.782 44.5878 11.8125 44.7188 11.8125C44.8093 11.8123 44.8993 11.7978 44.9854 11.7695C45.1535 11.7135 45.2996 11.606 45.4032 11.4623C45.5068 11.3186 45.5625 11.1459 45.5625 10.9688V3.375H48.0938C48.3175 3.375 48.5321 3.46389 48.6904 3.62213C48.8486 3.78036 48.9375 3.99497 48.9375 4.21875V49.7812ZM21.9375 39.6562V26.1562C21.9375 25.9325 22.0264 25.7179 22.1846 25.5596C22.3429 25.4014 22.5575 25.3125 22.7812 25.3125C23.005 25.3125 23.2196 25.4014 23.3779 25.5596C23.5361 25.7179 23.625 25.9325 23.625 26.1562V39.6562C23.625 39.88 23.5361 40.0946 23.3779 40.2529C23.2196 40.4111 23.005 40.5 22.7812 40.5C22.5575 40.5 22.3429 40.4111 22.1846 40.2529C22.0264 40.0946 21.9375 39.88 21.9375 39.6562ZM25.3125 31.4533C25.5687 31.5996 25.7817 31.8111 25.9298 32.0662C26.0779 32.3214 26.1559 32.6112 26.1559 32.9062C26.1559 33.2013 26.0779 33.4911 25.9298 33.7463C25.7817 34.0014 25.5687 34.2129 25.3125 34.3592V31.4533Z" fill="#ffff"/>
<path d="M21.9375 10.125H35.4375V11.8125H21.9375V10.125Z" fill="#ffff"/>
<path d="M21.9375 6.75H25.3125V8.4375H21.9375V6.75Z" fill="#ffff"/>
<path d="M27 6.75H35.4375V8.4375H27V6.75Z" fill="#ffff"/>
<path d="M21.9375 15.1875H30.375V16.875H21.9375V15.1875Z" fill="#ffff"/>
<path d="M32.0625 15.1875H45.5625V16.875H32.0625V15.1875Z" fill="#ffff"/>
<path d="M21.9375 18.5625H35.4375V20.25H21.9375V18.5625Z" fill="#ffff"/>
<path d="M37.125 18.5625H45.5625V20.25H37.125V18.5625Z" fill="#ffff"/>
<path d="M25.3125 21.9375H45.5625V23.625H25.3125V21.9375Z" fill="#ffff"/>
<path d="M37.125 25.3125H45.5625V27H37.125V25.3125Z" fill="#ffff"/>
<path d="M37.125 28.6875H45.5625V30.375H37.125V28.6875Z" fill="#ffff"/>
<path d="M37.125 32.0625H45.5625V33.75H37.125V32.0625Z" fill="#ffff"/>
<path d="M37.125 35.4375H45.5625V37.125H37.125V35.4375Z" fill="#ffff"/>
<path d="M37.125 38.8125H45.5625V40.5H37.125V38.8125Z" fill="#ffff"/>
<path d="M27 42.1875H40.5V43.875H27V42.1875Z" fill="#ffff"/>
<path d="M42.1875 42.1875H45.5625V43.875H42.1875V42.1875Z" fill="#ffff"/>
<path d="M21.9375 45.5625H45.5625V47.25H21.9375V45.5625Z" fill="#ffff"/>
</svg>
