<svg width="54" height="54" viewBox="0 0 54 54" fill="none" xmlns="http://www.w3.org/2000/svg">
<path fill-rule="evenodd" clip-rule="evenodd" d="M46.4708 36.655H13.0562C9.25089 36.655 6.15433 39.7516 6.15433 43.5569C6.15433 47.3632 9.25089 50.4598 13.0562 50.4598H15.2289V48.2966H13.0562C10.4427 48.2966 8.31644 46.1704 8.31644 43.5569C8.31644 40.9434 10.4427 38.8171 13.0562 38.8171H46.4708C47.053 38.8171 47.5266 38.3446 47.5266 37.7624V37.7097C47.5255 37.1296 47.0519 36.655 46.4708 36.655ZM32.665 35.3852H34.2428L32.4603 32.9889C32.1555 32.5797 31.7073 32.354 31.1968 32.354H30.968C30.7665 31.062 29.9681 29.9641 28.866 29.3492V12.0291H34.7553C35.3428 12.0291 35.8237 12.1282 36.3637 12.3603C38.1293 13.1186 39.3812 13.6343 40.168 13.8759L34.6942 24.5788C34.6467 24.6716 34.6235 24.7739 34.6246 24.8773C34.6604 27.0721 36.4766 28.8577 38.6714 28.8577H43.5841C45.78 28.8577 47.5951 27.0721 47.631 24.8773C47.6331 24.7739 47.6088 24.6716 47.5614 24.5788L42.0179 13.7398C42.7436 13.319 43.2371 12.4942 43.2371 11.5461C43.2371 11.4807 43.235 11.4153 43.2298 11.3509C43.2044 11.0029 42.9018 10.7403 42.5537 10.7656C42.2046 10.7909 41.943 11.0936 41.9684 11.4427C41.9705 11.4764 41.9726 11.5113 41.9726 11.5461C41.9726 12.1746 41.5665 12.6925 41.0529 12.7611C41.0466 12.7621 41.0392 12.7621 41.0328 12.7632C41.0012 12.7663 40.9696 12.7695 40.9369 12.7695C40.4475 12.7368 37.8435 11.6188 36.8637 11.198C36.1655 10.8974 35.5158 10.7635 34.7564 10.7635H28.867V9.23945C29.9291 8.56551 30.6368 7.38004 30.6368 6.03215C30.6368 3.93859 28.9345 2.23633 26.841 2.23633C24.7474 2.23633 23.0452 3.93859 23.0452 6.03215C23.0452 7.38004 23.7528 8.56551 24.8149 9.23945V10.7645H18.9255C18.1662 10.7645 17.5154 10.8985 16.8183 11.198C15.8385 11.6199 13.2344 12.7379 12.7525 12.7695C12.7155 12.7695 12.6786 12.7674 12.6428 12.7632C12.6417 12.7632 12.6417 12.7632 12.6407 12.7632C12.1175 12.6978 11.7094 12.1778 11.7094 11.5471C11.7094 11.5123 11.7104 11.4775 11.7136 11.4438C11.7389 11.0946 11.4763 10.792 11.1282 10.7666C10.7812 10.7403 10.4764 11.0039 10.4511 11.352C10.4469 11.4163 10.4437 11.4817 10.4437 11.5471C10.4437 12.4953 10.9384 13.32 11.663 13.7409L6.11847 24.5799C6.07101 24.6727 6.04781 24.775 6.04886 24.8784C6.08472 27.0732 7.90089 28.8587 10.0957 28.8587H15.0084C17.2043 28.8587 19.0194 27.0732 19.0553 24.8784C19.0574 24.775 19.0331 24.6727 18.9857 24.5799L13.5118 13.8769C14.2976 13.6354 15.5495 13.1196 17.315 12.3613C17.855 12.1293 18.336 12.0302 18.9234 12.0302H24.8128V29.3502C23.7107 29.9651 22.9133 31.063 22.7119 32.355H22.483C21.9725 32.355 21.5243 32.5807 21.2195 32.99L19.4371 35.3862H21.0149H32.665V35.3852ZM27.6003 9.75098V28.8936C27.3535 28.8482 27.0994 28.8229 26.8399 28.8229C26.5805 28.8229 26.3263 28.8482 26.0795 28.8936V9.75098C26.3252 9.80055 26.5794 9.82797 26.8399 9.82797C27.1004 9.82691 27.3546 9.80055 27.6003 9.75098ZM26.8399 30.0875C28.2216 30.0875 29.3838 31.0588 29.6781 32.354H24.0007C24.296 31.0599 25.4583 30.0875 26.8399 30.0875ZM29.3701 6.03215C29.3701 7.42645 28.2353 8.56234 26.8399 8.56234C25.4446 8.56234 24.3097 7.42645 24.3097 6.03215C24.3097 4.6368 25.4446 3.50195 26.8399 3.50195C28.2353 3.5009 29.3701 4.6368 29.3701 6.03215ZM15.0084 27.5931H10.0957C8.80793 27.5931 7.7121 26.6998 7.40203 25.5017H17.7032C17.3931 26.6998 16.2962 27.5931 15.0084 27.5931ZM12.5521 14.7797L17.3889 24.2361H7.71527L12.5521 14.7797ZM36.2899 24.2361L41.1267 14.7797L45.9635 24.2361H36.2899ZM43.5831 27.5931H38.6703C37.3826 27.5931 36.2868 26.6998 35.9767 25.5017H46.2778C45.9677 26.6998 44.8709 27.5931 43.5831 27.5931ZM20.613 48.2977H46.4708C47.053 48.2977 47.5266 48.7712 47.5266 49.3534V49.4051C47.5266 49.9873 47.053 50.4609 46.4708 50.4609H20.613V48.2977ZM19.3474 51.2835L18.2611 50.5895C18.0533 50.4566 17.7875 50.4566 17.5798 50.5895L16.4934 51.2835V44.1907H19.3474V51.2835ZM44.7643 44.1907C44.8118 45.2138 44.9763 46.1852 45.2411 47.0321H20.613V44.1907H44.7643ZM45.2411 40.0838C44.9753 40.9318 44.8118 41.9031 44.7643 42.9251H12.3865C12.0374 42.9251 11.7537 43.2088 11.7537 43.5579C11.7537 43.9081 12.0374 44.1907 12.3865 44.1907H15.2278V47.0321H13.0552C11.1398 47.0321 9.58101 45.4743 9.58101 43.5579C9.58101 41.6426 11.1398 40.0838 13.0552 40.0838H45.2411Z" fill="#ffff"/>
</svg>
