<svg width="54" height="54" viewBox="0 0 54 54" fill="none" xmlns="http://www.w3.org/2000/svg">
<path d="M6.24833 49.2004H24.2185C24.7265 49.2004 25.2074 48.981 25.5404 48.598C25.8717 48.216 26.0208 47.7086 25.9493 47.208L25.6602 45.187C25.2963 42.6326 22.2121 41.8806 21.8673 41.8052C21.8673 41.8052 19.5042 41.2871 18.9153 41.1049C18.4281 40.9547 18.0338 40.6341 17.7711 40.219C18.7971 39.6683 19.583 38.7891 20.1336 37.7395H20.7861C21.4701 37.7395 22.1103 37.4374 22.5434 36.9098C22.9771 36.3816 23.1503 35.6959 23.0193 35.026C22.8303 34.063 22.0422 33.3452 21.0916 33.2153V31.6448C21.0916 30.4635 20.6309 29.3526 19.7956 28.5161C18.9603 27.6808 17.8493 27.2207 16.6664 27.2207H13.8016C12.6186 27.2207 11.5071 27.6808 10.6718 28.5161C9.83652 29.3526 9.3764 30.4635 9.3764 31.6448L9.37809 33.2153C8.42577 33.3446 7.63715 34.0624 7.44815 35.026C7.31765 35.6953 7.4909 36.3816 7.92458 36.9098C8.35771 37.438 8.9984 37.7395 9.68183 37.7395H10.3265C10.8771 38.7868 11.6652 39.6683 12.6957 40.2201C12.433 40.6346 12.0387 40.9547 11.5527 41.1049C10.9615 41.2871 8.60465 41.8041 8.60465 41.8041C8.25421 41.8811 5.17058 42.6338 4.80665 45.1858L4.51752 47.208C4.44608 47.7098 4.59515 48.2155 4.92702 48.598C5.2589 48.981 5.7404 49.2004 6.24833 49.2004ZM21.3638 35.3511C21.3976 35.5243 21.3526 35.7021 21.2395 35.8405C21.1287 35.9749 20.9633 36.0525 20.7861 36.0531C20.8863 35.6846 20.9622 35.3078 21.0168 34.9275C21.1906 35.0029 21.3256 35.1565 21.3638 35.3511ZM9.22733 35.8405C9.11427 35.7021 9.06871 35.5243 9.10302 35.3511C9.14071 35.1581 9.27346 35.0074 9.4439 34.9309C9.49677 35.3089 9.5744 35.6835 9.6734 36.0514C9.49902 36.0491 9.33646 35.9732 9.22733 35.8405ZM11.0622 34.2621V31.6453C11.0622 30.9242 11.3547 30.2183 11.8643 29.7092C12.3807 29.1923 13.0692 28.9076 13.801 28.9076H16.6658C17.3982 28.9076 18.0856 29.1917 18.602 29.7092C19.1116 30.2194 19.4046 30.9253 19.4046 31.6453L19.4069 34.1985C19.2213 36.664 17.8589 39.1502 15.2337 39.1502C12.6085 39.1502 11.2456 36.664 11.0622 34.2621ZM6.47615 45.4243C6.68371 43.9708 8.94552 43.4561 8.97365 43.4494C8.97365 43.4494 11.3913 42.919 12.05 42.7159C13.0529 42.4065 13.8449 41.7034 14.3101 40.755C14.606 40.8028 14.9103 40.836 15.2337 40.836C15.5549 40.836 15.8581 40.8034 16.1523 40.7561C16.6051 41.6865 17.4016 42.4031 18.418 42.7165C19.075 42.9184 21.4988 43.4511 21.4988 43.4511C21.5219 43.4567 23.7837 43.9714 23.9913 45.426L24.2191 47.5151L6.18702 47.4471L6.47615 45.4243Z" fill="#ffff"/>
<path d="M29.6372 49.2004H47.6074C48.1148 49.2004 48.5963 48.981 48.9287 48.598C49.26 48.216 49.4096 47.7098 49.3382 47.2069L49.0491 45.187C48.6846 42.6338 45.601 41.8806 45.2561 41.8052C45.2561 41.8052 42.8942 41.2871 42.3041 41.1049C41.817 40.9547 41.4221 40.6346 41.16 40.219C42.186 39.6683 42.9718 38.7891 43.5225 37.7395H44.175C44.859 37.7395 45.4991 37.4374 45.9323 36.9098C46.366 36.3816 46.5392 35.6959 46.4081 35.026C46.2191 34.063 45.4316 33.3452 44.4799 33.2153V31.6448C44.4799 30.4635 44.0198 29.3526 43.1845 28.5161C42.3491 27.6808 41.2376 27.2207 40.0553 27.2207H37.1899C36.0075 27.2207 34.896 27.6808 34.0607 28.5161C33.2254 29.3526 32.7653 30.4635 32.7653 31.6448L32.7664 33.2153C31.8146 33.3446 31.0266 34.0624 30.837 35.026C30.706 35.6953 30.8792 36.3816 31.3129 36.9098C31.746 37.438 32.3867 37.7395 33.0701 37.7395H33.7153C34.266 38.7868 35.0535 39.6683 36.084 40.2201C35.8219 40.6346 35.4276 40.9547 34.9416 41.1049C34.351 41.2871 31.9935 41.8041 31.9935 41.8041C31.6431 41.8811 28.5595 42.6326 28.195 45.1858L27.9064 47.2069C27.8344 47.7086 27.984 48.2155 28.3153 48.598C28.6478 48.981 29.1298 49.2004 29.6372 49.2004ZM44.7527 35.3511C44.7865 35.5243 44.7415 35.7021 44.6284 35.8405C44.517 35.9749 44.3516 36.0525 44.175 36.0531C44.2746 35.6846 44.3511 35.3078 44.4056 34.9275C44.5795 35.0029 44.715 35.1553 44.7527 35.3511ZM32.6162 35.8405C32.5031 35.7021 32.4581 35.5243 32.4919 35.3511C32.5296 35.1587 32.6623 35.008 32.8328 34.9315C32.8862 35.3095 32.9633 35.6841 33.0623 36.052C32.8885 36.0491 32.7259 35.9732 32.6162 35.8405ZM34.4511 34.2621V31.6453C34.4511 30.9253 34.743 30.2194 35.2532 29.7092C35.7696 29.1923 36.4575 28.9076 37.1893 28.9076H40.0547C40.7871 28.9076 41.4745 29.1917 41.9908 29.7092C42.5005 30.2183 42.793 30.9242 42.793 31.6453L42.7958 34.1985C42.6101 36.664 41.2478 39.1502 38.6226 39.1502C35.9974 39.1502 34.6339 36.664 34.4511 34.2621ZM29.8645 45.4243C30.072 43.9708 32.3344 43.4561 32.3625 43.4494C32.3625 43.4494 34.7807 42.9178 35.4388 42.7159C36.4401 42.4065 37.2315 41.7051 37.6978 40.7545C37.9943 40.8023 38.2986 40.8355 38.6226 40.8355C38.9438 40.8355 39.247 40.8028 39.5411 40.7556C39.9934 41.686 40.7905 42.4026 41.8069 42.7159C42.4645 42.919 44.8877 43.4505 44.8877 43.4505C44.9102 43.4561 47.1726 43.9708 47.3801 45.4255L47.5787 46.8143L47.608 47.5146L29.5759 47.4454L29.8645 45.4243Z" fill="#ffff"/>
<path d="M8.46186 19.5085H13.0648L17.4703 23.6378C17.7088 23.8605 18.0187 23.9781 18.3326 23.9781C18.5019 23.9781 18.6735 23.9443 18.8355 23.874C19.2967 23.6743 19.5943 23.2198 19.5943 22.717V19.5085H19.6978C21.8752 19.5085 23.646 17.7366 23.646 15.5603V8.74897C23.646 6.57209 21.8747 4.80078 19.6978 4.80078H8.46186C6.28442 4.80078 4.51367 6.57266 4.51367 8.74897V15.5603C4.51311 17.7372 6.28442 19.5085 8.46186 19.5085ZM6.19948 8.74897C6.19948 7.50191 7.21423 6.48659 8.46186 6.48659H19.6984C20.946 6.48659 21.9607 7.50191 21.9607 8.74897V15.5603C21.9607 16.8073 20.946 17.8227 19.6984 17.8227H18.7517C18.2859 17.8227 17.9085 18.2001 17.9085 18.6658V21.7382L13.9749 18.051C13.8185 17.9042 13.6121 17.8227 13.3984 17.8227H8.46186C7.21423 17.8227 6.19948 16.8073 6.19948 15.5603V8.74897Z" fill="#ffff"/>
<path d="M34.3144 19.5085H34.4185V22.717C34.4185 23.2198 34.7166 23.6743 35.1773 23.874C35.3393 23.9443 35.5097 23.9781 35.6796 23.9781C35.9935 23.9781 36.3034 23.8605 36.543 23.6367L40.948 19.5085H45.5503C47.7278 19.5085 49.4985 17.7366 49.4985 15.5603V8.74897C49.4985 6.57209 47.7272 4.80078 45.5503 4.80078H34.3144C32.137 4.80078 30.3662 6.57266 30.3662 8.74897V15.5603C30.3662 17.7372 32.1375 19.5085 34.3144 19.5085ZM32.0526 8.74897C32.0526 7.50191 33.0673 6.48659 34.315 6.48659H45.5515C46.7991 6.48659 47.8138 7.50191 47.8138 8.74897V15.5603C47.8138 16.8073 46.7991 17.8227 45.5515 17.8227H40.615C40.4006 17.8227 40.1953 17.9037 40.0384 18.051L36.1048 21.7382V18.6658C36.1048 18.2007 35.7274 17.8227 35.2616 17.8227H34.3144C33.0668 17.8227 32.052 16.8073 32.052 15.5603V8.74897H32.0526Z" fill="#ffff"/>
<path d="M10.1323 10.9823H16.8766C17.3424 10.9823 17.7198 10.6048 17.7198 10.1391C17.7198 9.67334 17.3429 9.2959 16.8766 9.2959H10.1323C9.66706 9.2959 9.28906 9.67334 9.28906 10.1391C9.28906 10.6048 9.6665 10.9823 10.1323 10.9823Z" fill="#ffff"/>
<path d="M10.1323 14.3553H14.1789C14.6441 14.3553 15.0221 13.9779 15.0221 13.5121C15.0221 13.0469 14.6446 12.6689 14.1789 12.6689H10.1323C9.66706 12.6689 9.28906 13.0464 9.28906 13.5121C9.28906 13.9779 9.6665 14.3553 10.1323 14.3553Z" fill="#ffff"/>
<path d="M37.0898 15.2317C37.2547 15.3965 37.4701 15.4786 37.6861 15.4786C37.9021 15.4786 38.1175 15.3965 38.2824 15.2317L39.9344 13.5796L41.5865 15.2317C41.7513 15.3965 41.9667 15.4786 42.1827 15.4786C42.3987 15.4786 42.6142 15.3965 42.779 15.2317C43.108 14.9026 43.108 14.3688 42.779 14.0397L41.1269 12.3877L42.779 10.7356C43.108 10.4065 43.108 9.87273 42.779 9.54367C42.4499 9.21461 41.9161 9.21461 41.587 9.54367L39.935 11.1957L38.2829 9.54367C37.9539 9.21461 37.42 9.21461 37.091 9.54367C36.7619 9.87273 36.7619 10.4065 37.091 10.7356L38.743 12.3877L37.091 14.0397C36.7602 14.3694 36.7602 14.9026 37.0898 15.2317Z" fill="#ffff"/>
</svg>
