<svg width="54" height="54" viewBox="0 0 54 54" fill="none" xmlns="http://www.w3.org/2000/svg">
<path d="M28.3149 52.4687C27.9401 52.4694 27.5695 52.3887 27.2289 52.2322H4.61905C3.82346 52.2312 3.06073 51.9148 2.49816 51.3522C1.9356 50.7896 1.61913 50.0269 1.61817 49.2313V7.56703C1.61695 6.76926 1.9322 6.00356 2.49477 5.4379C3.05733 4.87224 3.82128 4.5528 4.61905 4.54963L4.66849 4.51667C4.6693 3.7254 4.98399 2.96676 5.5435 2.40724C6.10302 1.84772 6.86166 1.53303 7.65294 1.53223H33.8109C34.6043 1.531 35.3658 1.84452 35.9284 2.404C36.4909 2.96349 36.8087 3.72326 36.8118 4.51667V34.3478H39.2211C39.8787 34.3592 40.5081 34.617 40.9847 35.0701C41.4614 35.5233 41.7506 36.1389 41.7952 36.7951C41.8397 37.4512 41.6364 38.1003 41.2253 38.6137C40.8143 39.1271 40.2255 39.4676 39.5755 39.5677V41.0961H50.068C50.6769 41.1015 51.2593 41.3466 51.6887 41.7784C52.1181 42.2103 52.3601 42.7939 52.362 43.4029C52.364 44.0119 52.1258 44.5972 51.6991 45.0317C51.2725 45.4663 50.6917 45.7152 50.0828 45.7244H39.5754V47.2652C40.2248 47.3634 40.8136 47.7023 41.2247 48.2145C41.6359 48.7267 41.8394 49.3748 41.7947 50.0301C41.7501 50.6855 41.4607 51.3 40.9838 51.7518C40.507 52.2035 39.8778 52.4594 39.221 52.4686L28.3149 52.4687ZM27.9046 50.6848C28.0326 50.7482 28.1736 50.7812 28.3166 50.7812H39.2211C39.4667 50.7812 39.7023 50.6836 39.8759 50.5099C40.0496 50.3362 40.1472 50.1007 40.1472 49.855C40.1472 49.6094 40.0496 49.3738 39.8759 49.2001C39.7023 49.0265 39.4667 48.9289 39.2211 48.9289H28.3759C28.1784 48.9228 27.9837 48.9765 27.8173 49.083L27.8156 49.0838C27.6818 49.1743 27.5737 49.2979 27.5019 49.4426C27.4301 49.5873 27.3971 49.7482 27.4061 49.9095C27.415 50.0708 27.4657 50.227 27.553 50.3629C27.6404 50.4988 27.7615 50.6097 27.9046 50.6848ZM4.61905 6.23713C4.26869 6.23985 3.9337 6.38136 3.6875 6.63065C3.44131 6.87994 3.30398 7.21667 3.30563 7.56703V49.2313C3.30615 49.5795 3.44469 49.9132 3.69089 50.1594C3.93709 50.4056 4.27087 50.5442 4.61905 50.5447H25.7936C25.6756 50.1043 25.6727 49.641 25.7853 49.1992H7.65294C6.85936 49.1961 6.09941 48.8783 5.53989 48.3156C4.98036 47.7528 4.66697 46.991 4.66849 46.1975L4.61905 6.23713ZM6.35599 46.1975C6.35307 46.3694 6.3845 46.5402 6.44842 46.6998C6.51235 46.8595 6.60749 47.0047 6.72828 47.1271C6.84907 47.2495 6.99307 47.3466 7.15184 47.4126C7.31062 47.4787 7.48098 47.5123 7.65294 47.5117H27.1597C27.4122 47.3886 27.6825 47.306 27.9606 47.267V39.5678C27.3102 39.468 26.7209 39.1275 26.3096 38.6138C25.8982 38.1002 25.6948 37.4508 25.7396 36.7942C25.7844 36.1377 26.0741 35.5219 26.5514 35.0688C27.0287 34.6158 27.6587 34.3585 28.3167 34.3479H35.1243V4.51667C35.1216 4.17068 34.9818 3.83988 34.7356 3.59677C34.4894 3.35366 34.1568 3.21807 33.8108 3.21973H7.65294C7.48211 3.2179 7.31264 3.2502 7.15446 3.31473C6.99628 3.37926 6.85258 3.47472 6.73178 3.59552C6.61098 3.71632 6.51552 3.86002 6.45099 4.0182C6.38646 4.17638 6.35416 4.34585 6.35599 4.51667V46.1975ZM29.6481 47.2414H37.8879V39.5917H29.6481V47.2414ZM39.5754 44.037H50.0678C50.2315 44.0321 50.3867 43.9633 50.5003 43.8455C50.6139 43.7276 50.6769 43.57 50.6759 43.4063C50.6748 43.2425 50.6097 43.0858 50.4945 42.9694C50.3793 42.8531 50.2232 42.7864 50.0595 42.7836H39.5754V44.037ZM38.7316 37.9042H39.221C39.4641 37.8971 39.695 37.7956 39.8645 37.6212C40.034 37.4467 40.1288 37.213 40.1288 36.9698C40.1288 36.7265 40.034 36.4928 39.8645 36.3184C39.695 36.1439 39.4641 36.0424 39.221 36.0354H28.3166C28.071 36.0356 27.8356 36.1332 27.6619 36.3069C27.4883 36.4805 27.3906 36.716 27.3904 36.9615C27.3939 37.2076 27.492 37.4429 27.6645 37.6185C27.837 37.7941 28.0706 37.8964 28.3166 37.9042L38.7316 37.9042ZM30.7984 32.9891H10.667C10.4462 32.9847 10.2359 32.8939 10.0812 32.7361C9.9266 32.5784 9.83999 32.3663 9.83999 32.1454C9.83999 31.9245 9.9266 31.7124 10.0812 31.5546C10.2359 31.3969 10.4462 31.306 10.667 31.3016H30.7984C31.0193 31.306 31.2296 31.3969 31.3842 31.5546C31.5389 31.7124 31.6255 31.9245 31.6255 32.1454C31.6255 32.3663 31.5389 32.5784 31.3842 32.7361C31.2296 32.8939 31.0193 32.9847 30.7984 32.9891ZM30.7984 28.5949H10.667C10.446 28.5907 10.2355 28.4999 10.0807 28.3421C9.92587 28.1844 9.83914 27.9722 9.83914 27.7511C9.83914 27.5301 9.92587 27.3178 10.0807 27.1601C10.2355 27.0023 10.446 26.9116 10.667 26.9074H30.7983C31.0191 26.9119 31.2293 27.0027 31.3839 27.1605C31.5384 27.3182 31.625 27.5302 31.625 27.7511C31.625 27.9719 31.5385 28.1839 31.3839 28.3417C31.2294 28.4994 31.0192 28.5903 30.7984 28.5949ZM30.7984 24.1998H10.667C10.4462 24.1954 10.2359 24.1045 10.0812 23.9468C9.9266 23.789 9.83999 23.5769 9.83999 23.356C9.83999 23.1351 9.9266 22.923 10.0812 22.7653C10.2359 22.6075 10.4462 22.5167 10.667 22.5123H30.7984C31.0192 22.5168 31.2294 22.6077 31.3839 22.7654C31.5385 22.9232 31.625 23.1352 31.625 23.356C31.625 23.5769 31.5385 23.7889 31.3839 23.9466C31.2294 24.1044 31.0192 24.1953 30.7984 24.1998ZM27.1021 19.8047H14.3601C13.8099 19.7989 13.2769 19.6126 12.8429 19.2743C12.409 18.9361 12.0982 18.4646 11.9583 17.9325C11.8184 17.4004 11.8573 16.837 12.0688 16.3291C12.2803 15.8212 12.6528 15.3968 13.1291 15.1212C13.2242 13.6138 13.7692 12.1695 14.6937 10.975C15.6182 9.78052 16.8797 8.89075 18.3152 8.42069C18.473 7.90372 18.7927 7.4511 19.2271 7.12947C19.6615 6.80784 20.1878 6.63419 20.7283 6.6341C21.2688 6.63401 21.7951 6.80747 22.2296 7.12896C22.6642 7.45044 22.984 7.90295 23.142 8.41986C24.5777 8.89085 25.8394 9.78095 26.7645 10.9755C27.6897 12.17 28.236 13.6142 28.333 15.1221C28.8097 15.3972 29.1827 15.8215 29.3945 16.3295C29.6064 16.8375 29.6453 17.401 29.5054 17.9334C29.3655 18.4657 29.0544 18.9372 28.6201 19.2754C28.1858 19.6135 27.6524 19.7995 27.1021 19.8047ZM14.136 16.5154C13.9489 16.5716 13.788 16.6929 13.6825 16.8575C13.577 17.022 13.5339 17.2189 13.561 17.4125C13.5881 17.606 13.6836 17.7835 13.8302 17.9127C13.9768 18.042 14.1648 18.1145 14.3602 18.1172H27.1021C27.2108 18.1184 27.3186 18.0979 27.4193 18.0569C27.52 18.0159 27.6114 17.9552 27.6883 17.8784C27.7652 17.8015 27.826 17.7101 27.8671 17.6095C27.9082 17.5089 27.9288 17.4011 27.9277 17.2924C27.8737 16.5405 27.2673 16.4457 26.5484 16.4841C25.8785 16.4808 22.8315 16.4906 22.3774 16.4841C20.0102 16.5102 16.5928 16.433 14.136 16.5154ZM26.349 14.7966H26.5995C26.4625 13.8218 26.0837 12.8969 25.4976 12.106C24.9116 11.3152 24.1369 10.6836 23.2442 10.2689V14.7966C24.3994 14.7949 25.6978 14.7852 26.349 14.7966ZM19.9072 14.7966H21.5568V9.08396C21.5521 8.97749 21.5263 8.87302 21.4808 8.77663C21.4354 8.68023 21.3713 8.59382 21.2921 8.52244C21.213 8.45106 21.1205 8.39612 21.0199 8.36082C20.9194 8.32553 20.8128 8.31057 20.7064 8.31684C20.6012 8.31157 20.496 8.32819 20.3975 8.36565C20.2991 8.40311 20.2094 8.4606 20.1343 8.53448C20.0592 8.60837 20.0002 8.69703 19.9611 8.79487C19.922 8.89271 19.9037 8.9976 19.9072 9.10291V14.7966ZM17.778 14.7966H18.2197C18.2197 12.4705 18.218 11.0895 18.2197 10.268C17.3241 10.6798 16.5466 11.3105 15.9591 12.102C15.3715 12.8934 14.9928 13.8201 14.8579 14.7966C15.701 14.7914 16.4424 14.7889 17.778 14.7966Z" fill="#ffff"/>
</svg>
