<svg width="215" height="366" viewBox="0 0 215 366" fill="none" xmlns="http://www.w3.org/2000/svg">
<path d="M214.035 39.8626V281.513C214.035 281.749 214.035 281.906 213.984 282.142C213.984 282.77 213.984 283.281 213.934 283.674C213.883 284.067 213.782 284.46 213.732 284.696C213.681 285.128 213.58 285.599 213.53 285.835C213.479 286.228 213.328 286.66 213.227 287.053L213.075 287.407L212.873 288.036C212.722 288.468 212.52 288.939 212.369 289.332L211.863 290.354C211.662 290.786 211.359 291.179 211.207 291.533C211.005 291.808 210.854 292.083 210.652 292.358C210.45 292.633 210.198 292.986 209.844 293.419V293.537L209.693 293.654C209.541 293.812 209.39 294.008 209.238 294.205C208.885 294.637 208.532 295.03 207.926 295.54L207.623 295.894L207.471 296.051C206.815 296.68 206.159 297.269 205.452 297.78L127.853 359.038C122.451 363.36 114.928 365.835 107.204 365.835C99.4795 365.835 91.9065 363.36 86.5044 359.038L8.90586 297.78L8.55241 297.505L8.4008 297.387C7.89593 296.955 7.44176 296.562 7.03786 296.091C6.68445 295.816 6.38152 295.54 6.07859 295.187C5.87665 294.912 5.57355 294.676 5.27063 294.283C4.96771 294.008 4.76589 293.733 4.46297 293.34L4.31136 293.104V292.986C4.00844 292.751 3.85705 292.554 3.75608 292.318C3.55413 292.043 3.40264 291.808 3.09972 291.297V291.179L2.89789 290.904L2.74628 290.668L2.59498 290.393L2.44337 290.157C2.29191 289.882 2.14057 289.529 1.93862 289.136V288.782C1.73667 288.546 1.63566 288.35 1.58517 288.114C1.43371 287.878 1.38324 287.603 1.28226 287.289L1.13065 286.935V286.7C0.979193 286.464 0.928669 286.189 0.777208 285.757C0.726721 285.403 0.625907 285.01 0.625907 284.735C0.57542 284.381 0.474557 283.988 0.42407 283.556C0.373583 282.888 0.272461 282.142 0.272461 281.434V39.8233C0.272461 18.2123 22.6381 0.648438 50.0526 0.648438H58.686V46.5817L58.6355 272.004L107.153 310.275L155.571 272.004V0.648438H164.204C191.618 0.648438 213.984 18.2123 213.984 39.8233L214.035 39.8626Z" fill="#002F87" fill-opacity="0.02"/>
</svg>
